%TF.GenerationSoftware,KiCad,Pcbnew,8.0.2*%
%TF.CreationDate,2024-12-26T16:13:31-05:00*%
%TF.ProjectId,TOF Sensor,544f4620-5365-46e7-936f-722e6b696361,rev?*%
%TF.SameCoordinates,Original*%
%TF.FileFunction,Copper,L1,Top*%
%TF.FilePolarity,Positive*%
%FSLAX46Y46*%
G04 Gerber Fmt 4.6, Leading zero omitted, Abs format (unit mm)*
G04 Created by KiCad (PCBNEW 8.0.2) date 2024-12-26 16:13:31*
%MOMM*%
%LPD*%
G01*
G04 APERTURE LIST*
G04 Aperture macros list*
%AMRoundRect*
0 Rectangle with rounded corners*
0 $1 Rounding radius*
0 $2 $3 $4 $5 $6 $7 $8 $9 X,Y pos of 4 corners*
0 Add a 4 corners polygon primitive as box body*
4,1,4,$2,$3,$4,$5,$6,$7,$8,$9,$2,$3,0*
0 Add four circle primitives for the rounded corners*
1,1,$1+$1,$2,$3*
1,1,$1+$1,$4,$5*
1,1,$1+$1,$6,$7*
1,1,$1+$1,$8,$9*
0 Add four rect primitives between the rounded corners*
20,1,$1+$1,$2,$3,$4,$5,0*
20,1,$1+$1,$4,$5,$6,$7,0*
20,1,$1+$1,$6,$7,$8,$9,0*
20,1,$1+$1,$8,$9,$2,$3,0*%
G04 Aperture macros list end*
%TA.AperFunction,SMDPad,CuDef*%
%ADD10RoundRect,0.200000X-0.275000X0.200000X-0.275000X-0.200000X0.275000X-0.200000X0.275000X0.200000X0*%
%TD*%
%TA.AperFunction,SMDPad,CuDef*%
%ADD11RoundRect,0.062500X0.062500X-0.127500X0.062500X0.127500X-0.062500X0.127500X-0.062500X-0.127500X0*%
%TD*%
%TA.AperFunction,SMDPad,CuDef*%
%ADD12RoundRect,0.125000X0.125000X-0.125000X0.125000X0.125000X-0.125000X0.125000X-0.125000X-0.125000X0*%
%TD*%
%TA.AperFunction,ComponentPad*%
%ADD13RoundRect,0.250000X-0.725000X0.600000X-0.725000X-0.600000X0.725000X-0.600000X0.725000X0.600000X0*%
%TD*%
%TA.AperFunction,ComponentPad*%
%ADD14O,1.950000X1.700000*%
%TD*%
%TA.AperFunction,SMDPad,CuDef*%
%ADD15RoundRect,0.250000X-0.650000X0.325000X-0.650000X-0.325000X0.650000X-0.325000X0.650000X0.325000X0*%
%TD*%
%TA.AperFunction,SMDPad,CuDef*%
%ADD16RoundRect,0.250000X-1.100000X0.325000X-1.100000X-0.325000X1.100000X-0.325000X1.100000X0.325000X0*%
%TD*%
%TA.AperFunction,SMDPad,CuDef*%
%ADD17C,1.000000*%
%TD*%
%TA.AperFunction,SMDPad,CuDef*%
%ADD18RoundRect,0.150000X0.150000X-0.512500X0.150000X0.512500X-0.150000X0.512500X-0.150000X-0.512500X0*%
%TD*%
%TA.AperFunction,SMDPad,CuDef*%
%ADD19RoundRect,0.200000X0.275000X-0.200000X0.275000X0.200000X-0.275000X0.200000X-0.275000X-0.200000X0*%
%TD*%
%TA.AperFunction,SMDPad,CuDef*%
%ADD20RoundRect,0.135000X-0.135000X-0.185000X0.135000X-0.185000X0.135000X0.185000X-0.135000X0.185000X0*%
%TD*%
%TA.AperFunction,SMDPad,CuDef*%
%ADD21RoundRect,0.218750X-0.218750X-0.256250X0.218750X-0.256250X0.218750X0.256250X-0.218750X0.256250X0*%
%TD*%
%TA.AperFunction,SMDPad,CuDef*%
%ADD22RoundRect,0.225000X-0.375000X0.225000X-0.375000X-0.225000X0.375000X-0.225000X0.375000X0.225000X0*%
%TD*%
%TA.AperFunction,SMDPad,CuDef*%
%ADD23RoundRect,0.135000X-0.185000X0.135000X-0.185000X-0.135000X0.185000X-0.135000X0.185000X0.135000X0*%
%TD*%
%TA.AperFunction,ViaPad*%
%ADD24C,0.600000*%
%TD*%
%TA.AperFunction,Conductor*%
%ADD25C,0.500000*%
%TD*%
%TA.AperFunction,Conductor*%
%ADD26C,0.600000*%
%TD*%
%TA.AperFunction,Conductor*%
%ADD27C,0.200000*%
%TD*%
%TA.AperFunction,Conductor*%
%ADD28C,0.635000*%
%TD*%
%TA.AperFunction,Conductor*%
%ADD29C,0.550000*%
%TD*%
G04 APERTURE END LIST*
D10*
%TO.P,R1,1*%
%TO.N,3V3*%
X117000000Y-52175000D03*
%TO.P,R1,2*%
%TO.N,/I2C.SDA*%
X117000000Y-53825000D03*
%TD*%
D11*
%TO.P,U1,1,AVDDVCSEL*%
%TO.N,3V3*%
X112325000Y-56740000D03*
D12*
X112200000Y-56600000D03*
%TO.P,U1,2,AVSSVCSEL*%
%TO.N,GND*%
X112200000Y-55800000D03*
%TO.P,U1,3,GND*%
X112200000Y-55000000D03*
%TO.P,U1,4,GND*%
X112200000Y-54200000D03*
%TO.P,U1,5,XSHUT*%
%TO.N,Net-(U1-XSHUT)*%
X112200000Y-53400000D03*
%TO.P,U1,6,GND*%
%TO.N,GND*%
X113000000Y-53400000D03*
%TO.P,U1,7,GPIO1*%
%TO.N,unconnected-(U1-GPIO1-Pad7)*%
X113800000Y-53400000D03*
%TO.P,U1,8,DNC*%
%TO.N,unconnected-(U1-DNC-Pad8)*%
X113800000Y-54200000D03*
%TO.P,U1,9,SDA*%
%TO.N,/I2C.SDA*%
X113800000Y-55000000D03*
%TO.P,U1,10,SCL*%
%TO.N,/I2C.SCL*%
X113800000Y-55800000D03*
%TO.P,U1,11,AVDD*%
%TO.N,3V3*%
X113800000Y-56600000D03*
%TO.P,U1,12,GND*%
%TO.N,GND*%
X113000000Y-56600000D03*
%TD*%
D13*
%TO.P,J1,1,Pin_1*%
%TO.N,VIN_TOF*%
X130000000Y-51500000D03*
D14*
%TO.P,J1,2,Pin_2*%
%TO.N,/I2C.SDA*%
X130000000Y-54000000D03*
%TO.P,J1,3,Pin_3*%
%TO.N,/I2C.SCL*%
X130000000Y-56500000D03*
%TO.P,J1,4,Pin_4*%
%TO.N,GND*%
X130000000Y-59000000D03*
%TD*%
D15*
%TO.P,C2,1*%
%TO.N,3V3*%
X111000000Y-59525000D03*
%TO.P,C2,2*%
%TO.N,GND*%
X111000000Y-62475000D03*
%TD*%
D16*
%TO.P,C1,1*%
%TO.N,3V3*%
X114000000Y-59525000D03*
%TO.P,C1,2*%
%TO.N,GND*%
X114000000Y-62475000D03*
%TD*%
D17*
%TO.P,TP3,1,1*%
%TO.N,/I2C.SDA*%
X124000000Y-53000000D03*
%TD*%
D18*
%TO.P,Q1,1,D*%
%TO.N,3V3*%
X117050000Y-48137500D03*
%TO.P,Q1,2,G*%
%TO.N,Net-(D2-A)*%
X118950000Y-48137500D03*
%TO.P,Q1,3,S*%
%TO.N,VIN_TOF*%
X118000000Y-45862500D03*
%TD*%
D17*
%TO.P,TP2,1,1*%
%TO.N,3V3*%
X114000000Y-46000000D03*
%TD*%
D19*
%TO.P,R2,1*%
%TO.N,3V3*%
X117000000Y-58825000D03*
%TO.P,R2,2*%
%TO.N,/I2C.SCL*%
X117000000Y-57175000D03*
%TD*%
D20*
%TO.P,R4,1*%
%TO.N,Net-(D1-A)*%
X113490000Y-48000000D03*
%TO.P,R4,2*%
%TO.N,3V3*%
X114510000Y-48000000D03*
%TD*%
D17*
%TO.P,TP5,1,1*%
%TO.N,GND*%
X121000000Y-61000000D03*
%TD*%
D21*
%TO.P,D1,1,K*%
%TO.N,GND*%
X110212500Y-48000000D03*
%TO.P,D1,2,A*%
%TO.N,Net-(D1-A)*%
X111787500Y-48000000D03*
%TD*%
D10*
%TO.P,R3,1*%
%TO.N,3V3*%
X110000000Y-51175000D03*
%TO.P,R3,2*%
%TO.N,Net-(U1-XSHUT)*%
X110000000Y-52825000D03*
%TD*%
D17*
%TO.P,TP1,1,1*%
%TO.N,VIN_TOF*%
X125000000Y-48000000D03*
%TD*%
D22*
%TO.P,D2,1,K*%
%TO.N,VIN_TOF*%
X122000000Y-47350000D03*
%TO.P,D2,2,A*%
%TO.N,Net-(D2-A)*%
X122000000Y-50650000D03*
%TD*%
D23*
%TO.P,R5,1*%
%TO.N,Net-(D2-A)*%
X119000000Y-50490000D03*
%TO.P,R5,2*%
%TO.N,GND*%
X119000000Y-51510000D03*
%TD*%
D17*
%TO.P,TP4,1,1*%
%TO.N,/I2C.SCL*%
X124000000Y-58000000D03*
%TD*%
D24*
%TO.N,3V3*%
X111000000Y-57000000D03*
X115500000Y-49500000D03*
%TO.N,GND*%
X126000000Y-44000000D03*
X124000000Y-63000000D03*
X118000000Y-66000000D03*
X108000000Y-47000000D03*
X108000000Y-63000000D03*
X128000000Y-61000000D03*
X102000000Y-46000000D03*
X124000000Y-40000000D03*
X132000000Y-51000000D03*
X122000000Y-64000000D03*
X128000000Y-59000000D03*
X115000000Y-57000000D03*
X108000000Y-51000000D03*
X110000000Y-66000000D03*
X134000000Y-52000000D03*
X132000000Y-47000000D03*
X115000000Y-70000000D03*
X102000000Y-54000000D03*
X114000000Y-64000000D03*
X132000000Y-61000000D03*
X121000000Y-70000000D03*
X106000000Y-40000000D03*
X124000000Y-47000000D03*
X126000000Y-62000000D03*
X118000000Y-62000000D03*
X127000000Y-55000000D03*
X108000000Y-55000000D03*
X134000000Y-48000000D03*
X110000000Y-56000000D03*
X126000000Y-58000000D03*
X121000000Y-40000000D03*
X127000000Y-40000000D03*
X115000000Y-40000000D03*
X134000000Y-66000000D03*
X126000000Y-64000000D03*
X118000000Y-56000000D03*
X108000000Y-61000000D03*
X134000000Y-64000000D03*
X113000000Y-52000000D03*
X102000000Y-56000000D03*
X134000000Y-58000000D03*
X124000000Y-51000000D03*
X105000000Y-62000000D03*
X116000000Y-42000000D03*
X128000000Y-68000000D03*
X110000000Y-44000000D03*
X112000000Y-70000000D03*
X132000000Y-55000000D03*
X102000000Y-44000000D03*
X128000000Y-56000000D03*
X124000000Y-45000000D03*
X102000000Y-58000000D03*
X119000000Y-53000000D03*
X124000000Y-65000000D03*
X105000000Y-60000000D03*
X118000000Y-70000000D03*
X132000000Y-59000000D03*
X115000000Y-52000000D03*
X116000000Y-63000000D03*
X109000000Y-40000000D03*
X132000000Y-57000000D03*
X132000000Y-49000000D03*
X120000000Y-65000000D03*
X118000000Y-40000000D03*
X125000000Y-55000000D03*
X116000000Y-45000000D03*
X121000000Y-55000000D03*
X122000000Y-66000000D03*
X119000000Y-55000000D03*
X108000000Y-49000000D03*
X102000000Y-66000000D03*
X102000000Y-50000000D03*
X120000000Y-42000000D03*
X114000000Y-44000000D03*
X134000000Y-50000000D03*
X134000000Y-44000000D03*
X116000000Y-68000000D03*
X132000000Y-63000000D03*
X103000000Y-41000000D03*
X114000000Y-66000000D03*
X124000000Y-70000000D03*
X134000000Y-60000000D03*
X130000000Y-70000000D03*
X112000000Y-50000000D03*
X134000000Y-62000000D03*
X120000000Y-45000000D03*
X128000000Y-53000000D03*
X105000000Y-50000000D03*
X120000000Y-59000000D03*
X124000000Y-42000000D03*
X116000000Y-53000000D03*
X124000000Y-68000000D03*
X106000000Y-70000000D03*
X120000000Y-63000000D03*
X126000000Y-46000000D03*
X105000000Y-58000000D03*
X105000000Y-48000000D03*
X128000000Y-63000000D03*
X105000000Y-52000000D03*
X105000000Y-56000000D03*
X109000000Y-70000000D03*
X120000000Y-68000000D03*
X134000000Y-46000000D03*
X127000000Y-70000000D03*
X108000000Y-53000000D03*
X108000000Y-57000000D03*
X122000000Y-58000000D03*
X118000000Y-64000000D03*
X116000000Y-61000000D03*
X122000000Y-44000000D03*
X124000000Y-61000000D03*
X115000000Y-54000000D03*
X133000000Y-69000000D03*
X102000000Y-60000000D03*
X102000000Y-52000000D03*
X128000000Y-47000000D03*
X118000000Y-60000000D03*
X102000000Y-62000000D03*
X117000000Y-55000000D03*
X124000000Y-56000000D03*
X123000000Y-55000000D03*
X134000000Y-54000000D03*
X126000000Y-66000000D03*
X126000000Y-48000000D03*
X111000000Y-64000000D03*
X134000000Y-56000000D03*
X133000000Y-41000000D03*
X121000000Y-53000000D03*
X103000000Y-69000000D03*
X102000000Y-48000000D03*
X130000000Y-48000000D03*
X102000000Y-64000000D03*
X112000000Y-68000000D03*
X114000000Y-49000000D03*
X130000000Y-62000000D03*
X122000000Y-56000000D03*
X126000000Y-60000000D03*
X116000000Y-51000000D03*
X105000000Y-54000000D03*
X112000000Y-45000000D03*
X130000000Y-40000000D03*
X122000000Y-46000000D03*
X126000000Y-56000000D03*
X112000000Y-42000000D03*
X120000000Y-56000000D03*
X118000000Y-44000000D03*
X110000000Y-46000000D03*
X112000000Y-40000000D03*
X116000000Y-65000000D03*
X132000000Y-53000000D03*
%TD*%
D25*
%TO.N,3V3*%
X117050000Y-48450000D02*
X117050000Y-48137500D01*
X114000000Y-46000000D02*
X114510000Y-46510000D01*
X114510000Y-46510000D02*
X114510000Y-48000000D01*
X116043750Y-49500000D02*
X117050000Y-48493750D01*
X117050000Y-48137500D02*
X116912500Y-48000000D01*
X111000000Y-59525000D02*
X114000000Y-59525000D01*
X113800000Y-56600000D02*
X113800000Y-59325000D01*
D26*
X117050000Y-52125000D02*
X117050000Y-48137500D01*
D25*
X115500000Y-49500000D02*
X116043750Y-49500000D01*
X111000000Y-57000000D02*
X111000000Y-59525000D01*
X117000000Y-52175000D02*
X117050000Y-52125000D01*
X115500000Y-49500000D02*
X113825000Y-51175000D01*
X117050000Y-48493750D02*
X117050000Y-48137500D01*
X116300000Y-59525000D02*
X117000000Y-58825000D01*
X114000000Y-59525000D02*
X116300000Y-59525000D01*
X116912500Y-48000000D02*
X114510000Y-48000000D01*
X113800000Y-59325000D02*
X114000000Y-59525000D01*
X113825000Y-51175000D02*
X110000000Y-51175000D01*
X112200000Y-58325000D02*
X111000000Y-59525000D01*
X112200000Y-56600000D02*
X112200000Y-58325000D01*
D27*
%TO.N,Net-(D1-A)*%
X113490000Y-48000000D02*
X111787500Y-48000000D01*
D25*
%TO.N,VIN_TOF*%
X120512500Y-45862500D02*
X122000000Y-47350000D01*
D27*
X122000000Y-47000000D02*
X122000000Y-47350000D01*
D28*
X130000000Y-51500000D02*
X126150000Y-51500000D01*
D25*
X118000000Y-45862500D02*
X120512500Y-45862500D01*
X125000000Y-48000000D02*
X123825000Y-49175000D01*
D28*
X126150000Y-51500000D02*
X123825000Y-49175000D01*
X123825000Y-49175000D02*
X122000000Y-47350000D01*
D25*
%TO.N,Net-(D2-A)*%
X120100000Y-50650000D02*
X122000000Y-50650000D01*
X119000000Y-48187500D02*
X118950000Y-48137500D01*
D26*
X118950000Y-50440000D02*
X118950000Y-48337500D01*
D25*
X119000000Y-50490000D02*
X119940000Y-50490000D01*
X119940000Y-50490000D02*
X120100000Y-50650000D01*
D29*
X119000000Y-50490000D02*
X118950000Y-50440000D01*
D25*
%TO.N,/I2C.SCL*%
X130000000Y-56500000D02*
X128560661Y-56500000D01*
X127885661Y-57175000D02*
X117000000Y-57175000D01*
X113800000Y-55800000D02*
X115625000Y-55800000D01*
D27*
X124000000Y-58000000D02*
X124000000Y-57050000D01*
D25*
X128560661Y-56500000D02*
X127885661Y-57175000D01*
X115625000Y-55800000D02*
X117000000Y-57175000D01*
%TO.N,/I2C.SDA*%
X117375000Y-53825000D02*
X117550000Y-54000000D01*
X117550000Y-54000000D02*
X130000000Y-54000000D01*
D27*
X124000000Y-53000000D02*
X124000000Y-54000000D01*
D25*
X115825000Y-55000000D02*
X117000000Y-53825000D01*
X113800000Y-55000000D02*
X115825000Y-55000000D01*
X117000000Y-53825000D02*
X117375000Y-53825000D01*
%TO.N,Net-(U1-XSHUT)*%
X112200000Y-53400000D02*
X110575000Y-53400000D01*
X110575000Y-53400000D02*
X110000000Y-52825000D01*
%TD*%
%TA.AperFunction,Conductor*%
%TO.N,GND*%
G36*
X114621677Y-54549500D02*
G01*
X114295620Y-54549500D01*
X114243294Y-54527826D01*
X114221620Y-54475500D01*
X114228553Y-54444227D01*
X114231414Y-54438089D01*
X114244259Y-54410545D01*
X114250500Y-54363139D01*
X114250499Y-54036862D01*
X114244259Y-53989455D01*
X114195747Y-53885421D01*
X114162652Y-53852326D01*
X114140978Y-53800000D01*
X114162652Y-53747674D01*
X114195747Y-53714579D01*
X114244259Y-53610545D01*
X114250500Y-53563139D01*
X114250499Y-53236862D01*
X114244259Y-53189455D01*
X114195747Y-53085421D01*
X114114579Y-53004253D01*
X114010545Y-52955741D01*
X114010543Y-52955740D01*
X113975619Y-52951142D01*
X113963139Y-52949500D01*
X113963137Y-52949500D01*
X113636862Y-52949500D01*
X113589456Y-52955740D01*
X113589454Y-52955741D01*
X113485420Y-53004253D01*
X113404253Y-53085420D01*
X113355740Y-53189456D01*
X113349500Y-53236862D01*
X113349500Y-53563137D01*
X113355740Y-53610543D01*
X113355741Y-53610545D01*
X113404253Y-53714579D01*
X113437348Y-53747674D01*
X113459022Y-53800000D01*
X113437348Y-53852326D01*
X113404253Y-53885420D01*
X113355740Y-53989456D01*
X113349500Y-54036862D01*
X113349500Y-54363137D01*
X113355740Y-54410543D01*
X113355741Y-54410545D01*
X113404253Y-54514579D01*
X113437348Y-54547674D01*
X113459022Y-54600000D01*
X113437348Y-54652326D01*
X113404253Y-54685420D01*
X113355740Y-54789456D01*
X113349500Y-54836862D01*
X113349500Y-55163137D01*
X113355740Y-55210543D01*
X113355741Y-55210545D01*
X113404253Y-55314579D01*
X113437348Y-55347674D01*
X113459022Y-55400000D01*
X113437348Y-55452326D01*
X113404253Y-55485420D01*
X113355740Y-55589456D01*
X113349500Y-55636862D01*
X113349500Y-55963137D01*
X113355740Y-56010543D01*
X113355741Y-56010545D01*
X113404253Y-56114579D01*
X113437348Y-56147674D01*
X113459022Y-56200000D01*
X113437348Y-56252326D01*
X113404253Y-56285420D01*
X113355740Y-56389456D01*
X113349500Y-56436862D01*
X113349500Y-57750000D01*
X112650500Y-57750000D01*
X112650500Y-56534733D01*
X112650499Y-56534719D01*
X112650499Y-56436862D01*
X112644259Y-56389456D01*
X112644259Y-56389455D01*
X112595747Y-56285421D01*
X112514579Y-56204253D01*
X112410545Y-56155741D01*
X112410543Y-56155740D01*
X112375619Y-56151142D01*
X112363139Y-56149500D01*
X112259310Y-56149500D01*
X112259309Y-56149500D01*
X112140691Y-56149500D01*
X112140688Y-56149500D01*
X112036862Y-56149500D01*
X111989456Y-56155740D01*
X111989454Y-56155741D01*
X111885420Y-56204253D01*
X111804253Y-56285420D01*
X111755740Y-56389456D01*
X111749500Y-56436862D01*
X111749500Y-57750000D01*
X111450500Y-57750000D01*
X111450500Y-57234457D01*
X111457187Y-57203718D01*
X111485165Y-57142457D01*
X111505647Y-57000000D01*
X111485165Y-56857543D01*
X111425377Y-56726627D01*
X111410380Y-56709319D01*
X111350000Y-56639636D01*
X111350000Y-53850500D01*
X112267921Y-53850500D01*
X112267929Y-53850499D01*
X112363138Y-53850499D01*
X112410545Y-53844259D01*
X112514579Y-53795747D01*
X112595747Y-53714579D01*
X112644259Y-53610545D01*
X112650500Y-53563139D01*
X112650500Y-53459309D01*
X112650500Y-53340691D01*
X112650500Y-53334733D01*
X112650499Y-53334719D01*
X112650499Y-53236862D01*
X112644259Y-53189456D01*
X112644259Y-53189455D01*
X112595747Y-53085421D01*
X112514579Y-53004253D01*
X112410545Y-52955741D01*
X112410543Y-52955740D01*
X112375619Y-52951142D01*
X112363139Y-52949500D01*
X112259310Y-52949500D01*
X112259309Y-52949500D01*
X111350000Y-52949500D01*
X111350000Y-52100000D01*
X114600000Y-52100000D01*
X114621677Y-54549500D01*
G37*
%TD.AperFunction*%
%TA.AperFunction,Conductor*%
G36*
X114650000Y-57750000D02*
G01*
X114250500Y-57750000D01*
X114250500Y-56534733D01*
X114250499Y-56534719D01*
X114250499Y-56436862D01*
X114244259Y-56389456D01*
X114244259Y-56389455D01*
X114228552Y-56355773D01*
X114226083Y-56299191D01*
X114264346Y-56257433D01*
X114295620Y-56250500D01*
X114636730Y-56250500D01*
X114650000Y-57750000D01*
G37*
%TD.AperFunction*%
%TD*%
%TA.AperFunction,Conductor*%
%TO.N,GND*%
G36*
X132002065Y-39200615D02*
G01*
X132309309Y-39217870D01*
X132317543Y-39218799D01*
X132618855Y-39269993D01*
X132626923Y-39271834D01*
X132920633Y-39356451D01*
X132928447Y-39359185D01*
X133210817Y-39476147D01*
X133218293Y-39479747D01*
X133485784Y-39627584D01*
X133492808Y-39631997D01*
X133742086Y-39808869D01*
X133748554Y-39814028D01*
X133901670Y-39950862D01*
X133976446Y-40017686D01*
X133982313Y-40023553D01*
X134065033Y-40116116D01*
X134185969Y-40251443D01*
X134191132Y-40257915D01*
X134346337Y-40476657D01*
X134368000Y-40507188D01*
X134372415Y-40514215D01*
X134520252Y-40781706D01*
X134523852Y-40789182D01*
X134640810Y-41071543D01*
X134643551Y-41079376D01*
X134728162Y-41373065D01*
X134730008Y-41381156D01*
X134781199Y-41682450D01*
X134782129Y-41690696D01*
X134799384Y-41997934D01*
X134799500Y-42002083D01*
X134799500Y-67997916D01*
X134799384Y-68002065D01*
X134782129Y-68309303D01*
X134781199Y-68317549D01*
X134730008Y-68618843D01*
X134728162Y-68626934D01*
X134643551Y-68920623D01*
X134640810Y-68928456D01*
X134523852Y-69210817D01*
X134520252Y-69218293D01*
X134372415Y-69485784D01*
X134368000Y-69492811D01*
X134191138Y-69742076D01*
X134185963Y-69748564D01*
X133982313Y-69976446D01*
X133976446Y-69982313D01*
X133748564Y-70185963D01*
X133742076Y-70191138D01*
X133492811Y-70368000D01*
X133485784Y-70372415D01*
X133218293Y-70520252D01*
X133210817Y-70523852D01*
X132928456Y-70640810D01*
X132920623Y-70643551D01*
X132626934Y-70728162D01*
X132618843Y-70730008D01*
X132317549Y-70781199D01*
X132309303Y-70782129D01*
X132002066Y-70799384D01*
X131997917Y-70799500D01*
X104002083Y-70799500D01*
X103997934Y-70799384D01*
X103690696Y-70782129D01*
X103682450Y-70781199D01*
X103381156Y-70730008D01*
X103373065Y-70728162D01*
X103079376Y-70643551D01*
X103071543Y-70640810D01*
X102789182Y-70523852D01*
X102781706Y-70520252D01*
X102514215Y-70372415D01*
X102507188Y-70368000D01*
X102363715Y-70266201D01*
X102257915Y-70191132D01*
X102251443Y-70185969D01*
X102062260Y-70016904D01*
X102023553Y-69982313D01*
X102017686Y-69976446D01*
X101950862Y-69901670D01*
X101814028Y-69748554D01*
X101808869Y-69742086D01*
X101631997Y-69492808D01*
X101627584Y-69485784D01*
X101610565Y-69454991D01*
X101479747Y-69218293D01*
X101476147Y-69210817D01*
X101450347Y-69148531D01*
X101359185Y-68928447D01*
X101356451Y-68920633D01*
X101271834Y-68626923D01*
X101269993Y-68618855D01*
X101218799Y-68317543D01*
X101217870Y-68309303D01*
X101200616Y-68002065D01*
X101200500Y-67997916D01*
X101200500Y-65872158D01*
X104049500Y-65872158D01*
X104049500Y-66127841D01*
X104082873Y-66381338D01*
X104149049Y-66628309D01*
X104149051Y-66628316D01*
X104246892Y-66864526D01*
X104246895Y-66864534D01*
X104374736Y-67085961D01*
X104374740Y-67085967D01*
X104530390Y-67288813D01*
X104711187Y-67469610D01*
X104914035Y-67625261D01*
X105135465Y-67753104D01*
X105371687Y-67850950D01*
X105618660Y-67917126D01*
X105872157Y-67950500D01*
X105872159Y-67950500D01*
X106127841Y-67950500D01*
X106127843Y-67950500D01*
X106381340Y-67917126D01*
X106628313Y-67850950D01*
X106864535Y-67753104D01*
X107085965Y-67625261D01*
X107288813Y-67469610D01*
X107469610Y-67288813D01*
X107625261Y-67085965D01*
X107753104Y-66864535D01*
X107850950Y-66628313D01*
X107917126Y-66381340D01*
X107950500Y-66127843D01*
X107950500Y-65872158D01*
X128049500Y-65872158D01*
X128049500Y-66127841D01*
X128082873Y-66381338D01*
X128149049Y-66628309D01*
X128149051Y-66628316D01*
X128246892Y-66864526D01*
X128246895Y-66864534D01*
X128374736Y-67085961D01*
X128374740Y-67085967D01*
X128530390Y-67288813D01*
X128711187Y-67469610D01*
X128914035Y-67625261D01*
X129135465Y-67753104D01*
X129371687Y-67850950D01*
X129618660Y-67917126D01*
X129872157Y-67950500D01*
X129872159Y-67950500D01*
X130127841Y-67950500D01*
X130127843Y-67950500D01*
X130381340Y-67917126D01*
X130628313Y-67850950D01*
X130864535Y-67753104D01*
X131085965Y-67625261D01*
X131288813Y-67469610D01*
X131469610Y-67288813D01*
X131625261Y-67085965D01*
X131753104Y-66864535D01*
X131850950Y-66628313D01*
X131917126Y-66381340D01*
X131950500Y-66127843D01*
X131950500Y-65872157D01*
X131917126Y-65618660D01*
X131850950Y-65371687D01*
X131753104Y-65135465D01*
X131625261Y-64914035D01*
X131469610Y-64711187D01*
X131288813Y-64530390D01*
X131085967Y-64374740D01*
X131085961Y-64374736D01*
X130864534Y-64246895D01*
X130864526Y-64246892D01*
X130628316Y-64149051D01*
X130628314Y-64149050D01*
X130628313Y-64149050D01*
X130595222Y-64140183D01*
X130381338Y-64082873D01*
X130194589Y-64058287D01*
X130127843Y-64049500D01*
X129872157Y-64049500D01*
X129813176Y-64057265D01*
X129618661Y-64082873D01*
X129371690Y-64149049D01*
X129371683Y-64149051D01*
X129135473Y-64246892D01*
X129135465Y-64246895D01*
X128914038Y-64374736D01*
X128914032Y-64374740D01*
X128711186Y-64530390D01*
X128530390Y-64711186D01*
X128374740Y-64914032D01*
X128374736Y-64914038D01*
X128246895Y-65135465D01*
X128246892Y-65135473D01*
X128149051Y-65371683D01*
X128149049Y-65371690D01*
X128082873Y-65618661D01*
X128049500Y-65872158D01*
X107950500Y-65872158D01*
X107950500Y-65872157D01*
X107917126Y-65618660D01*
X107850950Y-65371687D01*
X107753104Y-65135465D01*
X107625261Y-64914035D01*
X107469610Y-64711187D01*
X107288813Y-64530390D01*
X107085967Y-64374740D01*
X107085961Y-64374736D01*
X106864534Y-64246895D01*
X106864526Y-64246892D01*
X106628316Y-64149051D01*
X106628314Y-64149050D01*
X106628313Y-64149050D01*
X106595222Y-64140183D01*
X106381338Y-64082873D01*
X106194589Y-64058287D01*
X106127843Y-64049500D01*
X105872157Y-64049500D01*
X105813176Y-64057265D01*
X105618661Y-64082873D01*
X105371690Y-64149049D01*
X105371683Y-64149051D01*
X105135473Y-64246892D01*
X105135465Y-64246895D01*
X104914038Y-64374736D01*
X104914032Y-64374740D01*
X104711186Y-64530390D01*
X104530390Y-64711186D01*
X104374740Y-64914032D01*
X104374736Y-64914038D01*
X104246895Y-65135465D01*
X104246892Y-65135473D01*
X104149051Y-65371683D01*
X104149049Y-65371690D01*
X104082873Y-65618661D01*
X104049500Y-65872158D01*
X101200500Y-65872158D01*
X101200500Y-62849976D01*
X109600001Y-62849976D01*
X109610494Y-62952696D01*
X109665642Y-63119121D01*
X109757683Y-63268343D01*
X109757686Y-63268347D01*
X109881653Y-63392314D01*
X109881656Y-63392316D01*
X110030878Y-63484357D01*
X110197302Y-63539505D01*
X110300025Y-63549999D01*
X110750000Y-63549999D01*
X111250000Y-63549999D01*
X111699971Y-63549999D01*
X111699976Y-63549998D01*
X111802696Y-63539505D01*
X111969121Y-63484357D01*
X112118343Y-63392316D01*
X112118347Y-63392314D01*
X112222674Y-63287987D01*
X112275000Y-63266313D01*
X112327326Y-63287987D01*
X112431653Y-63392314D01*
X112431656Y-63392316D01*
X112580878Y-63484357D01*
X112747302Y-63539505D01*
X112850025Y-63549999D01*
X113750000Y-63549999D01*
X114250000Y-63549999D01*
X115149971Y-63549999D01*
X115149976Y-63549998D01*
X115252696Y-63539505D01*
X115419121Y-63484357D01*
X115568343Y-63392316D01*
X115568347Y-63392314D01*
X115692314Y-63268347D01*
X115692316Y-63268343D01*
X115784357Y-63119121D01*
X115839505Y-62952697D01*
X115849999Y-62849975D01*
X115850000Y-62849973D01*
X115850000Y-62725000D01*
X114250000Y-62725000D01*
X114250000Y-63549999D01*
X113750000Y-63549999D01*
X113750000Y-62725000D01*
X111250000Y-62725000D01*
X111250000Y-63549999D01*
X110750000Y-63549999D01*
X110750000Y-62725000D01*
X109600001Y-62725000D01*
X109600001Y-62849976D01*
X101200500Y-62849976D01*
X101200500Y-62100024D01*
X109600000Y-62100024D01*
X109600000Y-62225000D01*
X110750000Y-62225000D01*
X111250000Y-62225000D01*
X113750000Y-62225000D01*
X114250000Y-62225000D01*
X115849999Y-62225000D01*
X115849999Y-62100029D01*
X115849998Y-62100023D01*
X115839505Y-61997303D01*
X115794695Y-61862076D01*
X120491476Y-61862076D01*
X120615462Y-61928348D01*
X120803964Y-61985530D01*
X121000000Y-62004838D01*
X121196035Y-61985530D01*
X121384536Y-61928348D01*
X121384541Y-61928346D01*
X121508522Y-61862076D01*
X121000000Y-61353553D01*
X120491476Y-61862076D01*
X115794695Y-61862076D01*
X115784357Y-61830878D01*
X115692316Y-61681656D01*
X115692314Y-61681653D01*
X115568347Y-61557686D01*
X115568343Y-61557683D01*
X115419121Y-61465642D01*
X115252697Y-61410494D01*
X115149975Y-61400000D01*
X114250000Y-61400000D01*
X114250000Y-62225000D01*
X113750000Y-62225000D01*
X113750000Y-61400000D01*
X112850029Y-61400000D01*
X112850023Y-61400001D01*
X112747303Y-61410494D01*
X112580878Y-61465642D01*
X112431656Y-61557683D01*
X112327326Y-61662013D01*
X112275000Y-61683687D01*
X112222674Y-61662013D01*
X112118347Y-61557686D01*
X112118343Y-61557683D01*
X111969121Y-61465642D01*
X111802697Y-61410494D01*
X111699975Y-61400000D01*
X111250000Y-61400000D01*
X111250000Y-62225000D01*
X110750000Y-62225000D01*
X110750000Y-61400000D01*
X110300029Y-61400000D01*
X110300023Y-61400001D01*
X110197303Y-61410494D01*
X110030878Y-61465642D01*
X109881656Y-61557683D01*
X109757683Y-61681656D01*
X109665642Y-61830878D01*
X109610494Y-61997302D01*
X109600000Y-62100024D01*
X101200500Y-62100024D01*
X101200500Y-61000000D01*
X119995161Y-61000000D01*
X120014469Y-61196035D01*
X120071651Y-61384539D01*
X120137922Y-61508522D01*
X120646446Y-60999999D01*
X121353553Y-60999999D01*
X121862076Y-61508522D01*
X121928346Y-61384541D01*
X121928348Y-61384536D01*
X121985530Y-61196035D01*
X122004838Y-61000000D01*
X121985530Y-60803964D01*
X121928348Y-60615462D01*
X121862076Y-60491476D01*
X121353553Y-60999999D01*
X120646446Y-60999999D01*
X120137923Y-60491476D01*
X120137922Y-60491476D01*
X120071652Y-60615460D01*
X120014469Y-60803964D01*
X119995161Y-61000000D01*
X101200500Y-61000000D01*
X101200500Y-59145734D01*
X109899500Y-59145734D01*
X109899500Y-59904266D01*
X109902354Y-59934699D01*
X109902354Y-59934701D01*
X109902355Y-59934704D01*
X109947206Y-60062881D01*
X109947207Y-60062883D01*
X110027846Y-60172146D01*
X110027853Y-60172153D01*
X110137116Y-60252792D01*
X110137118Y-60252793D01*
X110265295Y-60297644D01*
X110265301Y-60297646D01*
X110295734Y-60300500D01*
X110295741Y-60300500D01*
X111704258Y-60300500D01*
X111704266Y-60300500D01*
X111734699Y-60297646D01*
X111862882Y-60252793D01*
X111972150Y-60172150D01*
X112052793Y-60062882D01*
X112066027Y-60025059D01*
X112103767Y-59982829D01*
X112135875Y-59975500D01*
X112414125Y-59975500D01*
X112466451Y-59997174D01*
X112483972Y-60025058D01*
X112485605Y-60029725D01*
X112497208Y-60062884D01*
X112577846Y-60172146D01*
X112577853Y-60172153D01*
X112687116Y-60252792D01*
X112687118Y-60252793D01*
X112815295Y-60297644D01*
X112815301Y-60297646D01*
X112845734Y-60300500D01*
X112845741Y-60300500D01*
X115154258Y-60300500D01*
X115154266Y-60300500D01*
X115184699Y-60297646D01*
X115312882Y-60252793D01*
X115422150Y-60172150D01*
X115447411Y-60137922D01*
X120491476Y-60137922D01*
X120491476Y-60137923D01*
X120999999Y-60646446D01*
X121508523Y-60137922D01*
X121384539Y-60071651D01*
X121196035Y-60014469D01*
X121000000Y-59995161D01*
X120803964Y-60014469D01*
X120615460Y-60071652D01*
X120491476Y-60137922D01*
X115447411Y-60137922D01*
X115502793Y-60062882D01*
X115516027Y-60025059D01*
X115553767Y-59982829D01*
X115585875Y-59975500D01*
X116359309Y-59975500D01*
X116449673Y-59951286D01*
X116449674Y-59951286D01*
X116460350Y-59948425D01*
X116473887Y-59944799D01*
X116576614Y-59885489D01*
X117014929Y-59447172D01*
X117067255Y-59425499D01*
X117306519Y-59425499D01*
X117400304Y-59410646D01*
X117400306Y-59410645D01*
X117402419Y-59409568D01*
X117513342Y-59353050D01*
X117603050Y-59263342D01*
X117660646Y-59150304D01*
X117675500Y-59056519D01*
X117675499Y-58593482D01*
X117673479Y-58580730D01*
X117660646Y-58499695D01*
X117660645Y-58499693D01*
X117603049Y-58386657D01*
X117513343Y-58296951D01*
X117513342Y-58296950D01*
X117400304Y-58239354D01*
X117400302Y-58239353D01*
X117400301Y-58239353D01*
X117306519Y-58224500D01*
X116693480Y-58224500D01*
X116599695Y-58239353D01*
X116599693Y-58239354D01*
X116486657Y-58296950D01*
X116396951Y-58386656D01*
X116339353Y-58499698D01*
X116324500Y-58593480D01*
X116324500Y-58832744D01*
X116302826Y-58885070D01*
X116135071Y-59052826D01*
X116082745Y-59074500D01*
X115585875Y-59074500D01*
X115533549Y-59052826D01*
X115516027Y-59024940D01*
X115502793Y-58987118D01*
X115502791Y-58987115D01*
X115422153Y-58877853D01*
X115422146Y-58877846D01*
X115312883Y-58797207D01*
X115312881Y-58797206D01*
X115184704Y-58752355D01*
X115184705Y-58752355D01*
X115184700Y-58752354D01*
X115184699Y-58752354D01*
X115154266Y-58749500D01*
X115154260Y-58749500D01*
X114324500Y-58749500D01*
X114272174Y-58727826D01*
X114250500Y-58675500D01*
X114250500Y-56534733D01*
X114250499Y-56534719D01*
X114250499Y-56436862D01*
X114244259Y-56389456D01*
X114244259Y-56389455D01*
X114228552Y-56355773D01*
X114226083Y-56299191D01*
X114264346Y-56257433D01*
X114295620Y-56250500D01*
X115407745Y-56250500D01*
X115460071Y-56272174D01*
X116302826Y-57114930D01*
X116324500Y-57167256D01*
X116324500Y-57406519D01*
X116339353Y-57500304D01*
X116339354Y-57500306D01*
X116387501Y-57594798D01*
X116396950Y-57613342D01*
X116486658Y-57703050D01*
X116599696Y-57760646D01*
X116693481Y-57775500D01*
X117306518Y-57775499D01*
X117306519Y-57775499D01*
X117400304Y-57760646D01*
X117400306Y-57760645D01*
X117423345Y-57748906D01*
X117513342Y-57703050D01*
X117569218Y-57647174D01*
X117621544Y-57625500D01*
X123285636Y-57625500D01*
X123337962Y-57647174D01*
X123359636Y-57699500D01*
X123354827Y-57725740D01*
X123314859Y-57831126D01*
X123294355Y-57999996D01*
X123294355Y-58000003D01*
X123314859Y-58168871D01*
X123375181Y-58327929D01*
X123471816Y-58467928D01*
X123507673Y-58499695D01*
X123599148Y-58580734D01*
X123749775Y-58659790D01*
X123914944Y-58700500D01*
X123914948Y-58700500D01*
X124085052Y-58700500D01*
X124085056Y-58700500D01*
X124250225Y-58659790D01*
X124400852Y-58580734D01*
X124528183Y-58467929D01*
X124624818Y-58327930D01*
X124685140Y-58168872D01*
X124705645Y-58000000D01*
X124686870Y-57845378D01*
X124685140Y-57831126D01*
X124645173Y-57725740D01*
X124646884Y-57669129D01*
X124688124Y-57630309D01*
X124714364Y-57625500D01*
X127944970Y-57625500D01*
X128035334Y-57601286D01*
X128035335Y-57601286D01*
X128046011Y-57598425D01*
X128059548Y-57594799D01*
X128162275Y-57535489D01*
X128725590Y-56972174D01*
X128777916Y-56950500D01*
X128875105Y-56950500D01*
X128927431Y-56972174D01*
X128942288Y-56994410D01*
X128942340Y-56994383D01*
X128942620Y-56994907D01*
X128943473Y-56996183D01*
X128944059Y-56997598D01*
X129059023Y-57169655D01*
X129205345Y-57315977D01*
X129377402Y-57430941D01*
X129568580Y-57510130D01*
X129642357Y-57524805D01*
X129689450Y-57556270D01*
X129700499Y-57611819D01*
X129669034Y-57658912D01*
X129639498Y-57670472D01*
X129558874Y-57683242D01*
X129558863Y-57683244D01*
X129356782Y-57748904D01*
X129356778Y-57748906D01*
X129167449Y-57845375D01*
X129167443Y-57845378D01*
X128995538Y-57970274D01*
X128845274Y-58120538D01*
X128720378Y-58292443D01*
X128720375Y-58292449D01*
X128623906Y-58481778D01*
X128623904Y-58481782D01*
X128558244Y-58683863D01*
X128558241Y-58683877D01*
X128547769Y-58750000D01*
X129595854Y-58750000D01*
X129557370Y-58816657D01*
X129525000Y-58937465D01*
X129525000Y-59062535D01*
X129557370Y-59183343D01*
X129595854Y-59250000D01*
X128547769Y-59250000D01*
X128558241Y-59316122D01*
X128558244Y-59316136D01*
X128623904Y-59518217D01*
X128623906Y-59518221D01*
X128720375Y-59707550D01*
X128720378Y-59707556D01*
X128845274Y-59879461D01*
X128845283Y-59879471D01*
X128995529Y-60029717D01*
X128995538Y-60029725D01*
X129167443Y-60154621D01*
X129167449Y-60154624D01*
X129356778Y-60251093D01*
X129356782Y-60251095D01*
X129558863Y-60316755D01*
X129558876Y-60316758D01*
X129749998Y-60347029D01*
X129750000Y-60347028D01*
X129750000Y-59404145D01*
X129816657Y-59442630D01*
X129937465Y-59475000D01*
X130062535Y-59475000D01*
X130183343Y-59442630D01*
X130250000Y-59404145D01*
X130250000Y-60347028D01*
X130250001Y-60347029D01*
X130441123Y-60316758D01*
X130441136Y-60316755D01*
X130643217Y-60251095D01*
X130643221Y-60251093D01*
X130832550Y-60154624D01*
X130832556Y-60154621D01*
X131004461Y-60029725D01*
X131004471Y-60029717D01*
X131154717Y-59879471D01*
X131154725Y-59879461D01*
X131279621Y-59707556D01*
X131279624Y-59707550D01*
X131376093Y-59518221D01*
X131376095Y-59518217D01*
X131441755Y-59316136D01*
X131441758Y-59316122D01*
X131452231Y-59250000D01*
X130404146Y-59250000D01*
X130442630Y-59183343D01*
X130475000Y-59062535D01*
X130475000Y-58937465D01*
X130442630Y-58816657D01*
X130404146Y-58750000D01*
X131452230Y-58750000D01*
X131441758Y-58683877D01*
X131441755Y-58683863D01*
X131376095Y-58481782D01*
X131376093Y-58481778D01*
X131279624Y-58292449D01*
X131279621Y-58292443D01*
X131154725Y-58120538D01*
X131154717Y-58120529D01*
X131004471Y-57970283D01*
X131004461Y-57970274D01*
X130832556Y-57845378D01*
X130832550Y-57845375D01*
X130643221Y-57748906D01*
X130643217Y-57748904D01*
X130441136Y-57683244D01*
X130441125Y-57683242D01*
X130360501Y-57670472D01*
X130312210Y-57640879D01*
X130298989Y-57585806D01*
X130328582Y-57537515D01*
X130357640Y-57524805D01*
X130431420Y-57510130D01*
X130622598Y-57430941D01*
X130794655Y-57315977D01*
X130940977Y-57169655D01*
X131055941Y-56997598D01*
X131135130Y-56806420D01*
X131175500Y-56603465D01*
X131175500Y-56396535D01*
X131135130Y-56193580D01*
X131055941Y-56002402D01*
X130940977Y-55830345D01*
X130794655Y-55684023D01*
X130653124Y-55589456D01*
X130622598Y-55569059D01*
X130431420Y-55489870D01*
X130431413Y-55489868D01*
X130242672Y-55452326D01*
X130228465Y-55449500D01*
X129771535Y-55449500D01*
X129757328Y-55452326D01*
X129568586Y-55489868D01*
X129568579Y-55489870D01*
X129377401Y-55569059D01*
X129205345Y-55684022D01*
X129205344Y-55684024D01*
X129059024Y-55830344D01*
X129059022Y-55830345D01*
X128944058Y-56002404D01*
X128943474Y-56003815D01*
X128943107Y-56004181D01*
X128942340Y-56005617D01*
X128941904Y-56005384D01*
X128903427Y-56043866D01*
X128875105Y-56049500D01*
X128501350Y-56049500D01*
X128410987Y-56073713D01*
X128397006Y-56077459D01*
X128386772Y-56080201D01*
X128284050Y-56139508D01*
X127720732Y-56702826D01*
X127668406Y-56724500D01*
X117621544Y-56724500D01*
X117569218Y-56702826D01*
X117513343Y-56646951D01*
X117513342Y-56646950D01*
X117400304Y-56589354D01*
X117400302Y-56589353D01*
X117400301Y-56589353D01*
X117306520Y-56574500D01*
X117306519Y-56574500D01*
X117067256Y-56574500D01*
X117014930Y-56552826D01*
X116505970Y-56043866D01*
X115992912Y-55530809D01*
X115971239Y-55478484D01*
X115992913Y-55426158D01*
X116008234Y-55414402D01*
X116101614Y-55360489D01*
X117014929Y-54447172D01*
X117067255Y-54425499D01*
X117306518Y-54425499D01*
X117348094Y-54418914D01*
X117378822Y-54420525D01*
X117453202Y-54440454D01*
X117490688Y-54450499D01*
X117490689Y-54450500D01*
X117490691Y-54450500D01*
X128875105Y-54450500D01*
X128927431Y-54472174D01*
X128942288Y-54494410D01*
X128942340Y-54494383D01*
X128942620Y-54494907D01*
X128943473Y-54496183D01*
X128944059Y-54497598D01*
X129059023Y-54669655D01*
X129205345Y-54815977D01*
X129377402Y-54930941D01*
X129568580Y-55010130D01*
X129771535Y-55050500D01*
X129771536Y-55050500D01*
X130228464Y-55050500D01*
X130228465Y-55050500D01*
X130431420Y-55010130D01*
X130622598Y-54930941D01*
X130794655Y-54815977D01*
X130940977Y-54669655D01*
X131055941Y-54497598D01*
X131135130Y-54306420D01*
X131175500Y-54103465D01*
X131175500Y-53896535D01*
X131135130Y-53693580D01*
X131055941Y-53502402D01*
X130940977Y-53330345D01*
X130794655Y-53184023D01*
X130771978Y-53168871D01*
X130622598Y-53069059D01*
X130431420Y-52989870D01*
X130431413Y-52989868D01*
X130278516Y-52959455D01*
X130228465Y-52949500D01*
X129771535Y-52949500D01*
X129740164Y-52955740D01*
X129568586Y-52989868D01*
X129568579Y-52989870D01*
X129377401Y-53069059D01*
X129205345Y-53184022D01*
X129205344Y-53184024D01*
X129059024Y-53330344D01*
X129059022Y-53330345D01*
X128944058Y-53502404D01*
X128943474Y-53503815D01*
X128943107Y-53504181D01*
X128942340Y-53505617D01*
X128941904Y-53505384D01*
X128903427Y-53543866D01*
X128875105Y-53549500D01*
X124612874Y-53549500D01*
X124560548Y-53527826D01*
X124538874Y-53475500D01*
X124551973Y-53433463D01*
X124624818Y-53327930D01*
X124685140Y-53168872D01*
X124698782Y-53056519D01*
X124705645Y-53000003D01*
X124705645Y-52999996D01*
X124685140Y-52831128D01*
X124624818Y-52672070D01*
X124528183Y-52532071D01*
X124400856Y-52419269D01*
X124400853Y-52419267D01*
X124400852Y-52419266D01*
X124250225Y-52340210D01*
X124250222Y-52340209D01*
X124085058Y-52299500D01*
X124085056Y-52299500D01*
X123914944Y-52299500D01*
X123914941Y-52299500D01*
X123749777Y-52340209D01*
X123599146Y-52419267D01*
X123599143Y-52419269D01*
X123471816Y-52532071D01*
X123375181Y-52672070D01*
X123314859Y-52831128D01*
X123294355Y-52999996D01*
X123294355Y-53000003D01*
X123314859Y-53168871D01*
X123375181Y-53327929D01*
X123375182Y-53327930D01*
X123442529Y-53425499D01*
X123448027Y-53433463D01*
X123459914Y-53488838D01*
X123429163Y-53536401D01*
X123387126Y-53549500D01*
X117767255Y-53549500D01*
X117714929Y-53527826D01*
X117686799Y-53499696D01*
X117651614Y-53464511D01*
X117651611Y-53464509D01*
X117650282Y-53463489D01*
X117648756Y-53461654D01*
X117648184Y-53461082D01*
X117648236Y-53461029D01*
X117629404Y-53438382D01*
X117622840Y-53425500D01*
X117603050Y-53386658D01*
X117513342Y-53296950D01*
X117400304Y-53239354D01*
X117400302Y-53239353D01*
X117400301Y-53239353D01*
X117306519Y-53224500D01*
X116693480Y-53224500D01*
X116599695Y-53239353D01*
X116599693Y-53239354D01*
X116486657Y-53296950D01*
X116396951Y-53386656D01*
X116339353Y-53499698D01*
X116324500Y-53593480D01*
X116324500Y-53832744D01*
X116302826Y-53885070D01*
X115660071Y-54527826D01*
X115607745Y-54549500D01*
X114295620Y-54549500D01*
X114243294Y-54527826D01*
X114221620Y-54475500D01*
X114228553Y-54444227D01*
X114231414Y-54438089D01*
X114244259Y-54410545D01*
X114250500Y-54363139D01*
X114250499Y-54036862D01*
X114244259Y-53989455D01*
X114195747Y-53885421D01*
X114162652Y-53852326D01*
X114140978Y-53800000D01*
X114162652Y-53747674D01*
X114195747Y-53714579D01*
X114244259Y-53610545D01*
X114250500Y-53563139D01*
X114250499Y-53236862D01*
X114244259Y-53189455D01*
X114195747Y-53085421D01*
X114114579Y-53004253D01*
X114010545Y-52955741D01*
X114010543Y-52955740D01*
X113975619Y-52951142D01*
X113963139Y-52949500D01*
X113963137Y-52949500D01*
X113700826Y-52949500D01*
X113648500Y-52927826D01*
X113637131Y-52913169D01*
X113622771Y-52888888D01*
X113511111Y-52777228D01*
X113375191Y-52696845D01*
X113250000Y-52660473D01*
X113250000Y-54139526D01*
X113254853Y-54138116D01*
X113311149Y-54144330D01*
X113346561Y-54188530D01*
X113349500Y-54209177D01*
X113349500Y-54363137D01*
X113355740Y-54410543D01*
X113355741Y-54410545D01*
X113404253Y-54514579D01*
X113437348Y-54547674D01*
X113459022Y-54600000D01*
X113437348Y-54652326D01*
X113404253Y-54685420D01*
X113355740Y-54789456D01*
X113349500Y-54836862D01*
X113349500Y-55163137D01*
X113355740Y-55210543D01*
X113355741Y-55210545D01*
X113404253Y-55314579D01*
X113437348Y-55347674D01*
X113459022Y-55400000D01*
X113437348Y-55452326D01*
X113404253Y-55485420D01*
X113355740Y-55589456D01*
X113349500Y-55636862D01*
X113349500Y-55790821D01*
X113327826Y-55843147D01*
X113275500Y-55864821D01*
X113254855Y-55861883D01*
X113250000Y-55860472D01*
X113250000Y-57339526D01*
X113254853Y-57338116D01*
X113311149Y-57344330D01*
X113346561Y-57388530D01*
X113349500Y-57409177D01*
X113349500Y-58675500D01*
X113327826Y-58727826D01*
X113275500Y-58749500D01*
X112845734Y-58749500D01*
X112815301Y-58752354D01*
X112815299Y-58752354D01*
X112815295Y-58752355D01*
X112687118Y-58797206D01*
X112687116Y-58797207D01*
X112577853Y-58877846D01*
X112577846Y-58877853D01*
X112497208Y-58987115D01*
X112497208Y-58987116D01*
X112497207Y-58987118D01*
X112492525Y-59000500D01*
X112483973Y-59024940D01*
X112446233Y-59067171D01*
X112414125Y-59074500D01*
X112266255Y-59074500D01*
X112213929Y-59052826D01*
X112192255Y-59000500D01*
X112213929Y-58948174D01*
X112364897Y-58797206D01*
X112560489Y-58601614D01*
X112614926Y-58507324D01*
X112614929Y-58507322D01*
X112619799Y-58498886D01*
X112636275Y-58437397D01*
X112650499Y-58384311D01*
X112650500Y-58384311D01*
X112650500Y-57409177D01*
X112672174Y-57356851D01*
X112724500Y-57335177D01*
X112745147Y-57338116D01*
X112749999Y-57339526D01*
X112750000Y-57339526D01*
X112750000Y-56050000D01*
X111460474Y-56050000D01*
X111496845Y-56175191D01*
X111577228Y-56311111D01*
X111688887Y-56422770D01*
X111713168Y-56437129D01*
X111747175Y-56482420D01*
X111749500Y-56500825D01*
X111749500Y-58107745D01*
X111727826Y-58160071D01*
X111576826Y-58311071D01*
X111524500Y-58332745D01*
X111472174Y-58311071D01*
X111450500Y-58258745D01*
X111450500Y-57234457D01*
X111457187Y-57203718D01*
X111485165Y-57142457D01*
X111505647Y-57000000D01*
X111485165Y-56857543D01*
X111425377Y-56726627D01*
X111331128Y-56617857D01*
X111229938Y-56552826D01*
X111210054Y-56540047D01*
X111210050Y-56540046D01*
X111071964Y-56499500D01*
X111071961Y-56499500D01*
X110928039Y-56499500D01*
X110928036Y-56499500D01*
X110789949Y-56540046D01*
X110789945Y-56540047D01*
X110668875Y-56617855D01*
X110668868Y-56617860D01*
X110574623Y-56726626D01*
X110514834Y-56857545D01*
X110494353Y-57000000D01*
X110514834Y-57142456D01*
X110526161Y-57167256D01*
X110542812Y-57203718D01*
X110549500Y-57234457D01*
X110549500Y-58675500D01*
X110527826Y-58727826D01*
X110475500Y-58749500D01*
X110295734Y-58749500D01*
X110265301Y-58752354D01*
X110265299Y-58752354D01*
X110265295Y-58752355D01*
X110137118Y-58797206D01*
X110137116Y-58797207D01*
X110027853Y-58877846D01*
X110027846Y-58877853D01*
X109947207Y-58987116D01*
X109947206Y-58987118D01*
X109902355Y-59115295D01*
X109902354Y-59115299D01*
X109902354Y-59115301D01*
X109899500Y-59145734D01*
X101200500Y-59145734D01*
X101200500Y-55549999D01*
X111460473Y-55549999D01*
X111460474Y-55550000D01*
X111950000Y-55550000D01*
X112450000Y-55550000D01*
X112939525Y-55550000D01*
X112901944Y-55420646D01*
X112901944Y-55379354D01*
X112939526Y-55250000D01*
X112450000Y-55250000D01*
X112450000Y-55550000D01*
X111950000Y-55550000D01*
X111950000Y-55250000D01*
X111460474Y-55250000D01*
X111498055Y-55379355D01*
X111498055Y-55420645D01*
X111460473Y-55549999D01*
X101200500Y-55549999D01*
X101200500Y-54749999D01*
X111460473Y-54749999D01*
X111460474Y-54750000D01*
X111950000Y-54750000D01*
X112450000Y-54750000D01*
X112939525Y-54750000D01*
X112901944Y-54620646D01*
X112901944Y-54579354D01*
X112939526Y-54450000D01*
X112450000Y-54450000D01*
X112450000Y-54750000D01*
X111950000Y-54750000D01*
X111950000Y-54450000D01*
X111460474Y-54450000D01*
X111498055Y-54579355D01*
X111498055Y-54620645D01*
X111460473Y-54749999D01*
X101200500Y-54749999D01*
X101200500Y-52593480D01*
X109324500Y-52593480D01*
X109324500Y-53056519D01*
X109339353Y-53150304D01*
X109339354Y-53150306D01*
X109384727Y-53239353D01*
X109396950Y-53263342D01*
X109486658Y-53353050D01*
X109599696Y-53410646D01*
X109693481Y-53425500D01*
X109932744Y-53425499D01*
X109985069Y-53447172D01*
X110298386Y-53760490D01*
X110401113Y-53819799D01*
X110417675Y-53824236D01*
X110424673Y-53826112D01*
X110424676Y-53826112D01*
X110424678Y-53826113D01*
X110515688Y-53850499D01*
X110515689Y-53850500D01*
X111390822Y-53850500D01*
X111443148Y-53872174D01*
X111464822Y-53924500D01*
X111461884Y-53945145D01*
X111460473Y-53949999D01*
X111460474Y-53950000D01*
X112750000Y-53950000D01*
X112750000Y-52660473D01*
X112624808Y-52696845D01*
X112488888Y-52777228D01*
X112377228Y-52888888D01*
X112362869Y-52913169D01*
X112317577Y-52947175D01*
X112299174Y-52949500D01*
X110792256Y-52949500D01*
X110739930Y-52927826D01*
X110697173Y-52885069D01*
X110675499Y-52832743D01*
X110675499Y-52593480D01*
X110660646Y-52499695D01*
X110660645Y-52499693D01*
X110619665Y-52419267D01*
X110603050Y-52386658D01*
X110513342Y-52296950D01*
X110400304Y-52239354D01*
X110400302Y-52239353D01*
X110400301Y-52239353D01*
X110306519Y-52224500D01*
X109693480Y-52224500D01*
X109599695Y-52239353D01*
X109599693Y-52239354D01*
X109486657Y-52296950D01*
X109396951Y-52386656D01*
X109339353Y-52499698D01*
X109324500Y-52593480D01*
X101200500Y-52593480D01*
X101200500Y-50943480D01*
X109324500Y-50943480D01*
X109324500Y-51406519D01*
X109339353Y-51500304D01*
X109339354Y-51500306D01*
X109387501Y-51594798D01*
X109396950Y-51613342D01*
X109486658Y-51703050D01*
X109599696Y-51760646D01*
X109693481Y-51775500D01*
X110306518Y-51775499D01*
X110306519Y-51775499D01*
X110400304Y-51760646D01*
X110400306Y-51760645D01*
X110402419Y-51759568D01*
X110513342Y-51703050D01*
X110569218Y-51647174D01*
X110621544Y-51625500D01*
X113884309Y-51625500D01*
X113974673Y-51601286D01*
X113974674Y-51601286D01*
X113985350Y-51598425D01*
X113998887Y-51594799D01*
X114101614Y-51535489D01*
X115650119Y-49986983D01*
X115681597Y-49968308D01*
X115687113Y-49966688D01*
X115710053Y-49959953D01*
X115710055Y-49959951D01*
X115714864Y-49957756D01*
X115715682Y-49959548D01*
X115746490Y-49950500D01*
X116103059Y-49950500D01*
X116193423Y-49926286D01*
X116193424Y-49926286D01*
X116204100Y-49923425D01*
X116217637Y-49919799D01*
X116320364Y-49860489D01*
X116423175Y-49757677D01*
X116475500Y-49736004D01*
X116527826Y-49757678D01*
X116549500Y-49810004D01*
X116549500Y-51569583D01*
X116527826Y-51621909D01*
X116509096Y-51635517D01*
X116486657Y-51646950D01*
X116396951Y-51736656D01*
X116339353Y-51849698D01*
X116324500Y-51943480D01*
X116324500Y-52406519D01*
X116339353Y-52500304D01*
X116339354Y-52500306D01*
X116364930Y-52550500D01*
X116396950Y-52613342D01*
X116486658Y-52703050D01*
X116599696Y-52760646D01*
X116693481Y-52775500D01*
X117306518Y-52775499D01*
X117306519Y-52775499D01*
X117400304Y-52760646D01*
X117400306Y-52760645D01*
X117402419Y-52759568D01*
X117513342Y-52703050D01*
X117603050Y-52613342D01*
X117660646Y-52500304D01*
X117675500Y-52406519D01*
X117675499Y-51943482D01*
X117670909Y-51914502D01*
X117660646Y-51849695D01*
X117660645Y-51849693D01*
X117622841Y-51775500D01*
X117614943Y-51760000D01*
X118187155Y-51760000D01*
X118227594Y-51899193D01*
X118309264Y-52037289D01*
X118422710Y-52150735D01*
X118560806Y-52232405D01*
X118714874Y-52277166D01*
X118714871Y-52277166D01*
X118750000Y-52279930D01*
X118750000Y-52279929D01*
X119250000Y-52279929D01*
X119285126Y-52277166D01*
X119439193Y-52232405D01*
X119577289Y-52150735D01*
X119690735Y-52037289D01*
X119772405Y-51899193D01*
X119812845Y-51760000D01*
X119250000Y-51760000D01*
X119250000Y-52279929D01*
X118750000Y-52279929D01*
X118750000Y-51760000D01*
X118187155Y-51760000D01*
X117614943Y-51760000D01*
X117603050Y-51736658D01*
X117572174Y-51705782D01*
X117550500Y-51653456D01*
X117550500Y-51259999D01*
X118187154Y-51259999D01*
X118187155Y-51260000D01*
X119812845Y-51260000D01*
X119812845Y-51259999D01*
X119774978Y-51129661D01*
X119781193Y-51073366D01*
X119825395Y-51037954D01*
X119881690Y-51044169D01*
X119882998Y-51044906D01*
X119926113Y-51069799D01*
X119926115Y-51069799D01*
X119926116Y-51069800D01*
X119934184Y-51071961D01*
X119950326Y-51076286D01*
X120022618Y-51095657D01*
X120040690Y-51100500D01*
X120040691Y-51100500D01*
X121218627Y-51100500D01*
X121270953Y-51122174D01*
X121274039Y-51125787D01*
X121276471Y-51128219D01*
X121276472Y-51128220D01*
X121371780Y-51223528D01*
X121491874Y-51284719D01*
X121591511Y-51300500D01*
X121591512Y-51300500D01*
X122408489Y-51300500D01*
X122458307Y-51292609D01*
X122508126Y-51284719D01*
X122628220Y-51223528D01*
X122723528Y-51128220D01*
X122784719Y-51008126D01*
X122800500Y-50908488D01*
X122800500Y-50391512D01*
X122784719Y-50291874D01*
X122723528Y-50171780D01*
X122628220Y-50076472D01*
X122628219Y-50076471D01*
X122508126Y-50015281D01*
X122508125Y-50015280D01*
X122408489Y-49999500D01*
X122408488Y-49999500D01*
X121591512Y-49999500D01*
X121591511Y-49999500D01*
X121491874Y-50015280D01*
X121491873Y-50015281D01*
X121371780Y-50076471D01*
X121371779Y-50076472D01*
X121272354Y-50175898D01*
X121270408Y-50173952D01*
X121230198Y-50198590D01*
X121218627Y-50199500D01*
X120317255Y-50199500D01*
X120264930Y-50177826D01*
X120216614Y-50129511D01*
X120216611Y-50129509D01*
X120113891Y-50070203D01*
X120113882Y-50070199D01*
X120073967Y-50059504D01*
X120073966Y-50059504D01*
X119999311Y-50039500D01*
X119999309Y-50039500D01*
X119524500Y-50039500D01*
X119472174Y-50017826D01*
X119450500Y-49965500D01*
X119450500Y-47591746D01*
X119450500Y-47591740D01*
X119440573Y-47523607D01*
X119389198Y-47418517D01*
X119306483Y-47335802D01*
X119306482Y-47335801D01*
X119201394Y-47284427D01*
X119133264Y-47274500D01*
X119133260Y-47274500D01*
X118766740Y-47274500D01*
X118766735Y-47274500D01*
X118698606Y-47284427D01*
X118698605Y-47284427D01*
X118593517Y-47335801D01*
X118510801Y-47418517D01*
X118459427Y-47523605D01*
X118459427Y-47523606D01*
X118449500Y-47591735D01*
X118449500Y-47591740D01*
X118449500Y-48271608D01*
X118449500Y-50505892D01*
X118449505Y-50505909D01*
X118476979Y-50608446D01*
X118479500Y-50627598D01*
X118479500Y-50664314D01*
X118485932Y-50713174D01*
X118500961Y-50745404D01*
X118503431Y-50801987D01*
X118471564Y-50840372D01*
X118422710Y-50869264D01*
X118309264Y-50982710D01*
X118227594Y-51120806D01*
X118187154Y-51259999D01*
X117550500Y-51259999D01*
X117550500Y-47591746D01*
X117550500Y-47591740D01*
X117540573Y-47523607D01*
X117489198Y-47418517D01*
X117406483Y-47335802D01*
X117406482Y-47335801D01*
X117301394Y-47284427D01*
X117233264Y-47274500D01*
X117233260Y-47274500D01*
X116866740Y-47274500D01*
X116866735Y-47274500D01*
X116798606Y-47284427D01*
X116798605Y-47284427D01*
X116693517Y-47335801D01*
X116610802Y-47418516D01*
X116567056Y-47508001D01*
X116524603Y-47545491D01*
X116500575Y-47549500D01*
X115034500Y-47549500D01*
X114982174Y-47527826D01*
X114960500Y-47475500D01*
X114960500Y-46450689D01*
X114960499Y-46450688D01*
X114932321Y-46345525D01*
X114932320Y-46345522D01*
X114932320Y-46345523D01*
X114929799Y-46336114D01*
X114929799Y-46336113D01*
X114870489Y-46233386D01*
X114723700Y-46086597D01*
X114702026Y-46034271D01*
X114702565Y-46025362D01*
X114705645Y-46000000D01*
X114685140Y-45831128D01*
X114624818Y-45672070D01*
X114528183Y-45532071D01*
X114427304Y-45442700D01*
X114400856Y-45419269D01*
X114400853Y-45419267D01*
X114400852Y-45419266D01*
X114250225Y-45340210D01*
X114250222Y-45340209D01*
X114154984Y-45316735D01*
X117499500Y-45316735D01*
X117499500Y-46408264D01*
X117509427Y-46476393D01*
X117509427Y-46476394D01*
X117560801Y-46581482D01*
X117560802Y-46581483D01*
X117643517Y-46664198D01*
X117748607Y-46715573D01*
X117816740Y-46725500D01*
X117816746Y-46725500D01*
X118183254Y-46725500D01*
X118183260Y-46725500D01*
X118251393Y-46715573D01*
X118356483Y-46664198D01*
X118439198Y-46581483D01*
X118490573Y-46476393D01*
X118500500Y-46408260D01*
X118500500Y-46387000D01*
X118522174Y-46334674D01*
X118574500Y-46313000D01*
X120295245Y-46313000D01*
X120347571Y-46334674D01*
X121177826Y-47164929D01*
X121199500Y-47217255D01*
X121199500Y-47608488D01*
X121215280Y-47708125D01*
X121215281Y-47708126D01*
X121249703Y-47775684D01*
X121276472Y-47828220D01*
X121371780Y-47923528D01*
X121491874Y-47984719D01*
X121591511Y-48000500D01*
X121591512Y-48000500D01*
X121887286Y-48000500D01*
X121939612Y-48022174D01*
X125732908Y-51815470D01*
X125732913Y-51815476D01*
X125735497Y-51818060D01*
X125831940Y-51914503D01*
X125882133Y-51943482D01*
X125950060Y-51982700D01*
X125950061Y-51982700D01*
X125950063Y-51982701D01*
X126015932Y-52000350D01*
X126081802Y-52018000D01*
X126081803Y-52018001D01*
X126081805Y-52018001D01*
X126222726Y-52018001D01*
X126222742Y-52018000D01*
X128750500Y-52018000D01*
X128802826Y-52039674D01*
X128824500Y-52092000D01*
X128824500Y-52154266D01*
X128827354Y-52184699D01*
X128827354Y-52184701D01*
X128827355Y-52184704D01*
X128872206Y-52312881D01*
X128872207Y-52312883D01*
X128952846Y-52422146D01*
X128952853Y-52422153D01*
X129062116Y-52502792D01*
X129062118Y-52502793D01*
X129190295Y-52547644D01*
X129190301Y-52547646D01*
X129220734Y-52550500D01*
X129220741Y-52550500D01*
X130779258Y-52550500D01*
X130779266Y-52550500D01*
X130809699Y-52547646D01*
X130937882Y-52502793D01*
X131047150Y-52422150D01*
X131049279Y-52419266D01*
X131127792Y-52312883D01*
X131127793Y-52312882D01*
X131172646Y-52184699D01*
X131175500Y-52154266D01*
X131175500Y-50845734D01*
X131172646Y-50815301D01*
X131140873Y-50724500D01*
X131127793Y-50687118D01*
X131127792Y-50687116D01*
X131047153Y-50577853D01*
X131047146Y-50577846D01*
X130937883Y-50497207D01*
X130937881Y-50497206D01*
X130809704Y-50452355D01*
X130809705Y-50452355D01*
X130809700Y-50452354D01*
X130809699Y-50452354D01*
X130779266Y-50449500D01*
X129220734Y-50449500D01*
X129190301Y-50452354D01*
X129190299Y-50452354D01*
X129190295Y-50452355D01*
X129062118Y-50497206D01*
X129062116Y-50497207D01*
X128952853Y-50577846D01*
X128952846Y-50577853D01*
X128872207Y-50687116D01*
X128872206Y-50687118D01*
X128827355Y-50815295D01*
X128827354Y-50815299D01*
X128827354Y-50815301D01*
X128824500Y-50845734D01*
X128824500Y-50845740D01*
X128824500Y-50908000D01*
X128802826Y-50960326D01*
X128750500Y-50982000D01*
X128183855Y-50982000D01*
X128131529Y-50960326D01*
X128109855Y-50908000D01*
X128131529Y-50855674D01*
X128169419Y-50835422D01*
X128179769Y-50833363D01*
X128277251Y-50813973D01*
X128450231Y-50742322D01*
X128605908Y-50638302D01*
X128738302Y-50505908D01*
X128842322Y-50350231D01*
X128913973Y-50177251D01*
X128950500Y-49993616D01*
X128950500Y-49806384D01*
X128913973Y-49622749D01*
X128842322Y-49449769D01*
X128738302Y-49294092D01*
X128605908Y-49161698D01*
X128450231Y-49057678D01*
X128450228Y-49057676D01*
X128450227Y-49057676D01*
X128277251Y-48986027D01*
X128277244Y-48986025D01*
X128138902Y-48958507D01*
X128093616Y-48949500D01*
X127906384Y-48949500D01*
X127870056Y-48956725D01*
X127722755Y-48986025D01*
X127722748Y-48986027D01*
X127549772Y-49057676D01*
X127394092Y-49161697D01*
X127394091Y-49161699D01*
X127261699Y-49294091D01*
X127261697Y-49294092D01*
X127157676Y-49449772D01*
X127086027Y-49622748D01*
X127086025Y-49622755D01*
X127063499Y-49736004D01*
X127049500Y-49806384D01*
X127049500Y-49993616D01*
X127054316Y-50017826D01*
X127086025Y-50177244D01*
X127086027Y-50177251D01*
X127133505Y-50291874D01*
X127157678Y-50350231D01*
X127185261Y-50391512D01*
X127261686Y-50505891D01*
X127261698Y-50505908D01*
X127394092Y-50638302D01*
X127549769Y-50742322D01*
X127722749Y-50813973D01*
X127811474Y-50831621D01*
X127830581Y-50835422D01*
X127877674Y-50866888D01*
X127888723Y-50922436D01*
X127857257Y-50969529D01*
X127816145Y-50982000D01*
X126395214Y-50982000D01*
X126342888Y-50960326D01*
X124562158Y-49179596D01*
X124540484Y-49127270D01*
X124562158Y-49074944D01*
X124725010Y-48912093D01*
X124914929Y-48722174D01*
X124967255Y-48700500D01*
X125085052Y-48700500D01*
X125085056Y-48700500D01*
X125250225Y-48659790D01*
X125400852Y-48580734D01*
X125528183Y-48467929D01*
X125624818Y-48327930D01*
X125685140Y-48168872D01*
X125702953Y-48022174D01*
X125705645Y-48000003D01*
X125705645Y-47999996D01*
X125685140Y-47831128D01*
X125624818Y-47672070D01*
X125528183Y-47532071D01*
X125400856Y-47419269D01*
X125400853Y-47419267D01*
X125400852Y-47419266D01*
X125250225Y-47340210D01*
X125250222Y-47340209D01*
X125085058Y-47299500D01*
X125085056Y-47299500D01*
X124914944Y-47299500D01*
X124914941Y-47299500D01*
X124749777Y-47340209D01*
X124599146Y-47419267D01*
X124599143Y-47419269D01*
X124471816Y-47532071D01*
X124375181Y-47672070D01*
X124314859Y-47831128D01*
X124296210Y-47984719D01*
X124294355Y-48000000D01*
X124294416Y-48000500D01*
X124297433Y-48025353D01*
X124282222Y-48079910D01*
X124276298Y-48086597D01*
X123925055Y-48437841D01*
X123872729Y-48459515D01*
X123820403Y-48437841D01*
X122822174Y-47439612D01*
X122800500Y-47387286D01*
X122800500Y-47091511D01*
X122784719Y-46991874D01*
X122784718Y-46991873D01*
X122723528Y-46871780D01*
X122628219Y-46776471D01*
X122508126Y-46715281D01*
X122508125Y-46715280D01*
X122408489Y-46699500D01*
X122408488Y-46699500D01*
X122017256Y-46699500D01*
X121964930Y-46677826D01*
X121674104Y-46387000D01*
X120789114Y-45502011D01*
X120789111Y-45502009D01*
X120789110Y-45502008D01*
X120686391Y-45442703D01*
X120686389Y-45442702D01*
X120686387Y-45442701D01*
X120685085Y-45442352D01*
X120662174Y-45436212D01*
X120662174Y-45436213D01*
X120571809Y-45412000D01*
X118574500Y-45412000D01*
X118522174Y-45390326D01*
X118500500Y-45338000D01*
X118500500Y-45316746D01*
X118500500Y-45316740D01*
X118490573Y-45248607D01*
X118439198Y-45143517D01*
X118356483Y-45060802D01*
X118356482Y-45060801D01*
X118251394Y-45009427D01*
X118183264Y-44999500D01*
X118183260Y-44999500D01*
X117816740Y-44999500D01*
X117816735Y-44999500D01*
X117748606Y-45009427D01*
X117748605Y-45009427D01*
X117643517Y-45060801D01*
X117560801Y-45143517D01*
X117509427Y-45248605D01*
X117509427Y-45248606D01*
X117499500Y-45316735D01*
X114154984Y-45316735D01*
X114085058Y-45299500D01*
X114085056Y-45299500D01*
X113914944Y-45299500D01*
X113914941Y-45299500D01*
X113749777Y-45340209D01*
X113599146Y-45419267D01*
X113599143Y-45419269D01*
X113471816Y-45532071D01*
X113375181Y-45672070D01*
X113314859Y-45831128D01*
X113294355Y-45999996D01*
X113294355Y-46000003D01*
X113314859Y-46168871D01*
X113375181Y-46327929D01*
X113387326Y-46345523D01*
X113471817Y-46467929D01*
X113599148Y-46580734D01*
X113749775Y-46659790D01*
X113914944Y-46700500D01*
X113985500Y-46700500D01*
X114037826Y-46722174D01*
X114059500Y-46774500D01*
X114059500Y-47619134D01*
X114037826Y-47671460D01*
X113985500Y-47693134D01*
X113933174Y-47671460D01*
X113918433Y-47650408D01*
X113912216Y-47637076D01*
X113904065Y-47619596D01*
X113820404Y-47535935D01*
X113713173Y-47485932D01*
X113713171Y-47485931D01*
X113677178Y-47481193D01*
X113664316Y-47479500D01*
X113315684Y-47479500D01*
X113304318Y-47480996D01*
X113266828Y-47485931D01*
X113159595Y-47535935D01*
X113075933Y-47619597D01*
X113058599Y-47656773D01*
X113016842Y-47695037D01*
X112991532Y-47699500D01*
X112486920Y-47699500D01*
X112434594Y-47677826D01*
X112413831Y-47637076D01*
X112409951Y-47612583D01*
X112409951Y-47612580D01*
X112370898Y-47535935D01*
X112349659Y-47494250D01*
X112255749Y-47400340D01*
X112137420Y-47340049D01*
X112137420Y-47340048D01*
X112039247Y-47324500D01*
X112039246Y-47324500D01*
X111535754Y-47324500D01*
X111535753Y-47324500D01*
X111437579Y-47340048D01*
X111437579Y-47340049D01*
X111319250Y-47400340D01*
X111319249Y-47400341D01*
X111221224Y-47498367D01*
X111218994Y-47496137D01*
X111179659Y-47520228D01*
X111124590Y-47506992D01*
X111097858Y-47470412D01*
X111087093Y-47437926D01*
X110998887Y-47294921D01*
X110880078Y-47176112D01*
X110737073Y-47087906D01*
X110577585Y-47035057D01*
X110479139Y-47025000D01*
X110462500Y-47025000D01*
X110462500Y-48974999D01*
X110479135Y-48974999D01*
X110479140Y-48974998D01*
X110577585Y-48964942D01*
X110737073Y-48912093D01*
X110880078Y-48823887D01*
X110998887Y-48705078D01*
X111087093Y-48562073D01*
X111097858Y-48529587D01*
X111134890Y-48486734D01*
X111191378Y-48482619D01*
X111219602Y-48503254D01*
X111221224Y-48501633D01*
X111319250Y-48599659D01*
X111378414Y-48629804D01*
X111437579Y-48659950D01*
X111437579Y-48659951D01*
X111535753Y-48675500D01*
X111535754Y-48675500D01*
X112039247Y-48675500D01*
X112137420Y-48659951D01*
X112255751Y-48599658D01*
X112349658Y-48505751D01*
X112409951Y-48387420D01*
X112413831Y-48362924D01*
X112443424Y-48314633D01*
X112486920Y-48300500D01*
X112991532Y-48300500D01*
X113043858Y-48322174D01*
X113058599Y-48343227D01*
X113075933Y-48380402D01*
X113075935Y-48380404D01*
X113159596Y-48464065D01*
X113266827Y-48514068D01*
X113315684Y-48520500D01*
X113315686Y-48520500D01*
X113664314Y-48520500D01*
X113664316Y-48520500D01*
X113713173Y-48514068D01*
X113820404Y-48464065D01*
X113904065Y-48380404D01*
X113932933Y-48318495D01*
X113974690Y-48280232D01*
X114031273Y-48282702D01*
X114067067Y-48318496D01*
X114095933Y-48380402D01*
X114095935Y-48380404D01*
X114179596Y-48464065D01*
X114286827Y-48514068D01*
X114335684Y-48520500D01*
X114335686Y-48520500D01*
X114684314Y-48520500D01*
X114684316Y-48520500D01*
X114733173Y-48514068D01*
X114840404Y-48464065D01*
X114840407Y-48464061D01*
X114840664Y-48463883D01*
X114841065Y-48463756D01*
X114846271Y-48461329D01*
X114846590Y-48462014D01*
X114883109Y-48450500D01*
X116277495Y-48450500D01*
X116329821Y-48472174D01*
X116351495Y-48524500D01*
X116329821Y-48576826D01*
X115878821Y-49027826D01*
X115826495Y-49049500D01*
X115746490Y-49049500D01*
X115715688Y-49040453D01*
X115714870Y-49042247D01*
X115710054Y-49040048D01*
X115710053Y-49040047D01*
X115710050Y-49040046D01*
X115571964Y-48999500D01*
X115571961Y-48999500D01*
X115428039Y-48999500D01*
X115428036Y-48999500D01*
X115289949Y-49040046D01*
X115289945Y-49040047D01*
X115168875Y-49117855D01*
X115168868Y-49117860D01*
X115074622Y-49226627D01*
X115028350Y-49327946D01*
X115013364Y-49349530D01*
X113660071Y-50702826D01*
X113607745Y-50724500D01*
X110621544Y-50724500D01*
X110569218Y-50702826D01*
X110513343Y-50646951D01*
X110513342Y-50646950D01*
X110400304Y-50589354D01*
X110400302Y-50589353D01*
X110400301Y-50589353D01*
X110306519Y-50574500D01*
X109693480Y-50574500D01*
X109599695Y-50589353D01*
X109599693Y-50589354D01*
X109486657Y-50646950D01*
X109396951Y-50736656D01*
X109339353Y-50849698D01*
X109324500Y-50943480D01*
X101200500Y-50943480D01*
X101200500Y-48304140D01*
X109275001Y-48304140D01*
X109285057Y-48402585D01*
X109337906Y-48562073D01*
X109426112Y-48705078D01*
X109544921Y-48823887D01*
X109687926Y-48912093D01*
X109847414Y-48964942D01*
X109945861Y-48974998D01*
X109962500Y-48974998D01*
X109962500Y-48250000D01*
X109275001Y-48250000D01*
X109275001Y-48304140D01*
X101200500Y-48304140D01*
X101200500Y-47695860D01*
X109275000Y-47695860D01*
X109275000Y-47750000D01*
X109962500Y-47750000D01*
X109962500Y-47024999D01*
X109962499Y-47024999D01*
X109945867Y-47025000D01*
X109945857Y-47025001D01*
X109847414Y-47035057D01*
X109687926Y-47087906D01*
X109544921Y-47176112D01*
X109426112Y-47294921D01*
X109337906Y-47437926D01*
X109285057Y-47597414D01*
X109275000Y-47695860D01*
X101200500Y-47695860D01*
X101200500Y-43872158D01*
X104049500Y-43872158D01*
X104049500Y-44127841D01*
X104082873Y-44381338D01*
X104149049Y-44628309D01*
X104149051Y-44628316D01*
X104246892Y-44864526D01*
X104246895Y-44864534D01*
X104374736Y-45085961D01*
X104374740Y-45085967D01*
X104418900Y-45143517D01*
X104530390Y-45288813D01*
X104711187Y-45469610D01*
X104914035Y-45625261D01*
X105135465Y-45753104D01*
X105371687Y-45850950D01*
X105618660Y-45917126D01*
X105872157Y-45950500D01*
X105872159Y-45950500D01*
X106127841Y-45950500D01*
X106127843Y-45950500D01*
X106381340Y-45917126D01*
X106628313Y-45850950D01*
X106864535Y-45753104D01*
X107085965Y-45625261D01*
X107288813Y-45469610D01*
X107469610Y-45288813D01*
X107625261Y-45085965D01*
X107753104Y-44864535D01*
X107850950Y-44628313D01*
X107917126Y-44381340D01*
X107950500Y-44127843D01*
X107950500Y-43872158D01*
X128049500Y-43872158D01*
X128049500Y-44127841D01*
X128082873Y-44381338D01*
X128149049Y-44628309D01*
X128149051Y-44628316D01*
X128246892Y-44864526D01*
X128246895Y-44864534D01*
X128374736Y-45085961D01*
X128374740Y-45085967D01*
X128418900Y-45143517D01*
X128530390Y-45288813D01*
X128711187Y-45469610D01*
X128914035Y-45625261D01*
X129135465Y-45753104D01*
X129371687Y-45850950D01*
X129618660Y-45917126D01*
X129872157Y-45950500D01*
X129872159Y-45950500D01*
X130127841Y-45950500D01*
X130127843Y-45950500D01*
X130381340Y-45917126D01*
X130628313Y-45850950D01*
X130864535Y-45753104D01*
X131085965Y-45625261D01*
X131288813Y-45469610D01*
X131469610Y-45288813D01*
X131625261Y-45085965D01*
X131753104Y-44864535D01*
X131850950Y-44628313D01*
X131917126Y-44381340D01*
X131950500Y-44127843D01*
X131950500Y-43872157D01*
X131917126Y-43618660D01*
X131850950Y-43371687D01*
X131753104Y-43135465D01*
X131625261Y-42914035D01*
X131469610Y-42711187D01*
X131288813Y-42530390D01*
X131085967Y-42374740D01*
X131085961Y-42374736D01*
X130864534Y-42246895D01*
X130864526Y-42246892D01*
X130628316Y-42149051D01*
X130628314Y-42149050D01*
X130628313Y-42149050D01*
X130595222Y-42140183D01*
X130381338Y-42082873D01*
X130194589Y-42058287D01*
X130127843Y-42049500D01*
X129872157Y-42049500D01*
X129813176Y-42057265D01*
X129618661Y-42082873D01*
X129371690Y-42149049D01*
X129371683Y-42149051D01*
X129135473Y-42246892D01*
X129135465Y-42246895D01*
X128914038Y-42374736D01*
X128914032Y-42374740D01*
X128711186Y-42530390D01*
X128530390Y-42711186D01*
X128374740Y-42914032D01*
X128374736Y-42914038D01*
X128246895Y-43135465D01*
X128246892Y-43135473D01*
X128149051Y-43371683D01*
X128149049Y-43371690D01*
X128082873Y-43618661D01*
X128049500Y-43872158D01*
X107950500Y-43872158D01*
X107950500Y-43872157D01*
X107917126Y-43618660D01*
X107850950Y-43371687D01*
X107753104Y-43135465D01*
X107625261Y-42914035D01*
X107469610Y-42711187D01*
X107288813Y-42530390D01*
X107085967Y-42374740D01*
X107085961Y-42374736D01*
X106864534Y-42246895D01*
X106864526Y-42246892D01*
X106628316Y-42149051D01*
X106628314Y-42149050D01*
X106628313Y-42149050D01*
X106595222Y-42140183D01*
X106381338Y-42082873D01*
X106194589Y-42058287D01*
X106127843Y-42049500D01*
X105872157Y-42049500D01*
X105813176Y-42057265D01*
X105618661Y-42082873D01*
X105371690Y-42149049D01*
X105371683Y-42149051D01*
X105135473Y-42246892D01*
X105135465Y-42246895D01*
X104914038Y-42374736D01*
X104914032Y-42374740D01*
X104711186Y-42530390D01*
X104530390Y-42711186D01*
X104374740Y-42914032D01*
X104374736Y-42914038D01*
X104246895Y-43135465D01*
X104246892Y-43135473D01*
X104149051Y-43371683D01*
X104149049Y-43371690D01*
X104082873Y-43618661D01*
X104049500Y-43872158D01*
X101200500Y-43872158D01*
X101200500Y-42002083D01*
X101200616Y-41997934D01*
X101202740Y-41960118D01*
X101217870Y-41690688D01*
X101218800Y-41682450D01*
X101269994Y-41381140D01*
X101271833Y-41373080D01*
X101356453Y-41079361D01*
X101359183Y-41071558D01*
X101476150Y-40789175D01*
X101479743Y-40781713D01*
X101627590Y-40514204D01*
X101631991Y-40507199D01*
X101808875Y-40257904D01*
X101814020Y-40251453D01*
X102017690Y-40023548D01*
X102023553Y-40017686D01*
X102251453Y-39814020D01*
X102257904Y-39808875D01*
X102507199Y-39631991D01*
X102514204Y-39627590D01*
X102781713Y-39479743D01*
X102789175Y-39476150D01*
X103071558Y-39359183D01*
X103079361Y-39356453D01*
X103373080Y-39271833D01*
X103381140Y-39269994D01*
X103682458Y-39218799D01*
X103690688Y-39217870D01*
X103997934Y-39200615D01*
X104002083Y-39200500D01*
X104039882Y-39200500D01*
X131960118Y-39200500D01*
X131997917Y-39200500D01*
X132002065Y-39200615D01*
G37*
%TD.AperFunction*%
%TD*%
M02*
