M48
; DRILL file {KiCad 8.0.2} date 2024-12-26T16:14:04-0500
; FORMAT={-:-/ absolute / metric / decimal}
; #@! TF.CreationDate,2024-12-26T16:14:04-05:00
; #@! TF.GenerationSoftware,Kicad,Pcbnew,8.0.2
; #@! TF.FileFunction,Plated,1,4,PTH
FMAT,2
METRIC
; #@! TA.AperFunction,Plated,PTH,ViaDrill
T1C0.300
; #@! TA.AperFunction,Plated,PTH,ComponentDrill
T2C0.950
%
G90
G05
T1
X102.0Y-44.0
X102.0Y-46.0
X102.0Y-48.0
X102.0Y-50.0
X102.0Y-52.0
X102.0Y-54.0
X102.0Y-56.0
X102.0Y-58.0
X102.0Y-60.0
X102.0Y-62.0
X102.0Y-64.0
X102.0Y-66.0
X103.0Y-41.0
X103.0Y-69.0
X105.0Y-48.0
X105.0Y-50.0
X105.0Y-52.0
X105.0Y-54.0
X105.0Y-56.0
X105.0Y-58.0
X105.0Y-60.0
X105.0Y-62.0
X106.0Y-40.0
X106.0Y-70.0
X108.0Y-47.0
X108.0Y-49.0
X108.0Y-51.0
X108.0Y-53.0
X108.0Y-55.0
X108.0Y-57.0
X108.0Y-61.0
X108.0Y-63.0
X109.0Y-40.0
X109.0Y-70.0
X110.0Y-44.0
X110.0Y-46.0
X110.0Y-56.0
X110.0Y-66.0
X111.0Y-57.0
X111.0Y-64.0
X112.0Y-40.0
X112.0Y-42.0
X112.0Y-45.0
X112.0Y-50.0
X112.0Y-68.0
X112.0Y-70.0
X113.0Y-52.0
X114.0Y-44.0
X114.0Y-49.0
X114.0Y-64.0
X114.0Y-66.0
X115.0Y-40.0
X115.0Y-52.0
X115.0Y-54.0
X115.0Y-57.0
X115.0Y-70.0
X115.5Y-49.5
X116.0Y-42.0
X116.0Y-45.0
X116.0Y-51.0
X116.0Y-53.0
X116.0Y-61.0
X116.0Y-63.0
X116.0Y-65.0
X116.0Y-68.0
X117.0Y-55.0
X118.0Y-40.0
X118.0Y-44.0
X118.0Y-56.0
X118.0Y-60.0
X118.0Y-62.0
X118.0Y-64.0
X118.0Y-66.0
X118.0Y-70.0
X119.0Y-53.0
X119.0Y-55.0
X120.0Y-42.0
X120.0Y-45.0
X120.0Y-56.0
X120.0Y-59.0
X120.0Y-63.0
X120.0Y-65.0
X120.0Y-68.0
X121.0Y-40.0
X121.0Y-53.0
X121.0Y-55.0
X121.0Y-70.0
X122.0Y-44.0
X122.0Y-46.0
X122.0Y-56.0
X122.0Y-58.0
X122.0Y-64.0
X122.0Y-66.0
X123.0Y-55.0
X124.0Y-40.0
X124.0Y-42.0
X124.0Y-45.0
X124.0Y-47.0
X124.0Y-51.0
X124.0Y-56.0
X124.0Y-61.0
X124.0Y-63.0
X124.0Y-65.0
X124.0Y-68.0
X124.0Y-70.0
X125.0Y-55.0
X126.0Y-44.0
X126.0Y-46.0
X126.0Y-48.0
X126.0Y-56.0
X126.0Y-58.0
X126.0Y-60.0
X126.0Y-62.0
X126.0Y-64.0
X126.0Y-66.0
X127.0Y-40.0
X127.0Y-55.0
X127.0Y-70.0
X128.0Y-47.0
X128.0Y-53.0
X128.0Y-56.0
X128.0Y-59.0
X128.0Y-61.0
X128.0Y-63.0
X128.0Y-68.0
X130.0Y-40.0
X130.0Y-48.0
X130.0Y-62.0
X130.0Y-70.0
X132.0Y-47.0
X132.0Y-49.0
X132.0Y-51.0
X132.0Y-53.0
X132.0Y-55.0
X132.0Y-57.0
X132.0Y-59.0
X132.0Y-61.0
X132.0Y-63.0
X133.0Y-41.0
X133.0Y-69.0
X134.0Y-44.0
X134.0Y-46.0
X134.0Y-48.0
X134.0Y-50.0
X134.0Y-52.0
X134.0Y-54.0
X134.0Y-56.0
X134.0Y-58.0
X134.0Y-60.0
X134.0Y-62.0
X134.0Y-64.0
X134.0Y-66.0
T2
X130.0Y-51.5
X130.0Y-54.0
X130.0Y-56.5
X130.0Y-59.0
M30
