%TF.GenerationSoftware,KiCad,Pcbnew,8.0.2*%
%TF.CreationDate,2024-12-26T16:13:31-05:00*%
%TF.ProjectId,TOF Sensor,544f4620-5365-46e7-936f-722e6b696361,rev?*%
%TF.SameCoordinates,Original*%
%TF.FileFunction,Copper,L3,Inr*%
%TF.FilePolarity,Positive*%
%FSLAX46Y46*%
G04 Gerber Fmt 4.6, Leading zero omitted, Abs format (unit mm)*
G04 Created by KiCad (PCBNEW 8.0.2) date 2024-12-26 16:13:31*
%MOMM*%
%LPD*%
G01*
G04 APERTURE LIST*
G04 Aperture macros list*
%AMRoundRect*
0 Rectangle with rounded corners*
0 $1 Rounding radius*
0 $2 $3 $4 $5 $6 $7 $8 $9 X,Y pos of 4 corners*
0 Add a 4 corners polygon primitive as box body*
4,1,4,$2,$3,$4,$5,$6,$7,$8,$9,$2,$3,0*
0 Add four circle primitives for the rounded corners*
1,1,$1+$1,$2,$3*
1,1,$1+$1,$4,$5*
1,1,$1+$1,$6,$7*
1,1,$1+$1,$8,$9*
0 Add four rect primitives between the rounded corners*
20,1,$1+$1,$2,$3,$4,$5,0*
20,1,$1+$1,$4,$5,$6,$7,0*
20,1,$1+$1,$6,$7,$8,$9,0*
20,1,$1+$1,$8,$9,$2,$3,0*%
G04 Aperture macros list end*
%TA.AperFunction,ComponentPad*%
%ADD10RoundRect,0.250000X-0.725000X0.600000X-0.725000X-0.600000X0.725000X-0.600000X0.725000X0.600000X0*%
%TD*%
%TA.AperFunction,ComponentPad*%
%ADD11O,1.950000X1.700000*%
%TD*%
%TA.AperFunction,ViaPad*%
%ADD12C,0.600000*%
%TD*%
G04 APERTURE END LIST*
D10*
%TO.N,VIN_TOF*%
%TO.C,J1*%
X130000000Y-51500000D03*
D11*
%TO.N,/I2C.SDA*%
X130000000Y-54000000D03*
%TO.N,/I2C.SCL*%
X130000000Y-56500000D03*
%TO.N,GND*%
X130000000Y-59000000D03*
%TD*%
D12*
%TO.N,3V3*%
X111000000Y-57000000D03*
X115500000Y-49500000D03*
%TO.N,GND*%
X126000000Y-44000000D03*
X124000000Y-63000000D03*
X118000000Y-66000000D03*
X108000000Y-47000000D03*
X108000000Y-63000000D03*
X128000000Y-61000000D03*
X102000000Y-46000000D03*
X124000000Y-40000000D03*
X132000000Y-51000000D03*
X122000000Y-64000000D03*
X128000000Y-59000000D03*
X115000000Y-57000000D03*
X108000000Y-51000000D03*
X110000000Y-66000000D03*
X134000000Y-52000000D03*
X132000000Y-47000000D03*
X115000000Y-70000000D03*
X102000000Y-54000000D03*
X114000000Y-64000000D03*
X132000000Y-61000000D03*
X121000000Y-70000000D03*
X106000000Y-40000000D03*
X124000000Y-47000000D03*
X126000000Y-62000000D03*
X118000000Y-62000000D03*
X127000000Y-55000000D03*
X108000000Y-55000000D03*
X134000000Y-48000000D03*
X110000000Y-56000000D03*
X126000000Y-58000000D03*
X121000000Y-40000000D03*
X127000000Y-40000000D03*
X115000000Y-40000000D03*
X134000000Y-66000000D03*
X126000000Y-64000000D03*
X118000000Y-56000000D03*
X108000000Y-61000000D03*
X134000000Y-64000000D03*
X113000000Y-52000000D03*
X102000000Y-56000000D03*
X134000000Y-58000000D03*
X124000000Y-51000000D03*
X105000000Y-62000000D03*
X116000000Y-42000000D03*
X128000000Y-68000000D03*
X110000000Y-44000000D03*
X112000000Y-70000000D03*
X132000000Y-55000000D03*
X102000000Y-44000000D03*
X128000000Y-56000000D03*
X124000000Y-45000000D03*
X102000000Y-58000000D03*
X119000000Y-53000000D03*
X124000000Y-65000000D03*
X105000000Y-60000000D03*
X118000000Y-70000000D03*
X132000000Y-59000000D03*
X115000000Y-52000000D03*
X116000000Y-63000000D03*
X109000000Y-40000000D03*
X132000000Y-57000000D03*
X132000000Y-49000000D03*
X120000000Y-65000000D03*
X118000000Y-40000000D03*
X125000000Y-55000000D03*
X116000000Y-45000000D03*
X121000000Y-55000000D03*
X122000000Y-66000000D03*
X119000000Y-55000000D03*
X108000000Y-49000000D03*
X102000000Y-66000000D03*
X102000000Y-50000000D03*
X120000000Y-42000000D03*
X114000000Y-44000000D03*
X134000000Y-50000000D03*
X134000000Y-44000000D03*
X116000000Y-68000000D03*
X132000000Y-63000000D03*
X103000000Y-41000000D03*
X114000000Y-66000000D03*
X124000000Y-70000000D03*
X134000000Y-60000000D03*
X130000000Y-70000000D03*
X112000000Y-50000000D03*
X134000000Y-62000000D03*
X120000000Y-45000000D03*
X128000000Y-53000000D03*
X105000000Y-50000000D03*
X120000000Y-59000000D03*
X124000000Y-42000000D03*
X116000000Y-53000000D03*
X124000000Y-68000000D03*
X106000000Y-70000000D03*
X120000000Y-63000000D03*
X126000000Y-46000000D03*
X105000000Y-58000000D03*
X105000000Y-48000000D03*
X128000000Y-63000000D03*
X105000000Y-52000000D03*
X105000000Y-56000000D03*
X109000000Y-70000000D03*
X120000000Y-68000000D03*
X134000000Y-46000000D03*
X127000000Y-70000000D03*
X108000000Y-53000000D03*
X108000000Y-57000000D03*
X122000000Y-58000000D03*
X118000000Y-64000000D03*
X116000000Y-61000000D03*
X122000000Y-44000000D03*
X124000000Y-61000000D03*
X115000000Y-54000000D03*
X133000000Y-69000000D03*
X102000000Y-60000000D03*
X102000000Y-52000000D03*
X128000000Y-47000000D03*
X118000000Y-60000000D03*
X102000000Y-62000000D03*
X117000000Y-55000000D03*
X124000000Y-56000000D03*
X123000000Y-55000000D03*
X134000000Y-54000000D03*
X126000000Y-66000000D03*
X126000000Y-48000000D03*
X111000000Y-64000000D03*
X134000000Y-56000000D03*
X133000000Y-41000000D03*
X121000000Y-53000000D03*
X103000000Y-69000000D03*
X102000000Y-48000000D03*
X130000000Y-48000000D03*
X102000000Y-64000000D03*
X112000000Y-68000000D03*
X114000000Y-49000000D03*
X130000000Y-62000000D03*
X122000000Y-56000000D03*
X126000000Y-60000000D03*
X116000000Y-51000000D03*
X105000000Y-54000000D03*
X112000000Y-45000000D03*
X130000000Y-40000000D03*
X122000000Y-46000000D03*
X126000000Y-56000000D03*
X112000000Y-42000000D03*
X120000000Y-56000000D03*
X118000000Y-44000000D03*
X110000000Y-46000000D03*
X112000000Y-40000000D03*
X116000000Y-65000000D03*
X132000000Y-53000000D03*
%TD*%
%TA.AperFunction,Conductor*%
%TO.N,GND*%
G36*
X132002065Y-39200615D02*
G01*
X132309309Y-39217870D01*
X132317543Y-39218799D01*
X132618855Y-39269993D01*
X132626923Y-39271834D01*
X132920633Y-39356451D01*
X132928447Y-39359185D01*
X133210817Y-39476147D01*
X133218293Y-39479747D01*
X133485784Y-39627584D01*
X133492808Y-39631997D01*
X133742086Y-39808869D01*
X133748554Y-39814028D01*
X133901670Y-39950862D01*
X133976446Y-40017686D01*
X133982313Y-40023553D01*
X134065033Y-40116116D01*
X134185969Y-40251443D01*
X134191132Y-40257915D01*
X134346337Y-40476657D01*
X134368000Y-40507188D01*
X134372415Y-40514215D01*
X134520252Y-40781706D01*
X134523852Y-40789182D01*
X134640810Y-41071543D01*
X134643551Y-41079376D01*
X134728162Y-41373065D01*
X134730008Y-41381156D01*
X134781199Y-41682450D01*
X134782129Y-41690696D01*
X134799384Y-41997934D01*
X134799500Y-42002083D01*
X134799500Y-67997916D01*
X134799384Y-68002065D01*
X134782129Y-68309303D01*
X134781199Y-68317549D01*
X134730008Y-68618843D01*
X134728162Y-68626934D01*
X134643551Y-68920623D01*
X134640810Y-68928456D01*
X134523852Y-69210817D01*
X134520252Y-69218293D01*
X134372415Y-69485784D01*
X134368000Y-69492811D01*
X134191138Y-69742076D01*
X134185963Y-69748564D01*
X133982313Y-69976446D01*
X133976446Y-69982313D01*
X133748564Y-70185963D01*
X133742076Y-70191138D01*
X133492811Y-70368000D01*
X133485784Y-70372415D01*
X133218293Y-70520252D01*
X133210817Y-70523852D01*
X132928456Y-70640810D01*
X132920623Y-70643551D01*
X132626934Y-70728162D01*
X132618843Y-70730008D01*
X132317549Y-70781199D01*
X132309303Y-70782129D01*
X132002066Y-70799384D01*
X131997917Y-70799500D01*
X104002083Y-70799500D01*
X103997934Y-70799384D01*
X103690696Y-70782129D01*
X103682450Y-70781199D01*
X103381156Y-70730008D01*
X103373065Y-70728162D01*
X103079376Y-70643551D01*
X103071543Y-70640810D01*
X102789182Y-70523852D01*
X102781706Y-70520252D01*
X102514215Y-70372415D01*
X102507188Y-70368000D01*
X102363715Y-70266201D01*
X102257915Y-70191132D01*
X102251443Y-70185969D01*
X102062260Y-70016904D01*
X102023553Y-69982313D01*
X102017686Y-69976446D01*
X101950862Y-69901670D01*
X101814028Y-69748554D01*
X101808869Y-69742086D01*
X101631997Y-69492808D01*
X101627584Y-69485784D01*
X101610565Y-69454991D01*
X101479747Y-69218293D01*
X101476147Y-69210817D01*
X101450347Y-69148531D01*
X101359185Y-68928447D01*
X101356451Y-68920633D01*
X101271834Y-68626923D01*
X101269993Y-68618855D01*
X101218799Y-68317543D01*
X101217870Y-68309303D01*
X101200616Y-68002065D01*
X101200500Y-67997916D01*
X101200500Y-65872158D01*
X104049500Y-65872158D01*
X104049500Y-66127841D01*
X104082873Y-66381338D01*
X104149049Y-66628309D01*
X104149051Y-66628316D01*
X104246892Y-66864526D01*
X104246895Y-66864534D01*
X104374736Y-67085961D01*
X104374740Y-67085967D01*
X104530390Y-67288813D01*
X104711187Y-67469610D01*
X104914035Y-67625261D01*
X105135465Y-67753104D01*
X105371687Y-67850950D01*
X105618660Y-67917126D01*
X105872157Y-67950500D01*
X105872159Y-67950500D01*
X106127841Y-67950500D01*
X106127843Y-67950500D01*
X106381340Y-67917126D01*
X106628313Y-67850950D01*
X106864535Y-67753104D01*
X107085965Y-67625261D01*
X107288813Y-67469610D01*
X107469610Y-67288813D01*
X107625261Y-67085965D01*
X107753104Y-66864535D01*
X107850950Y-66628313D01*
X107917126Y-66381340D01*
X107950500Y-66127843D01*
X107950500Y-65872158D01*
X128049500Y-65872158D01*
X128049500Y-66127841D01*
X128082873Y-66381338D01*
X128149049Y-66628309D01*
X128149051Y-66628316D01*
X128246892Y-66864526D01*
X128246895Y-66864534D01*
X128374736Y-67085961D01*
X128374740Y-67085967D01*
X128530390Y-67288813D01*
X128711187Y-67469610D01*
X128914035Y-67625261D01*
X129135465Y-67753104D01*
X129371687Y-67850950D01*
X129618660Y-67917126D01*
X129872157Y-67950500D01*
X129872159Y-67950500D01*
X130127841Y-67950500D01*
X130127843Y-67950500D01*
X130381340Y-67917126D01*
X130628313Y-67850950D01*
X130864535Y-67753104D01*
X131085965Y-67625261D01*
X131288813Y-67469610D01*
X131469610Y-67288813D01*
X131625261Y-67085965D01*
X131753104Y-66864535D01*
X131850950Y-66628313D01*
X131917126Y-66381340D01*
X131950500Y-66127843D01*
X131950500Y-65872157D01*
X131917126Y-65618660D01*
X131850950Y-65371687D01*
X131753104Y-65135465D01*
X131625261Y-64914035D01*
X131469610Y-64711187D01*
X131288813Y-64530390D01*
X131085967Y-64374740D01*
X131085961Y-64374736D01*
X130864534Y-64246895D01*
X130864526Y-64246892D01*
X130628316Y-64149051D01*
X130628314Y-64149050D01*
X130628313Y-64149050D01*
X130595222Y-64140183D01*
X130381338Y-64082873D01*
X130194589Y-64058287D01*
X130127843Y-64049500D01*
X129872157Y-64049500D01*
X129813176Y-64057265D01*
X129618661Y-64082873D01*
X129371690Y-64149049D01*
X129371683Y-64149051D01*
X129135473Y-64246892D01*
X129135465Y-64246895D01*
X128914038Y-64374736D01*
X128914032Y-64374740D01*
X128711186Y-64530390D01*
X128530390Y-64711186D01*
X128374740Y-64914032D01*
X128374736Y-64914038D01*
X128246895Y-65135465D01*
X128246892Y-65135473D01*
X128149051Y-65371683D01*
X128149049Y-65371690D01*
X128082873Y-65618661D01*
X128049500Y-65872158D01*
X107950500Y-65872158D01*
X107950500Y-65872157D01*
X107917126Y-65618660D01*
X107850950Y-65371687D01*
X107753104Y-65135465D01*
X107625261Y-64914035D01*
X107469610Y-64711187D01*
X107288813Y-64530390D01*
X107085967Y-64374740D01*
X107085961Y-64374736D01*
X106864534Y-64246895D01*
X106864526Y-64246892D01*
X106628316Y-64149051D01*
X106628314Y-64149050D01*
X106628313Y-64149050D01*
X106595222Y-64140183D01*
X106381338Y-64082873D01*
X106194589Y-64058287D01*
X106127843Y-64049500D01*
X105872157Y-64049500D01*
X105813176Y-64057265D01*
X105618661Y-64082873D01*
X105371690Y-64149049D01*
X105371683Y-64149051D01*
X105135473Y-64246892D01*
X105135465Y-64246895D01*
X104914038Y-64374736D01*
X104914032Y-64374740D01*
X104711186Y-64530390D01*
X104530390Y-64711186D01*
X104374740Y-64914032D01*
X104374736Y-64914038D01*
X104246895Y-65135465D01*
X104246892Y-65135473D01*
X104149051Y-65371683D01*
X104149049Y-65371690D01*
X104082873Y-65618661D01*
X104049500Y-65872158D01*
X101200500Y-65872158D01*
X101200500Y-58750000D01*
X128547769Y-58750000D01*
X129595854Y-58750000D01*
X129557370Y-58816657D01*
X129525000Y-58937465D01*
X129525000Y-59062535D01*
X129557370Y-59183343D01*
X129595854Y-59250000D01*
X128547769Y-59250000D01*
X128558241Y-59316122D01*
X128558244Y-59316136D01*
X128623904Y-59518217D01*
X128623906Y-59518221D01*
X128720375Y-59707550D01*
X128720378Y-59707556D01*
X128845274Y-59879461D01*
X128845283Y-59879471D01*
X128995529Y-60029717D01*
X128995538Y-60029725D01*
X129167443Y-60154621D01*
X129167449Y-60154624D01*
X129356778Y-60251093D01*
X129356782Y-60251095D01*
X129558863Y-60316755D01*
X129558876Y-60316758D01*
X129749998Y-60347029D01*
X129750000Y-60347028D01*
X129750000Y-59404145D01*
X129816657Y-59442630D01*
X129937465Y-59475000D01*
X130062535Y-59475000D01*
X130183343Y-59442630D01*
X130250000Y-59404145D01*
X130250000Y-60347028D01*
X130250001Y-60347029D01*
X130441123Y-60316758D01*
X130441136Y-60316755D01*
X130643217Y-60251095D01*
X130643221Y-60251093D01*
X130832550Y-60154624D01*
X130832556Y-60154621D01*
X131004461Y-60029725D01*
X131004471Y-60029717D01*
X131154717Y-59879471D01*
X131154725Y-59879461D01*
X131279621Y-59707556D01*
X131279624Y-59707550D01*
X131376093Y-59518221D01*
X131376095Y-59518217D01*
X131441755Y-59316136D01*
X131441758Y-59316122D01*
X131452231Y-59250000D01*
X130404146Y-59250000D01*
X130442630Y-59183343D01*
X130475000Y-59062535D01*
X130475000Y-58937465D01*
X130442630Y-58816657D01*
X130404146Y-58750000D01*
X131452230Y-58750000D01*
X131441758Y-58683877D01*
X131441755Y-58683863D01*
X131376095Y-58481782D01*
X131376093Y-58481778D01*
X131279624Y-58292449D01*
X131279621Y-58292443D01*
X131154725Y-58120538D01*
X131154717Y-58120529D01*
X131004471Y-57970283D01*
X131004461Y-57970274D01*
X130832556Y-57845378D01*
X130832550Y-57845375D01*
X130643221Y-57748906D01*
X130643217Y-57748904D01*
X130441136Y-57683244D01*
X130441125Y-57683242D01*
X130360501Y-57670472D01*
X130312210Y-57640879D01*
X130298989Y-57585806D01*
X130328582Y-57537515D01*
X130357640Y-57524805D01*
X130431420Y-57510130D01*
X130622598Y-57430941D01*
X130794655Y-57315977D01*
X130940977Y-57169655D01*
X131055941Y-56997598D01*
X131135130Y-56806420D01*
X131175500Y-56603465D01*
X131175500Y-56396535D01*
X131135130Y-56193580D01*
X131055941Y-56002402D01*
X130940977Y-55830345D01*
X130794655Y-55684023D01*
X130622598Y-55569059D01*
X130431420Y-55489870D01*
X130431413Y-55489868D01*
X130278516Y-55459455D01*
X130228465Y-55449500D01*
X129771535Y-55449500D01*
X129731385Y-55457486D01*
X129568586Y-55489868D01*
X129568579Y-55489870D01*
X129377401Y-55569059D01*
X129205345Y-55684022D01*
X129205344Y-55684024D01*
X129059024Y-55830344D01*
X129059022Y-55830345D01*
X128944059Y-56002401D01*
X128864870Y-56193579D01*
X128864868Y-56193586D01*
X128824500Y-56396535D01*
X128824500Y-56603464D01*
X128864868Y-56806413D01*
X128864870Y-56806420D01*
X128944059Y-56997598D01*
X129059023Y-57169655D01*
X129205345Y-57315977D01*
X129377402Y-57430941D01*
X129568580Y-57510130D01*
X129642357Y-57524805D01*
X129689450Y-57556270D01*
X129700499Y-57611819D01*
X129669034Y-57658912D01*
X129639498Y-57670472D01*
X129558874Y-57683242D01*
X129558863Y-57683244D01*
X129356782Y-57748904D01*
X129356778Y-57748906D01*
X129167449Y-57845375D01*
X129167443Y-57845378D01*
X128995538Y-57970274D01*
X128845274Y-58120538D01*
X128720378Y-58292443D01*
X128720375Y-58292449D01*
X128623906Y-58481778D01*
X128623904Y-58481782D01*
X128558244Y-58683863D01*
X128558241Y-58683877D01*
X128547769Y-58750000D01*
X101200500Y-58750000D01*
X101200500Y-57000000D01*
X110494353Y-57000000D01*
X110514834Y-57142454D01*
X110574623Y-57273373D01*
X110668868Y-57382139D01*
X110668869Y-57382140D01*
X110668872Y-57382143D01*
X110789947Y-57459953D01*
X110896403Y-57491211D01*
X110928035Y-57500499D01*
X110928037Y-57500500D01*
X110928039Y-57500500D01*
X111071963Y-57500500D01*
X111071964Y-57500499D01*
X111210053Y-57459953D01*
X111331128Y-57382143D01*
X111425377Y-57273373D01*
X111485165Y-57142457D01*
X111505647Y-57000000D01*
X111485165Y-56857543D01*
X111425377Y-56726627D01*
X111331128Y-56617857D01*
X111274182Y-56581260D01*
X111210054Y-56540047D01*
X111210050Y-56540046D01*
X111071964Y-56499500D01*
X111071961Y-56499500D01*
X110928039Y-56499500D01*
X110928036Y-56499500D01*
X110789949Y-56540046D01*
X110789945Y-56540047D01*
X110668875Y-56617855D01*
X110668868Y-56617860D01*
X110574623Y-56726626D01*
X110514834Y-56857545D01*
X110494353Y-57000000D01*
X101200500Y-57000000D01*
X101200500Y-53896535D01*
X128824500Y-53896535D01*
X128824500Y-54103464D01*
X128864868Y-54306413D01*
X128864870Y-54306420D01*
X128944059Y-54497598D01*
X129059023Y-54669655D01*
X129205345Y-54815977D01*
X129377402Y-54930941D01*
X129568580Y-55010130D01*
X129771535Y-55050500D01*
X129771536Y-55050500D01*
X130228464Y-55050500D01*
X130228465Y-55050500D01*
X130431420Y-55010130D01*
X130622598Y-54930941D01*
X130794655Y-54815977D01*
X130940977Y-54669655D01*
X131055941Y-54497598D01*
X131135130Y-54306420D01*
X131175500Y-54103465D01*
X131175500Y-53896535D01*
X131135130Y-53693580D01*
X131055941Y-53502402D01*
X130940977Y-53330345D01*
X130794655Y-53184023D01*
X130622598Y-53069059D01*
X130431420Y-52989870D01*
X130431413Y-52989868D01*
X130278516Y-52959455D01*
X130228465Y-52949500D01*
X129771535Y-52949500D01*
X129731385Y-52957486D01*
X129568586Y-52989868D01*
X129568579Y-52989870D01*
X129377401Y-53069059D01*
X129205345Y-53184022D01*
X129205344Y-53184024D01*
X129059024Y-53330344D01*
X129059022Y-53330345D01*
X128944059Y-53502401D01*
X128864870Y-53693579D01*
X128864868Y-53693586D01*
X128824500Y-53896535D01*
X101200500Y-53896535D01*
X101200500Y-49500000D01*
X114994353Y-49500000D01*
X115014834Y-49642454D01*
X115074623Y-49773373D01*
X115168868Y-49882139D01*
X115168869Y-49882140D01*
X115168872Y-49882143D01*
X115289947Y-49959953D01*
X115396403Y-49991211D01*
X115428035Y-50000499D01*
X115428037Y-50000500D01*
X115428039Y-50000500D01*
X115571963Y-50000500D01*
X115571964Y-50000499D01*
X115710053Y-49959953D01*
X115831128Y-49882143D01*
X115896773Y-49806384D01*
X127049500Y-49806384D01*
X127049500Y-49993615D01*
X127086025Y-50177244D01*
X127086027Y-50177251D01*
X127157678Y-50350231D01*
X127224007Y-50449500D01*
X127255883Y-50497206D01*
X127261698Y-50505908D01*
X127394092Y-50638302D01*
X127549769Y-50742322D01*
X127722749Y-50813973D01*
X127906384Y-50850500D01*
X127906385Y-50850500D01*
X128093615Y-50850500D01*
X128093616Y-50850500D01*
X128117576Y-50845734D01*
X128824500Y-50845734D01*
X128824500Y-52154266D01*
X128827354Y-52184699D01*
X128827354Y-52184701D01*
X128827355Y-52184704D01*
X128872206Y-52312881D01*
X128872207Y-52312883D01*
X128952846Y-52422146D01*
X128952853Y-52422153D01*
X129062116Y-52502792D01*
X129062118Y-52502793D01*
X129190295Y-52547644D01*
X129190301Y-52547646D01*
X129220734Y-52550500D01*
X129220741Y-52550500D01*
X130779258Y-52550500D01*
X130779266Y-52550500D01*
X130809699Y-52547646D01*
X130937882Y-52502793D01*
X131047150Y-52422150D01*
X131127793Y-52312882D01*
X131172646Y-52184699D01*
X131175500Y-52154266D01*
X131175500Y-50845734D01*
X131172646Y-50815301D01*
X131127793Y-50687118D01*
X131127792Y-50687116D01*
X131047153Y-50577853D01*
X131047146Y-50577846D01*
X130937883Y-50497207D01*
X130937881Y-50497206D01*
X130809704Y-50452355D01*
X130809705Y-50452355D01*
X130809700Y-50452354D01*
X130809699Y-50452354D01*
X130779266Y-50449500D01*
X129220734Y-50449500D01*
X129190301Y-50452354D01*
X129190299Y-50452354D01*
X129190295Y-50452355D01*
X129062118Y-50497206D01*
X129062116Y-50497207D01*
X128952853Y-50577846D01*
X128952846Y-50577853D01*
X128872207Y-50687116D01*
X128872206Y-50687118D01*
X128827355Y-50815295D01*
X128827354Y-50815299D01*
X128827354Y-50815301D01*
X128824500Y-50845734D01*
X128117576Y-50845734D01*
X128277251Y-50813973D01*
X128450231Y-50742322D01*
X128605908Y-50638302D01*
X128738302Y-50505908D01*
X128842322Y-50350231D01*
X128913973Y-50177251D01*
X128950500Y-49993616D01*
X128950500Y-49806384D01*
X128913973Y-49622749D01*
X128842322Y-49449769D01*
X128738302Y-49294092D01*
X128605908Y-49161698D01*
X128450231Y-49057678D01*
X128450228Y-49057676D01*
X128450227Y-49057676D01*
X128277251Y-48986027D01*
X128277244Y-48986025D01*
X128138902Y-48958507D01*
X128093616Y-48949500D01*
X127906384Y-48949500D01*
X127870056Y-48956725D01*
X127722755Y-48986025D01*
X127722748Y-48986027D01*
X127549772Y-49057676D01*
X127394092Y-49161697D01*
X127394091Y-49161699D01*
X127261699Y-49294091D01*
X127261697Y-49294092D01*
X127157676Y-49449772D01*
X127086027Y-49622748D01*
X127086025Y-49622755D01*
X127049500Y-49806384D01*
X115896773Y-49806384D01*
X115925377Y-49773373D01*
X115985165Y-49642457D01*
X116005647Y-49500000D01*
X115985165Y-49357543D01*
X115925377Y-49226627D01*
X115831128Y-49117857D01*
X115774182Y-49081260D01*
X115710054Y-49040047D01*
X115710050Y-49040046D01*
X115571964Y-48999500D01*
X115571961Y-48999500D01*
X115428039Y-48999500D01*
X115428036Y-48999500D01*
X115289949Y-49040046D01*
X115289945Y-49040047D01*
X115168875Y-49117855D01*
X115168868Y-49117860D01*
X115074623Y-49226626D01*
X115014834Y-49357545D01*
X114994353Y-49500000D01*
X101200500Y-49500000D01*
X101200500Y-43872158D01*
X104049500Y-43872158D01*
X104049500Y-44127841D01*
X104082873Y-44381338D01*
X104149049Y-44628309D01*
X104149051Y-44628316D01*
X104246892Y-44864526D01*
X104246895Y-44864534D01*
X104374736Y-45085961D01*
X104374740Y-45085967D01*
X104530390Y-45288813D01*
X104711187Y-45469610D01*
X104914035Y-45625261D01*
X105135465Y-45753104D01*
X105371687Y-45850950D01*
X105618660Y-45917126D01*
X105872157Y-45950500D01*
X105872159Y-45950500D01*
X106127841Y-45950500D01*
X106127843Y-45950500D01*
X106381340Y-45917126D01*
X106628313Y-45850950D01*
X106864535Y-45753104D01*
X107085965Y-45625261D01*
X107288813Y-45469610D01*
X107469610Y-45288813D01*
X107625261Y-45085965D01*
X107753104Y-44864535D01*
X107850950Y-44628313D01*
X107917126Y-44381340D01*
X107950500Y-44127843D01*
X107950500Y-43872158D01*
X128049500Y-43872158D01*
X128049500Y-44127841D01*
X128082873Y-44381338D01*
X128149049Y-44628309D01*
X128149051Y-44628316D01*
X128246892Y-44864526D01*
X128246895Y-44864534D01*
X128374736Y-45085961D01*
X128374740Y-45085967D01*
X128530390Y-45288813D01*
X128711187Y-45469610D01*
X128914035Y-45625261D01*
X129135465Y-45753104D01*
X129371687Y-45850950D01*
X129618660Y-45917126D01*
X129872157Y-45950500D01*
X129872159Y-45950500D01*
X130127841Y-45950500D01*
X130127843Y-45950500D01*
X130381340Y-45917126D01*
X130628313Y-45850950D01*
X130864535Y-45753104D01*
X131085965Y-45625261D01*
X131288813Y-45469610D01*
X131469610Y-45288813D01*
X131625261Y-45085965D01*
X131753104Y-44864535D01*
X131850950Y-44628313D01*
X131917126Y-44381340D01*
X131950500Y-44127843D01*
X131950500Y-43872157D01*
X131917126Y-43618660D01*
X131850950Y-43371687D01*
X131753104Y-43135465D01*
X131625261Y-42914035D01*
X131469610Y-42711187D01*
X131288813Y-42530390D01*
X131085967Y-42374740D01*
X131085961Y-42374736D01*
X130864534Y-42246895D01*
X130864526Y-42246892D01*
X130628316Y-42149051D01*
X130628314Y-42149050D01*
X130628313Y-42149050D01*
X130595222Y-42140183D01*
X130381338Y-42082873D01*
X130194589Y-42058287D01*
X130127843Y-42049500D01*
X129872157Y-42049500D01*
X129813176Y-42057265D01*
X129618661Y-42082873D01*
X129371690Y-42149049D01*
X129371683Y-42149051D01*
X129135473Y-42246892D01*
X129135465Y-42246895D01*
X128914038Y-42374736D01*
X128914032Y-42374740D01*
X128711186Y-42530390D01*
X128530390Y-42711186D01*
X128374740Y-42914032D01*
X128374736Y-42914038D01*
X128246895Y-43135465D01*
X128246892Y-43135473D01*
X128149051Y-43371683D01*
X128149049Y-43371690D01*
X128082873Y-43618661D01*
X128049500Y-43872158D01*
X107950500Y-43872158D01*
X107950500Y-43872157D01*
X107917126Y-43618660D01*
X107850950Y-43371687D01*
X107753104Y-43135465D01*
X107625261Y-42914035D01*
X107469610Y-42711187D01*
X107288813Y-42530390D01*
X107085967Y-42374740D01*
X107085961Y-42374736D01*
X106864534Y-42246895D01*
X106864526Y-42246892D01*
X106628316Y-42149051D01*
X106628314Y-42149050D01*
X106628313Y-42149050D01*
X106595222Y-42140183D01*
X106381338Y-42082873D01*
X106194589Y-42058287D01*
X106127843Y-42049500D01*
X105872157Y-42049500D01*
X105813176Y-42057265D01*
X105618661Y-42082873D01*
X105371690Y-42149049D01*
X105371683Y-42149051D01*
X105135473Y-42246892D01*
X105135465Y-42246895D01*
X104914038Y-42374736D01*
X104914032Y-42374740D01*
X104711186Y-42530390D01*
X104530390Y-42711186D01*
X104374740Y-42914032D01*
X104374736Y-42914038D01*
X104246895Y-43135465D01*
X104246892Y-43135473D01*
X104149051Y-43371683D01*
X104149049Y-43371690D01*
X104082873Y-43618661D01*
X104049500Y-43872158D01*
X101200500Y-43872158D01*
X101200500Y-42002083D01*
X101200616Y-41997934D01*
X101202740Y-41960118D01*
X101217870Y-41690688D01*
X101218800Y-41682450D01*
X101269994Y-41381140D01*
X101271833Y-41373080D01*
X101356453Y-41079361D01*
X101359183Y-41071558D01*
X101476150Y-40789175D01*
X101479743Y-40781713D01*
X101627590Y-40514204D01*
X101631991Y-40507199D01*
X101808875Y-40257904D01*
X101814020Y-40251453D01*
X102017690Y-40023548D01*
X102023553Y-40017686D01*
X102251453Y-39814020D01*
X102257904Y-39808875D01*
X102507199Y-39631991D01*
X102514204Y-39627590D01*
X102781713Y-39479743D01*
X102789175Y-39476150D01*
X103071558Y-39359183D01*
X103079361Y-39356453D01*
X103373080Y-39271833D01*
X103381140Y-39269994D01*
X103682458Y-39218799D01*
X103690688Y-39217870D01*
X103997934Y-39200615D01*
X104002083Y-39200500D01*
X104039882Y-39200500D01*
X131960118Y-39200500D01*
X131997917Y-39200500D01*
X132002065Y-39200615D01*
G37*
%TD.AperFunction*%
%TD*%
M02*
