%TF.GenerationSoftware,KiCad,Pcbnew,8.0.2*%
%TF.CreationDate,2024-12-26T16:13:32-05:00*%
%TF.ProjectId,TOF Sensor,544f4620-5365-46e7-936f-722e6b696361,rev?*%
%TF.SameCoordinates,Original*%
%TF.FileFunction,Soldermask,Bot*%
%TF.FilePolarity,Negative*%
%FSLAX46Y46*%
G04 Gerber Fmt 4.6, Leading zero omitted, Abs format (unit mm)*
G04 Created by KiCad (PCBNEW 8.0.2) date 2024-12-26 16:13:32*
%MOMM*%
%LPD*%
G01*
G04 APERTURE LIST*
G04 APERTURE END LIST*
G36*
X106250295Y-64419699D02*
G01*
X106494427Y-64478310D01*
X106726385Y-64574390D01*
X106940456Y-64705573D01*
X107131371Y-64868629D01*
X107294427Y-65059544D01*
X107425610Y-65273615D01*
X107521690Y-65505573D01*
X107580301Y-65749705D01*
X107600000Y-66000000D01*
X107580301Y-66250295D01*
X107521690Y-66494427D01*
X107425610Y-66726385D01*
X107294427Y-66940456D01*
X107131371Y-67131371D01*
X106940456Y-67294427D01*
X106726385Y-67425610D01*
X106494427Y-67521690D01*
X106250295Y-67580301D01*
X106000000Y-67600000D01*
X105749705Y-67580301D01*
X105505573Y-67521690D01*
X105273615Y-67425610D01*
X105059544Y-67294427D01*
X104868629Y-67131371D01*
X104705573Y-66940456D01*
X104574390Y-66726385D01*
X104478310Y-66494427D01*
X104419699Y-66250295D01*
X104400000Y-66000000D01*
X104419699Y-65749705D01*
X104478310Y-65505573D01*
X104574390Y-65273615D01*
X104705573Y-65059544D01*
X104868629Y-64868629D01*
X105059544Y-64705573D01*
X105273615Y-64574390D01*
X105505573Y-64478310D01*
X105749705Y-64419699D01*
X106000000Y-64400000D01*
X106250295Y-64419699D01*
G37*
G36*
X130250295Y-64419699D02*
G01*
X130494427Y-64478310D01*
X130726385Y-64574390D01*
X130940456Y-64705573D01*
X131131371Y-64868629D01*
X131294427Y-65059544D01*
X131425610Y-65273615D01*
X131521690Y-65505573D01*
X131580301Y-65749705D01*
X131600000Y-66000000D01*
X131580301Y-66250295D01*
X131521690Y-66494427D01*
X131425610Y-66726385D01*
X131294427Y-66940456D01*
X131131371Y-67131371D01*
X130940456Y-67294427D01*
X130726385Y-67425610D01*
X130494427Y-67521690D01*
X130250295Y-67580301D01*
X130000000Y-67600000D01*
X129749705Y-67580301D01*
X129505573Y-67521690D01*
X129273615Y-67425610D01*
X129059544Y-67294427D01*
X128868629Y-67131371D01*
X128705573Y-66940456D01*
X128574390Y-66726385D01*
X128478310Y-66494427D01*
X128419699Y-66250295D01*
X128400000Y-66000000D01*
X128419699Y-65749705D01*
X128478310Y-65505573D01*
X128574390Y-65273615D01*
X128705573Y-65059544D01*
X128868629Y-64868629D01*
X129059544Y-64705573D01*
X129273615Y-64574390D01*
X129505573Y-64478310D01*
X129749705Y-64419699D01*
X130000000Y-64400000D01*
X130250295Y-64419699D01*
G37*
G36*
X130208315Y-58154093D02*
G01*
X130371742Y-58186601D01*
X130525687Y-58250367D01*
X130664234Y-58342941D01*
X130782059Y-58460766D01*
X130874633Y-58599313D01*
X130938399Y-58753258D01*
X130970907Y-58916685D01*
X130970907Y-59083315D01*
X130938399Y-59246742D01*
X130874633Y-59400687D01*
X130782059Y-59539234D01*
X130664234Y-59657059D01*
X130525687Y-59749633D01*
X130371742Y-59813399D01*
X130208315Y-59845907D01*
X129875000Y-59850000D01*
X129791685Y-59845907D01*
X129628258Y-59813399D01*
X129474313Y-59749633D01*
X129335766Y-59657059D01*
X129217941Y-59539234D01*
X129125367Y-59400687D01*
X129061601Y-59246742D01*
X129029093Y-59083315D01*
X129029093Y-58916685D01*
X129061601Y-58753258D01*
X129125367Y-58599313D01*
X129217941Y-58460766D01*
X129335766Y-58342941D01*
X129474313Y-58250367D01*
X129628258Y-58186601D01*
X129791685Y-58154093D01*
X130125000Y-58150000D01*
X130208315Y-58154093D01*
G37*
G36*
X130208315Y-55654093D02*
G01*
X130371742Y-55686601D01*
X130525687Y-55750367D01*
X130664234Y-55842941D01*
X130782059Y-55960766D01*
X130874633Y-56099313D01*
X130938399Y-56253258D01*
X130970907Y-56416685D01*
X130970907Y-56583315D01*
X130938399Y-56746742D01*
X130874633Y-56900687D01*
X130782059Y-57039234D01*
X130664234Y-57157059D01*
X130525687Y-57249633D01*
X130371742Y-57313399D01*
X130208315Y-57345907D01*
X129875000Y-57350000D01*
X129791685Y-57345907D01*
X129628258Y-57313399D01*
X129474313Y-57249633D01*
X129335766Y-57157059D01*
X129217941Y-57039234D01*
X129125367Y-56900687D01*
X129061601Y-56746742D01*
X129029093Y-56583315D01*
X129029093Y-56416685D01*
X129061601Y-56253258D01*
X129125367Y-56099313D01*
X129217941Y-55960766D01*
X129335766Y-55842941D01*
X129474313Y-55750367D01*
X129628258Y-55686601D01*
X129791685Y-55654093D01*
X130125000Y-55650000D01*
X130208315Y-55654093D01*
G37*
G36*
X130208315Y-53154093D02*
G01*
X130371742Y-53186601D01*
X130525687Y-53250367D01*
X130664234Y-53342941D01*
X130782059Y-53460766D01*
X130874633Y-53599313D01*
X130938399Y-53753258D01*
X130970907Y-53916685D01*
X130970907Y-54083315D01*
X130938399Y-54246742D01*
X130874633Y-54400687D01*
X130782059Y-54539234D01*
X130664234Y-54657059D01*
X130525687Y-54749633D01*
X130371742Y-54813399D01*
X130208315Y-54845907D01*
X129875000Y-54850000D01*
X129791685Y-54845907D01*
X129628258Y-54813399D01*
X129474313Y-54749633D01*
X129335766Y-54657059D01*
X129217941Y-54539234D01*
X129125367Y-54400687D01*
X129061601Y-54246742D01*
X129029093Y-54083315D01*
X129029093Y-53916685D01*
X129061601Y-53753258D01*
X129125367Y-53599313D01*
X129217941Y-53460766D01*
X129335766Y-53342941D01*
X129474313Y-53250367D01*
X129628258Y-53186601D01*
X129791685Y-53154093D01*
X130125000Y-53150000D01*
X130208315Y-53154093D01*
G37*
G36*
X130729047Y-50650805D02*
G01*
X130780408Y-50656764D01*
X130797954Y-50664511D01*
X130820671Y-50669030D01*
X130844991Y-50685280D01*
X130865793Y-50694465D01*
X130880000Y-50708672D01*
X130901777Y-50723223D01*
X130916327Y-50744999D01*
X130930534Y-50759206D01*
X130939718Y-50780006D01*
X130955970Y-50804329D01*
X130960489Y-50827048D01*
X130968235Y-50844591D01*
X130974192Y-50895940D01*
X130975000Y-50900000D01*
X130975000Y-52100000D01*
X130974192Y-52104059D01*
X130968235Y-52155408D01*
X130960489Y-52172950D01*
X130955970Y-52195671D01*
X130939716Y-52219995D01*
X130930534Y-52240793D01*
X130916329Y-52254997D01*
X130901777Y-52276777D01*
X130879997Y-52291329D01*
X130865793Y-52305534D01*
X130844995Y-52314716D01*
X130820671Y-52330970D01*
X130797950Y-52335489D01*
X130780408Y-52343235D01*
X130729061Y-52349192D01*
X130725000Y-52350000D01*
X129275000Y-52350000D01*
X129270941Y-52349192D01*
X129219591Y-52343235D01*
X129202048Y-52335489D01*
X129179329Y-52330970D01*
X129155006Y-52314718D01*
X129134206Y-52305534D01*
X129119999Y-52291327D01*
X129098223Y-52276777D01*
X129083672Y-52255000D01*
X129069465Y-52240793D01*
X129060280Y-52219991D01*
X129044030Y-52195671D01*
X129039511Y-52172954D01*
X129031764Y-52155408D01*
X129025805Y-52104049D01*
X129025000Y-52100000D01*
X129025000Y-50900000D01*
X129025804Y-50895953D01*
X129031764Y-50844591D01*
X129039511Y-50827043D01*
X129044030Y-50804329D01*
X129060278Y-50780010D01*
X129069465Y-50759206D01*
X129083674Y-50744996D01*
X129098223Y-50723223D01*
X129119996Y-50708674D01*
X129134206Y-50694465D01*
X129155010Y-50685278D01*
X129179329Y-50669030D01*
X129202043Y-50664511D01*
X129219591Y-50656764D01*
X129270952Y-50650805D01*
X129275000Y-50650000D01*
X130725000Y-50650000D01*
X130729047Y-50650805D01*
G37*
G36*
X128035995Y-49304739D02*
G01*
X128072278Y-49304739D01*
X128113880Y-49314993D01*
X128155291Y-49320445D01*
X128183638Y-49332186D01*
X128212632Y-49339333D01*
X128256591Y-49362404D01*
X128300000Y-49380385D01*
X128319804Y-49395581D01*
X128340629Y-49406511D01*
X128383202Y-49444228D01*
X128424264Y-49475736D01*
X128435935Y-49490946D01*
X128448832Y-49502372D01*
X128485821Y-49555959D01*
X128519615Y-49600000D01*
X128524707Y-49612293D01*
X128530948Y-49621335D01*
X128558020Y-49692719D01*
X128579555Y-49744709D01*
X128580521Y-49752050D01*
X128582209Y-49756500D01*
X128595278Y-49864140D01*
X128600000Y-49900000D01*
X128595278Y-49935862D01*
X128582209Y-50043499D01*
X128580521Y-50047947D01*
X128579555Y-50055291D01*
X128558015Y-50107291D01*
X128530948Y-50178664D01*
X128524708Y-50187703D01*
X128519615Y-50200000D01*
X128485814Y-50244049D01*
X128448832Y-50297627D01*
X128435937Y-50309050D01*
X128424264Y-50324264D01*
X128383194Y-50355777D01*
X128340629Y-50393488D01*
X128319808Y-50404415D01*
X128300000Y-50419615D01*
X128256582Y-50437598D01*
X128212632Y-50460666D01*
X128183642Y-50467811D01*
X128155291Y-50479555D01*
X128113877Y-50485007D01*
X128072278Y-50495261D01*
X128035995Y-50495261D01*
X128000000Y-50500000D01*
X127964005Y-50495261D01*
X127927722Y-50495261D01*
X127886121Y-50485007D01*
X127844709Y-50479555D01*
X127816358Y-50467811D01*
X127787367Y-50460666D01*
X127743412Y-50437596D01*
X127700000Y-50419615D01*
X127680193Y-50404417D01*
X127659370Y-50393488D01*
X127616798Y-50355772D01*
X127575736Y-50324264D01*
X127564064Y-50309053D01*
X127551167Y-50297627D01*
X127514175Y-50244036D01*
X127480385Y-50200000D01*
X127475293Y-50187707D01*
X127469051Y-50178664D01*
X127441972Y-50107262D01*
X127420445Y-50055291D01*
X127419478Y-50047951D01*
X127417790Y-50043499D01*
X127404708Y-49935764D01*
X127400000Y-49900000D01*
X127404708Y-49864238D01*
X127417790Y-49756500D01*
X127419478Y-49752046D01*
X127420445Y-49744709D01*
X127441967Y-49692748D01*
X127469051Y-49621335D01*
X127475294Y-49612290D01*
X127480385Y-49600000D01*
X127514168Y-49555972D01*
X127551167Y-49502372D01*
X127564066Y-49490943D01*
X127575736Y-49475736D01*
X127616789Y-49444234D01*
X127659370Y-49406511D01*
X127680197Y-49395579D01*
X127700000Y-49380385D01*
X127743403Y-49362406D01*
X127787367Y-49339333D01*
X127816363Y-49332186D01*
X127844709Y-49320445D01*
X127886118Y-49314993D01*
X127927722Y-49304739D01*
X127964005Y-49304739D01*
X128000000Y-49300000D01*
X128035995Y-49304739D01*
G37*
G36*
X106250295Y-42419699D02*
G01*
X106494427Y-42478310D01*
X106726385Y-42574390D01*
X106940456Y-42705573D01*
X107131371Y-42868629D01*
X107294427Y-43059544D01*
X107425610Y-43273615D01*
X107521690Y-43505573D01*
X107580301Y-43749705D01*
X107600000Y-44000000D01*
X107580301Y-44250295D01*
X107521690Y-44494427D01*
X107425610Y-44726385D01*
X107294427Y-44940456D01*
X107131371Y-45131371D01*
X106940456Y-45294427D01*
X106726385Y-45425610D01*
X106494427Y-45521690D01*
X106250295Y-45580301D01*
X106000000Y-45600000D01*
X105749705Y-45580301D01*
X105505573Y-45521690D01*
X105273615Y-45425610D01*
X105059544Y-45294427D01*
X104868629Y-45131371D01*
X104705573Y-44940456D01*
X104574390Y-44726385D01*
X104478310Y-44494427D01*
X104419699Y-44250295D01*
X104400000Y-44000000D01*
X104419699Y-43749705D01*
X104478310Y-43505573D01*
X104574390Y-43273615D01*
X104705573Y-43059544D01*
X104868629Y-42868629D01*
X105059544Y-42705573D01*
X105273615Y-42574390D01*
X105505573Y-42478310D01*
X105749705Y-42419699D01*
X106000000Y-42400000D01*
X106250295Y-42419699D01*
G37*
G36*
X130250295Y-42419699D02*
G01*
X130494427Y-42478310D01*
X130726385Y-42574390D01*
X130940456Y-42705573D01*
X131131371Y-42868629D01*
X131294427Y-43059544D01*
X131425610Y-43273615D01*
X131521690Y-43505573D01*
X131580301Y-43749705D01*
X131600000Y-44000000D01*
X131580301Y-44250295D01*
X131521690Y-44494427D01*
X131425610Y-44726385D01*
X131294427Y-44940456D01*
X131131371Y-45131371D01*
X130940456Y-45294427D01*
X130726385Y-45425610D01*
X130494427Y-45521690D01*
X130250295Y-45580301D01*
X130000000Y-45600000D01*
X129749705Y-45580301D01*
X129505573Y-45521690D01*
X129273615Y-45425610D01*
X129059544Y-45294427D01*
X128868629Y-45131371D01*
X128705573Y-44940456D01*
X128574390Y-44726385D01*
X128478310Y-44494427D01*
X128419699Y-44250295D01*
X128400000Y-44000000D01*
X128419699Y-43749705D01*
X128478310Y-43505573D01*
X128574390Y-43273615D01*
X128705573Y-43059544D01*
X128868629Y-42868629D01*
X129059544Y-42705573D01*
X129273615Y-42574390D01*
X129505573Y-42478310D01*
X129749705Y-42419699D01*
X130000000Y-42400000D01*
X130250295Y-42419699D01*
G37*
M02*
