%TF.GenerationSoftware,KiCad,Pcbnew,8.0.2*%
%TF.CreationDate,2024-12-26T16:13:32-05:00*%
%TF.ProjectId,TOF Sensor,544f4620-5365-46e7-936f-722e6b696361,rev?*%
%TF.SameCoordinates,Original*%
%TF.FileFunction,Soldermask,Top*%
%TF.FilePolarity,Negative*%
%FSLAX46Y46*%
G04 Gerber Fmt 4.6, Leading zero omitted, Abs format (unit mm)*
G04 Created by KiCad (PCBNEW 8.0.2) date 2024-12-26 16:13:32*
%MOMM*%
%LPD*%
G01*
G04 APERTURE LIST*
G04 APERTURE END LIST*
G36*
X106250295Y-64419699D02*
G01*
X106494427Y-64478310D01*
X106726385Y-64574390D01*
X106940456Y-64705573D01*
X107131371Y-64868629D01*
X107294427Y-65059544D01*
X107425610Y-65273615D01*
X107521690Y-65505573D01*
X107580301Y-65749705D01*
X107600000Y-66000000D01*
X107580301Y-66250295D01*
X107521690Y-66494427D01*
X107425610Y-66726385D01*
X107294427Y-66940456D01*
X107131371Y-67131371D01*
X106940456Y-67294427D01*
X106726385Y-67425610D01*
X106494427Y-67521690D01*
X106250295Y-67580301D01*
X106000000Y-67600000D01*
X105749705Y-67580301D01*
X105505573Y-67521690D01*
X105273615Y-67425610D01*
X105059544Y-67294427D01*
X104868629Y-67131371D01*
X104705573Y-66940456D01*
X104574390Y-66726385D01*
X104478310Y-66494427D01*
X104419699Y-66250295D01*
X104400000Y-66000000D01*
X104419699Y-65749705D01*
X104478310Y-65505573D01*
X104574390Y-65273615D01*
X104705573Y-65059544D01*
X104868629Y-64868629D01*
X105059544Y-64705573D01*
X105273615Y-64574390D01*
X105505573Y-64478310D01*
X105749705Y-64419699D01*
X106000000Y-64400000D01*
X106250295Y-64419699D01*
G37*
G36*
X130250295Y-64419699D02*
G01*
X130494427Y-64478310D01*
X130726385Y-64574390D01*
X130940456Y-64705573D01*
X131131371Y-64868629D01*
X131294427Y-65059544D01*
X131425610Y-65273615D01*
X131521690Y-65505573D01*
X131580301Y-65749705D01*
X131600000Y-66000000D01*
X131580301Y-66250295D01*
X131521690Y-66494427D01*
X131425610Y-66726385D01*
X131294427Y-66940456D01*
X131131371Y-67131371D01*
X130940456Y-67294427D01*
X130726385Y-67425610D01*
X130494427Y-67521690D01*
X130250295Y-67580301D01*
X130000000Y-67600000D01*
X129749705Y-67580301D01*
X129505573Y-67521690D01*
X129273615Y-67425610D01*
X129059544Y-67294427D01*
X128868629Y-67131371D01*
X128705573Y-66940456D01*
X128574390Y-66726385D01*
X128478310Y-66494427D01*
X128419699Y-66250295D01*
X128400000Y-66000000D01*
X128419699Y-65749705D01*
X128478310Y-65505573D01*
X128574390Y-65273615D01*
X128705573Y-65059544D01*
X128868629Y-64868629D01*
X129059544Y-64705573D01*
X129273615Y-64574390D01*
X129505573Y-64478310D01*
X129749705Y-64419699D01*
X130000000Y-64400000D01*
X130250295Y-64419699D01*
G37*
G36*
X111654047Y-61900805D02*
G01*
X111705408Y-61906764D01*
X111722954Y-61914511D01*
X111745671Y-61919030D01*
X111769991Y-61935280D01*
X111790793Y-61944465D01*
X111805000Y-61958672D01*
X111826777Y-61973223D01*
X111841327Y-61994999D01*
X111855534Y-62009206D01*
X111864718Y-62030006D01*
X111880970Y-62054329D01*
X111885489Y-62077048D01*
X111893235Y-62094591D01*
X111899192Y-62145940D01*
X111900000Y-62150000D01*
X111900000Y-62800000D01*
X111899192Y-62804059D01*
X111893235Y-62855408D01*
X111885489Y-62872950D01*
X111880970Y-62895671D01*
X111864716Y-62919995D01*
X111855534Y-62940793D01*
X111841329Y-62954997D01*
X111826777Y-62976777D01*
X111804997Y-62991329D01*
X111790793Y-63005534D01*
X111769995Y-63014716D01*
X111745671Y-63030970D01*
X111722950Y-63035489D01*
X111705408Y-63043235D01*
X111654061Y-63049192D01*
X111650000Y-63050000D01*
X110350000Y-63050000D01*
X110345941Y-63049192D01*
X110294591Y-63043235D01*
X110277048Y-63035489D01*
X110254329Y-63030970D01*
X110230006Y-63014718D01*
X110209206Y-63005534D01*
X110194999Y-62991327D01*
X110173223Y-62976777D01*
X110158672Y-62955000D01*
X110144465Y-62940793D01*
X110135280Y-62919991D01*
X110119030Y-62895671D01*
X110114511Y-62872954D01*
X110106764Y-62855408D01*
X110100805Y-62804049D01*
X110100000Y-62800000D01*
X110100000Y-62150000D01*
X110100804Y-62145953D01*
X110106764Y-62094591D01*
X110114511Y-62077043D01*
X110119030Y-62054329D01*
X110135278Y-62030010D01*
X110144465Y-62009206D01*
X110158674Y-61994996D01*
X110173223Y-61973223D01*
X110194996Y-61958674D01*
X110209206Y-61944465D01*
X110230010Y-61935278D01*
X110254329Y-61919030D01*
X110277043Y-61914511D01*
X110294591Y-61906764D01*
X110345952Y-61900805D01*
X110350000Y-61900000D01*
X111650000Y-61900000D01*
X111654047Y-61900805D01*
G37*
G36*
X115104047Y-61900805D02*
G01*
X115155408Y-61906764D01*
X115172954Y-61914511D01*
X115195671Y-61919030D01*
X115219991Y-61935280D01*
X115240793Y-61944465D01*
X115255000Y-61958672D01*
X115276777Y-61973223D01*
X115291327Y-61994999D01*
X115305534Y-62009206D01*
X115314718Y-62030006D01*
X115330970Y-62054329D01*
X115335489Y-62077048D01*
X115343235Y-62094591D01*
X115349192Y-62145940D01*
X115350000Y-62150000D01*
X115350000Y-62800000D01*
X115349192Y-62804059D01*
X115343235Y-62855408D01*
X115335489Y-62872950D01*
X115330970Y-62895671D01*
X115314716Y-62919995D01*
X115305534Y-62940793D01*
X115291329Y-62954997D01*
X115276777Y-62976777D01*
X115254997Y-62991329D01*
X115240793Y-63005534D01*
X115219995Y-63014716D01*
X115195671Y-63030970D01*
X115172950Y-63035489D01*
X115155408Y-63043235D01*
X115104061Y-63049192D01*
X115100000Y-63050000D01*
X112900000Y-63050000D01*
X112895941Y-63049192D01*
X112844591Y-63043235D01*
X112827048Y-63035489D01*
X112804329Y-63030970D01*
X112780006Y-63014718D01*
X112759206Y-63005534D01*
X112744999Y-62991327D01*
X112723223Y-62976777D01*
X112708672Y-62955000D01*
X112694465Y-62940793D01*
X112685280Y-62919991D01*
X112669030Y-62895671D01*
X112664511Y-62872954D01*
X112656764Y-62855408D01*
X112650805Y-62804049D01*
X112650000Y-62800000D01*
X112650000Y-62150000D01*
X112650804Y-62145953D01*
X112656764Y-62094591D01*
X112664511Y-62077043D01*
X112669030Y-62054329D01*
X112685278Y-62030010D01*
X112694465Y-62009206D01*
X112708674Y-61994996D01*
X112723223Y-61973223D01*
X112744996Y-61958674D01*
X112759206Y-61944465D01*
X112780010Y-61935278D01*
X112804329Y-61919030D01*
X112827043Y-61914511D01*
X112844591Y-61906764D01*
X112895952Y-61900805D01*
X112900000Y-61900000D01*
X115100000Y-61900000D01*
X115104047Y-61900805D01*
G37*
G36*
X121035381Y-60505089D02*
G01*
X121071157Y-60505089D01*
X121100235Y-60513627D01*
X121129296Y-60517453D01*
X121168332Y-60533622D01*
X121207708Y-60545184D01*
X121228491Y-60558540D01*
X121249783Y-60567360D01*
X121288798Y-60597297D01*
X121327430Y-60622125D01*
X121339883Y-60636497D01*
X121353249Y-60646753D01*
X121387899Y-60691910D01*
X121420627Y-60729680D01*
X121426134Y-60741738D01*
X121432638Y-60750215D01*
X121458322Y-60812222D01*
X121479746Y-60859134D01*
X121480805Y-60866500D01*
X121482546Y-60870703D01*
X121494880Y-60964390D01*
X121500000Y-61000000D01*
X121494879Y-61035612D01*
X121482546Y-61129296D01*
X121480805Y-61133498D01*
X121479746Y-61140866D01*
X121458321Y-61187780D01*
X121432639Y-61249783D01*
X121426134Y-61258259D01*
X121420627Y-61270320D01*
X121387887Y-61308103D01*
X121353247Y-61353247D01*
X121339887Y-61363498D01*
X121327430Y-61377875D01*
X121288788Y-61402708D01*
X121249783Y-61432639D01*
X121228496Y-61441456D01*
X121207708Y-61454816D01*
X121168323Y-61466380D01*
X121129296Y-61482546D01*
X121100241Y-61486371D01*
X121071157Y-61494911D01*
X121035374Y-61494911D01*
X121000000Y-61499568D01*
X120964626Y-61494911D01*
X120928843Y-61494911D01*
X120899759Y-61486371D01*
X120870703Y-61482546D01*
X120831672Y-61466379D01*
X120792292Y-61454816D01*
X120771505Y-61441457D01*
X120750216Y-61432639D01*
X120711204Y-61402704D01*
X120672570Y-61377875D01*
X120660114Y-61363500D01*
X120646752Y-61353247D01*
X120612103Y-61308093D01*
X120579373Y-61270320D01*
X120573866Y-61258262D01*
X120567360Y-61249783D01*
X120541668Y-61187757D01*
X120520254Y-61140866D01*
X120519195Y-61133502D01*
X120517453Y-61129296D01*
X120505108Y-61035529D01*
X120500000Y-61000000D01*
X120505108Y-60964473D01*
X120517453Y-60870703D01*
X120519195Y-60866496D01*
X120520254Y-60859134D01*
X120541666Y-60812245D01*
X120567361Y-60750215D01*
X120573867Y-60741735D01*
X120579373Y-60729680D01*
X120612089Y-60691923D01*
X120646751Y-60646751D01*
X120660120Y-60636491D01*
X120672570Y-60622125D01*
X120711192Y-60597303D01*
X120750215Y-60567361D01*
X120771508Y-60558541D01*
X120792292Y-60545184D01*
X120831665Y-60533622D01*
X120870703Y-60517453D01*
X120899765Y-60513626D01*
X120928843Y-60505089D01*
X120964618Y-60505089D01*
X121000000Y-60500431D01*
X121035381Y-60505089D01*
G37*
G36*
X111654047Y-58950805D02*
G01*
X111705408Y-58956764D01*
X111722954Y-58964511D01*
X111745671Y-58969030D01*
X111769991Y-58985280D01*
X111790793Y-58994465D01*
X111805000Y-59008672D01*
X111826777Y-59023223D01*
X111841327Y-59044999D01*
X111855534Y-59059206D01*
X111864718Y-59080006D01*
X111880970Y-59104329D01*
X111885489Y-59127048D01*
X111893235Y-59144591D01*
X111899192Y-59195940D01*
X111900000Y-59200000D01*
X111900000Y-59850000D01*
X111899192Y-59854059D01*
X111893235Y-59905408D01*
X111885489Y-59922950D01*
X111880970Y-59945671D01*
X111864716Y-59969995D01*
X111855534Y-59990793D01*
X111841329Y-60004997D01*
X111826777Y-60026777D01*
X111804997Y-60041329D01*
X111790793Y-60055534D01*
X111769995Y-60064716D01*
X111745671Y-60080970D01*
X111722950Y-60085489D01*
X111705408Y-60093235D01*
X111654061Y-60099192D01*
X111650000Y-60100000D01*
X110350000Y-60100000D01*
X110345941Y-60099192D01*
X110294591Y-60093235D01*
X110277048Y-60085489D01*
X110254329Y-60080970D01*
X110230006Y-60064718D01*
X110209206Y-60055534D01*
X110194999Y-60041327D01*
X110173223Y-60026777D01*
X110158672Y-60005000D01*
X110144465Y-59990793D01*
X110135280Y-59969991D01*
X110119030Y-59945671D01*
X110114511Y-59922954D01*
X110106764Y-59905408D01*
X110100805Y-59854049D01*
X110100000Y-59850000D01*
X110100000Y-59200000D01*
X110100804Y-59195953D01*
X110106764Y-59144591D01*
X110114511Y-59127043D01*
X110119030Y-59104329D01*
X110135278Y-59080010D01*
X110144465Y-59059206D01*
X110158674Y-59044996D01*
X110173223Y-59023223D01*
X110194996Y-59008674D01*
X110209206Y-58994465D01*
X110230010Y-58985278D01*
X110254329Y-58969030D01*
X110277043Y-58964511D01*
X110294591Y-58956764D01*
X110345952Y-58950805D01*
X110350000Y-58950000D01*
X111650000Y-58950000D01*
X111654047Y-58950805D01*
G37*
G36*
X115104047Y-58950805D02*
G01*
X115155408Y-58956764D01*
X115172954Y-58964511D01*
X115195671Y-58969030D01*
X115219991Y-58985280D01*
X115240793Y-58994465D01*
X115255000Y-59008672D01*
X115276777Y-59023223D01*
X115291327Y-59044999D01*
X115305534Y-59059206D01*
X115314718Y-59080006D01*
X115330970Y-59104329D01*
X115335489Y-59127048D01*
X115343235Y-59144591D01*
X115349192Y-59195940D01*
X115350000Y-59200000D01*
X115350000Y-59850000D01*
X115349192Y-59854059D01*
X115343235Y-59905408D01*
X115335489Y-59922950D01*
X115330970Y-59945671D01*
X115314716Y-59969995D01*
X115305534Y-59990793D01*
X115291329Y-60004997D01*
X115276777Y-60026777D01*
X115254997Y-60041329D01*
X115240793Y-60055534D01*
X115219995Y-60064716D01*
X115195671Y-60080970D01*
X115172950Y-60085489D01*
X115155408Y-60093235D01*
X115104061Y-60099192D01*
X115100000Y-60100000D01*
X112900000Y-60100000D01*
X112895941Y-60099192D01*
X112844591Y-60093235D01*
X112827048Y-60085489D01*
X112804329Y-60080970D01*
X112780006Y-60064718D01*
X112759206Y-60055534D01*
X112744999Y-60041327D01*
X112723223Y-60026777D01*
X112708672Y-60005000D01*
X112694465Y-59990793D01*
X112685280Y-59969991D01*
X112669030Y-59945671D01*
X112664511Y-59922954D01*
X112656764Y-59905408D01*
X112650805Y-59854049D01*
X112650000Y-59850000D01*
X112650000Y-59200000D01*
X112650804Y-59195953D01*
X112656764Y-59144591D01*
X112664511Y-59127043D01*
X112669030Y-59104329D01*
X112685278Y-59080010D01*
X112694465Y-59059206D01*
X112708674Y-59044996D01*
X112723223Y-59023223D01*
X112744996Y-59008674D01*
X112759206Y-58994465D01*
X112780010Y-58985278D01*
X112804329Y-58969030D01*
X112827043Y-58964511D01*
X112844591Y-58956764D01*
X112895952Y-58950805D01*
X112900000Y-58950000D01*
X115100000Y-58950000D01*
X115104047Y-58950805D01*
G37*
G36*
X130208315Y-58154093D02*
G01*
X130371742Y-58186601D01*
X130525687Y-58250367D01*
X130664234Y-58342941D01*
X130782059Y-58460766D01*
X130874633Y-58599313D01*
X130938399Y-58753258D01*
X130970907Y-58916685D01*
X130970907Y-59083315D01*
X130938399Y-59246742D01*
X130874633Y-59400687D01*
X130782059Y-59539234D01*
X130664234Y-59657059D01*
X130525687Y-59749633D01*
X130371742Y-59813399D01*
X130208315Y-59845907D01*
X129875000Y-59850000D01*
X129791685Y-59845907D01*
X129628258Y-59813399D01*
X129474313Y-59749633D01*
X129335766Y-59657059D01*
X129217941Y-59539234D01*
X129125367Y-59400687D01*
X129061601Y-59246742D01*
X129029093Y-59083315D01*
X129029093Y-58916685D01*
X129061601Y-58753258D01*
X129125367Y-58599313D01*
X129217941Y-58460766D01*
X129335766Y-58342941D01*
X129474313Y-58250367D01*
X129628258Y-58186601D01*
X129791685Y-58154093D01*
X130125000Y-58150000D01*
X130208315Y-58154093D01*
G37*
G36*
X117351537Y-58440224D02*
G01*
X117416421Y-58483579D01*
X117459776Y-58548463D01*
X117475000Y-58625000D01*
X117475000Y-59025000D01*
X117459776Y-59101537D01*
X117416421Y-59166421D01*
X117351537Y-59209776D01*
X117275000Y-59225000D01*
X116725000Y-59225000D01*
X116648463Y-59209776D01*
X116583579Y-59166421D01*
X116540224Y-59101537D01*
X116525000Y-59025000D01*
X116525000Y-58625000D01*
X116540224Y-58548463D01*
X116583579Y-58483579D01*
X116648463Y-58440224D01*
X116725000Y-58425000D01*
X117275000Y-58425000D01*
X117351537Y-58440224D01*
G37*
G36*
X124035381Y-57505089D02*
G01*
X124071157Y-57505089D01*
X124100235Y-57513627D01*
X124129296Y-57517453D01*
X124168332Y-57533622D01*
X124207708Y-57545184D01*
X124228491Y-57558540D01*
X124249783Y-57567360D01*
X124288798Y-57597297D01*
X124327430Y-57622125D01*
X124339883Y-57636497D01*
X124353249Y-57646753D01*
X124387899Y-57691910D01*
X124420627Y-57729680D01*
X124426134Y-57741738D01*
X124432638Y-57750215D01*
X124458322Y-57812222D01*
X124479746Y-57859134D01*
X124480805Y-57866500D01*
X124482546Y-57870703D01*
X124494880Y-57964390D01*
X124500000Y-58000000D01*
X124494879Y-58035612D01*
X124482546Y-58129296D01*
X124480805Y-58133498D01*
X124479746Y-58140866D01*
X124458321Y-58187780D01*
X124432639Y-58249783D01*
X124426134Y-58258259D01*
X124420627Y-58270320D01*
X124387887Y-58308103D01*
X124353247Y-58353247D01*
X124339887Y-58363498D01*
X124327430Y-58377875D01*
X124288788Y-58402708D01*
X124249783Y-58432639D01*
X124228496Y-58441456D01*
X124207708Y-58454816D01*
X124168323Y-58466380D01*
X124129296Y-58482546D01*
X124100241Y-58486371D01*
X124071157Y-58494911D01*
X124035374Y-58494911D01*
X124000000Y-58499568D01*
X123964626Y-58494911D01*
X123928843Y-58494911D01*
X123899759Y-58486371D01*
X123870703Y-58482546D01*
X123831672Y-58466379D01*
X123792292Y-58454816D01*
X123771505Y-58441457D01*
X123750216Y-58432639D01*
X123711204Y-58402704D01*
X123672570Y-58377875D01*
X123660114Y-58363500D01*
X123646752Y-58353247D01*
X123612103Y-58308093D01*
X123579373Y-58270320D01*
X123573866Y-58258262D01*
X123567360Y-58249783D01*
X123541668Y-58187757D01*
X123520254Y-58140866D01*
X123519195Y-58133502D01*
X123517453Y-58129296D01*
X123505108Y-58035529D01*
X123500000Y-58000000D01*
X123505108Y-57964473D01*
X123517453Y-57870703D01*
X123519195Y-57866496D01*
X123520254Y-57859134D01*
X123541666Y-57812245D01*
X123567361Y-57750215D01*
X123573867Y-57741735D01*
X123579373Y-57729680D01*
X123612089Y-57691923D01*
X123646751Y-57646751D01*
X123660120Y-57636491D01*
X123672570Y-57622125D01*
X123711192Y-57597303D01*
X123750215Y-57567361D01*
X123771508Y-57558541D01*
X123792292Y-57545184D01*
X123831665Y-57533622D01*
X123870703Y-57517453D01*
X123899765Y-57513626D01*
X123928843Y-57505089D01*
X123964618Y-57505089D01*
X124000000Y-57500431D01*
X124035381Y-57505089D01*
G37*
G36*
X117351537Y-56790224D02*
G01*
X117416421Y-56833579D01*
X117459776Y-56898463D01*
X117475000Y-56975000D01*
X117475000Y-57375000D01*
X117459776Y-57451537D01*
X117416421Y-57516421D01*
X117351537Y-57559776D01*
X117275000Y-57575000D01*
X116725000Y-57575000D01*
X116648463Y-57559776D01*
X116583579Y-57516421D01*
X116540224Y-57451537D01*
X116525000Y-57375000D01*
X116525000Y-56975000D01*
X116540224Y-56898463D01*
X116583579Y-56833579D01*
X116648463Y-56790224D01*
X116725000Y-56775000D01*
X117275000Y-56775000D01*
X117351537Y-56790224D01*
G37*
G36*
X130208315Y-55654093D02*
G01*
X130371742Y-55686601D01*
X130525687Y-55750367D01*
X130664234Y-55842941D01*
X130782059Y-55960766D01*
X130874633Y-56099313D01*
X130938399Y-56253258D01*
X130970907Y-56416685D01*
X130970907Y-56583315D01*
X130938399Y-56746742D01*
X130874633Y-56900687D01*
X130782059Y-57039234D01*
X130664234Y-57157059D01*
X130525687Y-57249633D01*
X130371742Y-57313399D01*
X130208315Y-57345907D01*
X129875000Y-57350000D01*
X129791685Y-57345907D01*
X129628258Y-57313399D01*
X129474313Y-57249633D01*
X129335766Y-57157059D01*
X129217941Y-57039234D01*
X129125367Y-56900687D01*
X129061601Y-56746742D01*
X129029093Y-56583315D01*
X129029093Y-56416685D01*
X129061601Y-56253258D01*
X129125367Y-56099313D01*
X129217941Y-55960766D01*
X129335766Y-55842941D01*
X129474313Y-55750367D01*
X129628258Y-55686601D01*
X129791685Y-55654093D01*
X130125000Y-55650000D01*
X130208315Y-55654093D01*
G37*
G36*
X112372835Y-56359515D02*
G01*
X112413388Y-56386612D01*
X112440485Y-56427165D01*
X112450000Y-56475000D01*
X112450000Y-56612500D01*
X112450000Y-56867500D01*
X112445242Y-56891418D01*
X112431694Y-56911694D01*
X112411418Y-56925242D01*
X112387500Y-56930000D01*
X112262500Y-56930000D01*
X112238582Y-56925242D01*
X112218306Y-56911694D01*
X112204758Y-56891418D01*
X112200842Y-56871736D01*
X112174356Y-56850000D01*
X112075000Y-56850000D01*
X112027165Y-56840485D01*
X111986612Y-56813388D01*
X111959515Y-56772835D01*
X111950000Y-56725000D01*
X111950000Y-56475000D01*
X111959515Y-56427165D01*
X111986612Y-56386612D01*
X112027165Y-56359515D01*
X112075000Y-56350000D01*
X112325000Y-56350000D01*
X112372835Y-56359515D01*
G37*
G36*
X113172835Y-56359515D02*
G01*
X113213388Y-56386612D01*
X113240485Y-56427165D01*
X113250000Y-56475000D01*
X113250000Y-56725000D01*
X113240485Y-56772835D01*
X113213388Y-56813388D01*
X113172835Y-56840485D01*
X113125000Y-56850000D01*
X112875000Y-56850000D01*
X112827165Y-56840485D01*
X112786612Y-56813388D01*
X112759515Y-56772835D01*
X112750000Y-56725000D01*
X112750000Y-56475000D01*
X112759515Y-56427165D01*
X112786612Y-56386612D01*
X112827165Y-56359515D01*
X112875000Y-56350000D01*
X113125000Y-56350000D01*
X113172835Y-56359515D01*
G37*
G36*
X113972835Y-56359515D02*
G01*
X114013388Y-56386612D01*
X114040485Y-56427165D01*
X114050000Y-56475000D01*
X114050000Y-56725000D01*
X114040485Y-56772835D01*
X114013388Y-56813388D01*
X113972835Y-56840485D01*
X113925000Y-56850000D01*
X113675000Y-56850000D01*
X113627165Y-56840485D01*
X113586612Y-56813388D01*
X113559515Y-56772835D01*
X113550000Y-56725000D01*
X113550000Y-56475000D01*
X113559515Y-56427165D01*
X113586612Y-56386612D01*
X113627165Y-56359515D01*
X113675000Y-56350000D01*
X113925000Y-56350000D01*
X113972835Y-56359515D01*
G37*
G36*
X112372835Y-55559515D02*
G01*
X112413388Y-55586612D01*
X112440485Y-55627165D01*
X112450000Y-55675000D01*
X112450000Y-55925000D01*
X112440485Y-55972835D01*
X112413388Y-56013388D01*
X112372835Y-56040485D01*
X112325000Y-56050000D01*
X112075000Y-56050000D01*
X112027165Y-56040485D01*
X111986612Y-56013388D01*
X111959515Y-55972835D01*
X111950000Y-55925000D01*
X111950000Y-55675000D01*
X111959515Y-55627165D01*
X111986612Y-55586612D01*
X112027165Y-55559515D01*
X112075000Y-55550000D01*
X112325000Y-55550000D01*
X112372835Y-55559515D01*
G37*
G36*
X113972835Y-55559515D02*
G01*
X114013388Y-55586612D01*
X114040485Y-55627165D01*
X114050000Y-55675000D01*
X114050000Y-55925000D01*
X114040485Y-55972835D01*
X114013388Y-56013388D01*
X113972835Y-56040485D01*
X113925000Y-56050000D01*
X113675000Y-56050000D01*
X113627165Y-56040485D01*
X113586612Y-56013388D01*
X113559515Y-55972835D01*
X113550000Y-55925000D01*
X113550000Y-55675000D01*
X113559515Y-55627165D01*
X113586612Y-55586612D01*
X113627165Y-55559515D01*
X113675000Y-55550000D01*
X113925000Y-55550000D01*
X113972835Y-55559515D01*
G37*
G36*
X112372835Y-54759515D02*
G01*
X112413388Y-54786612D01*
X112440485Y-54827165D01*
X112450000Y-54875000D01*
X112450000Y-55125000D01*
X112440485Y-55172835D01*
X112413388Y-55213388D01*
X112372835Y-55240485D01*
X112325000Y-55250000D01*
X112075000Y-55250000D01*
X112027165Y-55240485D01*
X111986612Y-55213388D01*
X111959515Y-55172835D01*
X111950000Y-55125000D01*
X111950000Y-54875000D01*
X111959515Y-54827165D01*
X111986612Y-54786612D01*
X112027165Y-54759515D01*
X112075000Y-54750000D01*
X112325000Y-54750000D01*
X112372835Y-54759515D01*
G37*
G36*
X113972835Y-54759515D02*
G01*
X114013388Y-54786612D01*
X114040485Y-54827165D01*
X114050000Y-54875000D01*
X114050000Y-55125000D01*
X114040485Y-55172835D01*
X114013388Y-55213388D01*
X113972835Y-55240485D01*
X113925000Y-55250000D01*
X113675000Y-55250000D01*
X113627165Y-55240485D01*
X113586612Y-55213388D01*
X113559515Y-55172835D01*
X113550000Y-55125000D01*
X113550000Y-54875000D01*
X113559515Y-54827165D01*
X113586612Y-54786612D01*
X113627165Y-54759515D01*
X113675000Y-54750000D01*
X113925000Y-54750000D01*
X113972835Y-54759515D01*
G37*
G36*
X130208315Y-53154093D02*
G01*
X130371742Y-53186601D01*
X130525687Y-53250367D01*
X130664234Y-53342941D01*
X130782059Y-53460766D01*
X130874633Y-53599313D01*
X130938399Y-53753258D01*
X130970907Y-53916685D01*
X130970907Y-54083315D01*
X130938399Y-54246742D01*
X130874633Y-54400687D01*
X130782059Y-54539234D01*
X130664234Y-54657059D01*
X130525687Y-54749633D01*
X130371742Y-54813399D01*
X130208315Y-54845907D01*
X129875000Y-54850000D01*
X129791685Y-54845907D01*
X129628258Y-54813399D01*
X129474313Y-54749633D01*
X129335766Y-54657059D01*
X129217941Y-54539234D01*
X129125367Y-54400687D01*
X129061601Y-54246742D01*
X129029093Y-54083315D01*
X129029093Y-53916685D01*
X129061601Y-53753258D01*
X129125367Y-53599313D01*
X129217941Y-53460766D01*
X129335766Y-53342941D01*
X129474313Y-53250367D01*
X129628258Y-53186601D01*
X129791685Y-53154093D01*
X130125000Y-53150000D01*
X130208315Y-53154093D01*
G37*
G36*
X112372835Y-53959515D02*
G01*
X112413388Y-53986612D01*
X112440485Y-54027165D01*
X112450000Y-54075000D01*
X112450000Y-54325000D01*
X112440485Y-54372835D01*
X112413388Y-54413388D01*
X112372835Y-54440485D01*
X112325000Y-54450000D01*
X112075000Y-54450000D01*
X112027165Y-54440485D01*
X111986612Y-54413388D01*
X111959515Y-54372835D01*
X111950000Y-54325000D01*
X111950000Y-54075000D01*
X111959515Y-54027165D01*
X111986612Y-53986612D01*
X112027165Y-53959515D01*
X112075000Y-53950000D01*
X112325000Y-53950000D01*
X112372835Y-53959515D01*
G37*
G36*
X113972835Y-53959515D02*
G01*
X114013388Y-53986612D01*
X114040485Y-54027165D01*
X114050000Y-54075000D01*
X114050000Y-54325000D01*
X114040485Y-54372835D01*
X114013388Y-54413388D01*
X113972835Y-54440485D01*
X113925000Y-54450000D01*
X113675000Y-54450000D01*
X113627165Y-54440485D01*
X113586612Y-54413388D01*
X113559515Y-54372835D01*
X113550000Y-54325000D01*
X113550000Y-54075000D01*
X113559515Y-54027165D01*
X113586612Y-53986612D01*
X113627165Y-53959515D01*
X113675000Y-53950000D01*
X113925000Y-53950000D01*
X113972835Y-53959515D01*
G37*
G36*
X117351537Y-53440224D02*
G01*
X117416421Y-53483579D01*
X117459776Y-53548463D01*
X117475000Y-53625000D01*
X117475000Y-54025000D01*
X117459776Y-54101537D01*
X117416421Y-54166421D01*
X117351537Y-54209776D01*
X117275000Y-54225000D01*
X116725000Y-54225000D01*
X116648463Y-54209776D01*
X116583579Y-54166421D01*
X116540224Y-54101537D01*
X116525000Y-54025000D01*
X116525000Y-53625000D01*
X116540224Y-53548463D01*
X116583579Y-53483579D01*
X116648463Y-53440224D01*
X116725000Y-53425000D01*
X117275000Y-53425000D01*
X117351537Y-53440224D01*
G37*
G36*
X112372835Y-53159515D02*
G01*
X112413388Y-53186612D01*
X112440485Y-53227165D01*
X112450000Y-53275000D01*
X112450000Y-53525000D01*
X112440485Y-53572835D01*
X112413388Y-53613388D01*
X112372835Y-53640485D01*
X112325000Y-53650000D01*
X112075000Y-53650000D01*
X112027165Y-53640485D01*
X111986612Y-53613388D01*
X111959515Y-53572835D01*
X111950000Y-53525000D01*
X111950000Y-53275000D01*
X111959515Y-53227165D01*
X111986612Y-53186612D01*
X112027165Y-53159515D01*
X112075000Y-53150000D01*
X112325000Y-53150000D01*
X112372835Y-53159515D01*
G37*
G36*
X113172835Y-53159515D02*
G01*
X113213388Y-53186612D01*
X113240485Y-53227165D01*
X113250000Y-53275000D01*
X113250000Y-53525000D01*
X113240485Y-53572835D01*
X113213388Y-53613388D01*
X113172835Y-53640485D01*
X113125000Y-53650000D01*
X112875000Y-53650000D01*
X112827165Y-53640485D01*
X112786612Y-53613388D01*
X112759515Y-53572835D01*
X112750000Y-53525000D01*
X112750000Y-53275000D01*
X112759515Y-53227165D01*
X112786612Y-53186612D01*
X112827165Y-53159515D01*
X112875000Y-53150000D01*
X113125000Y-53150000D01*
X113172835Y-53159515D01*
G37*
G36*
X113972835Y-53159515D02*
G01*
X114013388Y-53186612D01*
X114040485Y-53227165D01*
X114050000Y-53275000D01*
X114050000Y-53525000D01*
X114040485Y-53572835D01*
X114013388Y-53613388D01*
X113972835Y-53640485D01*
X113925000Y-53650000D01*
X113675000Y-53650000D01*
X113627165Y-53640485D01*
X113586612Y-53613388D01*
X113559515Y-53572835D01*
X113550000Y-53525000D01*
X113550000Y-53275000D01*
X113559515Y-53227165D01*
X113586612Y-53186612D01*
X113627165Y-53159515D01*
X113675000Y-53150000D01*
X113925000Y-53150000D01*
X113972835Y-53159515D01*
G37*
G36*
X124035381Y-52505089D02*
G01*
X124071157Y-52505089D01*
X124100235Y-52513627D01*
X124129296Y-52517453D01*
X124168332Y-52533622D01*
X124207708Y-52545184D01*
X124228491Y-52558540D01*
X124249783Y-52567360D01*
X124288798Y-52597297D01*
X124327430Y-52622125D01*
X124339883Y-52636497D01*
X124353249Y-52646753D01*
X124387899Y-52691910D01*
X124420627Y-52729680D01*
X124426134Y-52741738D01*
X124432638Y-52750215D01*
X124458322Y-52812222D01*
X124479746Y-52859134D01*
X124480805Y-52866500D01*
X124482546Y-52870703D01*
X124494880Y-52964390D01*
X124500000Y-53000000D01*
X124494879Y-53035612D01*
X124482546Y-53129296D01*
X124480805Y-53133498D01*
X124479746Y-53140866D01*
X124458321Y-53187780D01*
X124432639Y-53249783D01*
X124426134Y-53258259D01*
X124420627Y-53270320D01*
X124387887Y-53308103D01*
X124353247Y-53353247D01*
X124339887Y-53363498D01*
X124327430Y-53377875D01*
X124288788Y-53402708D01*
X124249783Y-53432639D01*
X124228496Y-53441456D01*
X124207708Y-53454816D01*
X124168323Y-53466380D01*
X124129296Y-53482546D01*
X124100241Y-53486371D01*
X124071157Y-53494911D01*
X124035374Y-53494911D01*
X124000000Y-53499568D01*
X123964626Y-53494911D01*
X123928843Y-53494911D01*
X123899759Y-53486371D01*
X123870703Y-53482546D01*
X123831672Y-53466379D01*
X123792292Y-53454816D01*
X123771505Y-53441457D01*
X123750216Y-53432639D01*
X123711204Y-53402704D01*
X123672570Y-53377875D01*
X123660114Y-53363500D01*
X123646752Y-53353247D01*
X123612103Y-53308093D01*
X123579373Y-53270320D01*
X123573866Y-53258262D01*
X123567360Y-53249783D01*
X123541668Y-53187757D01*
X123520254Y-53140866D01*
X123519195Y-53133502D01*
X123517453Y-53129296D01*
X123505108Y-53035529D01*
X123500000Y-53000000D01*
X123505108Y-52964473D01*
X123517453Y-52870703D01*
X123519195Y-52866496D01*
X123520254Y-52859134D01*
X123541666Y-52812245D01*
X123567361Y-52750215D01*
X123573867Y-52741735D01*
X123579373Y-52729680D01*
X123612089Y-52691923D01*
X123646751Y-52646751D01*
X123660120Y-52636491D01*
X123672570Y-52622125D01*
X123711192Y-52597303D01*
X123750215Y-52567361D01*
X123771508Y-52558541D01*
X123792292Y-52545184D01*
X123831665Y-52533622D01*
X123870703Y-52517453D01*
X123899765Y-52513626D01*
X123928843Y-52505089D01*
X123964618Y-52505089D01*
X124000000Y-52500431D01*
X124035381Y-52505089D01*
G37*
G36*
X110351537Y-52440224D02*
G01*
X110416421Y-52483579D01*
X110459776Y-52548463D01*
X110475000Y-52625000D01*
X110475000Y-53025000D01*
X110459776Y-53101537D01*
X110416421Y-53166421D01*
X110351537Y-53209776D01*
X110275000Y-53225000D01*
X109725000Y-53225000D01*
X109648463Y-53209776D01*
X109583579Y-53166421D01*
X109540224Y-53101537D01*
X109525000Y-53025000D01*
X109525000Y-52625000D01*
X109540224Y-52548463D01*
X109583579Y-52483579D01*
X109648463Y-52440224D01*
X109725000Y-52425000D01*
X110275000Y-52425000D01*
X110351537Y-52440224D01*
G37*
G36*
X117351537Y-51790224D02*
G01*
X117416421Y-51833579D01*
X117459776Y-51898463D01*
X117475000Y-51975000D01*
X117475000Y-52375000D01*
X117459776Y-52451537D01*
X117416421Y-52516421D01*
X117351537Y-52559776D01*
X117275000Y-52575000D01*
X116725000Y-52575000D01*
X116648463Y-52559776D01*
X116583579Y-52516421D01*
X116540224Y-52451537D01*
X116525000Y-52375000D01*
X116525000Y-51975000D01*
X116540224Y-51898463D01*
X116583579Y-51833579D01*
X116648463Y-51790224D01*
X116725000Y-51775000D01*
X117275000Y-51775000D01*
X117351537Y-51790224D01*
G37*
G36*
X130729047Y-50650805D02*
G01*
X130780408Y-50656764D01*
X130797954Y-50664511D01*
X130820671Y-50669030D01*
X130844991Y-50685280D01*
X130865793Y-50694465D01*
X130880000Y-50708672D01*
X130901777Y-50723223D01*
X130916327Y-50744999D01*
X130930534Y-50759206D01*
X130939718Y-50780006D01*
X130955970Y-50804329D01*
X130960489Y-50827048D01*
X130968235Y-50844591D01*
X130974192Y-50895940D01*
X130975000Y-50900000D01*
X130975000Y-52100000D01*
X130974192Y-52104059D01*
X130968235Y-52155408D01*
X130960489Y-52172950D01*
X130955970Y-52195671D01*
X130939716Y-52219995D01*
X130930534Y-52240793D01*
X130916329Y-52254997D01*
X130901777Y-52276777D01*
X130879997Y-52291329D01*
X130865793Y-52305534D01*
X130844995Y-52314716D01*
X130820671Y-52330970D01*
X130797950Y-52335489D01*
X130780408Y-52343235D01*
X130729061Y-52349192D01*
X130725000Y-52350000D01*
X129275000Y-52350000D01*
X129270941Y-52349192D01*
X129219591Y-52343235D01*
X129202048Y-52335489D01*
X129179329Y-52330970D01*
X129155006Y-52314718D01*
X129134206Y-52305534D01*
X129119999Y-52291327D01*
X129098223Y-52276777D01*
X129083672Y-52255000D01*
X129069465Y-52240793D01*
X129060280Y-52219991D01*
X129044030Y-52195671D01*
X129039511Y-52172954D01*
X129031764Y-52155408D01*
X129025805Y-52104049D01*
X129025000Y-52100000D01*
X129025000Y-50900000D01*
X129025804Y-50895953D01*
X129031764Y-50844591D01*
X129039511Y-50827043D01*
X129044030Y-50804329D01*
X129060278Y-50780010D01*
X129069465Y-50759206D01*
X129083674Y-50744996D01*
X129098223Y-50723223D01*
X129119996Y-50708674D01*
X129134206Y-50694465D01*
X129155010Y-50685278D01*
X129179329Y-50669030D01*
X129202043Y-50664511D01*
X129219591Y-50656764D01*
X129270952Y-50650805D01*
X129275000Y-50650000D01*
X130725000Y-50650000D01*
X130729047Y-50650805D01*
G37*
G36*
X119236662Y-51250276D02*
G01*
X119280459Y-51279541D01*
X119309724Y-51323338D01*
X119320000Y-51375000D01*
X119320000Y-51645000D01*
X119309724Y-51696662D01*
X119280459Y-51740459D01*
X119236662Y-51769724D01*
X119185000Y-51780000D01*
X118815000Y-51780000D01*
X118763338Y-51769724D01*
X118719541Y-51740459D01*
X118690276Y-51696662D01*
X118680000Y-51645000D01*
X118680000Y-51375000D01*
X118690276Y-51323338D01*
X118719541Y-51279541D01*
X118763338Y-51250276D01*
X118815000Y-51240000D01*
X119185000Y-51240000D01*
X119236662Y-51250276D01*
G37*
G36*
X110351537Y-50790224D02*
G01*
X110416421Y-50833579D01*
X110459776Y-50898463D01*
X110475000Y-50975000D01*
X110475000Y-51375000D01*
X110459776Y-51451537D01*
X110416421Y-51516421D01*
X110351537Y-51559776D01*
X110275000Y-51575000D01*
X109725000Y-51575000D01*
X109648463Y-51559776D01*
X109583579Y-51516421D01*
X109540224Y-51451537D01*
X109525000Y-51375000D01*
X109525000Y-50975000D01*
X109540224Y-50898463D01*
X109583579Y-50833579D01*
X109648463Y-50790224D01*
X109725000Y-50775000D01*
X110275000Y-50775000D01*
X110351537Y-50790224D01*
G37*
G36*
X122461104Y-50217127D02*
G01*
X122534099Y-50265901D01*
X122582873Y-50338896D01*
X122600000Y-50425000D01*
X122600000Y-50875000D01*
X122582873Y-50961104D01*
X122534099Y-51034099D01*
X122461104Y-51082873D01*
X122375000Y-51100000D01*
X121625000Y-51100000D01*
X121538896Y-51082873D01*
X121465901Y-51034099D01*
X121417127Y-50961104D01*
X121400000Y-50875000D01*
X121400000Y-50425000D01*
X121417127Y-50338896D01*
X121465901Y-50265901D01*
X121538896Y-50217127D01*
X121625000Y-50200000D01*
X122375000Y-50200000D01*
X122461104Y-50217127D01*
G37*
G36*
X119236662Y-50230276D02*
G01*
X119280459Y-50259541D01*
X119309724Y-50303338D01*
X119320000Y-50355000D01*
X119320000Y-50625000D01*
X119309724Y-50676662D01*
X119280459Y-50720459D01*
X119236662Y-50749724D01*
X119185000Y-50760000D01*
X118815000Y-50760000D01*
X118763338Y-50749724D01*
X118719541Y-50720459D01*
X118690276Y-50676662D01*
X118680000Y-50625000D01*
X118680000Y-50355000D01*
X118690276Y-50303338D01*
X118719541Y-50259541D01*
X118763338Y-50230276D01*
X118815000Y-50220000D01*
X119185000Y-50220000D01*
X119236662Y-50230276D01*
G37*
G36*
X128035995Y-49304739D02*
G01*
X128072278Y-49304739D01*
X128113880Y-49314993D01*
X128155291Y-49320445D01*
X128183638Y-49332186D01*
X128212632Y-49339333D01*
X128256591Y-49362404D01*
X128300000Y-49380385D01*
X128319804Y-49395581D01*
X128340629Y-49406511D01*
X128383202Y-49444228D01*
X128424264Y-49475736D01*
X128435935Y-49490946D01*
X128448832Y-49502372D01*
X128485821Y-49555959D01*
X128519615Y-49600000D01*
X128524707Y-49612293D01*
X128530948Y-49621335D01*
X128558020Y-49692719D01*
X128579555Y-49744709D01*
X128580521Y-49752050D01*
X128582209Y-49756500D01*
X128595278Y-49864140D01*
X128600000Y-49900000D01*
X128595278Y-49935862D01*
X128582209Y-50043499D01*
X128580521Y-50047947D01*
X128579555Y-50055291D01*
X128558015Y-50107291D01*
X128530948Y-50178664D01*
X128524708Y-50187703D01*
X128519615Y-50200000D01*
X128485814Y-50244049D01*
X128448832Y-50297627D01*
X128435937Y-50309050D01*
X128424264Y-50324264D01*
X128383194Y-50355777D01*
X128340629Y-50393488D01*
X128319808Y-50404415D01*
X128300000Y-50419615D01*
X128256582Y-50437598D01*
X128212632Y-50460666D01*
X128183642Y-50467811D01*
X128155291Y-50479555D01*
X128113877Y-50485007D01*
X128072278Y-50495261D01*
X128035995Y-50495261D01*
X128000000Y-50500000D01*
X127964005Y-50495261D01*
X127927722Y-50495261D01*
X127886121Y-50485007D01*
X127844709Y-50479555D01*
X127816358Y-50467811D01*
X127787367Y-50460666D01*
X127743412Y-50437596D01*
X127700000Y-50419615D01*
X127680193Y-50404417D01*
X127659370Y-50393488D01*
X127616798Y-50355772D01*
X127575736Y-50324264D01*
X127564064Y-50309053D01*
X127551167Y-50297627D01*
X127514175Y-50244036D01*
X127480385Y-50200000D01*
X127475293Y-50187707D01*
X127469051Y-50178664D01*
X127441972Y-50107262D01*
X127420445Y-50055291D01*
X127419478Y-50047951D01*
X127417790Y-50043499D01*
X127404708Y-49935764D01*
X127400000Y-49900000D01*
X127404708Y-49864238D01*
X127417790Y-49756500D01*
X127419478Y-49752046D01*
X127420445Y-49744709D01*
X127441967Y-49692748D01*
X127469051Y-49621335D01*
X127475294Y-49612290D01*
X127480385Y-49600000D01*
X127514168Y-49555972D01*
X127551167Y-49502372D01*
X127564066Y-49490943D01*
X127575736Y-49475736D01*
X127616789Y-49444234D01*
X127659370Y-49406511D01*
X127680197Y-49395579D01*
X127700000Y-49380385D01*
X127743403Y-49362406D01*
X127787367Y-49339333D01*
X127816363Y-49332186D01*
X127844709Y-49320445D01*
X127886118Y-49314993D01*
X127927722Y-49304739D01*
X127964005Y-49304739D01*
X128000000Y-49300000D01*
X128035995Y-49304739D01*
G37*
G36*
X117257403Y-47486418D02*
G01*
X117306066Y-47518934D01*
X117338582Y-47567597D01*
X117350000Y-47625000D01*
X117350000Y-48650000D01*
X117338582Y-48707403D01*
X117306066Y-48756066D01*
X117257403Y-48788582D01*
X117200000Y-48800000D01*
X116900000Y-48800000D01*
X116842597Y-48788582D01*
X116793934Y-48756066D01*
X116761418Y-48707403D01*
X116750000Y-48650000D01*
X116750000Y-47625000D01*
X116761418Y-47567597D01*
X116793934Y-47518934D01*
X116842597Y-47486418D01*
X116900000Y-47475000D01*
X117200000Y-47475000D01*
X117257403Y-47486418D01*
G37*
G36*
X119157403Y-47486418D02*
G01*
X119206066Y-47518934D01*
X119238582Y-47567597D01*
X119250000Y-47625000D01*
X119250000Y-48650000D01*
X119238582Y-48707403D01*
X119206066Y-48756066D01*
X119157403Y-48788582D01*
X119100000Y-48800000D01*
X118800000Y-48800000D01*
X118742597Y-48788582D01*
X118693934Y-48756066D01*
X118661418Y-48707403D01*
X118650000Y-48650000D01*
X118650000Y-47625000D01*
X118661418Y-47567597D01*
X118693934Y-47518934D01*
X118742597Y-47486418D01*
X118800000Y-47475000D01*
X119100000Y-47475000D01*
X119157403Y-47486418D01*
G37*
G36*
X125035381Y-47505089D02*
G01*
X125071157Y-47505089D01*
X125100235Y-47513627D01*
X125129296Y-47517453D01*
X125168332Y-47533622D01*
X125207708Y-47545184D01*
X125228491Y-47558540D01*
X125249783Y-47567360D01*
X125288798Y-47597297D01*
X125327430Y-47622125D01*
X125339883Y-47636497D01*
X125353249Y-47646753D01*
X125387899Y-47691910D01*
X125420627Y-47729680D01*
X125426134Y-47741738D01*
X125432638Y-47750215D01*
X125458322Y-47812222D01*
X125479746Y-47859134D01*
X125480805Y-47866500D01*
X125482546Y-47870703D01*
X125494880Y-47964390D01*
X125500000Y-48000000D01*
X125494879Y-48035612D01*
X125482546Y-48129296D01*
X125480805Y-48133498D01*
X125479746Y-48140866D01*
X125458321Y-48187780D01*
X125432639Y-48249783D01*
X125426134Y-48258259D01*
X125420627Y-48270320D01*
X125387887Y-48308103D01*
X125353247Y-48353247D01*
X125339887Y-48363498D01*
X125327430Y-48377875D01*
X125288788Y-48402708D01*
X125249783Y-48432639D01*
X125228496Y-48441456D01*
X125207708Y-48454816D01*
X125168323Y-48466380D01*
X125129296Y-48482546D01*
X125100241Y-48486371D01*
X125071157Y-48494911D01*
X125035374Y-48494911D01*
X125000000Y-48499568D01*
X124964626Y-48494911D01*
X124928843Y-48494911D01*
X124899759Y-48486371D01*
X124870703Y-48482546D01*
X124831672Y-48466379D01*
X124792292Y-48454816D01*
X124771505Y-48441457D01*
X124750216Y-48432639D01*
X124711204Y-48402704D01*
X124672570Y-48377875D01*
X124660114Y-48363500D01*
X124646752Y-48353247D01*
X124612103Y-48308093D01*
X124579373Y-48270320D01*
X124573866Y-48258262D01*
X124567360Y-48249783D01*
X124541668Y-48187757D01*
X124520254Y-48140866D01*
X124519195Y-48133502D01*
X124517453Y-48129296D01*
X124505108Y-48035529D01*
X124500000Y-48000000D01*
X124505108Y-47964473D01*
X124517453Y-47870703D01*
X124519195Y-47866496D01*
X124520254Y-47859134D01*
X124541666Y-47812245D01*
X124567361Y-47750215D01*
X124573867Y-47741735D01*
X124579373Y-47729680D01*
X124612089Y-47691923D01*
X124646751Y-47646751D01*
X124660120Y-47636491D01*
X124672570Y-47622125D01*
X124711192Y-47597303D01*
X124750215Y-47567361D01*
X124771508Y-47558541D01*
X124792292Y-47545184D01*
X124831665Y-47533622D01*
X124870703Y-47517453D01*
X124899765Y-47513626D01*
X124928843Y-47505089D01*
X124964618Y-47505089D01*
X125000000Y-47500431D01*
X125035381Y-47505089D01*
G37*
G36*
X110514962Y-47541651D02*
G01*
X110585930Y-47589070D01*
X110633349Y-47660038D01*
X110650000Y-47743750D01*
X110650000Y-48256250D01*
X110633349Y-48339962D01*
X110585930Y-48410930D01*
X110514962Y-48458349D01*
X110431250Y-48475000D01*
X109993750Y-48475000D01*
X109910038Y-48458349D01*
X109839070Y-48410930D01*
X109791651Y-48339962D01*
X109775000Y-48256250D01*
X109775000Y-47743750D01*
X109791651Y-47660038D01*
X109839070Y-47589070D01*
X109910038Y-47541651D01*
X109993750Y-47525000D01*
X110431250Y-47525000D01*
X110514962Y-47541651D01*
G37*
G36*
X112089962Y-47541651D02*
G01*
X112160930Y-47589070D01*
X112208349Y-47660038D01*
X112225000Y-47743750D01*
X112225000Y-48256250D01*
X112208349Y-48339962D01*
X112160930Y-48410930D01*
X112089962Y-48458349D01*
X112006250Y-48475000D01*
X111568750Y-48475000D01*
X111485038Y-48458349D01*
X111414070Y-48410930D01*
X111366651Y-48339962D01*
X111350000Y-48256250D01*
X111350000Y-47743750D01*
X111366651Y-47660038D01*
X111414070Y-47589070D01*
X111485038Y-47541651D01*
X111568750Y-47525000D01*
X112006250Y-47525000D01*
X112089962Y-47541651D01*
G37*
G36*
X113676662Y-47690276D02*
G01*
X113720459Y-47719541D01*
X113749724Y-47763338D01*
X113760000Y-47815000D01*
X113760000Y-48185000D01*
X113749724Y-48236662D01*
X113720459Y-48280459D01*
X113676662Y-48309724D01*
X113625000Y-48320000D01*
X113355000Y-48320000D01*
X113303338Y-48309724D01*
X113259541Y-48280459D01*
X113230276Y-48236662D01*
X113220000Y-48185000D01*
X113220000Y-47815000D01*
X113230276Y-47763338D01*
X113259541Y-47719541D01*
X113303338Y-47690276D01*
X113355000Y-47680000D01*
X113625000Y-47680000D01*
X113676662Y-47690276D01*
G37*
G36*
X114696662Y-47690276D02*
G01*
X114740459Y-47719541D01*
X114769724Y-47763338D01*
X114780000Y-47815000D01*
X114780000Y-48185000D01*
X114769724Y-48236662D01*
X114740459Y-48280459D01*
X114696662Y-48309724D01*
X114645000Y-48320000D01*
X114375000Y-48320000D01*
X114323338Y-48309724D01*
X114279541Y-48280459D01*
X114250276Y-48236662D01*
X114240000Y-48185000D01*
X114240000Y-47815000D01*
X114250276Y-47763338D01*
X114279541Y-47719541D01*
X114323338Y-47690276D01*
X114375000Y-47680000D01*
X114645000Y-47680000D01*
X114696662Y-47690276D01*
G37*
G36*
X122461104Y-46917127D02*
G01*
X122534099Y-46965901D01*
X122582873Y-47038896D01*
X122600000Y-47125000D01*
X122600000Y-47575000D01*
X122582873Y-47661104D01*
X122534099Y-47734099D01*
X122461104Y-47782873D01*
X122375000Y-47800000D01*
X121625000Y-47800000D01*
X121538896Y-47782873D01*
X121465901Y-47734099D01*
X121417127Y-47661104D01*
X121400000Y-47575000D01*
X121400000Y-47125000D01*
X121417127Y-47038896D01*
X121465901Y-46965901D01*
X121538896Y-46917127D01*
X121625000Y-46900000D01*
X122375000Y-46900000D01*
X122461104Y-46917127D01*
G37*
G36*
X118207403Y-45211418D02*
G01*
X118256066Y-45243934D01*
X118288582Y-45292597D01*
X118300000Y-45350000D01*
X118300000Y-46375000D01*
X118288582Y-46432403D01*
X118256066Y-46481066D01*
X118207403Y-46513582D01*
X118150000Y-46525000D01*
X117850000Y-46525000D01*
X117792597Y-46513582D01*
X117743934Y-46481066D01*
X117711418Y-46432403D01*
X117700000Y-46375000D01*
X117700000Y-45350000D01*
X117711418Y-45292597D01*
X117743934Y-45243934D01*
X117792597Y-45211418D01*
X117850000Y-45200000D01*
X118150000Y-45200000D01*
X118207403Y-45211418D01*
G37*
G36*
X114035381Y-45505089D02*
G01*
X114071157Y-45505089D01*
X114100235Y-45513627D01*
X114129296Y-45517453D01*
X114168332Y-45533622D01*
X114207708Y-45545184D01*
X114228491Y-45558540D01*
X114249783Y-45567360D01*
X114288798Y-45597297D01*
X114327430Y-45622125D01*
X114339883Y-45636497D01*
X114353249Y-45646753D01*
X114387899Y-45691910D01*
X114420627Y-45729680D01*
X114426134Y-45741738D01*
X114432638Y-45750215D01*
X114458322Y-45812222D01*
X114479746Y-45859134D01*
X114480805Y-45866500D01*
X114482546Y-45870703D01*
X114494880Y-45964390D01*
X114500000Y-46000000D01*
X114494879Y-46035612D01*
X114482546Y-46129296D01*
X114480805Y-46133498D01*
X114479746Y-46140866D01*
X114458321Y-46187780D01*
X114432639Y-46249783D01*
X114426134Y-46258259D01*
X114420627Y-46270320D01*
X114387887Y-46308103D01*
X114353247Y-46353247D01*
X114339887Y-46363498D01*
X114327430Y-46377875D01*
X114288788Y-46402708D01*
X114249783Y-46432639D01*
X114228496Y-46441456D01*
X114207708Y-46454816D01*
X114168323Y-46466380D01*
X114129296Y-46482546D01*
X114100241Y-46486371D01*
X114071157Y-46494911D01*
X114035374Y-46494911D01*
X114000000Y-46499568D01*
X113964626Y-46494911D01*
X113928843Y-46494911D01*
X113899759Y-46486371D01*
X113870703Y-46482546D01*
X113831672Y-46466379D01*
X113792292Y-46454816D01*
X113771505Y-46441457D01*
X113750216Y-46432639D01*
X113711204Y-46402704D01*
X113672570Y-46377875D01*
X113660114Y-46363500D01*
X113646752Y-46353247D01*
X113612103Y-46308093D01*
X113579373Y-46270320D01*
X113573866Y-46258262D01*
X113567360Y-46249783D01*
X113541668Y-46187757D01*
X113520254Y-46140866D01*
X113519195Y-46133502D01*
X113517453Y-46129296D01*
X113505108Y-46035529D01*
X113500000Y-46000000D01*
X113505108Y-45964473D01*
X113517453Y-45870703D01*
X113519195Y-45866496D01*
X113520254Y-45859134D01*
X113541666Y-45812245D01*
X113567361Y-45750215D01*
X113573867Y-45741735D01*
X113579373Y-45729680D01*
X113612089Y-45691923D01*
X113646751Y-45646751D01*
X113660120Y-45636491D01*
X113672570Y-45622125D01*
X113711192Y-45597303D01*
X113750215Y-45567361D01*
X113771508Y-45558541D01*
X113792292Y-45545184D01*
X113831665Y-45533622D01*
X113870703Y-45517453D01*
X113899765Y-45513626D01*
X113928843Y-45505089D01*
X113964618Y-45505089D01*
X114000000Y-45500431D01*
X114035381Y-45505089D01*
G37*
G36*
X106250295Y-42419699D02*
G01*
X106494427Y-42478310D01*
X106726385Y-42574390D01*
X106940456Y-42705573D01*
X107131371Y-42868629D01*
X107294427Y-43059544D01*
X107425610Y-43273615D01*
X107521690Y-43505573D01*
X107580301Y-43749705D01*
X107600000Y-44000000D01*
X107580301Y-44250295D01*
X107521690Y-44494427D01*
X107425610Y-44726385D01*
X107294427Y-44940456D01*
X107131371Y-45131371D01*
X106940456Y-45294427D01*
X106726385Y-45425610D01*
X106494427Y-45521690D01*
X106250295Y-45580301D01*
X106000000Y-45600000D01*
X105749705Y-45580301D01*
X105505573Y-45521690D01*
X105273615Y-45425610D01*
X105059544Y-45294427D01*
X104868629Y-45131371D01*
X104705573Y-44940456D01*
X104574390Y-44726385D01*
X104478310Y-44494427D01*
X104419699Y-44250295D01*
X104400000Y-44000000D01*
X104419699Y-43749705D01*
X104478310Y-43505573D01*
X104574390Y-43273615D01*
X104705573Y-43059544D01*
X104868629Y-42868629D01*
X105059544Y-42705573D01*
X105273615Y-42574390D01*
X105505573Y-42478310D01*
X105749705Y-42419699D01*
X106000000Y-42400000D01*
X106250295Y-42419699D01*
G37*
G36*
X130250295Y-42419699D02*
G01*
X130494427Y-42478310D01*
X130726385Y-42574390D01*
X130940456Y-42705573D01*
X131131371Y-42868629D01*
X131294427Y-43059544D01*
X131425610Y-43273615D01*
X131521690Y-43505573D01*
X131580301Y-43749705D01*
X131600000Y-44000000D01*
X131580301Y-44250295D01*
X131521690Y-44494427D01*
X131425610Y-44726385D01*
X131294427Y-44940456D01*
X131131371Y-45131371D01*
X130940456Y-45294427D01*
X130726385Y-45425610D01*
X130494427Y-45521690D01*
X130250295Y-45580301D01*
X130000000Y-45600000D01*
X129749705Y-45580301D01*
X129505573Y-45521690D01*
X129273615Y-45425610D01*
X129059544Y-45294427D01*
X128868629Y-45131371D01*
X128705573Y-44940456D01*
X128574390Y-44726385D01*
X128478310Y-44494427D01*
X128419699Y-44250295D01*
X128400000Y-44000000D01*
X128419699Y-43749705D01*
X128478310Y-43505573D01*
X128574390Y-43273615D01*
X128705573Y-43059544D01*
X128868629Y-42868629D01*
X129059544Y-42705573D01*
X129273615Y-42574390D01*
X129505573Y-42478310D01*
X129749705Y-42419699D01*
X130000000Y-42400000D01*
X130250295Y-42419699D01*
G37*
M02*
