%TF.GenerationSoftware,KiCad,Pcbnew,8.0.2*%
%TF.CreationDate,2024-12-26T16:28:57-05:00*%
%TF.ProjectId,Lumen Sensor,4c756d65-6e20-4536-956e-736f722e6b69,rev?*%
%TF.SameCoordinates,Original*%
%TF.FileFunction,Copper,L1,Top*%
%TF.FilePolarity,Positive*%
%FSLAX46Y46*%
G04 Gerber Fmt 4.6, Leading zero omitted, Abs format (unit mm)*
G04 Created by KiCad (PCBNEW 8.0.2) date 2024-12-26 16:28:57*
%MOMM*%
%LPD*%
G01*
G04 APERTURE LIST*
G04 Aperture macros list*
%AMRoundRect*
0 Rectangle with rounded corners*
0 $1 Rounding radius*
0 $2 $3 $4 $5 $6 $7 $8 $9 X,Y pos of 4 corners*
0 Add a 4 corners polygon primitive as box body*
4,1,4,$2,$3,$4,$5,$6,$7,$8,$9,$2,$3,0*
0 Add four circle primitives for the rounded corners*
1,1,$1+$1,$2,$3*
1,1,$1+$1,$4,$5*
1,1,$1+$1,$6,$7*
1,1,$1+$1,$8,$9*
0 Add four rect primitives between the rounded corners*
20,1,$1+$1,$2,$3,$4,$5,0*
20,1,$1+$1,$4,$5,$6,$7,0*
20,1,$1+$1,$6,$7,$8,$9,0*
20,1,$1+$1,$8,$9,$2,$3,0*%
G04 Aperture macros list end*
%TA.AperFunction,ComponentPad*%
%ADD10C,4.400000*%
%TD*%
%TA.AperFunction,SMDPad,CuDef*%
%ADD11C,1.000000*%
%TD*%
%TA.AperFunction,SMDPad,CuDef*%
%ADD12RoundRect,0.200000X-0.275000X0.200000X-0.275000X-0.200000X0.275000X-0.200000X0.275000X0.200000X0*%
%TD*%
%TA.AperFunction,SMDPad,CuDef*%
%ADD13RoundRect,0.200000X-0.200000X-0.275000X0.200000X-0.275000X0.200000X0.275000X-0.200000X0.275000X0*%
%TD*%
%TA.AperFunction,SMDPad,CuDef*%
%ADD14RoundRect,0.135000X0.135000X0.185000X-0.135000X0.185000X-0.135000X-0.185000X0.135000X-0.185000X0*%
%TD*%
%TA.AperFunction,SMDPad,CuDef*%
%ADD15RoundRect,0.218750X0.256250X-0.218750X0.256250X0.218750X-0.256250X0.218750X-0.256250X-0.218750X0*%
%TD*%
%TA.AperFunction,SMDPad,CuDef*%
%ADD16RoundRect,0.200000X0.275000X-0.200000X0.275000X0.200000X-0.275000X0.200000X-0.275000X-0.200000X0*%
%TD*%
%TA.AperFunction,ComponentPad*%
%ADD17RoundRect,0.250000X-0.725000X0.600000X-0.725000X-0.600000X0.725000X-0.600000X0.725000X0.600000X0*%
%TD*%
%TA.AperFunction,ComponentPad*%
%ADD18O,1.950000X1.700000*%
%TD*%
%TA.AperFunction,SMDPad,CuDef*%
%ADD19RoundRect,0.075000X-0.250000X-0.075000X0.250000X-0.075000X0.250000X0.075000X-0.250000X0.075000X0*%
%TD*%
%TA.AperFunction,SMDPad,CuDef*%
%ADD20RoundRect,0.225000X0.225000X0.375000X-0.225000X0.375000X-0.225000X-0.375000X0.225000X-0.375000X0*%
%TD*%
%TA.AperFunction,SMDPad,CuDef*%
%ADD21RoundRect,0.150000X-0.512500X-0.150000X0.512500X-0.150000X0.512500X0.150000X-0.512500X0.150000X0*%
%TD*%
%TA.AperFunction,SMDPad,CuDef*%
%ADD22RoundRect,0.250000X-0.650000X0.325000X-0.650000X-0.325000X0.650000X-0.325000X0.650000X0.325000X0*%
%TD*%
%TA.AperFunction,SMDPad,CuDef*%
%ADD23RoundRect,0.135000X0.185000X-0.135000X0.185000X0.135000X-0.185000X0.135000X-0.185000X-0.135000X0*%
%TD*%
%TA.AperFunction,ViaPad*%
%ADD24C,0.600000*%
%TD*%
%TA.AperFunction,Conductor*%
%ADD25C,0.300000*%
%TD*%
%TA.AperFunction,Conductor*%
%ADD26C,0.500000*%
%TD*%
%TA.AperFunction,Conductor*%
%ADD27C,0.635000*%
%TD*%
%TA.AperFunction,Conductor*%
%ADD28C,0.400000*%
%TD*%
G04 APERTURE END LIST*
D10*
%TO.P,H2,1*%
%TO.N,N/C*%
X117000000Y-45000000D03*
%TD*%
D11*
%TO.P,TP3,1,1*%
%TO.N,/Lumen Board/SCL_R*%
X104000000Y-58000000D03*
%TD*%
D12*
%TO.P,R2,1*%
%TO.N,/Lumen Board/I2C.SCL*%
X111000000Y-56175000D03*
%TO.P,R2,2*%
%TO.N,3V3*%
X111000000Y-57825000D03*
%TD*%
D11*
%TO.P,TP4,1,1*%
%TO.N,GND*%
X101000000Y-59000000D03*
%TD*%
D13*
%TO.P,R3,1*%
%TO.N,/Lumen Board/SDA_R*%
X107175000Y-54000000D03*
%TO.P,R3,2*%
%TO.N,/Lumen Board/I2C.SDA*%
X108825000Y-54000000D03*
%TD*%
D10*
%TO.P,H4,1*%
%TO.N,N/C*%
X117000000Y-65000000D03*
%TD*%
D14*
%TO.P,R6,1*%
%TO.N,Net-(D1-A)*%
X108510000Y-51000000D03*
%TO.P,R6,2*%
%TO.N,GND*%
X107490000Y-51000000D03*
%TD*%
D11*
%TO.P,TP1,1,1*%
%TO.N,3V3*%
X104000000Y-45000000D03*
%TD*%
D15*
%TO.P,D2,1,K*%
%TO.N,GND*%
X98000000Y-57787500D03*
%TO.P,D2,2,A*%
%TO.N,Net-(D2-A)*%
X98000000Y-56212500D03*
%TD*%
D13*
%TO.P,R5,1*%
%TO.N,/Lumen Board/SCL_R*%
X107175000Y-56000000D03*
%TO.P,R5,2*%
%TO.N,/Lumen Board/I2C.SCL*%
X108825000Y-56000000D03*
%TD*%
D16*
%TO.P,R1,1*%
%TO.N,/Lumen Board/I2C.SDA*%
X111000000Y-53825000D03*
%TO.P,R1,2*%
%TO.N,3V3*%
X111000000Y-52175000D03*
%TD*%
D11*
%TO.P,TP2,1,1*%
%TO.N,/Lumen Board/SDA_R*%
X104000000Y-52000000D03*
%TD*%
D17*
%TO.P,J1,1,Pin_1*%
%TO.N,VIN*%
X117000000Y-51000000D03*
D18*
%TO.P,J1,2,Pin_2*%
%TO.N,/Lumen Board/I2C.SDA*%
X117000000Y-53500000D03*
%TO.P,J1,3,Pin_3*%
%TO.N,/Lumen Board/I2C.SCL*%
X117000000Y-56000000D03*
%TO.P,J1,4,Pin_4*%
%TO.N,GND*%
X117000000Y-58500000D03*
%TD*%
D19*
%TO.P,U1,1,VDD*%
%TO.N,3V3*%
X103100000Y-54350000D03*
%TO.P,U1,2,NC*%
%TO.N,unconnected-(U1-NC-Pad2)*%
X103100000Y-55000000D03*
%TO.P,U1,3,GND*%
%TO.N,GND*%
X103100000Y-55650000D03*
%TO.P,U1,4,SCL*%
%TO.N,/Lumen Board/SCL_R*%
X104900000Y-55650000D03*
%TO.P,U1,5,INT*%
%TO.N,unconnected-(U1-INT-Pad5)*%
X104900000Y-55000000D03*
%TO.P,U1,6,SDA*%
%TO.N,/Lumen Board/SDA_R*%
X104900000Y-54350000D03*
%TD*%
D20*
%TO.P,D1,1,K*%
%TO.N,VIN*%
X111650000Y-48000000D03*
%TO.P,D1,2,A*%
%TO.N,Net-(D1-A)*%
X108350000Y-48000000D03*
%TD*%
D10*
%TO.P,H3,1*%
%TO.N,N/C*%
X99000000Y-65000000D03*
%TD*%
%TO.P,H1,1*%
%TO.N,N/C*%
X99000000Y-45000000D03*
%TD*%
D21*
%TO.P,Q1,1,D*%
%TO.N,3V3*%
X107862500Y-44050000D03*
%TO.P,Q1,2,G*%
%TO.N,Net-(D1-A)*%
X107862500Y-45950000D03*
%TO.P,Q1,3,S*%
%TO.N,VIN*%
X110137500Y-45000000D03*
%TD*%
D22*
%TO.P,C1,1*%
%TO.N,3V3*%
X100000000Y-53525000D03*
%TO.P,C1,2*%
%TO.N,GND*%
X100000000Y-56475000D03*
%TD*%
D23*
%TO.P,R4,1*%
%TO.N,Net-(D2-A)*%
X98000000Y-54510000D03*
%TO.P,R4,2*%
%TO.N,3V3*%
X98000000Y-53490000D03*
%TD*%
D24*
%TO.N,GND*%
X96000000Y-61000000D03*
X120000000Y-53000000D03*
X96000000Y-63000000D03*
X96000000Y-57000000D03*
X103000000Y-42000000D03*
X104000000Y-49000000D03*
X111000000Y-68000000D03*
X115000000Y-60000000D03*
X109000000Y-64000000D03*
X98000000Y-60000000D03*
X114000000Y-66000000D03*
X110000000Y-66000000D03*
X100000000Y-51000000D03*
X103000000Y-68000000D03*
X115100000Y-52400000D03*
X112600000Y-57400000D03*
X98000000Y-62000000D03*
X107000000Y-52000000D03*
X111000000Y-42000000D03*
X108000000Y-66000000D03*
X120000000Y-57000000D03*
X110000000Y-48000000D03*
X110000000Y-62000000D03*
X107000000Y-64000000D03*
X100000000Y-49000000D03*
X102000000Y-66000000D03*
X120000000Y-55000000D03*
X107000000Y-68000000D03*
X112600000Y-52300000D03*
X96000000Y-59000000D03*
X96000000Y-49000000D03*
X108000000Y-62000000D03*
X120000000Y-59000000D03*
X113000000Y-68000000D03*
X109000000Y-68000000D03*
X120000000Y-65000000D03*
X99000000Y-42000000D03*
X120000000Y-63000000D03*
X105000000Y-48000000D03*
X103000000Y-64000000D03*
X119100000Y-67100000D03*
X96000000Y-47000000D03*
X105000000Y-64000000D03*
X116000000Y-62000000D03*
X106000000Y-66000000D03*
X114000000Y-62000000D03*
X104000000Y-62000000D03*
X111000000Y-64000000D03*
X107000000Y-60000000D03*
X101000000Y-68000000D03*
X114000000Y-45000000D03*
X96900000Y-67100000D03*
X118000000Y-62000000D03*
X105000000Y-68000000D03*
X96000000Y-51000000D03*
X100000000Y-58000000D03*
X112000000Y-62000000D03*
X112000000Y-66000000D03*
X120000000Y-51000000D03*
X108000000Y-58000000D03*
X96000000Y-65000000D03*
X103000000Y-60000000D03*
X109000000Y-52000000D03*
X119100000Y-42900000D03*
X96000000Y-55000000D03*
X113000000Y-42000000D03*
X115000000Y-42000000D03*
X120000000Y-45000000D03*
X98000000Y-48000000D03*
X117000000Y-48000000D03*
X115000000Y-68000000D03*
X111000000Y-60000000D03*
X107000000Y-42000000D03*
X98000000Y-50000000D03*
X98000000Y-52000000D03*
X99000000Y-68000000D03*
X96000000Y-53000000D03*
X117000000Y-68000000D03*
X105000000Y-60000000D03*
X102000000Y-53000000D03*
X105000000Y-57000000D03*
X105000000Y-42000000D03*
X120000000Y-49000000D03*
X113000000Y-60000000D03*
X109000000Y-60000000D03*
X115400000Y-57400000D03*
X106000000Y-62000000D03*
X120000000Y-47000000D03*
X117000000Y-42000000D03*
X96000000Y-45000000D03*
X101000000Y-42000000D03*
X104000000Y-47000000D03*
X113000000Y-64000000D03*
X106000000Y-58000000D03*
X120000000Y-61000000D03*
X109000000Y-42000000D03*
X102000000Y-62000000D03*
X100000000Y-61000000D03*
X96900000Y-42900000D03*
X104000000Y-66000000D03*
%TO.N,3V3*%
X111000000Y-59000000D03*
X102000000Y-50000000D03*
X111000000Y-51000000D03*
%TD*%
D25*
%TO.N,GND*%
X100325000Y-56475000D02*
X100000000Y-56475000D01*
D26*
%TO.N,3V3*%
X111000000Y-52175000D02*
X111000000Y-51000000D01*
D25*
X101150000Y-54350000D02*
X103100000Y-54350000D01*
D26*
X102000000Y-51525000D02*
X102000000Y-47000000D01*
D25*
X99965000Y-53490000D02*
X98000000Y-53490000D01*
D26*
X106000000Y-44000000D02*
X107812500Y-44000000D01*
X102000000Y-47000000D02*
X104000000Y-45000000D01*
D25*
X100000000Y-53525000D02*
X100325000Y-53525000D01*
D26*
X107812500Y-44000000D02*
X105000000Y-44000000D01*
D25*
X100325000Y-53525000D02*
X101150000Y-54350000D01*
D26*
X107812500Y-44000000D02*
X107862500Y-44050000D01*
X100000000Y-53525000D02*
X102000000Y-51525000D01*
X111000000Y-57825000D02*
X111000000Y-59000000D01*
X105000000Y-44000000D02*
X104000000Y-45000000D01*
D25*
X100000000Y-53525000D02*
X99965000Y-53490000D01*
D26*
%TO.N,Net-(D1-A)*%
X108600000Y-47750000D02*
X108600000Y-46400000D01*
X108600000Y-46400000D02*
X108150000Y-45950000D01*
X108510000Y-51000000D02*
X108510000Y-48160000D01*
X108350000Y-48000000D02*
X108600000Y-47750000D01*
X108510000Y-48160000D02*
X108350000Y-48000000D01*
X108150000Y-45950000D02*
X107862500Y-45950000D01*
D27*
%TO.N,VIN*%
X111650000Y-45650000D02*
X111000000Y-45000000D01*
X111650000Y-49000000D02*
X111650000Y-45650000D01*
X113650000Y-51000000D02*
X111650000Y-49000000D01*
X111000000Y-45000000D02*
X110137500Y-45000000D01*
X117000000Y-51000000D02*
X113650000Y-51000000D01*
D25*
%TO.N,Net-(D2-A)*%
X98000000Y-56212500D02*
X98000000Y-54510000D01*
D28*
%TO.N,/Lumen Board/I2C.SDA*%
X108825000Y-54000000D02*
X108850000Y-54025000D01*
X109000000Y-53825000D02*
X108825000Y-54000000D01*
X116675000Y-53825000D02*
X117000000Y-53500000D01*
X111000000Y-53825000D02*
X109000000Y-53825000D01*
X110800000Y-54025000D02*
X111000000Y-53825000D01*
X111000000Y-53825000D02*
X116675000Y-53825000D01*
%TO.N,/Lumen Board/I2C.SCL*%
X116825000Y-56175000D02*
X117000000Y-56000000D01*
X117000000Y-56000000D02*
X111175000Y-56000000D01*
X108825000Y-56000000D02*
X110825000Y-56000000D01*
X108825000Y-56000000D02*
X108850000Y-55975000D01*
X110825000Y-56000000D02*
X111000000Y-56175000D01*
X110800000Y-55975000D02*
X111000000Y-56175000D01*
X111175000Y-56000000D02*
X111000000Y-56175000D01*
D25*
%TO.N,/Lumen Board/SDA_R*%
X104000000Y-53450000D02*
X104000000Y-52000000D01*
X105975000Y-54350000D02*
X106325000Y-54000000D01*
X104900000Y-54350000D02*
X105975000Y-54350000D01*
X106325000Y-54000000D02*
X107175000Y-54000000D01*
X104900000Y-54350000D02*
X104000000Y-53450000D01*
%TO.N,/Lumen Board/SCL_R*%
X104550000Y-55650000D02*
X104900000Y-55650000D01*
X104000000Y-58000000D02*
X104000000Y-56200000D01*
X106025000Y-55650000D02*
X106375000Y-56000000D01*
X104900000Y-55650000D02*
X106025000Y-55650000D01*
X104000000Y-56200000D02*
X104550000Y-55650000D01*
X106375000Y-56000000D02*
X107175000Y-56000000D01*
%TD*%
%TA.AperFunction,Conductor*%
%TO.N,GND*%
G36*
X118002065Y-41200614D02*
G01*
X118309309Y-41217869D01*
X118317543Y-41218798D01*
X118618855Y-41269992D01*
X118626923Y-41271833D01*
X118920633Y-41356450D01*
X118928447Y-41359184D01*
X119210817Y-41476146D01*
X119218293Y-41479746D01*
X119485784Y-41627583D01*
X119492811Y-41631999D01*
X119742070Y-41808858D01*
X119748558Y-41814031D01*
X119976452Y-42017689D01*
X119982319Y-42023557D01*
X120185970Y-42251442D01*
X120191133Y-42257914D01*
X120346338Y-42476656D01*
X120368001Y-42507187D01*
X120372416Y-42514214D01*
X120520253Y-42781705D01*
X120523853Y-42789181D01*
X120640811Y-43071542D01*
X120643552Y-43079375D01*
X120728161Y-43373063D01*
X120730007Y-43381153D01*
X120781200Y-43682449D01*
X120782130Y-43690696D01*
X120799384Y-43997915D01*
X120799500Y-44002064D01*
X120799501Y-65960119D01*
X120799501Y-65997917D01*
X120799385Y-66002066D01*
X120782130Y-66309303D01*
X120781200Y-66317549D01*
X120730009Y-66618844D01*
X120728163Y-66626935D01*
X120643552Y-66920624D01*
X120640811Y-66928457D01*
X120523853Y-67210817D01*
X120520253Y-67218293D01*
X120372413Y-67485791D01*
X120367997Y-67492818D01*
X120191146Y-67742065D01*
X120185973Y-67748553D01*
X119982315Y-67976447D01*
X119976447Y-67982315D01*
X119748553Y-68185973D01*
X119742065Y-68191146D01*
X119492818Y-68367997D01*
X119485791Y-68372413D01*
X119218293Y-68520253D01*
X119210817Y-68523853D01*
X118928457Y-68640811D01*
X118920624Y-68643552D01*
X118626935Y-68728163D01*
X118618844Y-68730009D01*
X118317549Y-68781200D01*
X118309303Y-68782130D01*
X118002067Y-68799385D01*
X117997918Y-68799501D01*
X98002079Y-68799501D01*
X97997930Y-68799385D01*
X97690695Y-68782132D01*
X97682448Y-68781202D01*
X97381150Y-68730009D01*
X97373060Y-68728163D01*
X97079373Y-68643554D01*
X97071540Y-68640813D01*
X96789180Y-68523855D01*
X96781704Y-68520255D01*
X96514207Y-68372415D01*
X96507180Y-68367999D01*
X96257932Y-68191147D01*
X96251445Y-68185974D01*
X96023551Y-67982317D01*
X96017682Y-67976448D01*
X95814025Y-67748554D01*
X95808852Y-67742067D01*
X95632000Y-67492819D01*
X95631999Y-67492818D01*
X95631996Y-67492813D01*
X95627588Y-67485799D01*
X95479743Y-67218293D01*
X95476144Y-67210819D01*
X95401584Y-67030816D01*
X95359182Y-66928449D01*
X95356448Y-66920636D01*
X95271835Y-66626935D01*
X95269990Y-66618849D01*
X95269989Y-66618844D01*
X95218796Y-66317545D01*
X95217867Y-66309304D01*
X95209411Y-66158737D01*
X95200615Y-66002103D01*
X95200499Y-65997954D01*
X95200499Y-64999999D01*
X96594754Y-64999999D01*
X96594754Y-65000000D01*
X96613719Y-65301447D01*
X96613722Y-65301470D01*
X96670318Y-65598157D01*
X96670322Y-65598173D01*
X96763654Y-65885419D01*
X96763656Y-65885423D01*
X96763658Y-65885427D01*
X96763659Y-65885430D01*
X96798805Y-65960119D01*
X96892267Y-66158737D01*
X97054114Y-66413767D01*
X97246647Y-66646500D01*
X97246650Y-66646502D01*
X97246651Y-66646504D01*
X97466838Y-66853274D01*
X97711205Y-67030816D01*
X97975896Y-67176332D01*
X98072697Y-67214658D01*
X98256730Y-67287522D01*
X98256734Y-67287524D01*
X98256738Y-67287525D01*
X98549302Y-67362642D01*
X98549298Y-67362642D01*
X98848965Y-67400499D01*
X98848972Y-67400500D01*
X98848973Y-67400500D01*
X99151028Y-67400500D01*
X99151031Y-67400499D01*
X99450698Y-67362642D01*
X99743262Y-67287525D01*
X100024104Y-67176332D01*
X100288795Y-67030816D01*
X100533162Y-66853274D01*
X100753349Y-66646504D01*
X100945885Y-66413768D01*
X101107733Y-66158736D01*
X101236341Y-65885430D01*
X101329681Y-65598160D01*
X101386280Y-65301457D01*
X101405246Y-65000000D01*
X101405246Y-64999999D01*
X114594754Y-64999999D01*
X114594754Y-65000000D01*
X114613719Y-65301447D01*
X114613722Y-65301470D01*
X114670318Y-65598157D01*
X114670322Y-65598173D01*
X114763654Y-65885419D01*
X114763656Y-65885423D01*
X114763658Y-65885427D01*
X114763659Y-65885430D01*
X114798805Y-65960119D01*
X114892267Y-66158737D01*
X115054114Y-66413767D01*
X115246647Y-66646500D01*
X115246650Y-66646502D01*
X115246651Y-66646504D01*
X115466838Y-66853274D01*
X115711205Y-67030816D01*
X115975896Y-67176332D01*
X116072697Y-67214658D01*
X116256730Y-67287522D01*
X116256734Y-67287524D01*
X116256738Y-67287525D01*
X116549302Y-67362642D01*
X116549298Y-67362642D01*
X116848965Y-67400499D01*
X116848972Y-67400500D01*
X116848973Y-67400500D01*
X117151028Y-67400500D01*
X117151031Y-67400499D01*
X117450698Y-67362642D01*
X117743262Y-67287525D01*
X118024104Y-67176332D01*
X118288795Y-67030816D01*
X118533162Y-66853274D01*
X118753349Y-66646504D01*
X118945885Y-66413768D01*
X119107733Y-66158736D01*
X119236341Y-65885430D01*
X119329681Y-65598160D01*
X119386280Y-65301457D01*
X119405246Y-65000000D01*
X119386280Y-64698543D01*
X119329681Y-64401840D01*
X119329678Y-64401833D01*
X119329677Y-64401826D01*
X119236345Y-64114580D01*
X119236343Y-64114576D01*
X119236342Y-64114575D01*
X119236341Y-64114570D01*
X119107733Y-63841264D01*
X118945885Y-63586232D01*
X118753352Y-63353499D01*
X118753349Y-63353496D01*
X118533162Y-63146726D01*
X118431191Y-63072640D01*
X118288800Y-62969187D01*
X118024104Y-62823668D01*
X118024097Y-62823665D01*
X117743269Y-62712477D01*
X117743265Y-62712475D01*
X117450696Y-62637357D01*
X117450701Y-62637357D01*
X117151034Y-62599500D01*
X117151027Y-62599500D01*
X116848973Y-62599500D01*
X116848965Y-62599500D01*
X116549301Y-62637357D01*
X116256734Y-62712475D01*
X116256730Y-62712477D01*
X115975902Y-62823665D01*
X115975895Y-62823668D01*
X115711199Y-62969187D01*
X115466839Y-63146725D01*
X115246647Y-63353499D01*
X115054114Y-63586232D01*
X114892267Y-63841262D01*
X114763656Y-64114576D01*
X114763654Y-64114580D01*
X114670322Y-64401826D01*
X114670318Y-64401842D01*
X114613722Y-64698529D01*
X114613719Y-64698552D01*
X114594754Y-64999999D01*
X101405246Y-64999999D01*
X101386280Y-64698543D01*
X101329681Y-64401840D01*
X101329678Y-64401833D01*
X101329677Y-64401826D01*
X101236345Y-64114580D01*
X101236343Y-64114576D01*
X101236342Y-64114575D01*
X101236341Y-64114570D01*
X101107733Y-63841264D01*
X100945885Y-63586232D01*
X100753352Y-63353499D01*
X100753349Y-63353496D01*
X100533162Y-63146726D01*
X100431191Y-63072640D01*
X100288800Y-62969187D01*
X100024104Y-62823668D01*
X100024097Y-62823665D01*
X99743269Y-62712477D01*
X99743265Y-62712475D01*
X99450696Y-62637357D01*
X99450701Y-62637357D01*
X99151034Y-62599500D01*
X99151027Y-62599500D01*
X98848973Y-62599500D01*
X98848965Y-62599500D01*
X98549301Y-62637357D01*
X98256734Y-62712475D01*
X98256730Y-62712477D01*
X97975902Y-62823665D01*
X97975895Y-62823668D01*
X97711199Y-62969187D01*
X97466839Y-63146725D01*
X97246647Y-63353499D01*
X97054114Y-63586232D01*
X96892267Y-63841262D01*
X96763656Y-64114576D01*
X96763654Y-64114580D01*
X96670322Y-64401826D01*
X96670318Y-64401842D01*
X96613722Y-64698529D01*
X96613719Y-64698552D01*
X96594754Y-64999999D01*
X95200499Y-64999999D01*
X95200499Y-59862076D01*
X100491476Y-59862076D01*
X100615462Y-59928348D01*
X100803964Y-59985530D01*
X101000000Y-60004838D01*
X101196035Y-59985530D01*
X101384536Y-59928348D01*
X101384541Y-59928346D01*
X101508522Y-59862076D01*
X101000000Y-59353553D01*
X100491476Y-59862076D01*
X95200499Y-59862076D01*
X95200499Y-59000000D01*
X99995161Y-59000000D01*
X100014469Y-59196035D01*
X100071651Y-59384539D01*
X100137922Y-59508522D01*
X100646446Y-58999999D01*
X101353553Y-58999999D01*
X101862076Y-59508522D01*
X101928346Y-59384541D01*
X101928348Y-59384536D01*
X101985530Y-59196035D01*
X102004838Y-59000000D01*
X101985530Y-58803964D01*
X101928348Y-58615462D01*
X101862076Y-58491476D01*
X101353553Y-58999999D01*
X100646446Y-58999999D01*
X100137923Y-58491476D01*
X100137922Y-58491476D01*
X100071652Y-58615460D01*
X100014469Y-58803964D01*
X99995161Y-59000000D01*
X95200499Y-59000000D01*
X95200499Y-58054140D01*
X97025001Y-58054140D01*
X97035057Y-58152585D01*
X97087906Y-58312073D01*
X97176112Y-58455078D01*
X97294921Y-58573887D01*
X97437926Y-58662093D01*
X97597414Y-58714942D01*
X97695861Y-58724999D01*
X97695862Y-58724999D01*
X98250000Y-58724999D01*
X98304135Y-58724999D01*
X98304140Y-58724998D01*
X98402585Y-58714942D01*
X98562073Y-58662093D01*
X98705078Y-58573887D01*
X98823887Y-58455078D01*
X98912093Y-58312073D01*
X98964942Y-58152585D01*
X98966440Y-58137922D01*
X100491476Y-58137922D01*
X100491476Y-58137923D01*
X100999999Y-58646446D01*
X101508523Y-58137922D01*
X101384539Y-58071651D01*
X101196035Y-58014469D01*
X101000000Y-57995161D01*
X100803964Y-58014469D01*
X100615460Y-58071652D01*
X100491476Y-58137922D01*
X98966440Y-58137922D01*
X98974999Y-58054139D01*
X98975000Y-58054137D01*
X98975000Y-58037500D01*
X98250000Y-58037500D01*
X98250000Y-58724999D01*
X97695862Y-58724999D01*
X97749999Y-58724998D01*
X97750000Y-58724998D01*
X97750000Y-58037500D01*
X97025001Y-58037500D01*
X97025001Y-58054140D01*
X95200499Y-58054140D01*
X95200499Y-57520860D01*
X97025000Y-57520860D01*
X97025000Y-57537500D01*
X98974998Y-57537500D01*
X98996546Y-57515952D01*
X99048872Y-57494277D01*
X99072150Y-57498033D01*
X99197302Y-57539505D01*
X99300025Y-57549999D01*
X99750000Y-57549999D01*
X100250000Y-57549999D01*
X100699971Y-57549999D01*
X100699976Y-57549998D01*
X100802696Y-57539505D01*
X100969121Y-57484357D01*
X101118343Y-57392316D01*
X101118347Y-57392314D01*
X101242314Y-57268347D01*
X101242316Y-57268343D01*
X101334357Y-57119121D01*
X101389505Y-56952697D01*
X101399999Y-56849975D01*
X101400000Y-56849973D01*
X101400000Y-56725000D01*
X100250000Y-56725000D01*
X100250000Y-57549999D01*
X99750000Y-57549999D01*
X99750000Y-56225000D01*
X100250000Y-56225000D01*
X101399999Y-56225000D01*
X101399999Y-56100029D01*
X101399998Y-56100023D01*
X101389505Y-55997303D01*
X101334357Y-55830878D01*
X101315311Y-55800000D01*
X102279912Y-55800000D01*
X102289799Y-55875104D01*
X102347737Y-56014979D01*
X102439905Y-56135094D01*
X102560020Y-56227262D01*
X102699895Y-56285200D01*
X102812312Y-56300000D01*
X102950000Y-56300000D01*
X102950000Y-55800000D01*
X103250000Y-55800000D01*
X103250000Y-56300000D01*
X103387688Y-56300000D01*
X103500102Y-56285200D01*
X103547181Y-56265700D01*
X103603819Y-56265700D01*
X103643867Y-56305748D01*
X103649500Y-56334067D01*
X103649500Y-57348104D01*
X103627826Y-57400430D01*
X103609892Y-57413626D01*
X103599149Y-57419264D01*
X103471816Y-57532071D01*
X103375181Y-57672070D01*
X103314859Y-57831128D01*
X103294355Y-57999996D01*
X103294355Y-58000003D01*
X103314859Y-58168871D01*
X103375181Y-58327929D01*
X103462947Y-58455078D01*
X103471817Y-58467929D01*
X103599148Y-58580734D01*
X103749775Y-58659790D01*
X103914944Y-58700500D01*
X103914948Y-58700500D01*
X104085052Y-58700500D01*
X104085056Y-58700500D01*
X104250225Y-58659790D01*
X104400852Y-58580734D01*
X104528183Y-58467929D01*
X104624818Y-58327930D01*
X104685140Y-58168872D01*
X104698782Y-58056519D01*
X104705645Y-58000003D01*
X104705645Y-57999996D01*
X104685140Y-57831128D01*
X104624818Y-57672070D01*
X104570571Y-57593480D01*
X110324500Y-57593480D01*
X110324500Y-58056519D01*
X110339353Y-58150304D01*
X110339354Y-58150306D01*
X110356453Y-58183863D01*
X110396950Y-58263342D01*
X110486658Y-58353050D01*
X110509094Y-58364481D01*
X110545877Y-58407546D01*
X110549500Y-58430416D01*
X110549500Y-58765539D01*
X110542813Y-58796279D01*
X110514834Y-58857543D01*
X110494353Y-59000000D01*
X110514834Y-59142454D01*
X110574623Y-59273373D01*
X110668868Y-59382139D01*
X110668869Y-59382140D01*
X110668872Y-59382143D01*
X110789947Y-59459953D01*
X110896403Y-59491211D01*
X110928035Y-59500499D01*
X110928037Y-59500500D01*
X110928039Y-59500500D01*
X111071963Y-59500500D01*
X111071964Y-59500499D01*
X111210053Y-59459953D01*
X111331128Y-59382143D01*
X111425377Y-59273373D01*
X111485165Y-59142457D01*
X111505647Y-59000000D01*
X111485165Y-58857543D01*
X111466255Y-58816136D01*
X111457187Y-58796279D01*
X111450500Y-58765539D01*
X111450500Y-58430416D01*
X111472174Y-58378090D01*
X111490902Y-58364483D01*
X111513342Y-58353050D01*
X111603050Y-58263342D01*
X111660646Y-58150304D01*
X111675500Y-58056519D01*
X111675499Y-57593482D01*
X111668612Y-57549998D01*
X111660646Y-57499695D01*
X111660645Y-57499693D01*
X111621269Y-57422414D01*
X111603050Y-57386658D01*
X111513342Y-57296950D01*
X111400304Y-57239354D01*
X111400302Y-57239353D01*
X111400301Y-57239353D01*
X111306519Y-57224500D01*
X110693480Y-57224500D01*
X110599695Y-57239353D01*
X110599693Y-57239354D01*
X110486657Y-57296950D01*
X110396951Y-57386656D01*
X110339353Y-57499698D01*
X110324500Y-57593480D01*
X104570571Y-57593480D01*
X104528183Y-57532071D01*
X104400850Y-57419264D01*
X104390108Y-57413626D01*
X104353850Y-57370117D01*
X104350500Y-57348104D01*
X104350500Y-56375834D01*
X104372174Y-56323508D01*
X104673508Y-56022174D01*
X104725834Y-56000500D01*
X104853856Y-56000500D01*
X105849166Y-56000500D01*
X105901492Y-56022174D01*
X106159788Y-56280470D01*
X106229088Y-56320480D01*
X106229087Y-56320480D01*
X106229090Y-56320481D01*
X106234332Y-56323508D01*
X106239708Y-56326612D01*
X106239710Y-56326612D01*
X106239712Y-56326614D01*
X106239713Y-56326614D01*
X106239715Y-56326615D01*
X106267527Y-56334067D01*
X106328853Y-56350499D01*
X106328854Y-56350500D01*
X106328856Y-56350500D01*
X106328857Y-56350500D01*
X106421144Y-56350500D01*
X106519408Y-56350500D01*
X106571734Y-56372174D01*
X106586011Y-56395471D01*
X106586711Y-56395115D01*
X106589353Y-56400301D01*
X106589354Y-56400304D01*
X106646950Y-56513342D01*
X106736658Y-56603050D01*
X106849696Y-56660646D01*
X106943481Y-56675500D01*
X107406518Y-56675499D01*
X107406519Y-56675499D01*
X107500304Y-56660646D01*
X107500306Y-56660645D01*
X107502419Y-56659568D01*
X107613342Y-56603050D01*
X107703050Y-56513342D01*
X107760646Y-56400304D01*
X107775500Y-56306519D01*
X107775499Y-55693482D01*
X107775499Y-55693480D01*
X108224500Y-55693480D01*
X108224500Y-56306519D01*
X108239353Y-56400304D01*
X108239354Y-56400306D01*
X108271261Y-56462925D01*
X108296950Y-56513342D01*
X108386658Y-56603050D01*
X108499696Y-56660646D01*
X108593481Y-56675500D01*
X109056518Y-56675499D01*
X109056519Y-56675499D01*
X109150304Y-56660646D01*
X109150306Y-56660645D01*
X109152419Y-56659568D01*
X109263342Y-56603050D01*
X109353050Y-56513342D01*
X109389959Y-56440903D01*
X109433026Y-56404122D01*
X109455893Y-56400500D01*
X110260345Y-56400500D01*
X110312671Y-56422174D01*
X110333434Y-56462925D01*
X110339353Y-56500304D01*
X110339354Y-56500306D01*
X110391705Y-56603048D01*
X110396950Y-56613342D01*
X110486658Y-56703050D01*
X110599696Y-56760646D01*
X110693481Y-56775500D01*
X111306518Y-56775499D01*
X111306519Y-56775499D01*
X111400304Y-56760646D01*
X111400306Y-56760645D01*
X111402419Y-56759568D01*
X111513342Y-56703050D01*
X111603050Y-56613342D01*
X111660646Y-56500304D01*
X111666566Y-56462924D01*
X111696158Y-56414633D01*
X111739655Y-56400500D01*
X115854394Y-56400500D01*
X115906720Y-56422174D01*
X115922761Y-56446181D01*
X115944059Y-56497598D01*
X116014518Y-56603048D01*
X116053002Y-56660645D01*
X116059023Y-56669655D01*
X116205345Y-56815977D01*
X116377402Y-56930941D01*
X116568580Y-57010130D01*
X116642357Y-57024805D01*
X116689450Y-57056270D01*
X116700499Y-57111819D01*
X116669034Y-57158912D01*
X116639498Y-57170472D01*
X116558874Y-57183242D01*
X116558863Y-57183244D01*
X116356782Y-57248904D01*
X116356778Y-57248906D01*
X116167449Y-57345375D01*
X116167443Y-57345378D01*
X115995538Y-57470274D01*
X115845274Y-57620538D01*
X115720378Y-57792443D01*
X115720375Y-57792449D01*
X115623906Y-57981778D01*
X115623904Y-57981782D01*
X115558244Y-58183863D01*
X115558241Y-58183877D01*
X115547769Y-58250000D01*
X116595854Y-58250000D01*
X116557370Y-58316657D01*
X116525000Y-58437465D01*
X116525000Y-58562535D01*
X116557370Y-58683343D01*
X116595854Y-58750000D01*
X115547769Y-58750000D01*
X115558241Y-58816122D01*
X115558244Y-58816136D01*
X115623904Y-59018217D01*
X115623906Y-59018221D01*
X115720375Y-59207550D01*
X115720378Y-59207556D01*
X115845274Y-59379461D01*
X115845283Y-59379471D01*
X115995529Y-59529717D01*
X115995538Y-59529725D01*
X116167443Y-59654621D01*
X116167449Y-59654624D01*
X116356778Y-59751093D01*
X116356782Y-59751095D01*
X116558863Y-59816755D01*
X116558876Y-59816758D01*
X116749998Y-59847029D01*
X116750000Y-59847028D01*
X116750000Y-58904145D01*
X116816657Y-58942630D01*
X116937465Y-58975000D01*
X117062535Y-58975000D01*
X117183343Y-58942630D01*
X117250000Y-58904145D01*
X117250000Y-59847028D01*
X117250001Y-59847029D01*
X117441123Y-59816758D01*
X117441136Y-59816755D01*
X117643217Y-59751095D01*
X117643221Y-59751093D01*
X117832550Y-59654624D01*
X117832556Y-59654621D01*
X118004461Y-59529725D01*
X118004471Y-59529717D01*
X118154717Y-59379471D01*
X118154725Y-59379461D01*
X118279621Y-59207556D01*
X118279624Y-59207550D01*
X118376093Y-59018221D01*
X118376095Y-59018217D01*
X118441755Y-58816136D01*
X118441758Y-58816122D01*
X118452231Y-58750000D01*
X117404146Y-58750000D01*
X117442630Y-58683343D01*
X117475000Y-58562535D01*
X117475000Y-58437465D01*
X117442630Y-58316657D01*
X117404146Y-58250000D01*
X118452230Y-58250000D01*
X118441758Y-58183877D01*
X118441755Y-58183863D01*
X118376095Y-57981782D01*
X118376093Y-57981778D01*
X118279624Y-57792449D01*
X118279621Y-57792443D01*
X118154725Y-57620538D01*
X118154717Y-57620529D01*
X118004471Y-57470283D01*
X118004461Y-57470274D01*
X117832556Y-57345378D01*
X117832550Y-57345375D01*
X117643221Y-57248906D01*
X117643217Y-57248904D01*
X117441136Y-57183244D01*
X117441125Y-57183242D01*
X117360501Y-57170472D01*
X117312210Y-57140879D01*
X117298989Y-57085806D01*
X117328582Y-57037515D01*
X117357640Y-57024805D01*
X117431420Y-57010130D01*
X117622598Y-56930941D01*
X117794655Y-56815977D01*
X117940977Y-56669655D01*
X118055941Y-56497598D01*
X118135130Y-56306420D01*
X118175500Y-56103465D01*
X118175500Y-55896535D01*
X118135130Y-55693580D01*
X118055941Y-55502402D01*
X117940977Y-55330345D01*
X117794655Y-55184023D01*
X117792368Y-55182495D01*
X117622598Y-55069059D01*
X117431420Y-54989870D01*
X117431413Y-54989868D01*
X117278516Y-54959455D01*
X117228465Y-54949500D01*
X116771535Y-54949500D01*
X116731385Y-54957486D01*
X116568586Y-54989868D01*
X116568579Y-54989870D01*
X116377401Y-55069059D01*
X116205345Y-55184022D01*
X116205344Y-55184024D01*
X116059024Y-55330344D01*
X116059022Y-55330345D01*
X115944057Y-55502405D01*
X115922761Y-55553819D01*
X115882712Y-55593867D01*
X115854394Y-55599500D01*
X111437983Y-55599500D01*
X111404387Y-55591434D01*
X111400305Y-55589354D01*
X111306520Y-55574500D01*
X111306519Y-55574500D01*
X110852729Y-55574500D01*
X110852727Y-55574500D01*
X110747273Y-55574500D01*
X110747269Y-55574500D01*
X110693480Y-55574500D01*
X110599695Y-55589353D01*
X110599694Y-55589354D01*
X110595613Y-55591434D01*
X110562017Y-55599500D01*
X109455893Y-55599500D01*
X109403567Y-55577826D01*
X109389959Y-55559096D01*
X109384691Y-55548757D01*
X109353050Y-55486658D01*
X109263342Y-55396950D01*
X109150304Y-55339354D01*
X109150302Y-55339353D01*
X109150301Y-55339353D01*
X109056519Y-55324500D01*
X108593480Y-55324500D01*
X108499695Y-55339353D01*
X108499693Y-55339354D01*
X108386657Y-55396950D01*
X108296951Y-55486656D01*
X108239353Y-55599698D01*
X108224500Y-55693480D01*
X107775499Y-55693480D01*
X107773626Y-55681658D01*
X107760646Y-55599695D01*
X107760645Y-55599693D01*
X107723040Y-55525890D01*
X107703050Y-55486658D01*
X107613342Y-55396950D01*
X107500304Y-55339354D01*
X107500302Y-55339353D01*
X107500301Y-55339353D01*
X107406519Y-55324500D01*
X106943480Y-55324500D01*
X106849695Y-55339353D01*
X106849693Y-55339354D01*
X106736657Y-55396950D01*
X106646950Y-55486657D01*
X106595434Y-55587762D01*
X106552367Y-55624544D01*
X106495904Y-55620100D01*
X106477174Y-55606492D01*
X106240212Y-55369530D01*
X106160289Y-55323386D01*
X106160284Y-55323384D01*
X106071146Y-55299500D01*
X106071144Y-55299500D01*
X105469779Y-55299500D01*
X105417453Y-55277826D01*
X105395779Y-55225500D01*
X105406775Y-55189249D01*
X105406726Y-55189229D01*
X105406933Y-55188728D01*
X105408250Y-55184388D01*
X105408494Y-55184023D01*
X105409515Y-55182495D01*
X105425500Y-55102133D01*
X105425499Y-54897868D01*
X105409515Y-54817505D01*
X105408249Y-54815611D01*
X105407805Y-54813378D01*
X105406725Y-54810769D01*
X105407243Y-54810554D01*
X105397201Y-54760063D01*
X105428667Y-54712971D01*
X105469779Y-54700500D01*
X106021146Y-54700500D01*
X106021146Y-54700499D01*
X106110288Y-54676614D01*
X106190212Y-54630470D01*
X106448508Y-54372174D01*
X106500834Y-54350500D01*
X106519408Y-54350500D01*
X106571734Y-54372174D01*
X106586011Y-54395471D01*
X106586711Y-54395115D01*
X106589353Y-54400301D01*
X106589354Y-54400304D01*
X106646950Y-54513342D01*
X106736658Y-54603050D01*
X106849696Y-54660646D01*
X106943481Y-54675500D01*
X107406518Y-54675499D01*
X107406519Y-54675499D01*
X107500304Y-54660646D01*
X107500306Y-54660645D01*
X107502419Y-54659568D01*
X107613342Y-54603050D01*
X107703050Y-54513342D01*
X107760646Y-54400304D01*
X107775500Y-54306519D01*
X107775499Y-53693482D01*
X107775499Y-53693480D01*
X108224500Y-53693480D01*
X108224500Y-54306519D01*
X108239353Y-54400304D01*
X108239354Y-54400306D01*
X108265762Y-54452133D01*
X108296950Y-54513342D01*
X108386658Y-54603050D01*
X108499696Y-54660646D01*
X108593481Y-54675500D01*
X109056518Y-54675499D01*
X109056519Y-54675499D01*
X109150304Y-54660646D01*
X109150306Y-54660645D01*
X109152419Y-54659568D01*
X109263342Y-54603050D01*
X109353050Y-54513342D01*
X109410646Y-54400304D01*
X109425500Y-54306519D01*
X109425500Y-54299500D01*
X109447174Y-54247174D01*
X109499500Y-54225500D01*
X110332321Y-54225500D01*
X110384647Y-54247174D01*
X110393164Y-54258895D01*
X110393528Y-54258632D01*
X110396949Y-54263341D01*
X110396950Y-54263342D01*
X110486658Y-54353050D01*
X110599696Y-54410646D01*
X110693481Y-54425500D01*
X110732550Y-54425499D01*
X110732553Y-54425500D01*
X110747273Y-54425500D01*
X110883378Y-54425500D01*
X110883380Y-54425499D01*
X111306519Y-54425499D01*
X111400304Y-54410646D01*
X111400306Y-54410645D01*
X111430785Y-54395115D01*
X111513342Y-54353050D01*
X111603050Y-54263342D01*
X111603051Y-54263338D01*
X111606472Y-54258632D01*
X111608516Y-54260117D01*
X111644822Y-54229119D01*
X111667679Y-54225500D01*
X116084216Y-54225500D01*
X116136542Y-54247174D01*
X116205345Y-54315977D01*
X116377402Y-54430941D01*
X116568580Y-54510130D01*
X116771535Y-54550500D01*
X116771536Y-54550500D01*
X117228464Y-54550500D01*
X117228465Y-54550500D01*
X117431420Y-54510130D01*
X117622598Y-54430941D01*
X117794655Y-54315977D01*
X117940977Y-54169655D01*
X118055941Y-53997598D01*
X118135130Y-53806420D01*
X118175500Y-53603465D01*
X118175500Y-53396535D01*
X118135130Y-53193580D01*
X118055941Y-53002402D01*
X117940977Y-52830345D01*
X117794655Y-52684023D01*
X117622598Y-52569059D01*
X117431420Y-52489870D01*
X117431413Y-52489868D01*
X117278516Y-52459455D01*
X117228465Y-52449500D01*
X116771535Y-52449500D01*
X116731385Y-52457486D01*
X116568586Y-52489868D01*
X116568579Y-52489870D01*
X116377401Y-52569059D01*
X116205345Y-52684022D01*
X116205344Y-52684024D01*
X116059024Y-52830344D01*
X116059022Y-52830345D01*
X115944059Y-53002401D01*
X115864870Y-53193579D01*
X115864868Y-53193585D01*
X115830785Y-53364937D01*
X115799319Y-53412029D01*
X115758207Y-53424500D01*
X111667679Y-53424500D01*
X111615353Y-53402826D01*
X111606835Y-53391104D01*
X111606472Y-53391368D01*
X111603050Y-53386658D01*
X111513343Y-53296951D01*
X111513342Y-53296950D01*
X111400304Y-53239354D01*
X111400302Y-53239353D01*
X111400301Y-53239353D01*
X111306519Y-53224500D01*
X110693480Y-53224500D01*
X110599695Y-53239353D01*
X110599693Y-53239354D01*
X110486657Y-53296950D01*
X110396949Y-53386658D01*
X110393528Y-53391368D01*
X110391483Y-53389882D01*
X110355178Y-53420881D01*
X110332321Y-53424500D01*
X109321544Y-53424500D01*
X109269218Y-53402826D01*
X109263343Y-53396951D01*
X109263342Y-53396950D01*
X109150304Y-53339354D01*
X109150302Y-53339353D01*
X109150301Y-53339353D01*
X109056519Y-53324500D01*
X108593480Y-53324500D01*
X108499695Y-53339353D01*
X108499693Y-53339354D01*
X108386657Y-53396950D01*
X108296951Y-53486656D01*
X108239353Y-53599698D01*
X108224500Y-53693480D01*
X107775499Y-53693480D01*
X107772316Y-53673386D01*
X107760646Y-53599695D01*
X107760645Y-53599693D01*
X107703049Y-53486657D01*
X107613343Y-53396951D01*
X107613342Y-53396950D01*
X107500304Y-53339354D01*
X107500302Y-53339353D01*
X107500301Y-53339353D01*
X107406519Y-53324500D01*
X106943480Y-53324500D01*
X106849695Y-53339353D01*
X106849693Y-53339354D01*
X106736657Y-53396950D01*
X106646951Y-53486656D01*
X106646950Y-53486658D01*
X106589354Y-53599696D01*
X106589353Y-53599698D01*
X106586711Y-53604885D01*
X106584975Y-53604000D01*
X106553002Y-53641435D01*
X106519408Y-53649500D01*
X106278854Y-53649500D01*
X106189715Y-53673384D01*
X106189710Y-53673386D01*
X106109787Y-53719530D01*
X105851492Y-53977826D01*
X105799166Y-53999500D01*
X105075834Y-53999500D01*
X105023508Y-53977826D01*
X104372174Y-53326492D01*
X104350500Y-53274166D01*
X104350500Y-52651895D01*
X104372174Y-52599569D01*
X104390110Y-52586372D01*
X104391768Y-52585501D01*
X104400852Y-52580734D01*
X104528183Y-52467929D01*
X104624818Y-52327930D01*
X104685140Y-52168872D01*
X104705645Y-52000000D01*
X104698782Y-51943482D01*
X104698782Y-51943480D01*
X110324500Y-51943480D01*
X110324500Y-52406519D01*
X110339353Y-52500304D01*
X110339354Y-52500306D01*
X110380333Y-52580730D01*
X110396950Y-52613342D01*
X110486658Y-52703050D01*
X110599696Y-52760646D01*
X110693481Y-52775500D01*
X111306518Y-52775499D01*
X111306519Y-52775499D01*
X111400304Y-52760646D01*
X111400306Y-52760645D01*
X111422179Y-52749500D01*
X111513342Y-52703050D01*
X111603050Y-52613342D01*
X111660646Y-52500304D01*
X111675500Y-52406519D01*
X111675499Y-51943482D01*
X111660646Y-51849696D01*
X111660646Y-51849695D01*
X111660645Y-51849693D01*
X111603049Y-51736657D01*
X111513342Y-51646950D01*
X111490904Y-51635517D01*
X111454122Y-51592450D01*
X111450500Y-51569583D01*
X111450500Y-51234457D01*
X111457187Y-51203718D01*
X111485165Y-51142457D01*
X111505647Y-51000000D01*
X111485165Y-50857543D01*
X111425377Y-50726627D01*
X111331128Y-50617857D01*
X111242355Y-50560806D01*
X111210054Y-50540047D01*
X111210050Y-50540046D01*
X111071964Y-50499500D01*
X111071961Y-50499500D01*
X110928039Y-50499500D01*
X110928036Y-50499500D01*
X110789949Y-50540046D01*
X110789945Y-50540047D01*
X110668875Y-50617855D01*
X110668868Y-50617860D01*
X110574623Y-50726626D01*
X110514834Y-50857545D01*
X110494353Y-51000000D01*
X110514834Y-51142456D01*
X110526502Y-51168005D01*
X110542812Y-51203718D01*
X110549500Y-51234457D01*
X110549500Y-51569583D01*
X110527826Y-51621909D01*
X110509096Y-51635517D01*
X110486657Y-51646950D01*
X110396951Y-51736656D01*
X110339353Y-51849698D01*
X110324500Y-51943480D01*
X104698782Y-51943480D01*
X104685140Y-51831128D01*
X104624818Y-51672070D01*
X104528183Y-51532071D01*
X104400856Y-51419269D01*
X104400853Y-51419267D01*
X104400852Y-51419266D01*
X104250225Y-51340210D01*
X104250222Y-51340209D01*
X104085058Y-51299500D01*
X104085056Y-51299500D01*
X103914944Y-51299500D01*
X103914941Y-51299500D01*
X103749777Y-51340209D01*
X103599146Y-51419267D01*
X103599143Y-51419269D01*
X103471816Y-51532071D01*
X103375181Y-51672070D01*
X103314859Y-51831128D01*
X103294355Y-51999996D01*
X103294355Y-52000003D01*
X103314859Y-52168871D01*
X103375181Y-52327929D01*
X103471816Y-52467928D01*
X103585969Y-52569059D01*
X103599148Y-52580734D01*
X103599152Y-52580736D01*
X103609890Y-52586372D01*
X103646150Y-52629881D01*
X103649500Y-52651895D01*
X103649500Y-53496146D01*
X103671724Y-53579084D01*
X103671724Y-53579089D01*
X103671725Y-53579089D01*
X103673386Y-53585288D01*
X103719530Y-53665212D01*
X104352826Y-54298508D01*
X104374500Y-54350833D01*
X104374500Y-54452130D01*
X104390485Y-54532495D01*
X104455425Y-54629684D01*
X104453783Y-54630780D01*
X104472100Y-54675000D01*
X104453783Y-54719219D01*
X104455425Y-54720316D01*
X104390485Y-54817504D01*
X104374500Y-54897868D01*
X104374500Y-55102130D01*
X104390485Y-55182495D01*
X104390485Y-55182496D01*
X104421267Y-55228563D01*
X104432317Y-55284112D01*
X104400852Y-55331204D01*
X104396739Y-55333762D01*
X104334790Y-55369528D01*
X103925992Y-55778326D01*
X103873666Y-55800000D01*
X103250000Y-55800000D01*
X102950000Y-55800000D01*
X102279912Y-55800000D01*
X101315311Y-55800000D01*
X101242316Y-55681656D01*
X101242314Y-55681653D01*
X101118347Y-55557686D01*
X101118343Y-55557683D01*
X100969121Y-55465642D01*
X100802697Y-55410494D01*
X100699975Y-55400000D01*
X100250000Y-55400000D01*
X100250000Y-56225000D01*
X99750000Y-56225000D01*
X99750000Y-55400000D01*
X99300029Y-55400000D01*
X99300023Y-55400001D01*
X99197303Y-55410494D01*
X99030878Y-55465642D01*
X98881656Y-55557683D01*
X98757681Y-55681658D01*
X98722201Y-55739180D01*
X98676284Y-55772336D01*
X98620370Y-55763313D01*
X98604003Y-55748139D01*
X98603776Y-55748367D01*
X98505751Y-55650342D01*
X98390904Y-55591824D01*
X98354122Y-55548757D01*
X98350500Y-55525890D01*
X98350500Y-54983526D01*
X98372174Y-54931200D01*
X98378975Y-54925493D01*
X98380402Y-54924065D01*
X98380404Y-54924065D01*
X98464065Y-54840404D01*
X98514068Y-54733173D01*
X98520500Y-54684316D01*
X98520500Y-54335684D01*
X98514068Y-54286827D01*
X98464065Y-54179596D01*
X98380404Y-54095935D01*
X98380402Y-54095933D01*
X98334886Y-54074709D01*
X98318495Y-54067066D01*
X98280232Y-54025310D01*
X98282702Y-53968727D01*
X98318495Y-53932933D01*
X98380404Y-53904065D01*
X98422295Y-53862174D01*
X98474621Y-53840500D01*
X98826135Y-53840500D01*
X98878461Y-53862174D01*
X98899811Y-53907589D01*
X98902354Y-53934699D01*
X98902354Y-53934701D01*
X98902355Y-53934704D01*
X98947206Y-54062881D01*
X98947207Y-54062883D01*
X99027846Y-54172146D01*
X99027853Y-54172153D01*
X99137116Y-54252792D01*
X99137118Y-54252793D01*
X99265295Y-54297644D01*
X99265301Y-54297646D01*
X99295734Y-54300500D01*
X100574166Y-54300500D01*
X100626492Y-54322174D01*
X100934788Y-54630470D01*
X101014712Y-54676614D01*
X101014713Y-54676614D01*
X101014715Y-54676615D01*
X101043449Y-54684314D01*
X101103853Y-54700499D01*
X101103854Y-54700500D01*
X101103856Y-54700500D01*
X102530221Y-54700500D01*
X102582547Y-54722174D01*
X102604221Y-54774500D01*
X102593224Y-54810750D01*
X102593274Y-54810771D01*
X102593066Y-54811271D01*
X102591750Y-54815612D01*
X102590485Y-54817504D01*
X102574500Y-54897868D01*
X102574500Y-55025133D01*
X102552826Y-55077459D01*
X102545549Y-55083841D01*
X102439905Y-55164905D01*
X102347737Y-55285020D01*
X102289799Y-55424895D01*
X102279912Y-55500000D01*
X103920087Y-55500000D01*
X103910200Y-55424895D01*
X103852262Y-55285020D01*
X103760094Y-55164905D01*
X103654450Y-55083841D01*
X103626132Y-55034792D01*
X103625499Y-55025142D01*
X103625499Y-54897868D01*
X103609515Y-54817505D01*
X103606757Y-54813378D01*
X103571133Y-54760063D01*
X103548624Y-54726376D01*
X103548623Y-54726375D01*
X103544575Y-54720317D01*
X103546215Y-54719220D01*
X103527899Y-54675000D01*
X103546215Y-54630779D01*
X103544575Y-54629683D01*
X103548623Y-54623624D01*
X103548624Y-54623624D01*
X103609515Y-54532495D01*
X103625500Y-54452133D01*
X103625499Y-54247868D01*
X103609515Y-54167505D01*
X103548624Y-54076376D01*
X103457495Y-54015485D01*
X103377133Y-53999500D01*
X103377131Y-53999500D01*
X101325834Y-53999500D01*
X101273508Y-53977826D01*
X101122174Y-53826492D01*
X101100500Y-53774166D01*
X101100500Y-53145739D01*
X101100500Y-53145734D01*
X101097646Y-53115301D01*
X101097641Y-53115288D01*
X101097163Y-53113095D01*
X101097344Y-53112086D01*
X101097225Y-53110817D01*
X101097577Y-53110783D01*
X101107166Y-53057348D01*
X101117126Y-53044975D01*
X102360489Y-51801614D01*
X102419799Y-51698887D01*
X102433715Y-51646950D01*
X102450500Y-51584309D01*
X102450500Y-51250000D01*
X106720069Y-51250000D01*
X106722833Y-51285126D01*
X106767594Y-51439193D01*
X106849264Y-51577289D01*
X106962710Y-51690735D01*
X107100806Y-51772405D01*
X107239999Y-51812845D01*
X107240000Y-51812845D01*
X107240000Y-51250000D01*
X106720069Y-51250000D01*
X102450500Y-51250000D01*
X102450500Y-50750000D01*
X106720069Y-50750000D01*
X107240000Y-50750000D01*
X107240000Y-50187154D01*
X107100805Y-50227594D01*
X106962710Y-50309264D01*
X106849264Y-50422710D01*
X106767594Y-50560806D01*
X106722833Y-50714873D01*
X106720069Y-50750000D01*
X102450500Y-50750000D01*
X102450500Y-50234457D01*
X102457187Y-50203718D01*
X102485165Y-50142457D01*
X102505647Y-50000000D01*
X102485165Y-49857543D01*
X102481824Y-49850227D01*
X102457187Y-49796279D01*
X102450500Y-49765539D01*
X102450500Y-47217255D01*
X102472174Y-47164929D01*
X103870368Y-45766735D01*
X106999500Y-45766735D01*
X106999500Y-46133264D01*
X107009427Y-46201393D01*
X107009427Y-46201394D01*
X107060801Y-46306482D01*
X107060802Y-46306483D01*
X107143517Y-46389198D01*
X107248607Y-46440573D01*
X107316740Y-46450500D01*
X107982745Y-46450500D01*
X108035071Y-46472174D01*
X108127826Y-46564929D01*
X108149500Y-46617255D01*
X108149500Y-47127113D01*
X108127826Y-47179439D01*
X108087076Y-47200202D01*
X107991874Y-47215280D01*
X107991873Y-47215281D01*
X107871780Y-47276471D01*
X107776471Y-47371780D01*
X107715281Y-47491873D01*
X107715280Y-47491874D01*
X107699500Y-47591511D01*
X107699500Y-48408488D01*
X107715280Y-48508125D01*
X107715281Y-48508126D01*
X107748551Y-48573423D01*
X107776472Y-48628220D01*
X107871780Y-48723528D01*
X107949819Y-48763290D01*
X107991871Y-48784718D01*
X107991872Y-48784718D01*
X107991874Y-48784719D01*
X107997071Y-48785542D01*
X108045364Y-48815130D01*
X108059500Y-48858631D01*
X108059500Y-50204491D01*
X108037826Y-50256817D01*
X107985500Y-50278491D01*
X107947831Y-50268186D01*
X107879194Y-50227594D01*
X107740000Y-50187154D01*
X107740000Y-51812845D01*
X107879193Y-51772405D01*
X108017289Y-51690735D01*
X108130735Y-51577289D01*
X108159627Y-51528436D01*
X108204919Y-51494430D01*
X108254595Y-51499038D01*
X108286827Y-51514068D01*
X108335684Y-51520500D01*
X108335686Y-51520500D01*
X108684314Y-51520500D01*
X108684316Y-51520500D01*
X108733173Y-51514068D01*
X108840404Y-51464065D01*
X108924065Y-51380404D01*
X108974068Y-51273173D01*
X108980500Y-51224316D01*
X108980500Y-50775684D01*
X108974068Y-50726827D01*
X108967433Y-50712597D01*
X108960500Y-50681324D01*
X108960500Y-48573423D01*
X108968566Y-48539828D01*
X108970467Y-48536096D01*
X108984719Y-48508126D01*
X109000500Y-48408488D01*
X109000500Y-47977140D01*
X109010414Y-47940140D01*
X109019799Y-47923886D01*
X109050499Y-47809311D01*
X109050500Y-47809311D01*
X109050500Y-46340689D01*
X109050499Y-46340688D01*
X109022321Y-46235525D01*
X109022320Y-46235522D01*
X109022320Y-46235523D01*
X109019799Y-46226114D01*
X109019799Y-46226113D01*
X108960489Y-46123386D01*
X108747174Y-45910071D01*
X108725500Y-45857745D01*
X108725500Y-45766746D01*
X108725500Y-45766740D01*
X108715573Y-45698607D01*
X108664198Y-45593517D01*
X108581483Y-45510802D01*
X108581482Y-45510801D01*
X108476394Y-45459427D01*
X108408264Y-45449500D01*
X108408260Y-45449500D01*
X107316740Y-45449500D01*
X107316735Y-45449500D01*
X107248606Y-45459427D01*
X107248605Y-45459427D01*
X107143517Y-45510801D01*
X107060801Y-45593517D01*
X107009427Y-45698605D01*
X107009427Y-45698606D01*
X106999500Y-45766735D01*
X103870368Y-45766735D01*
X103914929Y-45722174D01*
X103967255Y-45700500D01*
X104085052Y-45700500D01*
X104085056Y-45700500D01*
X104250225Y-45659790D01*
X104400852Y-45580734D01*
X104528183Y-45467929D01*
X104624818Y-45327930D01*
X104685140Y-45168872D01*
X104705645Y-45000000D01*
X104702566Y-44974647D01*
X104717773Y-44920092D01*
X104723691Y-44913410D01*
X104820366Y-44816735D01*
X109274500Y-44816735D01*
X109274500Y-45183264D01*
X109284427Y-45251393D01*
X109284427Y-45251394D01*
X109335801Y-45356482D01*
X109335802Y-45356483D01*
X109418517Y-45439198D01*
X109523607Y-45490573D01*
X109591740Y-45500500D01*
X109994249Y-45500500D01*
X110013401Y-45503021D01*
X110069304Y-45518000D01*
X110754786Y-45518000D01*
X110807112Y-45539674D01*
X111110326Y-45842888D01*
X111132000Y-45895214D01*
X111132000Y-47285600D01*
X111110326Y-47337926D01*
X111076472Y-47371779D01*
X111076471Y-47371780D01*
X111015281Y-47491873D01*
X111015280Y-47491874D01*
X110999500Y-47591511D01*
X110999500Y-48408488D01*
X111015280Y-48508125D01*
X111015281Y-48508126D01*
X111076471Y-48628219D01*
X111110326Y-48662074D01*
X111132000Y-48714400D01*
X111132000Y-49068198D01*
X111167299Y-49199937D01*
X111167301Y-49199942D01*
X111235497Y-49318060D01*
X111336155Y-49418718D01*
X111336160Y-49418722D01*
X113235496Y-51318059D01*
X113235497Y-51318060D01*
X113331940Y-51414503D01*
X113450059Y-51482699D01*
X113450060Y-51482699D01*
X113450062Y-51482700D01*
X113511037Y-51499038D01*
X113581801Y-51517999D01*
X113581802Y-51518000D01*
X113581804Y-51518000D01*
X115750500Y-51518000D01*
X115802826Y-51539674D01*
X115824500Y-51592000D01*
X115824500Y-51654266D01*
X115827354Y-51684699D01*
X115827354Y-51684701D01*
X115827355Y-51684704D01*
X115872206Y-51812881D01*
X115872207Y-51812883D01*
X115952846Y-51922146D01*
X115952853Y-51922153D01*
X116062116Y-52002792D01*
X116062118Y-52002793D01*
X116190295Y-52047644D01*
X116190301Y-52047646D01*
X116220734Y-52050500D01*
X116220741Y-52050500D01*
X117779258Y-52050500D01*
X117779266Y-52050500D01*
X117809699Y-52047646D01*
X117937882Y-52002793D01*
X118047150Y-51922150D01*
X118127793Y-51812882D01*
X118172646Y-51684699D01*
X118175500Y-51654266D01*
X118175500Y-50345734D01*
X118172646Y-50315301D01*
X118127793Y-50187118D01*
X118094832Y-50142457D01*
X118047153Y-50077853D01*
X118047146Y-50077846D01*
X117937883Y-49997207D01*
X117937881Y-49997206D01*
X117809704Y-49952355D01*
X117809705Y-49952355D01*
X117809700Y-49952354D01*
X117809699Y-49952354D01*
X117779266Y-49949500D01*
X116220734Y-49949500D01*
X116190301Y-49952354D01*
X116190299Y-49952354D01*
X116190295Y-49952355D01*
X116062118Y-49997206D01*
X116062116Y-49997207D01*
X115952853Y-50077846D01*
X115952846Y-50077853D01*
X115872207Y-50187116D01*
X115872206Y-50187118D01*
X115827355Y-50315295D01*
X115827354Y-50315299D01*
X115827354Y-50315301D01*
X115824500Y-50345734D01*
X115824500Y-50345740D01*
X115824500Y-50408000D01*
X115802826Y-50460326D01*
X115750500Y-50482000D01*
X115183855Y-50482000D01*
X115131529Y-50460326D01*
X115109855Y-50408000D01*
X115131529Y-50355674D01*
X115169419Y-50335422D01*
X115179769Y-50333363D01*
X115277251Y-50313973D01*
X115450231Y-50242322D01*
X115605908Y-50138302D01*
X115738302Y-50005908D01*
X115842322Y-49850231D01*
X115913973Y-49677251D01*
X115950500Y-49493616D01*
X115950500Y-49306384D01*
X115913973Y-49122749D01*
X115842322Y-48949769D01*
X115738302Y-48794092D01*
X115605908Y-48661698D01*
X115450231Y-48557678D01*
X115450228Y-48557676D01*
X115450227Y-48557676D01*
X115277251Y-48486027D01*
X115277244Y-48486025D01*
X115138902Y-48458507D01*
X115093616Y-48449500D01*
X114906384Y-48449500D01*
X114870056Y-48456725D01*
X114722755Y-48486025D01*
X114722748Y-48486027D01*
X114549772Y-48557676D01*
X114394092Y-48661697D01*
X114394091Y-48661699D01*
X114261699Y-48794091D01*
X114261697Y-48794092D01*
X114157676Y-48949772D01*
X114086027Y-49122748D01*
X114086025Y-49122755D01*
X114049500Y-49306384D01*
X114049500Y-49493615D01*
X114086025Y-49677244D01*
X114086027Y-49677251D01*
X114157678Y-49850231D01*
X114162564Y-49857543D01*
X114255883Y-49997206D01*
X114261698Y-50005908D01*
X114394092Y-50138302D01*
X114549769Y-50242322D01*
X114722749Y-50313973D01*
X114811474Y-50331621D01*
X114830581Y-50335422D01*
X114877674Y-50366888D01*
X114888723Y-50422436D01*
X114857257Y-50469529D01*
X114816145Y-50482000D01*
X113895215Y-50482000D01*
X113842889Y-50460326D01*
X112189674Y-48807111D01*
X112168000Y-48754785D01*
X112168000Y-48714400D01*
X112189674Y-48662074D01*
X112190051Y-48661697D01*
X112223528Y-48628220D01*
X112284719Y-48508126D01*
X112300500Y-48408488D01*
X112300500Y-47591512D01*
X112284719Y-47491874D01*
X112223528Y-47371780D01*
X112189674Y-47337926D01*
X112168000Y-47285600D01*
X112168000Y-45581804D01*
X112141445Y-45482698D01*
X112141444Y-45482697D01*
X112132700Y-45450060D01*
X112103876Y-45400137D01*
X112064503Y-45331940D01*
X111968060Y-45235497D01*
X111965481Y-45232918D01*
X111965470Y-45232908D01*
X111732561Y-44999999D01*
X114594754Y-44999999D01*
X114594754Y-45000000D01*
X114613719Y-45301447D01*
X114613722Y-45301470D01*
X114670318Y-45598157D01*
X114670322Y-45598173D01*
X114763654Y-45885419D01*
X114763656Y-45885423D01*
X114892267Y-46158737D01*
X115054114Y-46413767D01*
X115246647Y-46646500D01*
X115246650Y-46646502D01*
X115246651Y-46646504D01*
X115466838Y-46853274D01*
X115711205Y-47030816D01*
X115975896Y-47176332D01*
X116079256Y-47217255D01*
X116256730Y-47287522D01*
X116256734Y-47287524D01*
X116256738Y-47287525D01*
X116549302Y-47362642D01*
X116549298Y-47362642D01*
X116848965Y-47400499D01*
X116848972Y-47400500D01*
X116848973Y-47400500D01*
X117151028Y-47400500D01*
X117151031Y-47400499D01*
X117450698Y-47362642D01*
X117743262Y-47287525D01*
X118024104Y-47176332D01*
X118288795Y-47030816D01*
X118533162Y-46853274D01*
X118753349Y-46646504D01*
X118945885Y-46413768D01*
X119107733Y-46158736D01*
X119236341Y-45885430D01*
X119243122Y-45864562D01*
X119329677Y-45598173D01*
X119329677Y-45598170D01*
X119329681Y-45598160D01*
X119386280Y-45301457D01*
X119405246Y-45000000D01*
X119386280Y-44698543D01*
X119329681Y-44401840D01*
X119329678Y-44401833D01*
X119329677Y-44401826D01*
X119236345Y-44114580D01*
X119236343Y-44114576D01*
X119236342Y-44114575D01*
X119236341Y-44114570D01*
X119107733Y-43841264D01*
X119080661Y-43798606D01*
X118945885Y-43586232D01*
X118753352Y-43353499D01*
X118558491Y-43170512D01*
X118533162Y-43146726D01*
X118429680Y-43071542D01*
X118288800Y-42969187D01*
X118074673Y-42851469D01*
X118024104Y-42823668D01*
X118024097Y-42823665D01*
X117743269Y-42712477D01*
X117743265Y-42712475D01*
X117450696Y-42637357D01*
X117450701Y-42637357D01*
X117151034Y-42599500D01*
X117151027Y-42599500D01*
X116848973Y-42599500D01*
X116848965Y-42599500D01*
X116549301Y-42637357D01*
X116256734Y-42712475D01*
X116256730Y-42712477D01*
X115975902Y-42823665D01*
X115975895Y-42823668D01*
X115711199Y-42969187D01*
X115466839Y-43146725D01*
X115246647Y-43353499D01*
X115054114Y-43586232D01*
X114892267Y-43841262D01*
X114763656Y-44114576D01*
X114763654Y-44114580D01*
X114670322Y-44401826D01*
X114670318Y-44401842D01*
X114613722Y-44698529D01*
X114613719Y-44698552D01*
X114594754Y-44999999D01*
X111732561Y-44999999D01*
X111418723Y-44686161D01*
X111418721Y-44686158D01*
X111318060Y-44585497D01*
X111199942Y-44517301D01*
X111199937Y-44517299D01*
X111068198Y-44482000D01*
X111068196Y-44482000D01*
X110069304Y-44482000D01*
X110013401Y-44496979D01*
X109994249Y-44499500D01*
X109591735Y-44499500D01*
X109523606Y-44509427D01*
X109523605Y-44509427D01*
X109418517Y-44560801D01*
X109335801Y-44643517D01*
X109284427Y-44748605D01*
X109284427Y-44748606D01*
X109274500Y-44816735D01*
X104820366Y-44816735D01*
X105164929Y-44472174D01*
X105217255Y-44450500D01*
X105940691Y-44450500D01*
X107074167Y-44450500D01*
X107126493Y-44472174D01*
X107143517Y-44489198D01*
X107248607Y-44540573D01*
X107316740Y-44550500D01*
X107316746Y-44550500D01*
X108408254Y-44550500D01*
X108408260Y-44550500D01*
X108476393Y-44540573D01*
X108581483Y-44489198D01*
X108664198Y-44406483D01*
X108715573Y-44301393D01*
X108725500Y-44233260D01*
X108725500Y-43866740D01*
X108715573Y-43798607D01*
X108664198Y-43693517D01*
X108581483Y-43610802D01*
X108581482Y-43610801D01*
X108476394Y-43559427D01*
X108408264Y-43549500D01*
X108408260Y-43549500D01*
X107871809Y-43549500D01*
X104940691Y-43549500D01*
X104940689Y-43549500D01*
X104826116Y-43580199D01*
X104723386Y-43639510D01*
X104085071Y-44277826D01*
X104032745Y-44299500D01*
X103914941Y-44299500D01*
X103749777Y-44340209D01*
X103599146Y-44419267D01*
X103599143Y-44419269D01*
X103471816Y-44532071D01*
X103375181Y-44672070D01*
X103314859Y-44831128D01*
X103297433Y-44974649D01*
X103294355Y-45000000D01*
X103295778Y-45011723D01*
X103297433Y-45025353D01*
X103282222Y-45079910D01*
X103276298Y-45086597D01*
X101639508Y-46723389D01*
X101580201Y-46826112D01*
X101577680Y-46835523D01*
X101577679Y-46835522D01*
X101577679Y-46835525D01*
X101549500Y-46940688D01*
X101549500Y-49765539D01*
X101542813Y-49796279D01*
X101514834Y-49857543D01*
X101494353Y-50000000D01*
X101514834Y-50142456D01*
X101526502Y-50168005D01*
X101542812Y-50203718D01*
X101549500Y-50234457D01*
X101549500Y-51307745D01*
X101527826Y-51360071D01*
X100160071Y-52727826D01*
X100107745Y-52749500D01*
X99295734Y-52749500D01*
X99265301Y-52752354D01*
X99265299Y-52752354D01*
X99265295Y-52752355D01*
X99137118Y-52797206D01*
X99137116Y-52797207D01*
X99027853Y-52877846D01*
X99027846Y-52877853D01*
X98947207Y-52987116D01*
X98947206Y-52987118D01*
X98911227Y-53089941D01*
X98873487Y-53132172D01*
X98841380Y-53139500D01*
X98474621Y-53139500D01*
X98422295Y-53117826D01*
X98380404Y-53075935D01*
X98340544Y-53057348D01*
X98273173Y-53025932D01*
X98273171Y-53025931D01*
X98237178Y-53021193D01*
X98224316Y-53019500D01*
X97775684Y-53019500D01*
X97764318Y-53020996D01*
X97726828Y-53025931D01*
X97619595Y-53075935D01*
X97535935Y-53159595D01*
X97485931Y-53266828D01*
X97479500Y-53315685D01*
X97479500Y-53664314D01*
X97485931Y-53713171D01*
X97485932Y-53713173D01*
X97535935Y-53820404D01*
X97619596Y-53904065D01*
X97681504Y-53932933D01*
X97719767Y-53974691D01*
X97717297Y-54031274D01*
X97681504Y-54067066D01*
X97661542Y-54076375D01*
X97619595Y-54095935D01*
X97535935Y-54179595D01*
X97485931Y-54286828D01*
X97479500Y-54335685D01*
X97479500Y-54684314D01*
X97485931Y-54733171D01*
X97535935Y-54840404D01*
X97624174Y-54928643D01*
X97622599Y-54930217D01*
X97648375Y-54970674D01*
X97649500Y-54983526D01*
X97649500Y-55525890D01*
X97627826Y-55578216D01*
X97609096Y-55591824D01*
X97494248Y-55650342D01*
X97400340Y-55744250D01*
X97340049Y-55862579D01*
X97340048Y-55862579D01*
X97324500Y-55960753D01*
X97324500Y-56464246D01*
X97340049Y-56562420D01*
X97400340Y-56680749D01*
X97498367Y-56778776D01*
X97496130Y-56781012D01*
X97520221Y-56820296D01*
X97507018Y-56875373D01*
X97470414Y-56902140D01*
X97437927Y-56912905D01*
X97294921Y-57001112D01*
X97176112Y-57119921D01*
X97087906Y-57262926D01*
X97035057Y-57422414D01*
X97025000Y-57520860D01*
X95200499Y-57520860D01*
X95200499Y-55025133D01*
X95200499Y-44999999D01*
X96594754Y-44999999D01*
X96594754Y-45000000D01*
X96613719Y-45301447D01*
X96613722Y-45301470D01*
X96670318Y-45598157D01*
X96670322Y-45598173D01*
X96763654Y-45885419D01*
X96763656Y-45885423D01*
X96892267Y-46158737D01*
X97054114Y-46413767D01*
X97246647Y-46646500D01*
X97246650Y-46646502D01*
X97246651Y-46646504D01*
X97466838Y-46853274D01*
X97711205Y-47030816D01*
X97975896Y-47176332D01*
X98079256Y-47217255D01*
X98256730Y-47287522D01*
X98256734Y-47287524D01*
X98256738Y-47287525D01*
X98549302Y-47362642D01*
X98549298Y-47362642D01*
X98848965Y-47400499D01*
X98848972Y-47400500D01*
X98848973Y-47400500D01*
X99151028Y-47400500D01*
X99151031Y-47400499D01*
X99450698Y-47362642D01*
X99743262Y-47287525D01*
X100024104Y-47176332D01*
X100288795Y-47030816D01*
X100533162Y-46853274D01*
X100753349Y-46646504D01*
X100945885Y-46413768D01*
X101107733Y-46158736D01*
X101236341Y-45885430D01*
X101243122Y-45864562D01*
X101329677Y-45598173D01*
X101329677Y-45598170D01*
X101329681Y-45598160D01*
X101386280Y-45301457D01*
X101405246Y-45000000D01*
X101386280Y-44698543D01*
X101329681Y-44401840D01*
X101329678Y-44401833D01*
X101329677Y-44401826D01*
X101236345Y-44114580D01*
X101236343Y-44114576D01*
X101236342Y-44114575D01*
X101236341Y-44114570D01*
X101107733Y-43841264D01*
X101080661Y-43798606D01*
X100945885Y-43586232D01*
X100753352Y-43353499D01*
X100558491Y-43170512D01*
X100533162Y-43146726D01*
X100429680Y-43071542D01*
X100288800Y-42969187D01*
X100074673Y-42851469D01*
X100024104Y-42823668D01*
X100024097Y-42823665D01*
X99743269Y-42712477D01*
X99743265Y-42712475D01*
X99450696Y-42637357D01*
X99450701Y-42637357D01*
X99151034Y-42599500D01*
X99151027Y-42599500D01*
X98848973Y-42599500D01*
X98848965Y-42599500D01*
X98549301Y-42637357D01*
X98256734Y-42712475D01*
X98256730Y-42712477D01*
X97975902Y-42823665D01*
X97975895Y-42823668D01*
X97711199Y-42969187D01*
X97466839Y-43146725D01*
X97246647Y-43353499D01*
X97054114Y-43586232D01*
X96892267Y-43841262D01*
X96763656Y-44114576D01*
X96763654Y-44114580D01*
X96670322Y-44401826D01*
X96670318Y-44401842D01*
X96613722Y-44698529D01*
X96613719Y-44698552D01*
X96594754Y-44999999D01*
X95200499Y-44999999D01*
X95200499Y-44002011D01*
X95200613Y-43997933D01*
X95217870Y-43690684D01*
X95218797Y-43682460D01*
X95269993Y-43381139D01*
X95271832Y-43373079D01*
X95356452Y-43079360D01*
X95359182Y-43071557D01*
X95476148Y-42789175D01*
X95479742Y-42781713D01*
X95627595Y-42514193D01*
X95631992Y-42507195D01*
X95808860Y-42257924D01*
X95814017Y-42251456D01*
X96017697Y-42023538D01*
X96023538Y-42017697D01*
X96251456Y-41814017D01*
X96257928Y-41808858D01*
X96507195Y-41631992D01*
X96514193Y-41627595D01*
X96781713Y-41479742D01*
X96789175Y-41476148D01*
X97071557Y-41359182D01*
X97079360Y-41356452D01*
X97373079Y-41271832D01*
X97381139Y-41269993D01*
X97682458Y-41218798D01*
X97690688Y-41217869D01*
X97997933Y-41200614D01*
X98002082Y-41200499D01*
X98039881Y-41200499D01*
X117960118Y-41200499D01*
X117997917Y-41200499D01*
X118002065Y-41200614D01*
G37*
%TD.AperFunction*%
%TD*%
M02*
