M48
; DRILL file {KiCad 8.0.2} date 2024-12-26T16:29:15-0500
; FORMAT={-:-/ absolute / metric / decimal}
; #@! TF.CreationDate,2024-12-26T16:29:15-05:00
; #@! TF.GenerationSoftware,Kicad,Pcbnew,8.0.2
; #@! TF.FileFunction,Plated,1,4,PTH
FMAT,2
METRIC
; #@! TA.AperFunction,Plated,PTH,ViaDrill
T1C0.250
; #@! TA.AperFunction,Plated,PTH,ViaDrill
T2C0.300
; #@! TA.AperFunction,Plated,PTH,ComponentDrill
T3C0.950
; #@! TA.AperFunction,Plated,PTH,ComponentDrill
T4C2.200
%
G90
G05
T1
X98.0Y-48.0
X98.0Y-50.0
X98.0Y-52.0
X98.0Y-60.0
X98.0Y-62.0
X99.0Y-42.0
X99.0Y-68.0
X100.0Y-49.0
X100.0Y-51.0
X100.0Y-61.0
X102.0Y-62.0
X102.0Y-66.0
X103.0Y-60.0
X103.0Y-64.0
X104.0Y-47.0
X104.0Y-49.0
X104.0Y-62.0
X104.0Y-66.0
X105.0Y-48.0
X105.0Y-57.0
X105.0Y-60.0
X105.0Y-64.0
X106.0Y-58.0
X106.0Y-62.0
X106.0Y-66.0
X107.0Y-52.0
X107.0Y-60.0
X107.0Y-64.0
X108.0Y-58.0
X108.0Y-62.0
X108.0Y-66.0
X109.0Y-52.0
X109.0Y-60.0
X109.0Y-64.0
X110.0Y-48.0
X110.0Y-62.0
X110.0Y-66.0
X111.0Y-60.0
X111.0Y-64.0
X112.0Y-62.0
X112.0Y-66.0
X112.6Y-52.3
X112.6Y-57.4
X113.0Y-60.0
X113.0Y-64.0
X114.0Y-45.0
X114.0Y-62.0
X114.0Y-66.0
X115.0Y-60.0
X115.1Y-52.4
X115.4Y-57.4
X116.0Y-62.0
X117.0Y-48.0
X117.0Y-68.0
X118.0Y-62.0
X120.0Y-45.0
T2
X96.0Y-45.0
X96.0Y-47.0
X96.0Y-49.0
X96.0Y-51.0
X96.0Y-53.0
X96.0Y-55.0
X96.0Y-57.0
X96.0Y-59.0
X96.0Y-61.0
X96.0Y-63.0
X96.0Y-65.0
X96.9Y-42.9
X96.9Y-67.1
X100.0Y-58.0
X101.0Y-42.0
X101.0Y-68.0
X102.0Y-50.0
X102.0Y-53.0
X103.0Y-42.0
X103.0Y-68.0
X105.0Y-42.0
X105.0Y-68.0
X107.0Y-42.0
X107.0Y-68.0
X109.0Y-42.0
X109.0Y-68.0
X111.0Y-42.0
X111.0Y-51.0
X111.0Y-59.0
X111.0Y-68.0
X113.0Y-42.0
X113.0Y-68.0
X115.0Y-42.0
X115.0Y-68.0
X117.0Y-42.0
X119.1Y-42.9
X119.1Y-67.1
X120.0Y-47.0
X120.0Y-49.0
X120.0Y-51.0
X120.0Y-53.0
X120.0Y-55.0
X120.0Y-57.0
X120.0Y-59.0
X120.0Y-61.0
X120.0Y-63.0
X120.0Y-65.0
T3
X117.0Y-51.0
X117.0Y-53.5
X117.0Y-56.0
X117.0Y-58.5
T4
X99.0Y-45.0
X99.0Y-65.0
X117.0Y-45.0
X117.0Y-65.0
M30
