%TF.GenerationSoftware,KiCad,Pcbnew,8.0.2*%
%TF.CreationDate,2024-12-26T16:28:57-05:00*%
%TF.ProjectId,Lumen Sensor,4c756d65-6e20-4536-956e-736f722e6b69,rev?*%
%TF.SameCoordinates,Original*%
%TF.FileFunction,Soldermask,Bot*%
%TF.FilePolarity,Negative*%
%FSLAX46Y46*%
G04 Gerber Fmt 4.6, Leading zero omitted, Abs format (unit mm)*
G04 Created by KiCad (PCBNEW 8.0.2) date 2024-12-26 16:28:57*
%MOMM*%
%LPD*%
G01*
G04 APERTURE LIST*
G04 APERTURE END LIST*
G36*
X99287158Y-62818821D02*
G01*
X99569402Y-62874963D01*
X99841904Y-62967465D01*
X100100000Y-63094744D01*
X100339275Y-63254623D01*
X100555635Y-63444365D01*
X100745377Y-63660725D01*
X100905256Y-63900000D01*
X101032535Y-64158096D01*
X101125037Y-64430598D01*
X101181179Y-64712842D01*
X101200000Y-65000000D01*
X101181179Y-65287158D01*
X101125037Y-65569402D01*
X101032535Y-65841904D01*
X100905256Y-66100000D01*
X100745377Y-66339275D01*
X100555635Y-66555635D01*
X100339275Y-66745377D01*
X100100000Y-66905256D01*
X99841904Y-67032535D01*
X99569402Y-67125037D01*
X99287158Y-67181179D01*
X99000000Y-67200000D01*
X98712842Y-67181179D01*
X98430598Y-67125037D01*
X98158096Y-67032535D01*
X97900000Y-66905256D01*
X97660725Y-66745377D01*
X97444365Y-66555635D01*
X97254623Y-66339275D01*
X97094744Y-66100000D01*
X96967465Y-65841904D01*
X96874963Y-65569402D01*
X96818821Y-65287158D01*
X96800000Y-65000000D01*
X96818821Y-64712842D01*
X96874963Y-64430598D01*
X96967465Y-64158096D01*
X97094744Y-63900000D01*
X97254623Y-63660725D01*
X97444365Y-63444365D01*
X97660725Y-63254623D01*
X97900000Y-63094744D01*
X98158096Y-62967465D01*
X98430598Y-62874963D01*
X98712842Y-62818821D01*
X99000000Y-62800000D01*
X99287158Y-62818821D01*
G37*
G36*
X117287158Y-62818821D02*
G01*
X117569402Y-62874963D01*
X117841904Y-62967465D01*
X118100000Y-63094744D01*
X118339275Y-63254623D01*
X118555635Y-63444365D01*
X118745377Y-63660725D01*
X118905256Y-63900000D01*
X119032535Y-64158096D01*
X119125037Y-64430598D01*
X119181179Y-64712842D01*
X119200000Y-65000000D01*
X119181179Y-65287158D01*
X119125037Y-65569402D01*
X119032535Y-65841904D01*
X118905256Y-66100000D01*
X118745377Y-66339275D01*
X118555635Y-66555635D01*
X118339275Y-66745377D01*
X118100000Y-66905256D01*
X117841904Y-67032535D01*
X117569402Y-67125037D01*
X117287158Y-67181179D01*
X117000000Y-67200000D01*
X116712842Y-67181179D01*
X116430598Y-67125037D01*
X116158096Y-67032535D01*
X115900000Y-66905256D01*
X115660725Y-66745377D01*
X115444365Y-66555635D01*
X115254623Y-66339275D01*
X115094744Y-66100000D01*
X114967465Y-65841904D01*
X114874963Y-65569402D01*
X114818821Y-65287158D01*
X114800000Y-65000000D01*
X114818821Y-64712842D01*
X114874963Y-64430598D01*
X114967465Y-64158096D01*
X115094744Y-63900000D01*
X115254623Y-63660725D01*
X115444365Y-63444365D01*
X115660725Y-63254623D01*
X115900000Y-63094744D01*
X116158096Y-62967465D01*
X116430598Y-62874963D01*
X116712842Y-62818821D01*
X117000000Y-62800000D01*
X117287158Y-62818821D01*
G37*
G36*
X117208315Y-57654093D02*
G01*
X117371742Y-57686601D01*
X117525687Y-57750367D01*
X117664234Y-57842941D01*
X117782059Y-57960766D01*
X117874633Y-58099313D01*
X117938399Y-58253258D01*
X117970907Y-58416685D01*
X117970907Y-58583315D01*
X117938399Y-58746742D01*
X117874633Y-58900687D01*
X117782059Y-59039234D01*
X117664234Y-59157059D01*
X117525687Y-59249633D01*
X117371742Y-59313399D01*
X117208315Y-59345907D01*
X116875000Y-59350000D01*
X116791685Y-59345907D01*
X116628258Y-59313399D01*
X116474313Y-59249633D01*
X116335766Y-59157059D01*
X116217941Y-59039234D01*
X116125367Y-58900687D01*
X116061601Y-58746742D01*
X116029093Y-58583315D01*
X116029093Y-58416685D01*
X116061601Y-58253258D01*
X116125367Y-58099313D01*
X116217941Y-57960766D01*
X116335766Y-57842941D01*
X116474313Y-57750367D01*
X116628258Y-57686601D01*
X116791685Y-57654093D01*
X117125000Y-57650000D01*
X117208315Y-57654093D01*
G37*
G36*
X117208315Y-55154093D02*
G01*
X117371742Y-55186601D01*
X117525687Y-55250367D01*
X117664234Y-55342941D01*
X117782059Y-55460766D01*
X117874633Y-55599313D01*
X117938399Y-55753258D01*
X117970907Y-55916685D01*
X117970907Y-56083315D01*
X117938399Y-56246742D01*
X117874633Y-56400687D01*
X117782059Y-56539234D01*
X117664234Y-56657059D01*
X117525687Y-56749633D01*
X117371742Y-56813399D01*
X117208315Y-56845907D01*
X116875000Y-56850000D01*
X116791685Y-56845907D01*
X116628258Y-56813399D01*
X116474313Y-56749633D01*
X116335766Y-56657059D01*
X116217941Y-56539234D01*
X116125367Y-56400687D01*
X116061601Y-56246742D01*
X116029093Y-56083315D01*
X116029093Y-55916685D01*
X116061601Y-55753258D01*
X116125367Y-55599313D01*
X116217941Y-55460766D01*
X116335766Y-55342941D01*
X116474313Y-55250367D01*
X116628258Y-55186601D01*
X116791685Y-55154093D01*
X117125000Y-55150000D01*
X117208315Y-55154093D01*
G37*
G36*
X117208315Y-52654093D02*
G01*
X117371742Y-52686601D01*
X117525687Y-52750367D01*
X117664234Y-52842941D01*
X117782059Y-52960766D01*
X117874633Y-53099313D01*
X117938399Y-53253258D01*
X117970907Y-53416685D01*
X117970907Y-53583315D01*
X117938399Y-53746742D01*
X117874633Y-53900687D01*
X117782059Y-54039234D01*
X117664234Y-54157059D01*
X117525687Y-54249633D01*
X117371742Y-54313399D01*
X117208315Y-54345907D01*
X116875000Y-54350000D01*
X116791685Y-54345907D01*
X116628258Y-54313399D01*
X116474313Y-54249633D01*
X116335766Y-54157059D01*
X116217941Y-54039234D01*
X116125367Y-53900687D01*
X116061601Y-53746742D01*
X116029093Y-53583315D01*
X116029093Y-53416685D01*
X116061601Y-53253258D01*
X116125367Y-53099313D01*
X116217941Y-52960766D01*
X116335766Y-52842941D01*
X116474313Y-52750367D01*
X116628258Y-52686601D01*
X116791685Y-52654093D01*
X117125000Y-52650000D01*
X117208315Y-52654093D01*
G37*
G36*
X117729047Y-50150805D02*
G01*
X117780408Y-50156764D01*
X117797954Y-50164511D01*
X117820671Y-50169030D01*
X117844991Y-50185280D01*
X117865793Y-50194465D01*
X117880000Y-50208672D01*
X117901777Y-50223223D01*
X117916327Y-50244999D01*
X117930534Y-50259206D01*
X117939718Y-50280006D01*
X117955970Y-50304329D01*
X117960489Y-50327048D01*
X117968235Y-50344591D01*
X117974192Y-50395940D01*
X117975000Y-50400000D01*
X117975000Y-51600000D01*
X117974192Y-51604059D01*
X117968235Y-51655408D01*
X117960489Y-51672950D01*
X117955970Y-51695671D01*
X117939716Y-51719995D01*
X117930534Y-51740793D01*
X117916329Y-51754997D01*
X117901777Y-51776777D01*
X117879997Y-51791329D01*
X117865793Y-51805534D01*
X117844995Y-51814716D01*
X117820671Y-51830970D01*
X117797950Y-51835489D01*
X117780408Y-51843235D01*
X117729061Y-51849192D01*
X117725000Y-51850000D01*
X116275000Y-51850000D01*
X116270941Y-51849192D01*
X116219591Y-51843235D01*
X116202048Y-51835489D01*
X116179329Y-51830970D01*
X116155006Y-51814718D01*
X116134206Y-51805534D01*
X116119999Y-51791327D01*
X116098223Y-51776777D01*
X116083672Y-51755000D01*
X116069465Y-51740793D01*
X116060280Y-51719991D01*
X116044030Y-51695671D01*
X116039511Y-51672954D01*
X116031764Y-51655408D01*
X116025805Y-51604049D01*
X116025000Y-51600000D01*
X116025000Y-50400000D01*
X116025804Y-50395953D01*
X116031764Y-50344591D01*
X116039511Y-50327043D01*
X116044030Y-50304329D01*
X116060278Y-50280010D01*
X116069465Y-50259206D01*
X116083674Y-50244996D01*
X116098223Y-50223223D01*
X116119996Y-50208674D01*
X116134206Y-50194465D01*
X116155010Y-50185278D01*
X116179329Y-50169030D01*
X116202043Y-50164511D01*
X116219591Y-50156764D01*
X116270952Y-50150805D01*
X116275000Y-50150000D01*
X117725000Y-50150000D01*
X117729047Y-50150805D01*
G37*
G36*
X115035995Y-48804739D02*
G01*
X115072278Y-48804739D01*
X115113880Y-48814993D01*
X115155291Y-48820445D01*
X115183638Y-48832186D01*
X115212632Y-48839333D01*
X115256591Y-48862404D01*
X115300000Y-48880385D01*
X115319804Y-48895581D01*
X115340629Y-48906511D01*
X115383202Y-48944228D01*
X115424264Y-48975736D01*
X115435935Y-48990946D01*
X115448832Y-49002372D01*
X115485821Y-49055959D01*
X115519615Y-49100000D01*
X115524707Y-49112293D01*
X115530948Y-49121335D01*
X115558020Y-49192719D01*
X115579555Y-49244709D01*
X115580521Y-49252050D01*
X115582209Y-49256500D01*
X115595278Y-49364140D01*
X115600000Y-49400000D01*
X115595278Y-49435862D01*
X115582209Y-49543499D01*
X115580521Y-49547947D01*
X115579555Y-49555291D01*
X115558015Y-49607291D01*
X115530948Y-49678664D01*
X115524708Y-49687703D01*
X115519615Y-49700000D01*
X115485814Y-49744049D01*
X115448832Y-49797627D01*
X115435937Y-49809050D01*
X115424264Y-49824264D01*
X115383194Y-49855777D01*
X115340629Y-49893488D01*
X115319808Y-49904415D01*
X115300000Y-49919615D01*
X115256582Y-49937598D01*
X115212632Y-49960666D01*
X115183642Y-49967811D01*
X115155291Y-49979555D01*
X115113877Y-49985007D01*
X115072278Y-49995261D01*
X115035995Y-49995261D01*
X115000000Y-50000000D01*
X114964005Y-49995261D01*
X114927722Y-49995261D01*
X114886121Y-49985007D01*
X114844709Y-49979555D01*
X114816358Y-49967811D01*
X114787367Y-49960666D01*
X114743412Y-49937596D01*
X114700000Y-49919615D01*
X114680193Y-49904417D01*
X114659370Y-49893488D01*
X114616798Y-49855772D01*
X114575736Y-49824264D01*
X114564064Y-49809053D01*
X114551167Y-49797627D01*
X114514175Y-49744036D01*
X114480385Y-49700000D01*
X114475293Y-49687707D01*
X114469051Y-49678664D01*
X114441972Y-49607262D01*
X114420445Y-49555291D01*
X114419478Y-49547951D01*
X114417790Y-49543499D01*
X114404708Y-49435764D01*
X114400000Y-49400000D01*
X114404708Y-49364238D01*
X114417790Y-49256500D01*
X114419478Y-49252046D01*
X114420445Y-49244709D01*
X114441967Y-49192748D01*
X114469051Y-49121335D01*
X114475294Y-49112290D01*
X114480385Y-49100000D01*
X114514168Y-49055972D01*
X114551167Y-49002372D01*
X114564066Y-48990943D01*
X114575736Y-48975736D01*
X114616789Y-48944234D01*
X114659370Y-48906511D01*
X114680197Y-48895579D01*
X114700000Y-48880385D01*
X114743403Y-48862406D01*
X114787367Y-48839333D01*
X114816363Y-48832186D01*
X114844709Y-48820445D01*
X114886118Y-48814993D01*
X114927722Y-48804739D01*
X114964005Y-48804739D01*
X115000000Y-48800000D01*
X115035995Y-48804739D01*
G37*
G36*
X99287158Y-42818821D02*
G01*
X99569402Y-42874963D01*
X99841904Y-42967465D01*
X100100000Y-43094744D01*
X100339275Y-43254623D01*
X100555635Y-43444365D01*
X100745377Y-43660725D01*
X100905256Y-43900000D01*
X101032535Y-44158096D01*
X101125037Y-44430598D01*
X101181179Y-44712842D01*
X101200000Y-45000000D01*
X101181179Y-45287158D01*
X101125037Y-45569402D01*
X101032535Y-45841904D01*
X100905256Y-46100000D01*
X100745377Y-46339275D01*
X100555635Y-46555635D01*
X100339275Y-46745377D01*
X100100000Y-46905256D01*
X99841904Y-47032535D01*
X99569402Y-47125037D01*
X99287158Y-47181179D01*
X99000000Y-47200000D01*
X98712842Y-47181179D01*
X98430598Y-47125037D01*
X98158096Y-47032535D01*
X97900000Y-46905256D01*
X97660725Y-46745377D01*
X97444365Y-46555635D01*
X97254623Y-46339275D01*
X97094744Y-46100000D01*
X96967465Y-45841904D01*
X96874963Y-45569402D01*
X96818821Y-45287158D01*
X96800000Y-45000000D01*
X96818821Y-44712842D01*
X96874963Y-44430598D01*
X96967465Y-44158096D01*
X97094744Y-43900000D01*
X97254623Y-43660725D01*
X97444365Y-43444365D01*
X97660725Y-43254623D01*
X97900000Y-43094744D01*
X98158096Y-42967465D01*
X98430598Y-42874963D01*
X98712842Y-42818821D01*
X99000000Y-42800000D01*
X99287158Y-42818821D01*
G37*
G36*
X117287158Y-42818821D02*
G01*
X117569402Y-42874963D01*
X117841904Y-42967465D01*
X118100000Y-43094744D01*
X118339275Y-43254623D01*
X118555635Y-43444365D01*
X118745377Y-43660725D01*
X118905256Y-43900000D01*
X119032535Y-44158096D01*
X119125037Y-44430598D01*
X119181179Y-44712842D01*
X119200000Y-45000000D01*
X119181179Y-45287158D01*
X119125037Y-45569402D01*
X119032535Y-45841904D01*
X118905256Y-46100000D01*
X118745377Y-46339275D01*
X118555635Y-46555635D01*
X118339275Y-46745377D01*
X118100000Y-46905256D01*
X117841904Y-47032535D01*
X117569402Y-47125037D01*
X117287158Y-47181179D01*
X117000000Y-47200000D01*
X116712842Y-47181179D01*
X116430598Y-47125037D01*
X116158096Y-47032535D01*
X115900000Y-46905256D01*
X115660725Y-46745377D01*
X115444365Y-46555635D01*
X115254623Y-46339275D01*
X115094744Y-46100000D01*
X114967465Y-45841904D01*
X114874963Y-45569402D01*
X114818821Y-45287158D01*
X114800000Y-45000000D01*
X114818821Y-44712842D01*
X114874963Y-44430598D01*
X114967465Y-44158096D01*
X115094744Y-43900000D01*
X115254623Y-43660725D01*
X115444365Y-43444365D01*
X115660725Y-43254623D01*
X115900000Y-43094744D01*
X116158096Y-42967465D01*
X116430598Y-42874963D01*
X116712842Y-42818821D01*
X117000000Y-42800000D01*
X117287158Y-42818821D01*
G37*
M02*
