%TF.GenerationSoftware,KiCad,Pcbnew,8.0.2*%
%TF.CreationDate,2024-12-26T16:42:43-05:00*%
%TF.ProjectId,Column Controller,436f6c75-6d6e-4204-936f-6e74726f6c6c,rev?*%
%TF.SameCoordinates,Original*%
%TF.FileFunction,Soldermask,Bot*%
%TF.FilePolarity,Negative*%
%FSLAX46Y46*%
G04 Gerber Fmt 4.6, Leading zero omitted, Abs format (unit mm)*
G04 Created by KiCad (PCBNEW 8.0.2) date 2024-12-26 16:42:43*
%MOMM*%
%LPD*%
G01*
G04 APERTURE LIST*
G04 APERTURE END LIST*
G36*
X114000000Y-148000000D02*
G01*
X112000000Y-148000000D01*
X112000000Y-146000000D01*
X114000000Y-146000000D01*
X114000000Y-148000000D01*
G37*
G36*
X117195090Y-146019215D02*
G01*
X117382683Y-146076120D01*
X117555570Y-146168530D01*
X117707107Y-146292893D01*
X117831470Y-146444430D01*
X117923880Y-146617317D01*
X117980785Y-146804910D01*
X118000000Y-147000000D01*
X117980785Y-147195090D01*
X117923880Y-147382683D01*
X117831470Y-147555570D01*
X117707107Y-147707107D01*
X117555570Y-147831470D01*
X117382683Y-147923880D01*
X117195090Y-147980785D01*
X117000000Y-148000000D01*
X116804910Y-147980785D01*
X116617317Y-147923880D01*
X116444430Y-147831470D01*
X116292893Y-147707107D01*
X116168530Y-147555570D01*
X116076120Y-147382683D01*
X116019215Y-147195090D01*
X116000000Y-147000000D01*
X116019215Y-146804910D01*
X116076120Y-146617317D01*
X116168530Y-146444430D01*
X116292893Y-146292893D01*
X116444430Y-146168530D01*
X116617317Y-146076120D01*
X116804910Y-146019215D01*
X117000000Y-146000000D01*
X117195090Y-146019215D01*
G37*
G36*
X140100000Y-148000000D02*
G01*
X138100000Y-148000000D01*
X138100000Y-146000000D01*
X140100000Y-146000000D01*
X140100000Y-148000000D01*
G37*
G36*
X143295090Y-146019215D02*
G01*
X143482683Y-146076120D01*
X143655570Y-146168530D01*
X143807107Y-146292893D01*
X143931470Y-146444430D01*
X144023880Y-146617317D01*
X144080785Y-146804910D01*
X144100000Y-147000000D01*
X144080785Y-147195090D01*
X144023880Y-147382683D01*
X143931470Y-147555570D01*
X143807107Y-147707107D01*
X143655570Y-147831470D01*
X143482683Y-147923880D01*
X143295090Y-147980785D01*
X143100000Y-148000000D01*
X142904910Y-147980785D01*
X142717317Y-147923880D01*
X142544430Y-147831470D01*
X142392893Y-147707107D01*
X142268530Y-147555570D01*
X142176120Y-147382683D01*
X142119215Y-147195090D01*
X142100000Y-147000000D01*
X142119215Y-146804910D01*
X142176120Y-146617317D01*
X142268530Y-146444430D01*
X142392893Y-146292893D01*
X142544430Y-146168530D01*
X142717317Y-146076120D01*
X142904910Y-146019215D01*
X143100000Y-146000000D01*
X143295090Y-146019215D01*
G37*
G36*
X158000000Y-148000000D02*
G01*
X156000000Y-148000000D01*
X156000000Y-146000000D01*
X158000000Y-146000000D01*
X158000000Y-148000000D01*
G37*
G36*
X161195090Y-146019215D02*
G01*
X161382683Y-146076120D01*
X161555570Y-146168530D01*
X161707107Y-146292893D01*
X161831470Y-146444430D01*
X161923880Y-146617317D01*
X161980785Y-146804910D01*
X162000000Y-147000000D01*
X161980785Y-147195090D01*
X161923880Y-147382683D01*
X161831470Y-147555570D01*
X161707107Y-147707107D01*
X161555570Y-147831470D01*
X161382683Y-147923880D01*
X161195090Y-147980785D01*
X161000000Y-148000000D01*
X160804910Y-147980785D01*
X160617317Y-147923880D01*
X160444430Y-147831470D01*
X160292893Y-147707107D01*
X160168530Y-147555570D01*
X160076120Y-147382683D01*
X160019215Y-147195090D01*
X160000000Y-147000000D01*
X160019215Y-146804910D01*
X160076120Y-146617317D01*
X160168530Y-146444430D01*
X160292893Y-146292893D01*
X160444430Y-146168530D01*
X160617317Y-146076120D01*
X160804910Y-146019215D01*
X161000000Y-146000000D01*
X161195090Y-146019215D01*
G37*
G36*
X169000000Y-148000000D02*
G01*
X167000000Y-148000000D01*
X167000000Y-146000000D01*
X169000000Y-146000000D01*
X169000000Y-148000000D01*
G37*
G36*
X172195090Y-146019215D02*
G01*
X172382683Y-146076120D01*
X172555570Y-146168530D01*
X172707107Y-146292893D01*
X172831470Y-146444430D01*
X172923880Y-146617317D01*
X172980785Y-146804910D01*
X173000000Y-147000000D01*
X172980785Y-147195090D01*
X172923880Y-147382683D01*
X172831470Y-147555570D01*
X172707107Y-147707107D01*
X172555570Y-147831470D01*
X172382683Y-147923880D01*
X172195090Y-147980785D01*
X172000000Y-148000000D01*
X171804910Y-147980785D01*
X171617317Y-147923880D01*
X171444430Y-147831470D01*
X171292893Y-147707107D01*
X171168530Y-147555570D01*
X171076120Y-147382683D01*
X171019215Y-147195090D01*
X171000000Y-147000000D01*
X171019215Y-146804910D01*
X171076120Y-146617317D01*
X171168530Y-146444430D01*
X171292893Y-146292893D01*
X171444430Y-146168530D01*
X171617317Y-146076120D01*
X171804910Y-146019215D01*
X172000000Y-146000000D01*
X172195090Y-146019215D01*
G37*
G36*
X85250295Y-143419699D02*
G01*
X85494427Y-143478310D01*
X85726385Y-143574390D01*
X85940456Y-143705573D01*
X86131371Y-143868629D01*
X86294427Y-144059544D01*
X86425610Y-144273615D01*
X86521690Y-144505573D01*
X86580301Y-144749705D01*
X86600000Y-145000000D01*
X86580301Y-145250295D01*
X86521690Y-145494427D01*
X86425610Y-145726385D01*
X86294427Y-145940456D01*
X86131371Y-146131371D01*
X85940456Y-146294427D01*
X85726385Y-146425610D01*
X85494427Y-146521690D01*
X85250295Y-146580301D01*
X85000000Y-146600000D01*
X84749705Y-146580301D01*
X84505573Y-146521690D01*
X84273615Y-146425610D01*
X84059544Y-146294427D01*
X83868629Y-146131371D01*
X83705573Y-145940456D01*
X83574390Y-145726385D01*
X83478310Y-145494427D01*
X83419699Y-145250295D01*
X83400000Y-145000000D01*
X83419699Y-144749705D01*
X83478310Y-144505573D01*
X83574390Y-144273615D01*
X83705573Y-144059544D01*
X83868629Y-143868629D01*
X84059544Y-143705573D01*
X84273615Y-143574390D01*
X84505573Y-143478310D01*
X84749705Y-143419699D01*
X85000000Y-143400000D01*
X85250295Y-143419699D01*
G37*
G36*
X180250295Y-143419699D02*
G01*
X180494427Y-143478310D01*
X180726385Y-143574390D01*
X180940456Y-143705573D01*
X181131371Y-143868629D01*
X181294427Y-144059544D01*
X181425610Y-144273615D01*
X181521690Y-144505573D01*
X181580301Y-144749705D01*
X181600000Y-145000000D01*
X181580301Y-145250295D01*
X181521690Y-145494427D01*
X181425610Y-145726385D01*
X181294427Y-145940456D01*
X181131371Y-146131371D01*
X180940456Y-146294427D01*
X180726385Y-146425610D01*
X180494427Y-146521690D01*
X180250295Y-146580301D01*
X180000000Y-146600000D01*
X179749705Y-146580301D01*
X179505573Y-146521690D01*
X179273615Y-146425610D01*
X179059544Y-146294427D01*
X178868629Y-146131371D01*
X178705573Y-145940456D01*
X178574390Y-145726385D01*
X178478310Y-145494427D01*
X178419699Y-145250295D01*
X178400000Y-145000000D01*
X178419699Y-144749705D01*
X178478310Y-144505573D01*
X178574390Y-144273615D01*
X178705573Y-144059544D01*
X178868629Y-143868629D01*
X179059544Y-143705573D01*
X179273615Y-143574390D01*
X179505573Y-143478310D01*
X179749705Y-143419699D01*
X180000000Y-143400000D01*
X180250295Y-143419699D01*
G37*
G36*
X163351537Y-144440224D02*
G01*
X163416421Y-144483579D01*
X163459776Y-144548463D01*
X163475000Y-144625000D01*
X163475000Y-145025000D01*
X163459776Y-145101537D01*
X163416421Y-145166421D01*
X163351537Y-145209776D01*
X163275000Y-145225000D01*
X162725000Y-145225000D01*
X162648463Y-145209776D01*
X162583579Y-145166421D01*
X162540224Y-145101537D01*
X162525000Y-145025000D01*
X162525000Y-144625000D01*
X162540224Y-144548463D01*
X162583579Y-144483579D01*
X162648463Y-144440224D01*
X162725000Y-144425000D01*
X163275000Y-144425000D01*
X163351537Y-144440224D01*
G37*
G36*
X174351537Y-144440224D02*
G01*
X174416421Y-144483579D01*
X174459776Y-144548463D01*
X174475000Y-144625000D01*
X174475000Y-145025000D01*
X174459776Y-145101537D01*
X174416421Y-145166421D01*
X174351537Y-145209776D01*
X174275000Y-145225000D01*
X173725000Y-145225000D01*
X173648463Y-145209776D01*
X173583579Y-145166421D01*
X173540224Y-145101537D01*
X173525000Y-145025000D01*
X173525000Y-144625000D01*
X173540224Y-144548463D01*
X173583579Y-144483579D01*
X173648463Y-144440224D01*
X173725000Y-144425000D01*
X174275000Y-144425000D01*
X174351537Y-144440224D01*
G37*
G36*
X157004047Y-142100805D02*
G01*
X157055408Y-142106764D01*
X157072954Y-142114511D01*
X157095671Y-142119030D01*
X157119991Y-142135280D01*
X157140793Y-142144465D01*
X157155000Y-142158672D01*
X157176777Y-142173223D01*
X157191327Y-142194999D01*
X157205534Y-142209206D01*
X157214718Y-142230006D01*
X157230970Y-142254329D01*
X157235489Y-142277048D01*
X157243235Y-142294591D01*
X157249192Y-142345940D01*
X157250000Y-142350000D01*
X157250000Y-143650000D01*
X157249192Y-143654059D01*
X157243235Y-143705408D01*
X157235489Y-143722950D01*
X157230970Y-143745671D01*
X157214716Y-143769995D01*
X157205534Y-143790793D01*
X157191329Y-143804997D01*
X157176777Y-143826777D01*
X157154997Y-143841329D01*
X157140793Y-143855534D01*
X157119995Y-143864716D01*
X157095671Y-143880970D01*
X157072950Y-143885489D01*
X157055408Y-143893235D01*
X157004061Y-143899192D01*
X157000000Y-143900000D01*
X155000000Y-143900000D01*
X154995941Y-143899192D01*
X154944591Y-143893235D01*
X154927048Y-143885489D01*
X154904329Y-143880970D01*
X154880006Y-143864718D01*
X154859206Y-143855534D01*
X154844999Y-143841327D01*
X154823223Y-143826777D01*
X154808672Y-143805000D01*
X154794465Y-143790793D01*
X154785280Y-143769991D01*
X154769030Y-143745671D01*
X154764511Y-143722954D01*
X154756764Y-143705408D01*
X154750805Y-143654049D01*
X154750000Y-143650000D01*
X154750000Y-142350000D01*
X154750804Y-142345953D01*
X154756764Y-142294591D01*
X154764511Y-142277043D01*
X154769030Y-142254329D01*
X154785278Y-142230010D01*
X154794465Y-142209206D01*
X154808674Y-142194996D01*
X154823223Y-142173223D01*
X154844996Y-142158674D01*
X154859206Y-142144465D01*
X154880010Y-142135278D01*
X154904329Y-142119030D01*
X154927043Y-142114511D01*
X154944591Y-142106764D01*
X154995952Y-142100805D01*
X155000000Y-142100000D01*
X157000000Y-142100000D01*
X157004047Y-142100805D01*
G37*
G36*
X161004047Y-142100805D02*
G01*
X161055408Y-142106764D01*
X161072954Y-142114511D01*
X161095671Y-142119030D01*
X161119991Y-142135280D01*
X161140793Y-142144465D01*
X161155000Y-142158672D01*
X161176777Y-142173223D01*
X161191327Y-142194999D01*
X161205534Y-142209206D01*
X161214718Y-142230006D01*
X161230970Y-142254329D01*
X161235489Y-142277048D01*
X161243235Y-142294591D01*
X161249192Y-142345940D01*
X161250000Y-142350000D01*
X161250000Y-143650000D01*
X161249192Y-143654059D01*
X161243235Y-143705408D01*
X161235489Y-143722950D01*
X161230970Y-143745671D01*
X161214716Y-143769995D01*
X161205534Y-143790793D01*
X161191329Y-143804997D01*
X161176777Y-143826777D01*
X161154997Y-143841329D01*
X161140793Y-143855534D01*
X161119995Y-143864716D01*
X161095671Y-143880970D01*
X161072950Y-143885489D01*
X161055408Y-143893235D01*
X161004061Y-143899192D01*
X161000000Y-143900000D01*
X159000000Y-143900000D01*
X158995941Y-143899192D01*
X158944591Y-143893235D01*
X158927048Y-143885489D01*
X158904329Y-143880970D01*
X158880006Y-143864718D01*
X158859206Y-143855534D01*
X158844999Y-143841327D01*
X158823223Y-143826777D01*
X158808672Y-143805000D01*
X158794465Y-143790793D01*
X158785280Y-143769991D01*
X158769030Y-143745671D01*
X158764511Y-143722954D01*
X158756764Y-143705408D01*
X158750805Y-143654049D01*
X158750000Y-143650000D01*
X158750000Y-142350000D01*
X158750804Y-142345953D01*
X158756764Y-142294591D01*
X158764511Y-142277043D01*
X158769030Y-142254329D01*
X158785278Y-142230010D01*
X158794465Y-142209206D01*
X158808674Y-142194996D01*
X158823223Y-142173223D01*
X158844996Y-142158674D01*
X158859206Y-142144465D01*
X158880010Y-142135278D01*
X158904329Y-142119030D01*
X158927043Y-142114511D01*
X158944591Y-142106764D01*
X158995952Y-142100805D01*
X159000000Y-142100000D01*
X161000000Y-142100000D01*
X161004047Y-142100805D01*
G37*
G36*
X168004047Y-142100805D02*
G01*
X168055408Y-142106764D01*
X168072954Y-142114511D01*
X168095671Y-142119030D01*
X168119991Y-142135280D01*
X168140793Y-142144465D01*
X168155000Y-142158672D01*
X168176777Y-142173223D01*
X168191327Y-142194999D01*
X168205534Y-142209206D01*
X168214718Y-142230006D01*
X168230970Y-142254329D01*
X168235489Y-142277048D01*
X168243235Y-142294591D01*
X168249192Y-142345940D01*
X168250000Y-142350000D01*
X168250000Y-143650000D01*
X168249192Y-143654059D01*
X168243235Y-143705408D01*
X168235489Y-143722950D01*
X168230970Y-143745671D01*
X168214716Y-143769995D01*
X168205534Y-143790793D01*
X168191329Y-143804997D01*
X168176777Y-143826777D01*
X168154997Y-143841329D01*
X168140793Y-143855534D01*
X168119995Y-143864716D01*
X168095671Y-143880970D01*
X168072950Y-143885489D01*
X168055408Y-143893235D01*
X168004061Y-143899192D01*
X168000000Y-143900000D01*
X166000000Y-143900000D01*
X165995941Y-143899192D01*
X165944591Y-143893235D01*
X165927048Y-143885489D01*
X165904329Y-143880970D01*
X165880006Y-143864718D01*
X165859206Y-143855534D01*
X165844999Y-143841327D01*
X165823223Y-143826777D01*
X165808672Y-143805000D01*
X165794465Y-143790793D01*
X165785280Y-143769991D01*
X165769030Y-143745671D01*
X165764511Y-143722954D01*
X165756764Y-143705408D01*
X165750805Y-143654049D01*
X165750000Y-143650000D01*
X165750000Y-142350000D01*
X165750804Y-142345953D01*
X165756764Y-142294591D01*
X165764511Y-142277043D01*
X165769030Y-142254329D01*
X165785278Y-142230010D01*
X165794465Y-142209206D01*
X165808674Y-142194996D01*
X165823223Y-142173223D01*
X165844996Y-142158674D01*
X165859206Y-142144465D01*
X165880010Y-142135278D01*
X165904329Y-142119030D01*
X165927043Y-142114511D01*
X165944591Y-142106764D01*
X165995952Y-142100805D01*
X166000000Y-142100000D01*
X168000000Y-142100000D01*
X168004047Y-142100805D01*
G37*
G36*
X172004047Y-142100805D02*
G01*
X172055408Y-142106764D01*
X172072954Y-142114511D01*
X172095671Y-142119030D01*
X172119991Y-142135280D01*
X172140793Y-142144465D01*
X172155000Y-142158672D01*
X172176777Y-142173223D01*
X172191327Y-142194999D01*
X172205534Y-142209206D01*
X172214718Y-142230006D01*
X172230970Y-142254329D01*
X172235489Y-142277048D01*
X172243235Y-142294591D01*
X172249192Y-142345940D01*
X172250000Y-142350000D01*
X172250000Y-143650000D01*
X172249192Y-143654059D01*
X172243235Y-143705408D01*
X172235489Y-143722950D01*
X172230970Y-143745671D01*
X172214716Y-143769995D01*
X172205534Y-143790793D01*
X172191329Y-143804997D01*
X172176777Y-143826777D01*
X172154997Y-143841329D01*
X172140793Y-143855534D01*
X172119995Y-143864716D01*
X172095671Y-143880970D01*
X172072950Y-143885489D01*
X172055408Y-143893235D01*
X172004061Y-143899192D01*
X172000000Y-143900000D01*
X170000000Y-143900000D01*
X169995941Y-143899192D01*
X169944591Y-143893235D01*
X169927048Y-143885489D01*
X169904329Y-143880970D01*
X169880006Y-143864718D01*
X169859206Y-143855534D01*
X169844999Y-143841327D01*
X169823223Y-143826777D01*
X169808672Y-143805000D01*
X169794465Y-143790793D01*
X169785280Y-143769991D01*
X169769030Y-143745671D01*
X169764511Y-143722954D01*
X169756764Y-143705408D01*
X169750805Y-143654049D01*
X169750000Y-143650000D01*
X169750000Y-142350000D01*
X169750804Y-142345953D01*
X169756764Y-142294591D01*
X169764511Y-142277043D01*
X169769030Y-142254329D01*
X169785278Y-142230010D01*
X169794465Y-142209206D01*
X169808674Y-142194996D01*
X169823223Y-142173223D01*
X169844996Y-142158674D01*
X169859206Y-142144465D01*
X169880010Y-142135278D01*
X169904329Y-142119030D01*
X169927043Y-142114511D01*
X169944591Y-142106764D01*
X169995952Y-142100805D01*
X170000000Y-142100000D01*
X172000000Y-142100000D01*
X172004047Y-142100805D01*
G37*
G36*
X163351537Y-142790224D02*
G01*
X163416421Y-142833579D01*
X163459776Y-142898463D01*
X163475000Y-142975000D01*
X163475000Y-143375000D01*
X163459776Y-143451537D01*
X163416421Y-143516421D01*
X163351537Y-143559776D01*
X163275000Y-143575000D01*
X162725000Y-143575000D01*
X162648463Y-143559776D01*
X162583579Y-143516421D01*
X162540224Y-143451537D01*
X162525000Y-143375000D01*
X162525000Y-142975000D01*
X162540224Y-142898463D01*
X162583579Y-142833579D01*
X162648463Y-142790224D01*
X162725000Y-142775000D01*
X163275000Y-142775000D01*
X163351537Y-142790224D01*
G37*
G36*
X174351537Y-142790224D02*
G01*
X174416421Y-142833579D01*
X174459776Y-142898463D01*
X174475000Y-142975000D01*
X174475000Y-143375000D01*
X174459776Y-143451537D01*
X174416421Y-143516421D01*
X174351537Y-143559776D01*
X174275000Y-143575000D01*
X173725000Y-143575000D01*
X173648463Y-143559776D01*
X173583579Y-143516421D01*
X173540224Y-143451537D01*
X173525000Y-143375000D01*
X173525000Y-142975000D01*
X173540224Y-142898463D01*
X173583579Y-142833579D01*
X173648463Y-142790224D01*
X173725000Y-142775000D01*
X174275000Y-142775000D01*
X174351537Y-142790224D01*
G37*
G36*
X84000000Y-139000000D02*
G01*
X82000000Y-139000000D01*
X82000000Y-137000000D01*
X84000000Y-137000000D01*
X84000000Y-139000000D01*
G37*
G36*
X83195090Y-133019215D02*
G01*
X83382683Y-133076120D01*
X83555570Y-133168530D01*
X83707107Y-133292893D01*
X83831470Y-133444430D01*
X83923880Y-133617317D01*
X83980785Y-133804910D01*
X84000000Y-134000000D01*
X83980785Y-134195090D01*
X83923880Y-134382683D01*
X83831470Y-134555570D01*
X83707107Y-134707107D01*
X83555570Y-134831470D01*
X83382683Y-134923880D01*
X83195090Y-134980785D01*
X83000000Y-135000000D01*
X82804910Y-134980785D01*
X82617317Y-134923880D01*
X82444430Y-134831470D01*
X82292893Y-134707107D01*
X82168530Y-134555570D01*
X82076120Y-134382683D01*
X82019215Y-134195090D01*
X82000000Y-134000000D01*
X82019215Y-133804910D01*
X82076120Y-133617317D01*
X82168530Y-133444430D01*
X82292893Y-133292893D01*
X82444430Y-133168530D01*
X82617317Y-133076120D01*
X82804910Y-133019215D01*
X83000000Y-133000000D01*
X83195090Y-133019215D01*
G37*
G36*
X161035381Y-133505089D02*
G01*
X161071157Y-133505089D01*
X161100235Y-133513627D01*
X161129296Y-133517453D01*
X161168332Y-133533622D01*
X161207708Y-133545184D01*
X161228491Y-133558540D01*
X161249783Y-133567360D01*
X161288798Y-133597297D01*
X161327430Y-133622125D01*
X161339883Y-133636497D01*
X161353249Y-133646753D01*
X161387899Y-133691910D01*
X161420627Y-133729680D01*
X161426134Y-133741738D01*
X161432638Y-133750215D01*
X161458322Y-133812222D01*
X161479746Y-133859134D01*
X161480805Y-133866500D01*
X161482546Y-133870703D01*
X161494880Y-133964390D01*
X161500000Y-134000000D01*
X161494879Y-134035612D01*
X161482546Y-134129296D01*
X161480805Y-134133498D01*
X161479746Y-134140866D01*
X161458321Y-134187780D01*
X161432639Y-134249783D01*
X161426134Y-134258259D01*
X161420627Y-134270320D01*
X161387887Y-134308103D01*
X161353247Y-134353247D01*
X161339887Y-134363498D01*
X161327430Y-134377875D01*
X161288788Y-134402708D01*
X161249783Y-134432639D01*
X161228496Y-134441456D01*
X161207708Y-134454816D01*
X161168323Y-134466380D01*
X161129296Y-134482546D01*
X161100241Y-134486371D01*
X161071157Y-134494911D01*
X161035374Y-134494911D01*
X161000000Y-134499568D01*
X160964626Y-134494911D01*
X160928843Y-134494911D01*
X160899759Y-134486371D01*
X160870703Y-134482546D01*
X160831672Y-134466379D01*
X160792292Y-134454816D01*
X160771505Y-134441457D01*
X160750216Y-134432639D01*
X160711204Y-134402704D01*
X160672570Y-134377875D01*
X160660114Y-134363500D01*
X160646752Y-134353247D01*
X160612103Y-134308093D01*
X160579373Y-134270320D01*
X160573866Y-134258262D01*
X160567360Y-134249783D01*
X160541668Y-134187757D01*
X160520254Y-134140866D01*
X160519195Y-134133502D01*
X160517453Y-134129296D01*
X160505108Y-134035529D01*
X160500000Y-134000000D01*
X160505108Y-133964473D01*
X160517453Y-133870703D01*
X160519195Y-133866496D01*
X160520254Y-133859134D01*
X160541666Y-133812245D01*
X160567361Y-133750215D01*
X160573867Y-133741735D01*
X160579373Y-133729680D01*
X160612089Y-133691923D01*
X160646751Y-133646751D01*
X160660120Y-133636491D01*
X160672570Y-133622125D01*
X160711192Y-133597303D01*
X160750215Y-133567361D01*
X160771508Y-133558541D01*
X160792292Y-133545184D01*
X160831665Y-133533622D01*
X160870703Y-133517453D01*
X160899765Y-133513626D01*
X160928843Y-133505089D01*
X160964618Y-133505089D01*
X161000000Y-133500431D01*
X161035381Y-133505089D01*
G37*
G36*
X170035381Y-132505089D02*
G01*
X170071157Y-132505089D01*
X170100235Y-132513627D01*
X170129296Y-132517453D01*
X170168332Y-132533622D01*
X170207708Y-132545184D01*
X170228491Y-132558540D01*
X170249783Y-132567360D01*
X170288798Y-132597297D01*
X170327430Y-132622125D01*
X170339883Y-132636497D01*
X170353249Y-132646753D01*
X170387899Y-132691910D01*
X170420627Y-132729680D01*
X170426134Y-132741738D01*
X170432638Y-132750215D01*
X170458322Y-132812222D01*
X170479746Y-132859134D01*
X170480805Y-132866500D01*
X170482546Y-132870703D01*
X170494880Y-132964390D01*
X170500000Y-133000000D01*
X170494879Y-133035612D01*
X170482546Y-133129296D01*
X170480805Y-133133498D01*
X170479746Y-133140866D01*
X170458321Y-133187780D01*
X170432639Y-133249783D01*
X170426134Y-133258259D01*
X170420627Y-133270320D01*
X170387887Y-133308103D01*
X170353247Y-133353247D01*
X170339887Y-133363498D01*
X170327430Y-133377875D01*
X170288788Y-133402708D01*
X170249783Y-133432639D01*
X170228496Y-133441456D01*
X170207708Y-133454816D01*
X170168323Y-133466380D01*
X170129296Y-133482546D01*
X170100241Y-133486371D01*
X170071157Y-133494911D01*
X170035374Y-133494911D01*
X170000000Y-133499568D01*
X169964626Y-133494911D01*
X169928843Y-133494911D01*
X169899759Y-133486371D01*
X169870703Y-133482546D01*
X169831672Y-133466379D01*
X169792292Y-133454816D01*
X169771505Y-133441457D01*
X169750216Y-133432639D01*
X169711204Y-133402704D01*
X169672570Y-133377875D01*
X169660114Y-133363500D01*
X169646752Y-133353247D01*
X169612103Y-133308093D01*
X169579373Y-133270320D01*
X169573866Y-133258262D01*
X169567360Y-133249783D01*
X169541668Y-133187757D01*
X169520254Y-133140866D01*
X169519195Y-133133502D01*
X169517453Y-133129296D01*
X169505108Y-133035529D01*
X169500000Y-133000000D01*
X169505108Y-132964473D01*
X169517453Y-132870703D01*
X169519195Y-132866496D01*
X169520254Y-132859134D01*
X169541666Y-132812245D01*
X169567361Y-132750215D01*
X169573867Y-132741735D01*
X169579373Y-132729680D01*
X169612089Y-132691923D01*
X169646751Y-132646751D01*
X169660120Y-132636491D01*
X169672570Y-132622125D01*
X169711192Y-132597303D01*
X169750215Y-132567361D01*
X169771508Y-132558541D01*
X169792292Y-132545184D01*
X169831665Y-132533622D01*
X169870703Y-132517453D01*
X169899765Y-132513626D01*
X169928843Y-132505089D01*
X169964618Y-132505089D01*
X170000000Y-132500431D01*
X170035381Y-132505089D01*
G37*
G36*
X145041323Y-131704656D02*
G01*
X145083595Y-131704656D01*
X145131282Y-131714792D01*
X145178017Y-131720058D01*
X145212000Y-131731949D01*
X145247129Y-131739416D01*
X145297754Y-131761955D01*
X145347107Y-131779225D01*
X145372795Y-131795366D01*
X145399860Y-131807416D01*
X145450322Y-131844079D01*
X145498792Y-131874535D01*
X145516199Y-131891942D01*
X145535121Y-131905690D01*
X145581901Y-131957644D01*
X145625465Y-132001208D01*
X145635484Y-132017153D01*
X145646992Y-132029934D01*
X145686365Y-132098130D01*
X145720775Y-132152893D01*
X145725070Y-132165170D01*
X145730584Y-132174719D01*
X145758809Y-132261590D01*
X145779942Y-132321983D01*
X145780743Y-132329096D01*
X145782248Y-132333727D01*
X145795892Y-132463542D01*
X145800000Y-132500000D01*
X145795891Y-132536460D01*
X145782248Y-132666272D01*
X145780743Y-132670901D01*
X145779942Y-132678017D01*
X145758805Y-132738422D01*
X145730584Y-132825280D01*
X145725071Y-132834827D01*
X145720775Y-132847107D01*
X145686358Y-132901881D01*
X145646992Y-132970065D01*
X145635486Y-132982843D01*
X145625465Y-132998792D01*
X145581892Y-133042364D01*
X145535121Y-133094309D01*
X145516203Y-133108053D01*
X145498792Y-133125465D01*
X145450312Y-133155926D01*
X145399860Y-133192583D01*
X145372800Y-133204630D01*
X145347107Y-133220775D01*
X145297744Y-133238047D01*
X145247129Y-133260583D01*
X145212005Y-133268048D01*
X145178017Y-133279942D01*
X145131279Y-133285208D01*
X145083595Y-133295344D01*
X145041323Y-133295344D01*
X145000000Y-133300000D01*
X144958677Y-133295344D01*
X144916405Y-133295344D01*
X144868719Y-133285208D01*
X144821983Y-133279942D01*
X144787995Y-133268049D01*
X144752870Y-133260583D01*
X144702251Y-133238046D01*
X144652893Y-133220775D01*
X144627201Y-133204631D01*
X144600139Y-133192583D01*
X144549680Y-133155922D01*
X144501208Y-133125465D01*
X144483799Y-133108056D01*
X144464878Y-133094309D01*
X144418097Y-133042354D01*
X144374535Y-132998792D01*
X144364516Y-132982847D01*
X144353007Y-132970065D01*
X144313629Y-132901861D01*
X144279225Y-132847107D01*
X144274929Y-132834831D01*
X144269415Y-132825280D01*
X144241180Y-132738382D01*
X144220058Y-132678017D01*
X144219256Y-132670906D01*
X144217751Y-132666272D01*
X144204093Y-132536328D01*
X144200000Y-132500000D01*
X144204092Y-132463674D01*
X144217751Y-132333727D01*
X144219257Y-132329091D01*
X144220058Y-132321983D01*
X144241176Y-132261630D01*
X144269415Y-132174719D01*
X144274930Y-132165165D01*
X144279225Y-132152893D01*
X144313622Y-132098149D01*
X144353007Y-132029934D01*
X144364518Y-132017149D01*
X144374535Y-132001208D01*
X144418088Y-131957654D01*
X144464878Y-131905690D01*
X144483802Y-131891940D01*
X144501208Y-131874535D01*
X144549674Y-131844081D01*
X144600140Y-131807416D01*
X144627204Y-131795365D01*
X144652893Y-131779225D01*
X144702242Y-131761956D01*
X144752870Y-131739416D01*
X144788001Y-131731948D01*
X144821983Y-131720058D01*
X144868717Y-131714792D01*
X144916405Y-131704656D01*
X144958677Y-131704656D01*
X145000000Y-131700000D01*
X145041323Y-131704656D01*
G37*
G36*
X159035381Y-131505089D02*
G01*
X159071157Y-131505089D01*
X159100235Y-131513627D01*
X159129296Y-131517453D01*
X159168332Y-131533622D01*
X159207708Y-131545184D01*
X159228491Y-131558540D01*
X159249783Y-131567360D01*
X159288798Y-131597297D01*
X159327430Y-131622125D01*
X159339883Y-131636497D01*
X159353249Y-131646753D01*
X159387899Y-131691910D01*
X159420627Y-131729680D01*
X159426134Y-131741738D01*
X159432638Y-131750215D01*
X159458322Y-131812222D01*
X159479746Y-131859134D01*
X159480805Y-131866500D01*
X159482546Y-131870703D01*
X159494880Y-131964390D01*
X159500000Y-132000000D01*
X159494879Y-132035612D01*
X159482546Y-132129296D01*
X159480805Y-132133498D01*
X159479746Y-132140866D01*
X159458321Y-132187780D01*
X159432639Y-132249783D01*
X159426134Y-132258259D01*
X159420627Y-132270320D01*
X159387887Y-132308103D01*
X159353247Y-132353247D01*
X159339887Y-132363498D01*
X159327430Y-132377875D01*
X159288788Y-132402708D01*
X159249783Y-132432639D01*
X159228496Y-132441456D01*
X159207708Y-132454816D01*
X159168323Y-132466380D01*
X159129296Y-132482546D01*
X159100241Y-132486371D01*
X159071157Y-132494911D01*
X159035374Y-132494911D01*
X159000000Y-132499568D01*
X158964626Y-132494911D01*
X158928843Y-132494911D01*
X158899759Y-132486371D01*
X158870703Y-132482546D01*
X158831672Y-132466379D01*
X158792292Y-132454816D01*
X158771505Y-132441457D01*
X158750216Y-132432639D01*
X158711204Y-132402704D01*
X158672570Y-132377875D01*
X158660114Y-132363500D01*
X158646752Y-132353247D01*
X158612103Y-132308093D01*
X158579373Y-132270320D01*
X158573866Y-132258262D01*
X158567360Y-132249783D01*
X158541668Y-132187757D01*
X158520254Y-132140866D01*
X158519195Y-132133502D01*
X158517453Y-132129296D01*
X158505108Y-132035529D01*
X158500000Y-132000000D01*
X158505108Y-131964473D01*
X158517453Y-131870703D01*
X158519195Y-131866496D01*
X158520254Y-131859134D01*
X158541666Y-131812245D01*
X158567361Y-131750215D01*
X158573867Y-131741735D01*
X158579373Y-131729680D01*
X158612089Y-131691923D01*
X158646751Y-131646751D01*
X158660120Y-131636491D01*
X158672570Y-131622125D01*
X158711192Y-131597303D01*
X158750215Y-131567361D01*
X158771508Y-131558541D01*
X158792292Y-131545184D01*
X158831665Y-131533622D01*
X158870703Y-131517453D01*
X158899765Y-131513626D01*
X158928843Y-131505089D01*
X158964618Y-131505089D01*
X159000000Y-131500431D01*
X159035381Y-131505089D01*
G37*
G36*
X164035381Y-129505089D02*
G01*
X164071157Y-129505089D01*
X164100235Y-129513627D01*
X164129296Y-129517453D01*
X164168332Y-129533622D01*
X164207708Y-129545184D01*
X164228491Y-129558540D01*
X164249783Y-129567360D01*
X164288798Y-129597297D01*
X164327430Y-129622125D01*
X164339883Y-129636497D01*
X164353249Y-129646753D01*
X164387899Y-129691910D01*
X164420627Y-129729680D01*
X164426134Y-129741738D01*
X164432638Y-129750215D01*
X164458322Y-129812222D01*
X164479746Y-129859134D01*
X164480805Y-129866500D01*
X164482546Y-129870703D01*
X164494880Y-129964390D01*
X164500000Y-130000000D01*
X164494879Y-130035612D01*
X164482546Y-130129296D01*
X164480805Y-130133498D01*
X164479746Y-130140866D01*
X164458321Y-130187780D01*
X164432639Y-130249783D01*
X164426134Y-130258259D01*
X164420627Y-130270320D01*
X164387887Y-130308103D01*
X164353247Y-130353247D01*
X164339887Y-130363498D01*
X164327430Y-130377875D01*
X164288788Y-130402708D01*
X164249783Y-130432639D01*
X164228496Y-130441456D01*
X164207708Y-130454816D01*
X164168323Y-130466380D01*
X164129296Y-130482546D01*
X164100241Y-130486371D01*
X164071157Y-130494911D01*
X164035374Y-130494911D01*
X164000000Y-130499568D01*
X163964626Y-130494911D01*
X163928843Y-130494911D01*
X163899759Y-130486371D01*
X163870703Y-130482546D01*
X163831672Y-130466379D01*
X163792292Y-130454816D01*
X163771505Y-130441457D01*
X163750216Y-130432639D01*
X163711204Y-130402704D01*
X163672570Y-130377875D01*
X163660114Y-130363500D01*
X163646752Y-130353247D01*
X163612103Y-130308093D01*
X163579373Y-130270320D01*
X163573866Y-130258262D01*
X163567360Y-130249783D01*
X163541668Y-130187757D01*
X163520254Y-130140866D01*
X163519195Y-130133502D01*
X163517453Y-130129296D01*
X163505108Y-130035529D01*
X163500000Y-130000000D01*
X163505108Y-129964473D01*
X163517453Y-129870703D01*
X163519195Y-129866496D01*
X163520254Y-129859134D01*
X163541666Y-129812245D01*
X163567361Y-129750215D01*
X163573867Y-129741735D01*
X163579373Y-129729680D01*
X163612089Y-129691923D01*
X163646751Y-129646751D01*
X163660120Y-129636491D01*
X163672570Y-129622125D01*
X163711192Y-129597303D01*
X163750215Y-129567361D01*
X163771508Y-129558541D01*
X163792292Y-129545184D01*
X163831665Y-129533622D01*
X163870703Y-129517453D01*
X163899765Y-129513626D01*
X163928843Y-129505089D01*
X163964618Y-129505089D01*
X164000000Y-129500431D01*
X164035381Y-129505089D01*
G37*
G36*
X116541323Y-128204656D02*
G01*
X116583595Y-128204656D01*
X116631282Y-128214792D01*
X116678017Y-128220058D01*
X116712000Y-128231949D01*
X116747129Y-128239416D01*
X116797754Y-128261955D01*
X116847107Y-128279225D01*
X116872795Y-128295366D01*
X116899860Y-128307416D01*
X116950322Y-128344079D01*
X116998792Y-128374535D01*
X117016199Y-128391942D01*
X117035121Y-128405690D01*
X117081901Y-128457644D01*
X117125465Y-128501208D01*
X117135484Y-128517153D01*
X117146992Y-128529934D01*
X117186365Y-128598130D01*
X117220775Y-128652893D01*
X117225070Y-128665170D01*
X117230584Y-128674719D01*
X117258809Y-128761590D01*
X117279942Y-128821983D01*
X117280743Y-128829096D01*
X117282248Y-128833727D01*
X117295892Y-128963542D01*
X117300000Y-129000000D01*
X117295891Y-129036460D01*
X117282248Y-129166272D01*
X117280743Y-129170901D01*
X117279942Y-129178017D01*
X117258805Y-129238422D01*
X117230584Y-129325280D01*
X117225071Y-129334827D01*
X117220775Y-129347107D01*
X117186358Y-129401881D01*
X117146992Y-129470065D01*
X117135486Y-129482843D01*
X117125465Y-129498792D01*
X117081892Y-129542364D01*
X117035121Y-129594309D01*
X117016203Y-129608053D01*
X116998792Y-129625465D01*
X116950312Y-129655926D01*
X116899860Y-129692583D01*
X116872800Y-129704630D01*
X116847107Y-129720775D01*
X116797744Y-129738047D01*
X116747129Y-129760583D01*
X116712005Y-129768048D01*
X116678017Y-129779942D01*
X116631279Y-129785208D01*
X116583595Y-129795344D01*
X116541323Y-129795344D01*
X116500000Y-129800000D01*
X116458677Y-129795344D01*
X116416405Y-129795344D01*
X116368719Y-129785208D01*
X116321983Y-129779942D01*
X116287995Y-129768049D01*
X116252870Y-129760583D01*
X116202251Y-129738046D01*
X116152893Y-129720775D01*
X116127201Y-129704631D01*
X116100139Y-129692583D01*
X116049680Y-129655922D01*
X116001208Y-129625465D01*
X115983799Y-129608056D01*
X115964878Y-129594309D01*
X115918097Y-129542354D01*
X115874535Y-129498792D01*
X115864516Y-129482847D01*
X115853007Y-129470065D01*
X115813629Y-129401861D01*
X115779225Y-129347107D01*
X115774929Y-129334831D01*
X115769415Y-129325280D01*
X115741180Y-129238382D01*
X115720058Y-129178017D01*
X115719256Y-129170906D01*
X115717751Y-129166272D01*
X115704093Y-129036328D01*
X115700000Y-129000000D01*
X115704092Y-128963674D01*
X115717751Y-128833727D01*
X115719257Y-128829091D01*
X115720058Y-128821983D01*
X115741176Y-128761630D01*
X115769415Y-128674719D01*
X115774930Y-128665165D01*
X115779225Y-128652893D01*
X115813622Y-128598149D01*
X115853007Y-128529934D01*
X115864518Y-128517149D01*
X115874535Y-128501208D01*
X115918088Y-128457654D01*
X115964878Y-128405690D01*
X115983802Y-128391940D01*
X116001208Y-128374535D01*
X116049674Y-128344081D01*
X116100140Y-128307416D01*
X116127204Y-128295365D01*
X116152893Y-128279225D01*
X116202242Y-128261956D01*
X116252870Y-128239416D01*
X116288001Y-128231948D01*
X116321983Y-128220058D01*
X116368717Y-128214792D01*
X116416405Y-128204656D01*
X116458677Y-128204656D01*
X116500000Y-128200000D01*
X116541323Y-128204656D01*
G37*
G36*
X120800000Y-129800000D02*
G01*
X119200000Y-129800000D01*
X119200000Y-128200000D01*
X120800000Y-128200000D01*
X120800000Y-129800000D01*
G37*
G36*
X145800000Y-129800000D02*
G01*
X144200000Y-129800000D01*
X144200000Y-128200000D01*
X145800000Y-128200000D01*
X145800000Y-129800000D01*
G37*
G36*
X156035381Y-128505089D02*
G01*
X156071157Y-128505089D01*
X156100235Y-128513627D01*
X156129296Y-128517453D01*
X156168332Y-128533622D01*
X156207708Y-128545184D01*
X156228491Y-128558540D01*
X156249783Y-128567360D01*
X156288798Y-128597297D01*
X156327430Y-128622125D01*
X156339883Y-128636497D01*
X156353249Y-128646753D01*
X156387899Y-128691910D01*
X156420627Y-128729680D01*
X156426134Y-128741738D01*
X156432638Y-128750215D01*
X156458322Y-128812222D01*
X156479746Y-128859134D01*
X156480805Y-128866500D01*
X156482546Y-128870703D01*
X156494880Y-128964390D01*
X156500000Y-129000000D01*
X156494879Y-129035612D01*
X156482546Y-129129296D01*
X156480805Y-129133498D01*
X156479746Y-129140866D01*
X156458321Y-129187780D01*
X156432639Y-129249783D01*
X156426134Y-129258259D01*
X156420627Y-129270320D01*
X156387887Y-129308103D01*
X156353247Y-129353247D01*
X156339887Y-129363498D01*
X156327430Y-129377875D01*
X156288788Y-129402708D01*
X156249783Y-129432639D01*
X156228496Y-129441456D01*
X156207708Y-129454816D01*
X156168323Y-129466380D01*
X156129296Y-129482546D01*
X156100241Y-129486371D01*
X156071157Y-129494911D01*
X156035374Y-129494911D01*
X156000000Y-129499568D01*
X155964626Y-129494911D01*
X155928843Y-129494911D01*
X155899759Y-129486371D01*
X155870703Y-129482546D01*
X155831672Y-129466379D01*
X155792292Y-129454816D01*
X155771505Y-129441457D01*
X155750216Y-129432639D01*
X155711204Y-129402704D01*
X155672570Y-129377875D01*
X155660114Y-129363500D01*
X155646752Y-129353247D01*
X155612103Y-129308093D01*
X155579373Y-129270320D01*
X155573866Y-129258262D01*
X155567360Y-129249783D01*
X155541668Y-129187757D01*
X155520254Y-129140866D01*
X155519195Y-129133502D01*
X155517453Y-129129296D01*
X155505108Y-129035529D01*
X155500000Y-129000000D01*
X155505108Y-128964473D01*
X155517453Y-128870703D01*
X155519195Y-128866496D01*
X155520254Y-128859134D01*
X155541666Y-128812245D01*
X155567361Y-128750215D01*
X155573867Y-128741735D01*
X155579373Y-128729680D01*
X155612089Y-128691923D01*
X155646751Y-128646751D01*
X155660120Y-128636491D01*
X155672570Y-128622125D01*
X155711192Y-128597303D01*
X155750215Y-128567361D01*
X155771508Y-128558541D01*
X155792292Y-128545184D01*
X155831665Y-128533622D01*
X155870703Y-128517453D01*
X155899765Y-128513626D01*
X155928843Y-128505089D01*
X155964618Y-128505089D01*
X156000000Y-128500431D01*
X156035381Y-128505089D01*
G37*
G36*
X169035381Y-128505089D02*
G01*
X169071157Y-128505089D01*
X169100235Y-128513627D01*
X169129296Y-128517453D01*
X169168332Y-128533622D01*
X169207708Y-128545184D01*
X169228491Y-128558540D01*
X169249783Y-128567360D01*
X169288798Y-128597297D01*
X169327430Y-128622125D01*
X169339883Y-128636497D01*
X169353249Y-128646753D01*
X169387899Y-128691910D01*
X169420627Y-128729680D01*
X169426134Y-128741738D01*
X169432638Y-128750215D01*
X169458322Y-128812222D01*
X169479746Y-128859134D01*
X169480805Y-128866500D01*
X169482546Y-128870703D01*
X169494880Y-128964390D01*
X169500000Y-129000000D01*
X169494879Y-129035612D01*
X169482546Y-129129296D01*
X169480805Y-129133498D01*
X169479746Y-129140866D01*
X169458321Y-129187780D01*
X169432639Y-129249783D01*
X169426134Y-129258259D01*
X169420627Y-129270320D01*
X169387887Y-129308103D01*
X169353247Y-129353247D01*
X169339887Y-129363498D01*
X169327430Y-129377875D01*
X169288788Y-129402708D01*
X169249783Y-129432639D01*
X169228496Y-129441456D01*
X169207708Y-129454816D01*
X169168323Y-129466380D01*
X169129296Y-129482546D01*
X169100241Y-129486371D01*
X169071157Y-129494911D01*
X169035374Y-129494911D01*
X169000000Y-129499568D01*
X168964626Y-129494911D01*
X168928843Y-129494911D01*
X168899759Y-129486371D01*
X168870703Y-129482546D01*
X168831672Y-129466379D01*
X168792292Y-129454816D01*
X168771505Y-129441457D01*
X168750216Y-129432639D01*
X168711204Y-129402704D01*
X168672570Y-129377875D01*
X168660114Y-129363500D01*
X168646752Y-129353247D01*
X168612103Y-129308093D01*
X168579373Y-129270320D01*
X168573866Y-129258262D01*
X168567360Y-129249783D01*
X168541668Y-129187757D01*
X168520254Y-129140866D01*
X168519195Y-129133502D01*
X168517453Y-129129296D01*
X168505108Y-129035529D01*
X168500000Y-129000000D01*
X168505108Y-128964473D01*
X168517453Y-128870703D01*
X168519195Y-128866496D01*
X168520254Y-128859134D01*
X168541666Y-128812245D01*
X168567361Y-128750215D01*
X168573867Y-128741735D01*
X168579373Y-128729680D01*
X168612089Y-128691923D01*
X168646751Y-128646751D01*
X168660120Y-128636491D01*
X168672570Y-128622125D01*
X168711192Y-128597303D01*
X168750215Y-128567361D01*
X168771508Y-128558541D01*
X168792292Y-128545184D01*
X168831665Y-128533622D01*
X168870703Y-128517453D01*
X168899765Y-128513626D01*
X168928843Y-128505089D01*
X168964618Y-128505089D01*
X169000000Y-128500431D01*
X169035381Y-128505089D01*
G37*
G36*
X155041323Y-124704656D02*
G01*
X155083595Y-124704656D01*
X155131282Y-124714792D01*
X155178017Y-124720058D01*
X155212000Y-124731949D01*
X155247129Y-124739416D01*
X155297754Y-124761955D01*
X155347107Y-124779225D01*
X155372795Y-124795366D01*
X155399860Y-124807416D01*
X155450322Y-124844079D01*
X155498792Y-124874535D01*
X155516199Y-124891942D01*
X155535121Y-124905690D01*
X155581901Y-124957644D01*
X155625465Y-125001208D01*
X155635484Y-125017153D01*
X155646992Y-125029934D01*
X155686365Y-125098130D01*
X155720775Y-125152893D01*
X155725070Y-125165170D01*
X155730584Y-125174719D01*
X155758809Y-125261590D01*
X155779942Y-125321983D01*
X155780743Y-125329096D01*
X155782248Y-125333727D01*
X155795892Y-125463542D01*
X155800000Y-125500000D01*
X155795891Y-125536460D01*
X155782248Y-125666272D01*
X155780743Y-125670901D01*
X155779942Y-125678017D01*
X155758805Y-125738422D01*
X155730584Y-125825280D01*
X155725071Y-125834827D01*
X155720775Y-125847107D01*
X155686358Y-125901881D01*
X155646992Y-125970065D01*
X155635486Y-125982843D01*
X155625465Y-125998792D01*
X155581892Y-126042364D01*
X155535121Y-126094309D01*
X155516203Y-126108053D01*
X155498792Y-126125465D01*
X155450312Y-126155926D01*
X155399860Y-126192583D01*
X155372800Y-126204630D01*
X155347107Y-126220775D01*
X155297744Y-126238047D01*
X155247129Y-126260583D01*
X155212005Y-126268048D01*
X155178017Y-126279942D01*
X155131279Y-126285208D01*
X155083595Y-126295344D01*
X155041323Y-126295344D01*
X155000000Y-126300000D01*
X154958677Y-126295344D01*
X154916405Y-126295344D01*
X154868719Y-126285208D01*
X154821983Y-126279942D01*
X154787995Y-126268049D01*
X154752870Y-126260583D01*
X154702251Y-126238046D01*
X154652893Y-126220775D01*
X154627201Y-126204631D01*
X154600139Y-126192583D01*
X154549680Y-126155922D01*
X154501208Y-126125465D01*
X154483799Y-126108056D01*
X154464878Y-126094309D01*
X154418097Y-126042354D01*
X154374535Y-125998792D01*
X154364516Y-125982847D01*
X154353007Y-125970065D01*
X154313629Y-125901861D01*
X154279225Y-125847107D01*
X154274929Y-125834831D01*
X154269415Y-125825280D01*
X154241180Y-125738382D01*
X154220058Y-125678017D01*
X154219256Y-125670906D01*
X154217751Y-125666272D01*
X154204093Y-125536328D01*
X154200000Y-125500000D01*
X154204092Y-125463674D01*
X154217751Y-125333727D01*
X154219257Y-125329091D01*
X154220058Y-125321983D01*
X154241176Y-125261630D01*
X154269415Y-125174719D01*
X154274930Y-125165165D01*
X154279225Y-125152893D01*
X154313622Y-125098149D01*
X154353007Y-125029934D01*
X154364518Y-125017149D01*
X154374535Y-125001208D01*
X154418088Y-124957654D01*
X154464878Y-124905690D01*
X154483802Y-124891940D01*
X154501208Y-124874535D01*
X154549674Y-124844081D01*
X154600140Y-124807416D01*
X154627204Y-124795365D01*
X154652893Y-124779225D01*
X154702242Y-124761956D01*
X154752870Y-124739416D01*
X154788001Y-124731948D01*
X154821983Y-124720058D01*
X154868717Y-124714792D01*
X154916405Y-124704656D01*
X154958677Y-124704656D01*
X155000000Y-124700000D01*
X155041323Y-124704656D01*
G37*
G36*
X181208315Y-124154093D02*
G01*
X181371742Y-124186601D01*
X181525687Y-124250367D01*
X181664234Y-124342941D01*
X181782059Y-124460766D01*
X181874633Y-124599313D01*
X181938399Y-124753258D01*
X181970907Y-124916685D01*
X181970907Y-125083315D01*
X181938399Y-125246742D01*
X181874633Y-125400687D01*
X181782059Y-125539234D01*
X181664234Y-125657059D01*
X181525687Y-125749633D01*
X181371742Y-125813399D01*
X181208315Y-125845907D01*
X180875000Y-125850000D01*
X180791685Y-125845907D01*
X180628258Y-125813399D01*
X180474313Y-125749633D01*
X180335766Y-125657059D01*
X180217941Y-125539234D01*
X180125367Y-125400687D01*
X180061601Y-125246742D01*
X180029093Y-125083315D01*
X180029093Y-124916685D01*
X180061601Y-124753258D01*
X180125367Y-124599313D01*
X180217941Y-124460766D01*
X180335766Y-124342941D01*
X180474313Y-124250367D01*
X180628258Y-124186601D01*
X180791685Y-124154093D01*
X181125000Y-124150000D01*
X181208315Y-124154093D01*
G37*
G36*
X181208315Y-121654093D02*
G01*
X181371742Y-121686601D01*
X181525687Y-121750367D01*
X181664234Y-121842941D01*
X181782059Y-121960766D01*
X181874633Y-122099313D01*
X181938399Y-122253258D01*
X181970907Y-122416685D01*
X181970907Y-122583315D01*
X181938399Y-122746742D01*
X181874633Y-122900687D01*
X181782059Y-123039234D01*
X181664234Y-123157059D01*
X181525687Y-123249633D01*
X181371742Y-123313399D01*
X181208315Y-123345907D01*
X180875000Y-123350000D01*
X180791685Y-123345907D01*
X180628258Y-123313399D01*
X180474313Y-123249633D01*
X180335766Y-123157059D01*
X180217941Y-123039234D01*
X180125367Y-122900687D01*
X180061601Y-122746742D01*
X180029093Y-122583315D01*
X180029093Y-122416685D01*
X180061601Y-122253258D01*
X180125367Y-122099313D01*
X180217941Y-121960766D01*
X180335766Y-121842941D01*
X180474313Y-121750367D01*
X180628258Y-121686601D01*
X180791685Y-121654093D01*
X181125000Y-121650000D01*
X181208315Y-121654093D01*
G37*
G36*
X122541323Y-121204656D02*
G01*
X122583595Y-121204656D01*
X122631282Y-121214792D01*
X122678017Y-121220058D01*
X122712000Y-121231949D01*
X122747129Y-121239416D01*
X122797754Y-121261955D01*
X122847107Y-121279225D01*
X122872795Y-121295366D01*
X122899860Y-121307416D01*
X122950322Y-121344079D01*
X122998792Y-121374535D01*
X123016199Y-121391942D01*
X123035121Y-121405690D01*
X123081901Y-121457644D01*
X123125465Y-121501208D01*
X123135484Y-121517153D01*
X123146992Y-121529934D01*
X123186365Y-121598130D01*
X123220775Y-121652893D01*
X123225070Y-121665170D01*
X123230584Y-121674719D01*
X123258809Y-121761590D01*
X123279942Y-121821983D01*
X123280743Y-121829096D01*
X123282248Y-121833727D01*
X123295892Y-121963542D01*
X123300000Y-122000000D01*
X123295891Y-122036460D01*
X123282248Y-122166272D01*
X123280743Y-122170901D01*
X123279942Y-122178017D01*
X123258805Y-122238422D01*
X123230584Y-122325280D01*
X123225071Y-122334827D01*
X123220775Y-122347107D01*
X123186358Y-122401881D01*
X123146992Y-122470065D01*
X123135486Y-122482843D01*
X123125465Y-122498792D01*
X123081892Y-122542364D01*
X123035121Y-122594309D01*
X123016203Y-122608053D01*
X122998792Y-122625465D01*
X122950312Y-122655926D01*
X122899860Y-122692583D01*
X122872800Y-122704630D01*
X122847107Y-122720775D01*
X122797744Y-122738047D01*
X122747129Y-122760583D01*
X122712005Y-122768048D01*
X122678017Y-122779942D01*
X122631279Y-122785208D01*
X122583595Y-122795344D01*
X122541323Y-122795344D01*
X122500000Y-122800000D01*
X122458677Y-122795344D01*
X122416405Y-122795344D01*
X122368719Y-122785208D01*
X122321983Y-122779942D01*
X122287995Y-122768049D01*
X122252870Y-122760583D01*
X122202251Y-122738046D01*
X122152893Y-122720775D01*
X122127201Y-122704631D01*
X122100139Y-122692583D01*
X122049680Y-122655922D01*
X122001208Y-122625465D01*
X121983799Y-122608056D01*
X121964878Y-122594309D01*
X121918097Y-122542354D01*
X121874535Y-122498792D01*
X121864516Y-122482847D01*
X121853007Y-122470065D01*
X121813629Y-122401861D01*
X121779225Y-122347107D01*
X121774929Y-122334831D01*
X121769415Y-122325280D01*
X121741180Y-122238382D01*
X121720058Y-122178017D01*
X121719256Y-122170906D01*
X121717751Y-122166272D01*
X121704093Y-122036328D01*
X121700000Y-122000000D01*
X121704092Y-121963674D01*
X121717751Y-121833727D01*
X121719257Y-121829091D01*
X121720058Y-121821983D01*
X121741176Y-121761630D01*
X121769415Y-121674719D01*
X121774930Y-121665165D01*
X121779225Y-121652893D01*
X121813622Y-121598149D01*
X121853007Y-121529934D01*
X121864518Y-121517149D01*
X121874535Y-121501208D01*
X121918088Y-121457654D01*
X121964878Y-121405690D01*
X121983802Y-121391940D01*
X122001208Y-121374535D01*
X122049674Y-121344081D01*
X122100140Y-121307416D01*
X122127204Y-121295365D01*
X122152893Y-121279225D01*
X122202242Y-121261956D01*
X122252870Y-121239416D01*
X122288001Y-121231948D01*
X122321983Y-121220058D01*
X122368717Y-121214792D01*
X122416405Y-121204656D01*
X122458677Y-121204656D01*
X122500000Y-121200000D01*
X122541323Y-121204656D01*
G37*
G36*
X126800000Y-122800000D02*
G01*
X125200000Y-122800000D01*
X125200000Y-121200000D01*
X126800000Y-121200000D01*
X126800000Y-122800000D01*
G37*
G36*
X155800000Y-122800000D02*
G01*
X154200000Y-122800000D01*
X154200000Y-121200000D01*
X155800000Y-121200000D01*
X155800000Y-122800000D01*
G37*
G36*
X144541323Y-120204656D02*
G01*
X144583595Y-120204656D01*
X144631282Y-120214792D01*
X144678017Y-120220058D01*
X144712000Y-120231949D01*
X144747129Y-120239416D01*
X144797754Y-120261955D01*
X144847107Y-120279225D01*
X144872795Y-120295366D01*
X144899860Y-120307416D01*
X144950322Y-120344079D01*
X144998792Y-120374535D01*
X145016199Y-120391942D01*
X145035121Y-120405690D01*
X145081901Y-120457644D01*
X145125465Y-120501208D01*
X145135484Y-120517153D01*
X145146992Y-120529934D01*
X145186365Y-120598130D01*
X145220775Y-120652893D01*
X145225070Y-120665170D01*
X145230584Y-120674719D01*
X145258809Y-120761590D01*
X145279942Y-120821983D01*
X145280743Y-120829096D01*
X145282248Y-120833727D01*
X145295892Y-120963542D01*
X145300000Y-121000000D01*
X145295891Y-121036460D01*
X145282248Y-121166272D01*
X145280743Y-121170901D01*
X145279942Y-121178017D01*
X145258805Y-121238422D01*
X145230584Y-121325280D01*
X145225071Y-121334827D01*
X145220775Y-121347107D01*
X145186358Y-121401881D01*
X145146992Y-121470065D01*
X145135486Y-121482843D01*
X145125465Y-121498792D01*
X145081892Y-121542364D01*
X145035121Y-121594309D01*
X145016203Y-121608053D01*
X144998792Y-121625465D01*
X144950312Y-121655926D01*
X144899860Y-121692583D01*
X144872800Y-121704630D01*
X144847107Y-121720775D01*
X144797744Y-121738047D01*
X144747129Y-121760583D01*
X144712005Y-121768048D01*
X144678017Y-121779942D01*
X144631279Y-121785208D01*
X144583595Y-121795344D01*
X144541323Y-121795344D01*
X144500000Y-121800000D01*
X144458677Y-121795344D01*
X144416405Y-121795344D01*
X144368719Y-121785208D01*
X144321983Y-121779942D01*
X144287995Y-121768049D01*
X144252870Y-121760583D01*
X144202251Y-121738046D01*
X144152893Y-121720775D01*
X144127201Y-121704631D01*
X144100139Y-121692583D01*
X144049680Y-121655922D01*
X144001208Y-121625465D01*
X143983799Y-121608056D01*
X143964878Y-121594309D01*
X143918097Y-121542354D01*
X143874535Y-121498792D01*
X143864516Y-121482847D01*
X143853007Y-121470065D01*
X143813629Y-121401861D01*
X143779225Y-121347107D01*
X143774929Y-121334831D01*
X143769415Y-121325280D01*
X143741180Y-121238382D01*
X143720058Y-121178017D01*
X143719256Y-121170906D01*
X143717751Y-121166272D01*
X143704093Y-121036328D01*
X143700000Y-121000000D01*
X143704092Y-120963674D01*
X143717751Y-120833727D01*
X143719257Y-120829091D01*
X143720058Y-120821983D01*
X143741176Y-120761630D01*
X143769415Y-120674719D01*
X143774930Y-120665165D01*
X143779225Y-120652893D01*
X143813622Y-120598149D01*
X143853007Y-120529934D01*
X143864518Y-120517149D01*
X143874535Y-120501208D01*
X143918088Y-120457654D01*
X143964878Y-120405690D01*
X143983802Y-120391940D01*
X144001208Y-120374535D01*
X144049674Y-120344081D01*
X144100140Y-120307416D01*
X144127204Y-120295365D01*
X144152893Y-120279225D01*
X144202242Y-120261956D01*
X144252870Y-120239416D01*
X144288001Y-120231948D01*
X144321983Y-120220058D01*
X144368717Y-120214792D01*
X144416405Y-120204656D01*
X144458677Y-120204656D01*
X144500000Y-120200000D01*
X144541323Y-120204656D01*
G37*
G36*
X148800000Y-121800000D02*
G01*
X147200000Y-121800000D01*
X147200000Y-120200000D01*
X148800000Y-120200000D01*
X148800000Y-121800000D01*
G37*
G36*
X181208315Y-119154093D02*
G01*
X181371742Y-119186601D01*
X181525687Y-119250367D01*
X181664234Y-119342941D01*
X181782059Y-119460766D01*
X181874633Y-119599313D01*
X181938399Y-119753258D01*
X181970907Y-119916685D01*
X181970907Y-120083315D01*
X181938399Y-120246742D01*
X181874633Y-120400687D01*
X181782059Y-120539234D01*
X181664234Y-120657059D01*
X181525687Y-120749633D01*
X181371742Y-120813399D01*
X181208315Y-120845907D01*
X180875000Y-120850000D01*
X180791685Y-120845907D01*
X180628258Y-120813399D01*
X180474313Y-120749633D01*
X180335766Y-120657059D01*
X180217941Y-120539234D01*
X180125367Y-120400687D01*
X180061601Y-120246742D01*
X180029093Y-120083315D01*
X180029093Y-119916685D01*
X180061601Y-119753258D01*
X180125367Y-119599313D01*
X180217941Y-119460766D01*
X180335766Y-119342941D01*
X180474313Y-119250367D01*
X180628258Y-119186601D01*
X180791685Y-119154093D01*
X181125000Y-119150000D01*
X181208315Y-119154093D01*
G37*
G36*
X181208315Y-116654093D02*
G01*
X181371742Y-116686601D01*
X181525687Y-116750367D01*
X181664234Y-116842941D01*
X181782059Y-116960766D01*
X181874633Y-117099313D01*
X181938399Y-117253258D01*
X181970907Y-117416685D01*
X181970907Y-117583315D01*
X181938399Y-117746742D01*
X181874633Y-117900687D01*
X181782059Y-118039234D01*
X181664234Y-118157059D01*
X181525687Y-118249633D01*
X181371742Y-118313399D01*
X181208315Y-118345907D01*
X180875000Y-118350000D01*
X180791685Y-118345907D01*
X180628258Y-118313399D01*
X180474313Y-118249633D01*
X180335766Y-118157059D01*
X180217941Y-118039234D01*
X180125367Y-117900687D01*
X180061601Y-117746742D01*
X180029093Y-117583315D01*
X180029093Y-117416685D01*
X180061601Y-117253258D01*
X180125367Y-117099313D01*
X180217941Y-116960766D01*
X180335766Y-116842941D01*
X180474313Y-116750367D01*
X180628258Y-116686601D01*
X180791685Y-116654093D01*
X181125000Y-116650000D01*
X181208315Y-116654093D01*
G37*
G36*
X129541323Y-115204656D02*
G01*
X129583595Y-115204656D01*
X129631282Y-115214792D01*
X129678017Y-115220058D01*
X129712000Y-115231949D01*
X129747129Y-115239416D01*
X129797754Y-115261955D01*
X129847107Y-115279225D01*
X129872795Y-115295366D01*
X129899860Y-115307416D01*
X129950322Y-115344079D01*
X129998792Y-115374535D01*
X130016199Y-115391942D01*
X130035121Y-115405690D01*
X130081901Y-115457644D01*
X130125465Y-115501208D01*
X130135484Y-115517153D01*
X130146992Y-115529934D01*
X130186365Y-115598130D01*
X130220775Y-115652893D01*
X130225070Y-115665170D01*
X130230584Y-115674719D01*
X130258809Y-115761590D01*
X130279942Y-115821983D01*
X130280743Y-115829096D01*
X130282248Y-115833727D01*
X130295892Y-115963542D01*
X130300000Y-116000000D01*
X130295891Y-116036460D01*
X130282248Y-116166272D01*
X130280743Y-116170901D01*
X130279942Y-116178017D01*
X130258805Y-116238422D01*
X130230584Y-116325280D01*
X130225071Y-116334827D01*
X130220775Y-116347107D01*
X130186358Y-116401881D01*
X130146992Y-116470065D01*
X130135486Y-116482843D01*
X130125465Y-116498792D01*
X130081892Y-116542364D01*
X130035121Y-116594309D01*
X130016203Y-116608053D01*
X129998792Y-116625465D01*
X129950312Y-116655926D01*
X129899860Y-116692583D01*
X129872800Y-116704630D01*
X129847107Y-116720775D01*
X129797744Y-116738047D01*
X129747129Y-116760583D01*
X129712005Y-116768048D01*
X129678017Y-116779942D01*
X129631279Y-116785208D01*
X129583595Y-116795344D01*
X129541323Y-116795344D01*
X129500000Y-116800000D01*
X129458677Y-116795344D01*
X129416405Y-116795344D01*
X129368719Y-116785208D01*
X129321983Y-116779942D01*
X129287995Y-116768049D01*
X129252870Y-116760583D01*
X129202251Y-116738046D01*
X129152893Y-116720775D01*
X129127201Y-116704631D01*
X129100139Y-116692583D01*
X129049680Y-116655922D01*
X129001208Y-116625465D01*
X128983799Y-116608056D01*
X128964878Y-116594309D01*
X128918097Y-116542354D01*
X128874535Y-116498792D01*
X128864516Y-116482847D01*
X128853007Y-116470065D01*
X128813629Y-116401861D01*
X128779225Y-116347107D01*
X128774929Y-116334831D01*
X128769415Y-116325280D01*
X128741180Y-116238382D01*
X128720058Y-116178017D01*
X128719256Y-116170906D01*
X128717751Y-116166272D01*
X128704093Y-116036328D01*
X128700000Y-116000000D01*
X128704092Y-115963674D01*
X128717751Y-115833727D01*
X128719257Y-115829091D01*
X128720058Y-115821983D01*
X128741176Y-115761630D01*
X128769415Y-115674719D01*
X128774930Y-115665165D01*
X128779225Y-115652893D01*
X128813622Y-115598149D01*
X128853007Y-115529934D01*
X128864518Y-115517149D01*
X128874535Y-115501208D01*
X128918088Y-115457654D01*
X128964878Y-115405690D01*
X128983802Y-115391940D01*
X129001208Y-115374535D01*
X129049674Y-115344081D01*
X129100140Y-115307416D01*
X129127204Y-115295365D01*
X129152893Y-115279225D01*
X129202242Y-115261956D01*
X129252870Y-115239416D01*
X129288001Y-115231948D01*
X129321983Y-115220058D01*
X129368717Y-115214792D01*
X129416405Y-115204656D01*
X129458677Y-115204656D01*
X129500000Y-115200000D01*
X129541323Y-115204656D01*
G37*
G36*
X133800000Y-116800000D02*
G01*
X132200000Y-116800000D01*
X132200000Y-115200000D01*
X133800000Y-115200000D01*
X133800000Y-116800000D01*
G37*
G36*
X181729047Y-114150805D02*
G01*
X181780408Y-114156764D01*
X181797954Y-114164511D01*
X181820671Y-114169030D01*
X181844991Y-114185280D01*
X181865793Y-114194465D01*
X181880000Y-114208672D01*
X181901777Y-114223223D01*
X181916327Y-114244999D01*
X181930534Y-114259206D01*
X181939718Y-114280006D01*
X181955970Y-114304329D01*
X181960489Y-114327048D01*
X181968235Y-114344591D01*
X181974192Y-114395940D01*
X181975000Y-114400000D01*
X181975000Y-115600000D01*
X181974192Y-115604059D01*
X181968235Y-115655408D01*
X181960489Y-115672950D01*
X181955970Y-115695671D01*
X181939716Y-115719995D01*
X181930534Y-115740793D01*
X181916329Y-115754997D01*
X181901777Y-115776777D01*
X181879997Y-115791329D01*
X181865793Y-115805534D01*
X181844995Y-115814716D01*
X181820671Y-115830970D01*
X181797950Y-115835489D01*
X181780408Y-115843235D01*
X181729061Y-115849192D01*
X181725000Y-115850000D01*
X180275000Y-115850000D01*
X180270941Y-115849192D01*
X180219591Y-115843235D01*
X180202048Y-115835489D01*
X180179329Y-115830970D01*
X180155006Y-115814718D01*
X180134206Y-115805534D01*
X180119999Y-115791327D01*
X180098223Y-115776777D01*
X180083672Y-115755000D01*
X180069465Y-115740793D01*
X180060280Y-115719991D01*
X180044030Y-115695671D01*
X180039511Y-115672954D01*
X180031764Y-115655408D01*
X180025805Y-115604049D01*
X180025000Y-115600000D01*
X180025000Y-114400000D01*
X180025804Y-114395953D01*
X180031764Y-114344591D01*
X180039511Y-114327043D01*
X180044030Y-114304329D01*
X180060278Y-114280010D01*
X180069465Y-114259206D01*
X180083674Y-114244996D01*
X180098223Y-114223223D01*
X180119996Y-114208674D01*
X180134206Y-114194465D01*
X180155010Y-114185278D01*
X180179329Y-114169030D01*
X180202043Y-114164511D01*
X180219591Y-114156764D01*
X180270952Y-114150805D01*
X180275000Y-114150000D01*
X181725000Y-114150000D01*
X181729047Y-114150805D01*
G37*
G36*
X153800000Y-114800000D02*
G01*
X152200000Y-114800000D01*
X152200000Y-113200000D01*
X153800000Y-113200000D01*
X153800000Y-114800000D01*
G37*
G36*
X156541323Y-113204656D02*
G01*
X156583595Y-113204656D01*
X156631282Y-113214792D01*
X156678017Y-113220058D01*
X156712000Y-113231949D01*
X156747129Y-113239416D01*
X156797754Y-113261955D01*
X156847107Y-113279225D01*
X156872795Y-113295366D01*
X156899860Y-113307416D01*
X156950322Y-113344079D01*
X156998792Y-113374535D01*
X157016199Y-113391942D01*
X157035121Y-113405690D01*
X157081901Y-113457644D01*
X157125465Y-113501208D01*
X157135484Y-113517153D01*
X157146992Y-113529934D01*
X157186365Y-113598130D01*
X157220775Y-113652893D01*
X157225070Y-113665170D01*
X157230584Y-113674719D01*
X157258809Y-113761590D01*
X157279942Y-113821983D01*
X157280743Y-113829096D01*
X157282248Y-113833727D01*
X157295892Y-113963542D01*
X157300000Y-114000000D01*
X157295891Y-114036460D01*
X157282248Y-114166272D01*
X157280743Y-114170901D01*
X157279942Y-114178017D01*
X157258805Y-114238422D01*
X157230584Y-114325280D01*
X157225071Y-114334827D01*
X157220775Y-114347107D01*
X157186358Y-114401881D01*
X157146992Y-114470065D01*
X157135486Y-114482843D01*
X157125465Y-114498792D01*
X157081892Y-114542364D01*
X157035121Y-114594309D01*
X157016203Y-114608053D01*
X156998792Y-114625465D01*
X156950312Y-114655926D01*
X156899860Y-114692583D01*
X156872800Y-114704630D01*
X156847107Y-114720775D01*
X156797744Y-114738047D01*
X156747129Y-114760583D01*
X156712005Y-114768048D01*
X156678017Y-114779942D01*
X156631279Y-114785208D01*
X156583595Y-114795344D01*
X156541323Y-114795344D01*
X156500000Y-114800000D01*
X156458677Y-114795344D01*
X156416405Y-114795344D01*
X156368719Y-114785208D01*
X156321983Y-114779942D01*
X156287995Y-114768049D01*
X156252870Y-114760583D01*
X156202251Y-114738046D01*
X156152893Y-114720775D01*
X156127201Y-114704631D01*
X156100139Y-114692583D01*
X156049680Y-114655922D01*
X156001208Y-114625465D01*
X155983799Y-114608056D01*
X155964878Y-114594309D01*
X155918097Y-114542354D01*
X155874535Y-114498792D01*
X155864516Y-114482847D01*
X155853007Y-114470065D01*
X155813629Y-114401861D01*
X155779225Y-114347107D01*
X155774929Y-114334831D01*
X155769415Y-114325280D01*
X155741180Y-114238382D01*
X155720058Y-114178017D01*
X155719256Y-114170906D01*
X155717751Y-114166272D01*
X155704093Y-114036328D01*
X155700000Y-114000000D01*
X155704092Y-113963674D01*
X155717751Y-113833727D01*
X155719257Y-113829091D01*
X155720058Y-113821983D01*
X155741176Y-113761630D01*
X155769415Y-113674719D01*
X155774930Y-113665165D01*
X155779225Y-113652893D01*
X155813622Y-113598149D01*
X155853007Y-113529934D01*
X155864518Y-113517149D01*
X155874535Y-113501208D01*
X155918088Y-113457654D01*
X155964878Y-113405690D01*
X155983802Y-113391940D01*
X156001208Y-113374535D01*
X156049674Y-113344081D01*
X156100140Y-113307416D01*
X156127204Y-113295365D01*
X156152893Y-113279225D01*
X156202242Y-113261956D01*
X156252870Y-113239416D01*
X156288001Y-113231948D01*
X156321983Y-113220058D01*
X156368717Y-113214792D01*
X156416405Y-113204656D01*
X156458677Y-113204656D01*
X156500000Y-113200000D01*
X156541323Y-113204656D01*
G37*
G36*
X179035995Y-112804739D02*
G01*
X179072278Y-112804739D01*
X179113880Y-112814993D01*
X179155291Y-112820445D01*
X179183638Y-112832186D01*
X179212632Y-112839333D01*
X179256591Y-112862404D01*
X179300000Y-112880385D01*
X179319804Y-112895581D01*
X179340629Y-112906511D01*
X179383202Y-112944228D01*
X179424264Y-112975736D01*
X179435935Y-112990946D01*
X179448832Y-113002372D01*
X179485821Y-113055959D01*
X179519615Y-113100000D01*
X179524707Y-113112293D01*
X179530948Y-113121335D01*
X179558020Y-113192719D01*
X179579555Y-113244709D01*
X179580521Y-113252050D01*
X179582209Y-113256500D01*
X179595278Y-113364140D01*
X179600000Y-113400000D01*
X179595278Y-113435862D01*
X179582209Y-113543499D01*
X179580521Y-113547947D01*
X179579555Y-113555291D01*
X179558015Y-113607291D01*
X179530948Y-113678664D01*
X179524708Y-113687703D01*
X179519615Y-113700000D01*
X179485814Y-113744049D01*
X179448832Y-113797627D01*
X179435937Y-113809050D01*
X179424264Y-113824264D01*
X179383194Y-113855777D01*
X179340629Y-113893488D01*
X179319808Y-113904415D01*
X179300000Y-113919615D01*
X179256582Y-113937598D01*
X179212632Y-113960666D01*
X179183642Y-113967811D01*
X179155291Y-113979555D01*
X179113877Y-113985007D01*
X179072278Y-113995261D01*
X179035995Y-113995261D01*
X179000000Y-114000000D01*
X178964005Y-113995261D01*
X178927722Y-113995261D01*
X178886121Y-113985007D01*
X178844709Y-113979555D01*
X178816358Y-113967811D01*
X178787367Y-113960666D01*
X178743412Y-113937596D01*
X178700000Y-113919615D01*
X178680193Y-113904417D01*
X178659370Y-113893488D01*
X178616798Y-113855772D01*
X178575736Y-113824264D01*
X178564064Y-113809053D01*
X178551167Y-113797627D01*
X178514175Y-113744036D01*
X178480385Y-113700000D01*
X178475293Y-113687707D01*
X178469051Y-113678664D01*
X178441972Y-113607262D01*
X178420445Y-113555291D01*
X178419478Y-113547951D01*
X178417790Y-113543499D01*
X178404708Y-113435764D01*
X178400000Y-113400000D01*
X178404708Y-113364238D01*
X178417790Y-113256500D01*
X178419478Y-113252046D01*
X178420445Y-113244709D01*
X178441967Y-113192748D01*
X178469051Y-113121335D01*
X178475294Y-113112290D01*
X178480385Y-113100000D01*
X178514168Y-113055972D01*
X178551167Y-113002372D01*
X178564066Y-112990943D01*
X178575736Y-112975736D01*
X178616789Y-112944234D01*
X178659370Y-112906511D01*
X178680197Y-112895579D01*
X178700000Y-112880385D01*
X178743403Y-112862406D01*
X178787367Y-112839333D01*
X178816363Y-112832186D01*
X178844709Y-112820445D01*
X178886118Y-112814993D01*
X178927722Y-112804739D01*
X178964005Y-112804739D01*
X179000000Y-112800000D01*
X179035995Y-112804739D01*
G37*
G36*
X136541323Y-109204656D02*
G01*
X136583595Y-109204656D01*
X136631282Y-109214792D01*
X136678017Y-109220058D01*
X136712000Y-109231949D01*
X136747129Y-109239416D01*
X136797754Y-109261955D01*
X136847107Y-109279225D01*
X136872795Y-109295366D01*
X136899860Y-109307416D01*
X136950322Y-109344079D01*
X136998792Y-109374535D01*
X137016199Y-109391942D01*
X137035121Y-109405690D01*
X137081901Y-109457644D01*
X137125465Y-109501208D01*
X137135484Y-109517153D01*
X137146992Y-109529934D01*
X137186365Y-109598130D01*
X137220775Y-109652893D01*
X137225070Y-109665170D01*
X137230584Y-109674719D01*
X137258809Y-109761590D01*
X137279942Y-109821983D01*
X137280743Y-109829096D01*
X137282248Y-109833727D01*
X137295892Y-109963542D01*
X137300000Y-110000000D01*
X137295891Y-110036460D01*
X137282248Y-110166272D01*
X137280743Y-110170901D01*
X137279942Y-110178017D01*
X137258805Y-110238422D01*
X137230584Y-110325280D01*
X137225071Y-110334827D01*
X137220775Y-110347107D01*
X137186358Y-110401881D01*
X137146992Y-110470065D01*
X137135486Y-110482843D01*
X137125465Y-110498792D01*
X137081892Y-110542364D01*
X137035121Y-110594309D01*
X137016203Y-110608053D01*
X136998792Y-110625465D01*
X136950312Y-110655926D01*
X136899860Y-110692583D01*
X136872800Y-110704630D01*
X136847107Y-110720775D01*
X136797744Y-110738047D01*
X136747129Y-110760583D01*
X136712005Y-110768048D01*
X136678017Y-110779942D01*
X136631279Y-110785208D01*
X136583595Y-110795344D01*
X136541323Y-110795344D01*
X136500000Y-110800000D01*
X136458677Y-110795344D01*
X136416405Y-110795344D01*
X136368719Y-110785208D01*
X136321983Y-110779942D01*
X136287995Y-110768049D01*
X136252870Y-110760583D01*
X136202251Y-110738046D01*
X136152893Y-110720775D01*
X136127201Y-110704631D01*
X136100139Y-110692583D01*
X136049680Y-110655922D01*
X136001208Y-110625465D01*
X135983799Y-110608056D01*
X135964878Y-110594309D01*
X135918097Y-110542354D01*
X135874535Y-110498792D01*
X135864516Y-110482847D01*
X135853007Y-110470065D01*
X135813629Y-110401861D01*
X135779225Y-110347107D01*
X135774929Y-110334831D01*
X135769415Y-110325280D01*
X135741180Y-110238382D01*
X135720058Y-110178017D01*
X135719256Y-110170906D01*
X135717751Y-110166272D01*
X135704093Y-110036328D01*
X135700000Y-110000000D01*
X135704092Y-109963674D01*
X135717751Y-109833727D01*
X135719257Y-109829091D01*
X135720058Y-109821983D01*
X135741176Y-109761630D01*
X135769415Y-109674719D01*
X135774930Y-109665165D01*
X135779225Y-109652893D01*
X135813622Y-109598149D01*
X135853007Y-109529934D01*
X135864518Y-109517149D01*
X135874535Y-109501208D01*
X135918088Y-109457654D01*
X135964878Y-109405690D01*
X135983802Y-109391940D01*
X136001208Y-109374535D01*
X136049674Y-109344081D01*
X136100140Y-109307416D01*
X136127204Y-109295365D01*
X136152893Y-109279225D01*
X136202242Y-109261956D01*
X136252870Y-109239416D01*
X136288001Y-109231948D01*
X136321983Y-109220058D01*
X136368717Y-109214792D01*
X136416405Y-109204656D01*
X136458677Y-109204656D01*
X136500000Y-109200000D01*
X136541323Y-109204656D01*
G37*
G36*
X140800000Y-110800000D02*
G01*
X139200000Y-110800000D01*
X139200000Y-109200000D01*
X140800000Y-109200000D01*
X140800000Y-110800000D01*
G37*
G36*
X83195090Y-101019215D02*
G01*
X83382683Y-101076120D01*
X83555570Y-101168530D01*
X83707107Y-101292893D01*
X83831470Y-101444430D01*
X83923880Y-101617317D01*
X83980785Y-101804910D01*
X84000000Y-102000000D01*
X83980785Y-102195090D01*
X83923880Y-102382683D01*
X83831470Y-102555570D01*
X83707107Y-102707107D01*
X83555570Y-102831470D01*
X83382683Y-102923880D01*
X83195090Y-102980785D01*
X83000000Y-103000000D01*
X82804910Y-102980785D01*
X82617317Y-102923880D01*
X82444430Y-102831470D01*
X82292893Y-102707107D01*
X82168530Y-102555570D01*
X82076120Y-102382683D01*
X82019215Y-102195090D01*
X82000000Y-102000000D01*
X82019215Y-101804910D01*
X82076120Y-101617317D01*
X82168530Y-101444430D01*
X82292893Y-101292893D01*
X82444430Y-101168530D01*
X82617317Y-101076120D01*
X82804910Y-101019215D01*
X83000000Y-101000000D01*
X83195090Y-101019215D01*
G37*
G36*
X88000000Y-103000000D02*
G01*
X86000000Y-103000000D01*
X86000000Y-101000000D01*
X88000000Y-101000000D01*
X88000000Y-103000000D01*
G37*
G36*
X83195090Y-95219215D02*
G01*
X83382683Y-95276120D01*
X83555570Y-95368530D01*
X83707107Y-95492893D01*
X83831470Y-95644430D01*
X83923880Y-95817317D01*
X83980785Y-96004910D01*
X84000000Y-96200000D01*
X83980785Y-96395090D01*
X83923880Y-96582683D01*
X83831470Y-96755570D01*
X83707107Y-96907107D01*
X83555570Y-97031470D01*
X83382683Y-97123880D01*
X83195090Y-97180785D01*
X83000000Y-97200000D01*
X82804910Y-97180785D01*
X82617317Y-97123880D01*
X82444430Y-97031470D01*
X82292893Y-96907107D01*
X82168530Y-96755570D01*
X82076120Y-96582683D01*
X82019215Y-96395090D01*
X82000000Y-96200000D01*
X82019215Y-96004910D01*
X82076120Y-95817317D01*
X82168530Y-95644430D01*
X82292893Y-95492893D01*
X82444430Y-95368530D01*
X82617317Y-95276120D01*
X82804910Y-95219215D01*
X83000000Y-95200000D01*
X83195090Y-95219215D01*
G37*
G36*
X88000000Y-97200000D02*
G01*
X86000000Y-97200000D01*
X86000000Y-95200000D01*
X88000000Y-95200000D01*
X88000000Y-97200000D01*
G37*
G36*
X123035381Y-93505089D02*
G01*
X123071157Y-93505089D01*
X123100235Y-93513627D01*
X123129296Y-93517453D01*
X123168332Y-93533622D01*
X123207708Y-93545184D01*
X123228491Y-93558540D01*
X123249783Y-93567360D01*
X123288798Y-93597297D01*
X123327430Y-93622125D01*
X123339883Y-93636497D01*
X123353249Y-93646753D01*
X123387899Y-93691910D01*
X123420627Y-93729680D01*
X123426134Y-93741738D01*
X123432638Y-93750215D01*
X123458322Y-93812222D01*
X123479746Y-93859134D01*
X123480805Y-93866500D01*
X123482546Y-93870703D01*
X123494880Y-93964390D01*
X123500000Y-94000000D01*
X123494879Y-94035612D01*
X123482546Y-94129296D01*
X123480805Y-94133498D01*
X123479746Y-94140866D01*
X123458321Y-94187780D01*
X123432639Y-94249783D01*
X123426134Y-94258259D01*
X123420627Y-94270320D01*
X123387887Y-94308103D01*
X123353247Y-94353247D01*
X123339887Y-94363498D01*
X123327430Y-94377875D01*
X123288788Y-94402708D01*
X123249783Y-94432639D01*
X123228496Y-94441456D01*
X123207708Y-94454816D01*
X123168323Y-94466380D01*
X123129296Y-94482546D01*
X123100241Y-94486371D01*
X123071157Y-94494911D01*
X123035374Y-94494911D01*
X123000000Y-94499568D01*
X122964626Y-94494911D01*
X122928843Y-94494911D01*
X122899759Y-94486371D01*
X122870703Y-94482546D01*
X122831672Y-94466379D01*
X122792292Y-94454816D01*
X122771505Y-94441457D01*
X122750216Y-94432639D01*
X122711204Y-94402704D01*
X122672570Y-94377875D01*
X122660114Y-94363500D01*
X122646752Y-94353247D01*
X122612103Y-94308093D01*
X122579373Y-94270320D01*
X122573866Y-94258262D01*
X122567360Y-94249783D01*
X122541668Y-94187757D01*
X122520254Y-94140866D01*
X122519195Y-94133502D01*
X122517453Y-94129296D01*
X122505108Y-94035529D01*
X122500000Y-94000000D01*
X122505108Y-93964473D01*
X122517453Y-93870703D01*
X122519195Y-93866496D01*
X122520254Y-93859134D01*
X122541666Y-93812245D01*
X122567361Y-93750215D01*
X122573867Y-93741735D01*
X122579373Y-93729680D01*
X122612089Y-93691923D01*
X122646751Y-93646751D01*
X122660120Y-93636491D01*
X122672570Y-93622125D01*
X122711192Y-93597303D01*
X122750215Y-93567361D01*
X122771508Y-93558541D01*
X122792292Y-93545184D01*
X122831665Y-93533622D01*
X122870703Y-93517453D01*
X122899765Y-93513626D01*
X122928843Y-93505089D01*
X122964618Y-93505089D01*
X123000000Y-93500431D01*
X123035381Y-93505089D01*
G37*
G36*
X124035381Y-91505089D02*
G01*
X124071157Y-91505089D01*
X124100235Y-91513627D01*
X124129296Y-91517453D01*
X124168332Y-91533622D01*
X124207708Y-91545184D01*
X124228491Y-91558540D01*
X124249783Y-91567360D01*
X124288798Y-91597297D01*
X124327430Y-91622125D01*
X124339883Y-91636497D01*
X124353249Y-91646753D01*
X124387899Y-91691910D01*
X124420627Y-91729680D01*
X124426134Y-91741738D01*
X124432638Y-91750215D01*
X124458322Y-91812222D01*
X124479746Y-91859134D01*
X124480805Y-91866500D01*
X124482546Y-91870703D01*
X124494889Y-91964458D01*
X124500000Y-92000000D01*
X124494887Y-92035560D01*
X124482546Y-92129296D01*
X124480805Y-92133498D01*
X124479746Y-92140866D01*
X124458321Y-92187780D01*
X124432639Y-92249783D01*
X124426134Y-92258259D01*
X124420627Y-92270320D01*
X124387887Y-92308103D01*
X124353247Y-92353247D01*
X124339887Y-92363498D01*
X124327430Y-92377875D01*
X124288788Y-92402708D01*
X124249783Y-92432639D01*
X124228496Y-92441456D01*
X124207708Y-92454816D01*
X124168323Y-92466380D01*
X124129296Y-92482546D01*
X124100241Y-92486371D01*
X124071157Y-92494911D01*
X124035374Y-92494911D01*
X124000000Y-92499568D01*
X123964626Y-92494911D01*
X123928843Y-92494911D01*
X123899759Y-92486371D01*
X123870703Y-92482546D01*
X123831672Y-92466379D01*
X123792292Y-92454816D01*
X123771505Y-92441457D01*
X123750216Y-92432639D01*
X123711204Y-92402704D01*
X123672570Y-92377875D01*
X123660114Y-92363500D01*
X123646752Y-92353247D01*
X123612103Y-92308093D01*
X123579373Y-92270320D01*
X123573866Y-92258262D01*
X123567360Y-92249783D01*
X123541668Y-92187757D01*
X123520254Y-92140866D01*
X123519195Y-92133502D01*
X123517453Y-92129296D01*
X123505109Y-92035537D01*
X123500000Y-92000000D01*
X123505107Y-91964480D01*
X123517453Y-91870703D01*
X123519195Y-91866496D01*
X123520254Y-91859134D01*
X123541666Y-91812245D01*
X123567361Y-91750215D01*
X123573867Y-91741735D01*
X123579373Y-91729680D01*
X123612089Y-91691923D01*
X123646751Y-91646751D01*
X123660120Y-91636491D01*
X123672570Y-91622125D01*
X123711192Y-91597303D01*
X123750215Y-91567361D01*
X123771508Y-91558541D01*
X123792292Y-91545184D01*
X123831665Y-91533622D01*
X123870703Y-91517453D01*
X123899765Y-91513626D01*
X123928843Y-91505089D01*
X123964618Y-91505089D01*
X124000000Y-91500431D01*
X124035381Y-91505089D01*
G37*
G36*
X143035381Y-91505089D02*
G01*
X143071157Y-91505089D01*
X143100235Y-91513627D01*
X143129296Y-91517453D01*
X143168332Y-91533622D01*
X143207708Y-91545184D01*
X143228491Y-91558540D01*
X143249783Y-91567360D01*
X143288798Y-91597297D01*
X143327430Y-91622125D01*
X143339883Y-91636497D01*
X143353249Y-91646753D01*
X143387899Y-91691910D01*
X143420627Y-91729680D01*
X143426134Y-91741738D01*
X143432638Y-91750215D01*
X143458322Y-91812222D01*
X143479746Y-91859134D01*
X143480805Y-91866500D01*
X143482546Y-91870703D01*
X143494889Y-91964458D01*
X143500000Y-92000000D01*
X143494887Y-92035560D01*
X143482546Y-92129296D01*
X143480805Y-92133498D01*
X143479746Y-92140866D01*
X143458321Y-92187780D01*
X143432639Y-92249783D01*
X143426134Y-92258259D01*
X143420627Y-92270320D01*
X143387887Y-92308103D01*
X143353247Y-92353247D01*
X143339887Y-92363498D01*
X143327430Y-92377875D01*
X143288788Y-92402708D01*
X143249783Y-92432639D01*
X143228496Y-92441456D01*
X143207708Y-92454816D01*
X143168323Y-92466380D01*
X143129296Y-92482546D01*
X143100241Y-92486371D01*
X143071157Y-92494911D01*
X143035374Y-92494911D01*
X143000000Y-92499568D01*
X142964626Y-92494911D01*
X142928843Y-92494911D01*
X142899759Y-92486371D01*
X142870703Y-92482546D01*
X142831672Y-92466379D01*
X142792292Y-92454816D01*
X142771505Y-92441457D01*
X142750216Y-92432639D01*
X142711204Y-92402704D01*
X142672570Y-92377875D01*
X142660114Y-92363500D01*
X142646752Y-92353247D01*
X142612103Y-92308093D01*
X142579373Y-92270320D01*
X142573866Y-92258262D01*
X142567360Y-92249783D01*
X142541668Y-92187757D01*
X142520254Y-92140866D01*
X142519195Y-92133502D01*
X142517453Y-92129296D01*
X142505109Y-92035537D01*
X142500000Y-92000000D01*
X142505107Y-91964480D01*
X142517453Y-91870703D01*
X142519195Y-91866496D01*
X142520254Y-91859134D01*
X142541666Y-91812245D01*
X142567361Y-91750215D01*
X142573867Y-91741735D01*
X142579373Y-91729680D01*
X142612089Y-91691923D01*
X142646751Y-91646751D01*
X142660120Y-91636491D01*
X142672570Y-91622125D01*
X142711192Y-91597303D01*
X142750215Y-91567361D01*
X142771508Y-91558541D01*
X142792292Y-91545184D01*
X142831665Y-91533622D01*
X142870703Y-91517453D01*
X142899765Y-91513626D01*
X142928843Y-91505089D01*
X142964618Y-91505089D01*
X143000000Y-91500431D01*
X143035381Y-91505089D01*
G37*
G36*
X83195090Y-90019215D02*
G01*
X83382683Y-90076120D01*
X83555570Y-90168530D01*
X83707107Y-90292893D01*
X83831470Y-90444430D01*
X83923880Y-90617317D01*
X83980785Y-90804910D01*
X84000000Y-91000000D01*
X83980785Y-91195090D01*
X83923880Y-91382683D01*
X83831470Y-91555570D01*
X83707107Y-91707107D01*
X83555570Y-91831470D01*
X83382683Y-91923880D01*
X83195090Y-91980785D01*
X83000000Y-92000000D01*
X82804910Y-91980785D01*
X82617317Y-91923880D01*
X82444430Y-91831470D01*
X82292893Y-91707107D01*
X82168530Y-91555570D01*
X82076120Y-91382683D01*
X82019215Y-91195090D01*
X82000000Y-91000000D01*
X82019215Y-90804910D01*
X82076120Y-90617317D01*
X82168530Y-90444430D01*
X82292893Y-90292893D01*
X82444430Y-90168530D01*
X82617317Y-90076120D01*
X82804910Y-90019215D01*
X83000000Y-90000000D01*
X83195090Y-90019215D01*
G37*
G36*
X88000000Y-92000000D02*
G01*
X86000000Y-92000000D01*
X86000000Y-90000000D01*
X88000000Y-90000000D01*
X88000000Y-92000000D01*
G37*
G36*
X116035381Y-90505089D02*
G01*
X116071157Y-90505089D01*
X116100235Y-90513627D01*
X116129296Y-90517453D01*
X116168332Y-90533622D01*
X116207708Y-90545184D01*
X116228491Y-90558540D01*
X116249783Y-90567360D01*
X116288798Y-90597297D01*
X116327430Y-90622125D01*
X116339883Y-90636497D01*
X116353249Y-90646753D01*
X116387899Y-90691910D01*
X116420627Y-90729680D01*
X116426134Y-90741738D01*
X116432638Y-90750215D01*
X116458322Y-90812222D01*
X116479746Y-90859134D01*
X116480805Y-90866500D01*
X116482546Y-90870703D01*
X116494880Y-90964390D01*
X116500000Y-91000000D01*
X116494879Y-91035612D01*
X116482546Y-91129296D01*
X116480805Y-91133498D01*
X116479746Y-91140866D01*
X116458321Y-91187780D01*
X116432639Y-91249783D01*
X116426134Y-91258259D01*
X116420627Y-91270320D01*
X116387887Y-91308103D01*
X116353247Y-91353247D01*
X116339887Y-91363498D01*
X116327430Y-91377875D01*
X116288788Y-91402708D01*
X116249783Y-91432639D01*
X116228496Y-91441456D01*
X116207708Y-91454816D01*
X116168323Y-91466380D01*
X116129296Y-91482546D01*
X116100241Y-91486371D01*
X116071157Y-91494911D01*
X116035374Y-91494911D01*
X116000000Y-91499568D01*
X115964626Y-91494911D01*
X115928843Y-91494911D01*
X115899759Y-91486371D01*
X115870703Y-91482546D01*
X115831672Y-91466379D01*
X115792292Y-91454816D01*
X115771505Y-91441457D01*
X115750216Y-91432639D01*
X115711204Y-91402704D01*
X115672570Y-91377875D01*
X115660114Y-91363500D01*
X115646752Y-91353247D01*
X115612103Y-91308093D01*
X115579373Y-91270320D01*
X115573866Y-91258262D01*
X115567360Y-91249783D01*
X115541668Y-91187757D01*
X115520254Y-91140866D01*
X115519195Y-91133502D01*
X115517453Y-91129296D01*
X115505108Y-91035529D01*
X115500000Y-91000000D01*
X115505108Y-90964473D01*
X115517453Y-90870703D01*
X115519195Y-90866496D01*
X115520254Y-90859134D01*
X115541666Y-90812245D01*
X115567361Y-90750215D01*
X115573867Y-90741735D01*
X115579373Y-90729680D01*
X115612089Y-90691923D01*
X115646751Y-90646751D01*
X115660120Y-90636491D01*
X115672570Y-90622125D01*
X115711192Y-90597303D01*
X115750215Y-90567361D01*
X115771508Y-90558541D01*
X115792292Y-90545184D01*
X115831665Y-90533622D01*
X115870703Y-90517453D01*
X115899765Y-90513626D01*
X115928843Y-90505089D01*
X115964618Y-90505089D01*
X116000000Y-90500431D01*
X116035381Y-90505089D01*
G37*
G36*
X130035381Y-90505089D02*
G01*
X130071157Y-90505089D01*
X130100235Y-90513627D01*
X130129296Y-90517453D01*
X130168332Y-90533622D01*
X130207708Y-90545184D01*
X130228491Y-90558540D01*
X130249783Y-90567360D01*
X130288798Y-90597297D01*
X130327430Y-90622125D01*
X130339883Y-90636497D01*
X130353249Y-90646753D01*
X130387899Y-90691910D01*
X130420627Y-90729680D01*
X130426134Y-90741738D01*
X130432638Y-90750215D01*
X130458322Y-90812222D01*
X130479746Y-90859134D01*
X130480805Y-90866500D01*
X130482546Y-90870703D01*
X130494880Y-90964390D01*
X130500000Y-91000000D01*
X130494879Y-91035612D01*
X130482546Y-91129296D01*
X130480805Y-91133498D01*
X130479746Y-91140866D01*
X130458321Y-91187780D01*
X130432639Y-91249783D01*
X130426134Y-91258259D01*
X130420627Y-91270320D01*
X130387887Y-91308103D01*
X130353247Y-91353247D01*
X130339887Y-91363498D01*
X130327430Y-91377875D01*
X130288788Y-91402708D01*
X130249783Y-91432639D01*
X130228496Y-91441456D01*
X130207708Y-91454816D01*
X130168323Y-91466380D01*
X130129296Y-91482546D01*
X130100241Y-91486371D01*
X130071157Y-91494911D01*
X130035374Y-91494911D01*
X130000000Y-91499568D01*
X129964626Y-91494911D01*
X129928843Y-91494911D01*
X129899759Y-91486371D01*
X129870703Y-91482546D01*
X129831672Y-91466379D01*
X129792292Y-91454816D01*
X129771505Y-91441457D01*
X129750216Y-91432639D01*
X129711204Y-91402704D01*
X129672570Y-91377875D01*
X129660114Y-91363500D01*
X129646752Y-91353247D01*
X129612103Y-91308093D01*
X129579373Y-91270320D01*
X129573866Y-91258262D01*
X129567360Y-91249783D01*
X129541668Y-91187757D01*
X129520254Y-91140866D01*
X129519195Y-91133502D01*
X129517453Y-91129296D01*
X129505108Y-91035529D01*
X129500000Y-91000000D01*
X129505108Y-90964473D01*
X129517453Y-90870703D01*
X129519195Y-90866496D01*
X129520254Y-90859134D01*
X129541666Y-90812245D01*
X129567361Y-90750215D01*
X129573867Y-90741735D01*
X129579373Y-90729680D01*
X129612089Y-90691923D01*
X129646751Y-90646751D01*
X129660120Y-90636491D01*
X129672570Y-90622125D01*
X129711192Y-90597303D01*
X129750215Y-90567361D01*
X129771508Y-90558541D01*
X129792292Y-90545184D01*
X129831665Y-90533622D01*
X129870703Y-90517453D01*
X129899765Y-90513626D01*
X129928843Y-90505089D01*
X129964618Y-90505089D01*
X130000000Y-90500431D01*
X130035381Y-90505089D01*
G37*
G36*
X103035381Y-87505089D02*
G01*
X103071157Y-87505089D01*
X103100235Y-87513627D01*
X103129296Y-87517453D01*
X103168332Y-87533622D01*
X103207708Y-87545184D01*
X103228491Y-87558540D01*
X103249783Y-87567360D01*
X103288798Y-87597297D01*
X103327430Y-87622125D01*
X103339883Y-87636497D01*
X103353249Y-87646753D01*
X103387899Y-87691910D01*
X103420627Y-87729680D01*
X103426134Y-87741738D01*
X103432638Y-87750215D01*
X103458322Y-87812222D01*
X103479746Y-87859134D01*
X103480805Y-87866500D01*
X103482546Y-87870703D01*
X103494880Y-87964390D01*
X103500000Y-88000000D01*
X103494879Y-88035612D01*
X103482546Y-88129296D01*
X103480805Y-88133498D01*
X103479746Y-88140866D01*
X103458321Y-88187780D01*
X103432639Y-88249783D01*
X103426134Y-88258259D01*
X103420627Y-88270320D01*
X103387887Y-88308103D01*
X103353247Y-88353247D01*
X103339887Y-88363498D01*
X103327430Y-88377875D01*
X103288788Y-88402708D01*
X103249783Y-88432639D01*
X103228496Y-88441456D01*
X103207708Y-88454816D01*
X103168323Y-88466380D01*
X103129296Y-88482546D01*
X103100241Y-88486371D01*
X103071157Y-88494911D01*
X103035374Y-88494911D01*
X103000000Y-88499568D01*
X102964626Y-88494911D01*
X102928843Y-88494911D01*
X102899759Y-88486371D01*
X102870703Y-88482546D01*
X102831672Y-88466379D01*
X102792292Y-88454816D01*
X102771505Y-88441457D01*
X102750216Y-88432639D01*
X102711204Y-88402704D01*
X102672570Y-88377875D01*
X102660114Y-88363500D01*
X102646752Y-88353247D01*
X102612103Y-88308093D01*
X102579373Y-88270320D01*
X102573866Y-88258262D01*
X102567360Y-88249783D01*
X102541668Y-88187757D01*
X102520254Y-88140866D01*
X102519195Y-88133502D01*
X102517453Y-88129296D01*
X102505108Y-88035529D01*
X102500000Y-88000000D01*
X102505108Y-87964473D01*
X102517453Y-87870703D01*
X102519195Y-87866496D01*
X102520254Y-87859134D01*
X102541666Y-87812245D01*
X102567361Y-87750215D01*
X102573867Y-87741735D01*
X102579373Y-87729680D01*
X102612089Y-87691923D01*
X102646751Y-87646751D01*
X102660120Y-87636491D01*
X102672570Y-87622125D01*
X102711192Y-87597303D01*
X102750215Y-87567361D01*
X102771508Y-87558541D01*
X102792292Y-87545184D01*
X102831665Y-87533622D01*
X102870703Y-87517453D01*
X102899765Y-87513626D01*
X102928843Y-87505089D01*
X102964618Y-87505089D01*
X103000000Y-87500431D01*
X103035381Y-87505089D01*
G37*
G36*
X147035381Y-87505089D02*
G01*
X147071157Y-87505089D01*
X147100235Y-87513627D01*
X147129296Y-87517453D01*
X147168332Y-87533622D01*
X147207708Y-87545184D01*
X147228491Y-87558540D01*
X147249783Y-87567360D01*
X147288798Y-87597297D01*
X147327430Y-87622125D01*
X147339883Y-87636497D01*
X147353249Y-87646753D01*
X147387899Y-87691910D01*
X147420627Y-87729680D01*
X147426134Y-87741738D01*
X147432638Y-87750215D01*
X147458322Y-87812222D01*
X147479746Y-87859134D01*
X147480805Y-87866500D01*
X147482546Y-87870703D01*
X147494880Y-87964390D01*
X147500000Y-88000000D01*
X147494879Y-88035612D01*
X147482546Y-88129296D01*
X147480805Y-88133498D01*
X147479746Y-88140866D01*
X147458321Y-88187780D01*
X147432639Y-88249783D01*
X147426134Y-88258259D01*
X147420627Y-88270320D01*
X147387887Y-88308103D01*
X147353247Y-88353247D01*
X147339887Y-88363498D01*
X147327430Y-88377875D01*
X147288788Y-88402708D01*
X147249783Y-88432639D01*
X147228496Y-88441456D01*
X147207708Y-88454816D01*
X147168323Y-88466380D01*
X147129296Y-88482546D01*
X147100241Y-88486371D01*
X147071157Y-88494911D01*
X147035374Y-88494911D01*
X147000000Y-88499568D01*
X146964626Y-88494911D01*
X146928843Y-88494911D01*
X146899759Y-88486371D01*
X146870703Y-88482546D01*
X146831672Y-88466379D01*
X146792292Y-88454816D01*
X146771505Y-88441457D01*
X146750216Y-88432639D01*
X146711204Y-88402704D01*
X146672570Y-88377875D01*
X146660114Y-88363500D01*
X146646752Y-88353247D01*
X146612103Y-88308093D01*
X146579373Y-88270320D01*
X146573866Y-88258262D01*
X146567360Y-88249783D01*
X146541668Y-88187757D01*
X146520254Y-88140866D01*
X146519195Y-88133502D01*
X146517453Y-88129296D01*
X146505108Y-88035529D01*
X146500000Y-88000000D01*
X146505108Y-87964473D01*
X146517453Y-87870703D01*
X146519195Y-87866496D01*
X146520254Y-87859134D01*
X146541666Y-87812245D01*
X146567361Y-87750215D01*
X146573867Y-87741735D01*
X146579373Y-87729680D01*
X146612089Y-87691923D01*
X146646751Y-87646751D01*
X146660120Y-87636491D01*
X146672570Y-87622125D01*
X146711192Y-87597303D01*
X146750215Y-87567361D01*
X146771508Y-87558541D01*
X146792292Y-87545184D01*
X146831665Y-87533622D01*
X146870703Y-87517453D01*
X146899765Y-87513626D01*
X146928843Y-87505089D01*
X146964618Y-87505089D01*
X147000000Y-87500431D01*
X147035381Y-87505089D01*
G37*
G36*
X85250295Y-81419699D02*
G01*
X85494427Y-81478310D01*
X85726385Y-81574390D01*
X85940456Y-81705573D01*
X86131371Y-81868629D01*
X86294427Y-82059544D01*
X86425610Y-82273615D01*
X86521690Y-82505573D01*
X86580301Y-82749705D01*
X86600000Y-83000000D01*
X86580301Y-83250295D01*
X86521690Y-83494427D01*
X86425610Y-83726385D01*
X86294427Y-83940456D01*
X86131371Y-84131371D01*
X85940456Y-84294427D01*
X85726385Y-84425610D01*
X85494427Y-84521690D01*
X85250295Y-84580301D01*
X85000000Y-84600000D01*
X84749705Y-84580301D01*
X84505573Y-84521690D01*
X84273615Y-84425610D01*
X84059544Y-84294427D01*
X83868629Y-84131371D01*
X83705573Y-83940456D01*
X83574390Y-83726385D01*
X83478310Y-83494427D01*
X83419699Y-83250295D01*
X83400000Y-83000000D01*
X83419699Y-82749705D01*
X83478310Y-82505573D01*
X83574390Y-82273615D01*
X83705573Y-82059544D01*
X83868629Y-81868629D01*
X84059544Y-81705573D01*
X84273615Y-81574390D01*
X84505573Y-81478310D01*
X84749705Y-81419699D01*
X85000000Y-81400000D01*
X85250295Y-81419699D01*
G37*
G36*
X91435995Y-83404739D02*
G01*
X91472278Y-83404739D01*
X91513880Y-83414993D01*
X91555291Y-83420445D01*
X91583638Y-83432186D01*
X91612632Y-83439333D01*
X91656591Y-83462404D01*
X91700000Y-83480385D01*
X91719804Y-83495581D01*
X91740629Y-83506511D01*
X91783202Y-83544228D01*
X91824264Y-83575736D01*
X91835935Y-83590946D01*
X91848832Y-83602372D01*
X91885821Y-83655959D01*
X91919615Y-83700000D01*
X91924707Y-83712293D01*
X91930948Y-83721335D01*
X91958020Y-83792719D01*
X91979555Y-83844709D01*
X91980521Y-83852050D01*
X91982209Y-83856500D01*
X91995278Y-83964140D01*
X92000000Y-84000000D01*
X91995278Y-84035862D01*
X91982209Y-84143499D01*
X91980521Y-84147947D01*
X91979555Y-84155291D01*
X91958015Y-84207291D01*
X91930948Y-84278664D01*
X91924708Y-84287703D01*
X91919615Y-84300000D01*
X91885814Y-84344049D01*
X91848832Y-84397627D01*
X91835937Y-84409050D01*
X91824264Y-84424264D01*
X91783194Y-84455777D01*
X91740629Y-84493488D01*
X91719808Y-84504415D01*
X91700000Y-84519615D01*
X91656582Y-84537598D01*
X91612632Y-84560666D01*
X91583642Y-84567811D01*
X91555291Y-84579555D01*
X91513877Y-84585007D01*
X91472278Y-84595261D01*
X91435995Y-84595261D01*
X91400000Y-84600000D01*
X91364005Y-84595261D01*
X91327722Y-84595261D01*
X91286121Y-84585007D01*
X91244709Y-84579555D01*
X91216358Y-84567811D01*
X91187367Y-84560666D01*
X91143412Y-84537596D01*
X91100000Y-84519615D01*
X91080193Y-84504417D01*
X91059370Y-84493488D01*
X91016798Y-84455772D01*
X90975736Y-84424264D01*
X90964064Y-84409053D01*
X90951167Y-84397627D01*
X90914175Y-84344036D01*
X90880385Y-84300000D01*
X90875293Y-84287707D01*
X90869051Y-84278664D01*
X90841972Y-84207262D01*
X90820445Y-84155291D01*
X90819478Y-84147951D01*
X90817790Y-84143499D01*
X90804708Y-84035764D01*
X90800000Y-84000000D01*
X90804708Y-83964238D01*
X90817790Y-83856500D01*
X90819478Y-83852046D01*
X90820445Y-83844709D01*
X90841967Y-83792748D01*
X90869051Y-83721335D01*
X90875294Y-83712290D01*
X90880385Y-83700000D01*
X90914168Y-83655972D01*
X90951167Y-83602372D01*
X90964066Y-83590943D01*
X90975736Y-83575736D01*
X91016789Y-83544234D01*
X91059370Y-83506511D01*
X91080197Y-83495579D01*
X91100000Y-83480385D01*
X91143403Y-83462406D01*
X91187367Y-83439333D01*
X91216363Y-83432186D01*
X91244709Y-83420445D01*
X91286118Y-83414993D01*
X91327722Y-83404739D01*
X91364005Y-83404739D01*
X91400000Y-83400000D01*
X91435995Y-83404739D01*
G37*
G36*
X104435995Y-83404739D02*
G01*
X104472278Y-83404739D01*
X104513880Y-83414993D01*
X104555291Y-83420445D01*
X104583638Y-83432186D01*
X104612632Y-83439333D01*
X104656591Y-83462404D01*
X104700000Y-83480385D01*
X104719804Y-83495581D01*
X104740629Y-83506511D01*
X104783202Y-83544228D01*
X104824264Y-83575736D01*
X104835935Y-83590946D01*
X104848832Y-83602372D01*
X104885821Y-83655959D01*
X104919615Y-83700000D01*
X104924707Y-83712293D01*
X104930948Y-83721335D01*
X104958020Y-83792719D01*
X104979555Y-83844709D01*
X104980521Y-83852050D01*
X104982209Y-83856500D01*
X104995278Y-83964140D01*
X105000000Y-84000000D01*
X104995278Y-84035862D01*
X104982209Y-84143499D01*
X104980521Y-84147947D01*
X104979555Y-84155291D01*
X104958015Y-84207291D01*
X104930948Y-84278664D01*
X104924708Y-84287703D01*
X104919615Y-84300000D01*
X104885814Y-84344049D01*
X104848832Y-84397627D01*
X104835937Y-84409050D01*
X104824264Y-84424264D01*
X104783194Y-84455777D01*
X104740629Y-84493488D01*
X104719808Y-84504415D01*
X104700000Y-84519615D01*
X104656582Y-84537598D01*
X104612632Y-84560666D01*
X104583642Y-84567811D01*
X104555291Y-84579555D01*
X104513877Y-84585007D01*
X104472278Y-84595261D01*
X104435995Y-84595261D01*
X104400000Y-84600000D01*
X104364005Y-84595261D01*
X104327722Y-84595261D01*
X104286121Y-84585007D01*
X104244709Y-84579555D01*
X104216358Y-84567811D01*
X104187367Y-84560666D01*
X104143412Y-84537596D01*
X104100000Y-84519615D01*
X104080193Y-84504417D01*
X104059370Y-84493488D01*
X104016798Y-84455772D01*
X103975736Y-84424264D01*
X103964064Y-84409053D01*
X103951167Y-84397627D01*
X103914175Y-84344036D01*
X103880385Y-84300000D01*
X103875293Y-84287707D01*
X103869051Y-84278664D01*
X103841972Y-84207262D01*
X103820445Y-84155291D01*
X103819478Y-84147951D01*
X103817790Y-84143499D01*
X103804708Y-84035764D01*
X103800000Y-84000000D01*
X103804708Y-83964238D01*
X103817790Y-83856500D01*
X103819478Y-83852046D01*
X103820445Y-83844709D01*
X103841967Y-83792748D01*
X103869051Y-83721335D01*
X103875294Y-83712290D01*
X103880385Y-83700000D01*
X103914168Y-83655972D01*
X103951167Y-83602372D01*
X103964066Y-83590943D01*
X103975736Y-83575736D01*
X104016789Y-83544234D01*
X104059370Y-83506511D01*
X104080197Y-83495579D01*
X104100000Y-83480385D01*
X104143403Y-83462406D01*
X104187367Y-83439333D01*
X104216363Y-83432186D01*
X104244709Y-83420445D01*
X104286118Y-83414993D01*
X104327722Y-83404739D01*
X104364005Y-83404739D01*
X104400000Y-83400000D01*
X104435995Y-83404739D01*
G37*
G36*
X117435995Y-83404739D02*
G01*
X117472278Y-83404739D01*
X117513880Y-83414993D01*
X117555291Y-83420445D01*
X117583638Y-83432186D01*
X117612632Y-83439333D01*
X117656591Y-83462404D01*
X117700000Y-83480385D01*
X117719804Y-83495581D01*
X117740629Y-83506511D01*
X117783202Y-83544228D01*
X117824264Y-83575736D01*
X117835935Y-83590946D01*
X117848832Y-83602372D01*
X117885821Y-83655959D01*
X117919615Y-83700000D01*
X117924707Y-83712293D01*
X117930948Y-83721335D01*
X117958020Y-83792719D01*
X117979555Y-83844709D01*
X117980521Y-83852050D01*
X117982209Y-83856500D01*
X117995278Y-83964140D01*
X118000000Y-84000000D01*
X117995278Y-84035862D01*
X117982209Y-84143499D01*
X117980521Y-84147947D01*
X117979555Y-84155291D01*
X117958015Y-84207291D01*
X117930948Y-84278664D01*
X117924708Y-84287703D01*
X117919615Y-84300000D01*
X117885814Y-84344049D01*
X117848832Y-84397627D01*
X117835937Y-84409050D01*
X117824264Y-84424264D01*
X117783194Y-84455777D01*
X117740629Y-84493488D01*
X117719808Y-84504415D01*
X117700000Y-84519615D01*
X117656582Y-84537598D01*
X117612632Y-84560666D01*
X117583642Y-84567811D01*
X117555291Y-84579555D01*
X117513877Y-84585007D01*
X117472278Y-84595261D01*
X117435995Y-84595261D01*
X117400000Y-84600000D01*
X117364005Y-84595261D01*
X117327722Y-84595261D01*
X117286121Y-84585007D01*
X117244709Y-84579555D01*
X117216358Y-84567811D01*
X117187367Y-84560666D01*
X117143412Y-84537596D01*
X117100000Y-84519615D01*
X117080193Y-84504417D01*
X117059370Y-84493488D01*
X117016798Y-84455772D01*
X116975736Y-84424264D01*
X116964064Y-84409053D01*
X116951167Y-84397627D01*
X116914175Y-84344036D01*
X116880385Y-84300000D01*
X116875293Y-84287707D01*
X116869051Y-84278664D01*
X116841972Y-84207262D01*
X116820445Y-84155291D01*
X116819478Y-84147951D01*
X116817790Y-84143499D01*
X116804708Y-84035764D01*
X116800000Y-84000000D01*
X116804708Y-83964238D01*
X116817790Y-83856500D01*
X116819478Y-83852046D01*
X116820445Y-83844709D01*
X116841967Y-83792748D01*
X116869051Y-83721335D01*
X116875294Y-83712290D01*
X116880385Y-83700000D01*
X116914168Y-83655972D01*
X116951167Y-83602372D01*
X116964066Y-83590943D01*
X116975736Y-83575736D01*
X117016789Y-83544234D01*
X117059370Y-83506511D01*
X117080197Y-83495579D01*
X117100000Y-83480385D01*
X117143403Y-83462406D01*
X117187367Y-83439333D01*
X117216363Y-83432186D01*
X117244709Y-83420445D01*
X117286118Y-83414993D01*
X117327722Y-83404739D01*
X117364005Y-83404739D01*
X117400000Y-83400000D01*
X117435995Y-83404739D01*
G37*
G36*
X130435995Y-83404739D02*
G01*
X130472278Y-83404739D01*
X130513880Y-83414993D01*
X130555291Y-83420445D01*
X130583638Y-83432186D01*
X130612632Y-83439333D01*
X130656591Y-83462404D01*
X130700000Y-83480385D01*
X130719804Y-83495581D01*
X130740629Y-83506511D01*
X130783202Y-83544228D01*
X130824264Y-83575736D01*
X130835935Y-83590946D01*
X130848832Y-83602372D01*
X130885821Y-83655959D01*
X130919615Y-83700000D01*
X130924707Y-83712293D01*
X130930948Y-83721335D01*
X130958020Y-83792719D01*
X130979555Y-83844709D01*
X130980521Y-83852050D01*
X130982209Y-83856500D01*
X130995278Y-83964140D01*
X131000000Y-84000000D01*
X130995278Y-84035862D01*
X130982209Y-84143499D01*
X130980521Y-84147947D01*
X130979555Y-84155291D01*
X130958015Y-84207291D01*
X130930948Y-84278664D01*
X130924708Y-84287703D01*
X130919615Y-84300000D01*
X130885814Y-84344049D01*
X130848832Y-84397627D01*
X130835937Y-84409050D01*
X130824264Y-84424264D01*
X130783194Y-84455777D01*
X130740629Y-84493488D01*
X130719808Y-84504415D01*
X130700000Y-84519615D01*
X130656582Y-84537598D01*
X130612632Y-84560666D01*
X130583642Y-84567811D01*
X130555291Y-84579555D01*
X130513877Y-84585007D01*
X130472278Y-84595261D01*
X130435995Y-84595261D01*
X130400000Y-84600000D01*
X130364005Y-84595261D01*
X130327722Y-84595261D01*
X130286121Y-84585007D01*
X130244709Y-84579555D01*
X130216358Y-84567811D01*
X130187367Y-84560666D01*
X130143412Y-84537596D01*
X130100000Y-84519615D01*
X130080193Y-84504417D01*
X130059370Y-84493488D01*
X130016798Y-84455772D01*
X129975736Y-84424264D01*
X129964064Y-84409053D01*
X129951167Y-84397627D01*
X129914175Y-84344036D01*
X129880385Y-84300000D01*
X129875293Y-84287707D01*
X129869051Y-84278664D01*
X129841972Y-84207262D01*
X129820445Y-84155291D01*
X129819478Y-84147951D01*
X129817790Y-84143499D01*
X129804708Y-84035764D01*
X129800000Y-84000000D01*
X129804708Y-83964238D01*
X129817790Y-83856500D01*
X129819478Y-83852046D01*
X129820445Y-83844709D01*
X129841967Y-83792748D01*
X129869051Y-83721335D01*
X129875294Y-83712290D01*
X129880385Y-83700000D01*
X129914168Y-83655972D01*
X129951167Y-83602372D01*
X129964066Y-83590943D01*
X129975736Y-83575736D01*
X130016789Y-83544234D01*
X130059370Y-83506511D01*
X130080197Y-83495579D01*
X130100000Y-83480385D01*
X130143403Y-83462406D01*
X130187367Y-83439333D01*
X130216363Y-83432186D01*
X130244709Y-83420445D01*
X130286118Y-83414993D01*
X130327722Y-83404739D01*
X130364005Y-83404739D01*
X130400000Y-83400000D01*
X130435995Y-83404739D01*
G37*
G36*
X145435995Y-83404739D02*
G01*
X145472278Y-83404739D01*
X145513880Y-83414993D01*
X145555291Y-83420445D01*
X145583638Y-83432186D01*
X145612632Y-83439333D01*
X145656591Y-83462404D01*
X145700000Y-83480385D01*
X145719804Y-83495581D01*
X145740629Y-83506511D01*
X145783202Y-83544228D01*
X145824264Y-83575736D01*
X145835935Y-83590946D01*
X145848832Y-83602372D01*
X145885821Y-83655959D01*
X145919615Y-83700000D01*
X145924707Y-83712293D01*
X145930948Y-83721335D01*
X145958020Y-83792719D01*
X145979555Y-83844709D01*
X145980521Y-83852050D01*
X145982209Y-83856500D01*
X145995278Y-83964140D01*
X146000000Y-84000000D01*
X145995278Y-84035862D01*
X145982209Y-84143499D01*
X145980521Y-84147947D01*
X145979555Y-84155291D01*
X145958015Y-84207291D01*
X145930948Y-84278664D01*
X145924708Y-84287703D01*
X145919615Y-84300000D01*
X145885814Y-84344049D01*
X145848832Y-84397627D01*
X145835937Y-84409050D01*
X145824264Y-84424264D01*
X145783194Y-84455777D01*
X145740629Y-84493488D01*
X145719808Y-84504415D01*
X145700000Y-84519615D01*
X145656582Y-84537598D01*
X145612632Y-84560666D01*
X145583642Y-84567811D01*
X145555291Y-84579555D01*
X145513877Y-84585007D01*
X145472278Y-84595261D01*
X145435995Y-84595261D01*
X145400000Y-84600000D01*
X145364005Y-84595261D01*
X145327722Y-84595261D01*
X145286121Y-84585007D01*
X145244709Y-84579555D01*
X145216358Y-84567811D01*
X145187367Y-84560666D01*
X145143412Y-84537596D01*
X145100000Y-84519615D01*
X145080193Y-84504417D01*
X145059370Y-84493488D01*
X145016798Y-84455772D01*
X144975736Y-84424264D01*
X144964064Y-84409053D01*
X144951167Y-84397627D01*
X144914175Y-84344036D01*
X144880385Y-84300000D01*
X144875293Y-84287707D01*
X144869051Y-84278664D01*
X144841972Y-84207262D01*
X144820445Y-84155291D01*
X144819478Y-84147951D01*
X144817790Y-84143499D01*
X144804708Y-84035764D01*
X144800000Y-84000000D01*
X144804708Y-83964238D01*
X144817790Y-83856500D01*
X144819478Y-83852046D01*
X144820445Y-83844709D01*
X144841967Y-83792748D01*
X144869051Y-83721335D01*
X144875294Y-83712290D01*
X144880385Y-83700000D01*
X144914168Y-83655972D01*
X144951167Y-83602372D01*
X144964066Y-83590943D01*
X144975736Y-83575736D01*
X145016789Y-83544234D01*
X145059370Y-83506511D01*
X145080197Y-83495579D01*
X145100000Y-83480385D01*
X145143403Y-83462406D01*
X145187367Y-83439333D01*
X145216363Y-83432186D01*
X145244709Y-83420445D01*
X145286118Y-83414993D01*
X145327722Y-83404739D01*
X145364005Y-83404739D01*
X145400000Y-83400000D01*
X145435995Y-83404739D01*
G37*
G36*
X160435995Y-83404739D02*
G01*
X160472278Y-83404739D01*
X160513880Y-83414993D01*
X160555291Y-83420445D01*
X160583638Y-83432186D01*
X160612632Y-83439333D01*
X160656591Y-83462404D01*
X160700000Y-83480385D01*
X160719804Y-83495581D01*
X160740629Y-83506511D01*
X160783202Y-83544228D01*
X160824264Y-83575736D01*
X160835935Y-83590946D01*
X160848832Y-83602372D01*
X160885821Y-83655959D01*
X160919615Y-83700000D01*
X160924707Y-83712293D01*
X160930948Y-83721335D01*
X160958020Y-83792719D01*
X160979555Y-83844709D01*
X160980521Y-83852050D01*
X160982209Y-83856500D01*
X160995278Y-83964140D01*
X161000000Y-84000000D01*
X160995278Y-84035862D01*
X160982209Y-84143499D01*
X160980521Y-84147947D01*
X160979555Y-84155291D01*
X160958015Y-84207291D01*
X160930948Y-84278664D01*
X160924708Y-84287703D01*
X160919615Y-84300000D01*
X160885814Y-84344049D01*
X160848832Y-84397627D01*
X160835937Y-84409050D01*
X160824264Y-84424264D01*
X160783194Y-84455777D01*
X160740629Y-84493488D01*
X160719808Y-84504415D01*
X160700000Y-84519615D01*
X160656582Y-84537598D01*
X160612632Y-84560666D01*
X160583642Y-84567811D01*
X160555291Y-84579555D01*
X160513877Y-84585007D01*
X160472278Y-84595261D01*
X160435995Y-84595261D01*
X160400000Y-84600000D01*
X160364005Y-84595261D01*
X160327722Y-84595261D01*
X160286121Y-84585007D01*
X160244709Y-84579555D01*
X160216358Y-84567811D01*
X160187367Y-84560666D01*
X160143412Y-84537596D01*
X160100000Y-84519615D01*
X160080193Y-84504417D01*
X160059370Y-84493488D01*
X160016798Y-84455772D01*
X159975736Y-84424264D01*
X159964064Y-84409053D01*
X159951167Y-84397627D01*
X159914175Y-84344036D01*
X159880385Y-84300000D01*
X159875293Y-84287707D01*
X159869051Y-84278664D01*
X159841972Y-84207262D01*
X159820445Y-84155291D01*
X159819478Y-84147951D01*
X159817790Y-84143499D01*
X159804708Y-84035764D01*
X159800000Y-84000000D01*
X159804708Y-83964238D01*
X159817790Y-83856500D01*
X159819478Y-83852046D01*
X159820445Y-83844709D01*
X159841967Y-83792748D01*
X159869051Y-83721335D01*
X159875294Y-83712290D01*
X159880385Y-83700000D01*
X159914168Y-83655972D01*
X159951167Y-83602372D01*
X159964066Y-83590943D01*
X159975736Y-83575736D01*
X160016789Y-83544234D01*
X160059370Y-83506511D01*
X160080197Y-83495579D01*
X160100000Y-83480385D01*
X160143403Y-83462406D01*
X160187367Y-83439333D01*
X160216363Y-83432186D01*
X160244709Y-83420445D01*
X160286118Y-83414993D01*
X160327722Y-83404739D01*
X160364005Y-83404739D01*
X160400000Y-83400000D01*
X160435995Y-83404739D01*
G37*
G36*
X180250295Y-81419699D02*
G01*
X180494427Y-81478310D01*
X180726385Y-81574390D01*
X180940456Y-81705573D01*
X181131371Y-81868629D01*
X181294427Y-82059544D01*
X181425610Y-82273615D01*
X181521690Y-82505573D01*
X181580301Y-82749705D01*
X181600000Y-83000000D01*
X181580301Y-83250295D01*
X181521690Y-83494427D01*
X181425610Y-83726385D01*
X181294427Y-83940456D01*
X181131371Y-84131371D01*
X180940456Y-84294427D01*
X180726385Y-84425610D01*
X180494427Y-84521690D01*
X180250295Y-84580301D01*
X180000000Y-84600000D01*
X179749705Y-84580301D01*
X179505573Y-84521690D01*
X179273615Y-84425610D01*
X179059544Y-84294427D01*
X178868629Y-84131371D01*
X178705573Y-83940456D01*
X178574390Y-83726385D01*
X178478310Y-83494427D01*
X178419699Y-83250295D01*
X178400000Y-83000000D01*
X178419699Y-82749705D01*
X178478310Y-82505573D01*
X178574390Y-82273615D01*
X178705573Y-82059544D01*
X178868629Y-81868629D01*
X179059544Y-81705573D01*
X179273615Y-81574390D01*
X179505573Y-81478310D01*
X179749705Y-81419699D01*
X180000000Y-81400000D01*
X180250295Y-81419699D01*
G37*
G36*
X93604047Y-81025805D02*
G01*
X93655408Y-81031764D01*
X93672954Y-81039511D01*
X93695671Y-81044030D01*
X93719991Y-81060280D01*
X93740793Y-81069465D01*
X93755000Y-81083672D01*
X93776777Y-81098223D01*
X93791327Y-81119999D01*
X93805534Y-81134206D01*
X93814718Y-81155006D01*
X93830970Y-81179329D01*
X93835489Y-81202048D01*
X93843235Y-81219591D01*
X93849192Y-81270940D01*
X93850000Y-81275000D01*
X93850000Y-82725000D01*
X93849192Y-82729059D01*
X93843235Y-82780408D01*
X93835489Y-82797950D01*
X93830970Y-82820671D01*
X93814716Y-82844995D01*
X93805534Y-82865793D01*
X93791329Y-82879997D01*
X93776777Y-82901777D01*
X93754997Y-82916329D01*
X93740793Y-82930534D01*
X93719995Y-82939716D01*
X93695671Y-82955970D01*
X93672950Y-82960489D01*
X93655408Y-82968235D01*
X93604061Y-82974192D01*
X93600000Y-82975000D01*
X92400000Y-82975000D01*
X92395941Y-82974192D01*
X92344591Y-82968235D01*
X92327048Y-82960489D01*
X92304329Y-82955970D01*
X92280006Y-82939718D01*
X92259206Y-82930534D01*
X92244999Y-82916327D01*
X92223223Y-82901777D01*
X92208672Y-82880000D01*
X92194465Y-82865793D01*
X92185280Y-82844991D01*
X92169030Y-82820671D01*
X92164511Y-82797954D01*
X92156764Y-82780408D01*
X92150805Y-82729049D01*
X92150000Y-82725000D01*
X92150000Y-81275000D01*
X92150804Y-81270953D01*
X92156764Y-81219591D01*
X92164511Y-81202043D01*
X92169030Y-81179329D01*
X92185278Y-81155010D01*
X92194465Y-81134206D01*
X92208674Y-81119996D01*
X92223223Y-81098223D01*
X92244996Y-81083674D01*
X92259206Y-81069465D01*
X92280010Y-81060278D01*
X92304329Y-81044030D01*
X92327043Y-81039511D01*
X92344591Y-81031764D01*
X92395952Y-81025805D01*
X92400000Y-81025000D01*
X93600000Y-81025000D01*
X93604047Y-81025805D01*
G37*
G36*
X106604047Y-81025805D02*
G01*
X106655408Y-81031764D01*
X106672954Y-81039511D01*
X106695671Y-81044030D01*
X106719991Y-81060280D01*
X106740793Y-81069465D01*
X106755000Y-81083672D01*
X106776777Y-81098223D01*
X106791327Y-81119999D01*
X106805534Y-81134206D01*
X106814718Y-81155006D01*
X106830970Y-81179329D01*
X106835489Y-81202048D01*
X106843235Y-81219591D01*
X106849192Y-81270940D01*
X106850000Y-81275000D01*
X106850000Y-82725000D01*
X106849192Y-82729059D01*
X106843235Y-82780408D01*
X106835489Y-82797950D01*
X106830970Y-82820671D01*
X106814716Y-82844995D01*
X106805534Y-82865793D01*
X106791329Y-82879997D01*
X106776777Y-82901777D01*
X106754997Y-82916329D01*
X106740793Y-82930534D01*
X106719995Y-82939716D01*
X106695671Y-82955970D01*
X106672950Y-82960489D01*
X106655408Y-82968235D01*
X106604061Y-82974192D01*
X106600000Y-82975000D01*
X105400000Y-82975000D01*
X105395941Y-82974192D01*
X105344591Y-82968235D01*
X105327048Y-82960489D01*
X105304329Y-82955970D01*
X105280006Y-82939718D01*
X105259206Y-82930534D01*
X105244999Y-82916327D01*
X105223223Y-82901777D01*
X105208672Y-82880000D01*
X105194465Y-82865793D01*
X105185280Y-82844991D01*
X105169030Y-82820671D01*
X105164511Y-82797954D01*
X105156764Y-82780408D01*
X105150805Y-82729049D01*
X105150000Y-82725000D01*
X105150000Y-81275000D01*
X105150804Y-81270953D01*
X105156764Y-81219591D01*
X105164511Y-81202043D01*
X105169030Y-81179329D01*
X105185278Y-81155010D01*
X105194465Y-81134206D01*
X105208674Y-81119996D01*
X105223223Y-81098223D01*
X105244996Y-81083674D01*
X105259206Y-81069465D01*
X105280010Y-81060278D01*
X105304329Y-81044030D01*
X105327043Y-81039511D01*
X105344591Y-81031764D01*
X105395952Y-81025805D01*
X105400000Y-81025000D01*
X106600000Y-81025000D01*
X106604047Y-81025805D01*
G37*
G36*
X119604047Y-81025805D02*
G01*
X119655408Y-81031764D01*
X119672954Y-81039511D01*
X119695671Y-81044030D01*
X119719991Y-81060280D01*
X119740793Y-81069465D01*
X119755000Y-81083672D01*
X119776777Y-81098223D01*
X119791327Y-81119999D01*
X119805534Y-81134206D01*
X119814718Y-81155006D01*
X119830970Y-81179329D01*
X119835489Y-81202048D01*
X119843235Y-81219591D01*
X119849192Y-81270940D01*
X119850000Y-81275000D01*
X119850000Y-82725000D01*
X119849192Y-82729059D01*
X119843235Y-82780408D01*
X119835489Y-82797950D01*
X119830970Y-82820671D01*
X119814716Y-82844995D01*
X119805534Y-82865793D01*
X119791329Y-82879997D01*
X119776777Y-82901777D01*
X119754997Y-82916329D01*
X119740793Y-82930534D01*
X119719995Y-82939716D01*
X119695671Y-82955970D01*
X119672950Y-82960489D01*
X119655408Y-82968235D01*
X119604061Y-82974192D01*
X119600000Y-82975000D01*
X118400000Y-82975000D01*
X118395941Y-82974192D01*
X118344591Y-82968235D01*
X118327048Y-82960489D01*
X118304329Y-82955970D01*
X118280006Y-82939718D01*
X118259206Y-82930534D01*
X118244999Y-82916327D01*
X118223223Y-82901777D01*
X118208672Y-82880000D01*
X118194465Y-82865793D01*
X118185280Y-82844991D01*
X118169030Y-82820671D01*
X118164511Y-82797954D01*
X118156764Y-82780408D01*
X118150805Y-82729049D01*
X118150000Y-82725000D01*
X118150000Y-81275000D01*
X118150804Y-81270953D01*
X118156764Y-81219591D01*
X118164511Y-81202043D01*
X118169030Y-81179329D01*
X118185278Y-81155010D01*
X118194465Y-81134206D01*
X118208674Y-81119996D01*
X118223223Y-81098223D01*
X118244996Y-81083674D01*
X118259206Y-81069465D01*
X118280010Y-81060278D01*
X118304329Y-81044030D01*
X118327043Y-81039511D01*
X118344591Y-81031764D01*
X118395952Y-81025805D01*
X118400000Y-81025000D01*
X119600000Y-81025000D01*
X119604047Y-81025805D01*
G37*
G36*
X132604047Y-81025805D02*
G01*
X132655408Y-81031764D01*
X132672954Y-81039511D01*
X132695671Y-81044030D01*
X132719991Y-81060280D01*
X132740793Y-81069465D01*
X132755000Y-81083672D01*
X132776777Y-81098223D01*
X132791327Y-81119999D01*
X132805534Y-81134206D01*
X132814718Y-81155006D01*
X132830970Y-81179329D01*
X132835489Y-81202048D01*
X132843235Y-81219591D01*
X132849192Y-81270940D01*
X132850000Y-81275000D01*
X132850000Y-82725000D01*
X132849192Y-82729059D01*
X132843235Y-82780408D01*
X132835489Y-82797950D01*
X132830970Y-82820671D01*
X132814716Y-82844995D01*
X132805534Y-82865793D01*
X132791329Y-82879997D01*
X132776777Y-82901777D01*
X132754997Y-82916329D01*
X132740793Y-82930534D01*
X132719995Y-82939716D01*
X132695671Y-82955970D01*
X132672950Y-82960489D01*
X132655408Y-82968235D01*
X132604061Y-82974192D01*
X132600000Y-82975000D01*
X131400000Y-82975000D01*
X131395941Y-82974192D01*
X131344591Y-82968235D01*
X131327048Y-82960489D01*
X131304329Y-82955970D01*
X131280006Y-82939718D01*
X131259206Y-82930534D01*
X131244999Y-82916327D01*
X131223223Y-82901777D01*
X131208672Y-82880000D01*
X131194465Y-82865793D01*
X131185280Y-82844991D01*
X131169030Y-82820671D01*
X131164511Y-82797954D01*
X131156764Y-82780408D01*
X131150805Y-82729049D01*
X131150000Y-82725000D01*
X131150000Y-81275000D01*
X131150804Y-81270953D01*
X131156764Y-81219591D01*
X131164511Y-81202043D01*
X131169030Y-81179329D01*
X131185278Y-81155010D01*
X131194465Y-81134206D01*
X131208674Y-81119996D01*
X131223223Y-81098223D01*
X131244996Y-81083674D01*
X131259206Y-81069465D01*
X131280010Y-81060278D01*
X131304329Y-81044030D01*
X131327043Y-81039511D01*
X131344591Y-81031764D01*
X131395952Y-81025805D01*
X131400000Y-81025000D01*
X132600000Y-81025000D01*
X132604047Y-81025805D01*
G37*
G36*
X147604047Y-81025805D02*
G01*
X147655408Y-81031764D01*
X147672954Y-81039511D01*
X147695671Y-81044030D01*
X147719991Y-81060280D01*
X147740793Y-81069465D01*
X147755000Y-81083672D01*
X147776777Y-81098223D01*
X147791327Y-81119999D01*
X147805534Y-81134206D01*
X147814718Y-81155006D01*
X147830970Y-81179329D01*
X147835489Y-81202048D01*
X147843235Y-81219591D01*
X147849192Y-81270940D01*
X147850000Y-81275000D01*
X147850000Y-82725000D01*
X147849192Y-82729059D01*
X147843235Y-82780408D01*
X147835489Y-82797950D01*
X147830970Y-82820671D01*
X147814716Y-82844995D01*
X147805534Y-82865793D01*
X147791329Y-82879997D01*
X147776777Y-82901777D01*
X147754997Y-82916329D01*
X147740793Y-82930534D01*
X147719995Y-82939716D01*
X147695671Y-82955970D01*
X147672950Y-82960489D01*
X147655408Y-82968235D01*
X147604061Y-82974192D01*
X147600000Y-82975000D01*
X146400000Y-82975000D01*
X146395941Y-82974192D01*
X146344591Y-82968235D01*
X146327048Y-82960489D01*
X146304329Y-82955970D01*
X146280006Y-82939718D01*
X146259206Y-82930534D01*
X146244999Y-82916327D01*
X146223223Y-82901777D01*
X146208672Y-82880000D01*
X146194465Y-82865793D01*
X146185280Y-82844991D01*
X146169030Y-82820671D01*
X146164511Y-82797954D01*
X146156764Y-82780408D01*
X146150805Y-82729049D01*
X146150000Y-82725000D01*
X146150000Y-81275000D01*
X146150804Y-81270953D01*
X146156764Y-81219591D01*
X146164511Y-81202043D01*
X146169030Y-81179329D01*
X146185278Y-81155010D01*
X146194465Y-81134206D01*
X146208674Y-81119996D01*
X146223223Y-81098223D01*
X146244996Y-81083674D01*
X146259206Y-81069465D01*
X146280010Y-81060278D01*
X146304329Y-81044030D01*
X146327043Y-81039511D01*
X146344591Y-81031764D01*
X146395952Y-81025805D01*
X146400000Y-81025000D01*
X147600000Y-81025000D01*
X147604047Y-81025805D01*
G37*
G36*
X162604047Y-81025805D02*
G01*
X162655408Y-81031764D01*
X162672954Y-81039511D01*
X162695671Y-81044030D01*
X162719991Y-81060280D01*
X162740793Y-81069465D01*
X162755000Y-81083672D01*
X162776777Y-81098223D01*
X162791327Y-81119999D01*
X162805534Y-81134206D01*
X162814718Y-81155006D01*
X162830970Y-81179329D01*
X162835489Y-81202048D01*
X162843235Y-81219591D01*
X162849192Y-81270940D01*
X162850000Y-81275000D01*
X162850000Y-82725000D01*
X162849192Y-82729059D01*
X162843235Y-82780408D01*
X162835489Y-82797950D01*
X162830970Y-82820671D01*
X162814716Y-82844995D01*
X162805534Y-82865793D01*
X162791329Y-82879997D01*
X162776777Y-82901777D01*
X162754997Y-82916329D01*
X162740793Y-82930534D01*
X162719995Y-82939716D01*
X162695671Y-82955970D01*
X162672950Y-82960489D01*
X162655408Y-82968235D01*
X162604061Y-82974192D01*
X162600000Y-82975000D01*
X161400000Y-82975000D01*
X161395941Y-82974192D01*
X161344591Y-82968235D01*
X161327048Y-82960489D01*
X161304329Y-82955970D01*
X161280006Y-82939718D01*
X161259206Y-82930534D01*
X161244999Y-82916327D01*
X161223223Y-82901777D01*
X161208672Y-82880000D01*
X161194465Y-82865793D01*
X161185280Y-82844991D01*
X161169030Y-82820671D01*
X161164511Y-82797954D01*
X161156764Y-82780408D01*
X161150805Y-82729049D01*
X161150000Y-82725000D01*
X161150000Y-81275000D01*
X161150804Y-81270953D01*
X161156764Y-81219591D01*
X161164511Y-81202043D01*
X161169030Y-81179329D01*
X161185278Y-81155010D01*
X161194465Y-81134206D01*
X161208674Y-81119996D01*
X161223223Y-81098223D01*
X161244996Y-81083674D01*
X161259206Y-81069465D01*
X161280010Y-81060278D01*
X161304329Y-81044030D01*
X161327043Y-81039511D01*
X161344591Y-81031764D01*
X161395952Y-81025805D01*
X161400000Y-81025000D01*
X162600000Y-81025000D01*
X162604047Y-81025805D01*
G37*
G36*
X95746742Y-81061601D02*
G01*
X95900687Y-81125367D01*
X96039234Y-81217941D01*
X96157059Y-81335766D01*
X96249633Y-81474313D01*
X96313399Y-81628258D01*
X96345907Y-81791685D01*
X96350000Y-82125000D01*
X96345907Y-82208315D01*
X96313399Y-82371742D01*
X96249633Y-82525687D01*
X96157059Y-82664234D01*
X96039234Y-82782059D01*
X95900687Y-82874633D01*
X95746742Y-82938399D01*
X95583315Y-82970907D01*
X95416685Y-82970907D01*
X95253258Y-82938399D01*
X95099313Y-82874633D01*
X94960766Y-82782059D01*
X94842941Y-82664234D01*
X94750367Y-82525687D01*
X94686601Y-82371742D01*
X94654093Y-82208315D01*
X94650000Y-81875000D01*
X94654093Y-81791685D01*
X94686601Y-81628258D01*
X94750367Y-81474313D01*
X94842941Y-81335766D01*
X94960766Y-81217941D01*
X95099313Y-81125367D01*
X95253258Y-81061601D01*
X95416685Y-81029093D01*
X95583315Y-81029093D01*
X95746742Y-81061601D01*
G37*
G36*
X98246742Y-81061601D02*
G01*
X98400687Y-81125367D01*
X98539234Y-81217941D01*
X98657059Y-81335766D01*
X98749633Y-81474313D01*
X98813399Y-81628258D01*
X98845907Y-81791685D01*
X98850000Y-82125000D01*
X98845907Y-82208315D01*
X98813399Y-82371742D01*
X98749633Y-82525687D01*
X98657059Y-82664234D01*
X98539234Y-82782059D01*
X98400687Y-82874633D01*
X98246742Y-82938399D01*
X98083315Y-82970907D01*
X97916685Y-82970907D01*
X97753258Y-82938399D01*
X97599313Y-82874633D01*
X97460766Y-82782059D01*
X97342941Y-82664234D01*
X97250367Y-82525687D01*
X97186601Y-82371742D01*
X97154093Y-82208315D01*
X97150000Y-81875000D01*
X97154093Y-81791685D01*
X97186601Y-81628258D01*
X97250367Y-81474313D01*
X97342941Y-81335766D01*
X97460766Y-81217941D01*
X97599313Y-81125367D01*
X97753258Y-81061601D01*
X97916685Y-81029093D01*
X98083315Y-81029093D01*
X98246742Y-81061601D01*
G37*
G36*
X108746742Y-81061601D02*
G01*
X108900687Y-81125367D01*
X109039234Y-81217941D01*
X109157059Y-81335766D01*
X109249633Y-81474313D01*
X109313399Y-81628258D01*
X109345907Y-81791685D01*
X109350000Y-82125000D01*
X109345907Y-82208315D01*
X109313399Y-82371742D01*
X109249633Y-82525687D01*
X109157059Y-82664234D01*
X109039234Y-82782059D01*
X108900687Y-82874633D01*
X108746742Y-82938399D01*
X108583315Y-82970907D01*
X108416685Y-82970907D01*
X108253258Y-82938399D01*
X108099313Y-82874633D01*
X107960766Y-82782059D01*
X107842941Y-82664234D01*
X107750367Y-82525687D01*
X107686601Y-82371742D01*
X107654093Y-82208315D01*
X107650000Y-81875000D01*
X107654093Y-81791685D01*
X107686601Y-81628258D01*
X107750367Y-81474313D01*
X107842941Y-81335766D01*
X107960766Y-81217941D01*
X108099313Y-81125367D01*
X108253258Y-81061601D01*
X108416685Y-81029093D01*
X108583315Y-81029093D01*
X108746742Y-81061601D01*
G37*
G36*
X111246742Y-81061601D02*
G01*
X111400687Y-81125367D01*
X111539234Y-81217941D01*
X111657059Y-81335766D01*
X111749633Y-81474313D01*
X111813399Y-81628258D01*
X111845907Y-81791685D01*
X111850000Y-82125000D01*
X111845907Y-82208315D01*
X111813399Y-82371742D01*
X111749633Y-82525687D01*
X111657059Y-82664234D01*
X111539234Y-82782059D01*
X111400687Y-82874633D01*
X111246742Y-82938399D01*
X111083315Y-82970907D01*
X110916685Y-82970907D01*
X110753258Y-82938399D01*
X110599313Y-82874633D01*
X110460766Y-82782059D01*
X110342941Y-82664234D01*
X110250367Y-82525687D01*
X110186601Y-82371742D01*
X110154093Y-82208315D01*
X110150000Y-81875000D01*
X110154093Y-81791685D01*
X110186601Y-81628258D01*
X110250367Y-81474313D01*
X110342941Y-81335766D01*
X110460766Y-81217941D01*
X110599313Y-81125367D01*
X110753258Y-81061601D01*
X110916685Y-81029093D01*
X111083315Y-81029093D01*
X111246742Y-81061601D01*
G37*
G36*
X121746742Y-81061601D02*
G01*
X121900687Y-81125367D01*
X122039234Y-81217941D01*
X122157059Y-81335766D01*
X122249633Y-81474313D01*
X122313399Y-81628258D01*
X122345907Y-81791685D01*
X122350000Y-82125000D01*
X122345907Y-82208315D01*
X122313399Y-82371742D01*
X122249633Y-82525687D01*
X122157059Y-82664234D01*
X122039234Y-82782059D01*
X121900687Y-82874633D01*
X121746742Y-82938399D01*
X121583315Y-82970907D01*
X121416685Y-82970907D01*
X121253258Y-82938399D01*
X121099313Y-82874633D01*
X120960766Y-82782059D01*
X120842941Y-82664234D01*
X120750367Y-82525687D01*
X120686601Y-82371742D01*
X120654093Y-82208315D01*
X120650000Y-81875000D01*
X120654093Y-81791685D01*
X120686601Y-81628258D01*
X120750367Y-81474313D01*
X120842941Y-81335766D01*
X120960766Y-81217941D01*
X121099313Y-81125367D01*
X121253258Y-81061601D01*
X121416685Y-81029093D01*
X121583315Y-81029093D01*
X121746742Y-81061601D01*
G37*
G36*
X124246742Y-81061601D02*
G01*
X124400687Y-81125367D01*
X124539234Y-81217941D01*
X124657059Y-81335766D01*
X124749633Y-81474313D01*
X124813399Y-81628258D01*
X124845907Y-81791685D01*
X124850000Y-82125000D01*
X124845907Y-82208315D01*
X124813399Y-82371742D01*
X124749633Y-82525687D01*
X124657059Y-82664234D01*
X124539234Y-82782059D01*
X124400687Y-82874633D01*
X124246742Y-82938399D01*
X124083315Y-82970907D01*
X123916685Y-82970907D01*
X123753258Y-82938399D01*
X123599313Y-82874633D01*
X123460766Y-82782059D01*
X123342941Y-82664234D01*
X123250367Y-82525687D01*
X123186601Y-82371742D01*
X123154093Y-82208315D01*
X123150000Y-81875000D01*
X123154093Y-81791685D01*
X123186601Y-81628258D01*
X123250367Y-81474313D01*
X123342941Y-81335766D01*
X123460766Y-81217941D01*
X123599313Y-81125367D01*
X123753258Y-81061601D01*
X123916685Y-81029093D01*
X124083315Y-81029093D01*
X124246742Y-81061601D01*
G37*
G36*
X134746742Y-81061601D02*
G01*
X134900687Y-81125367D01*
X135039234Y-81217941D01*
X135157059Y-81335766D01*
X135249633Y-81474313D01*
X135313399Y-81628258D01*
X135345907Y-81791685D01*
X135350000Y-82125000D01*
X135345907Y-82208315D01*
X135313399Y-82371742D01*
X135249633Y-82525687D01*
X135157059Y-82664234D01*
X135039234Y-82782059D01*
X134900687Y-82874633D01*
X134746742Y-82938399D01*
X134583315Y-82970907D01*
X134416685Y-82970907D01*
X134253258Y-82938399D01*
X134099313Y-82874633D01*
X133960766Y-82782059D01*
X133842941Y-82664234D01*
X133750367Y-82525687D01*
X133686601Y-82371742D01*
X133654093Y-82208315D01*
X133650000Y-81875000D01*
X133654093Y-81791685D01*
X133686601Y-81628258D01*
X133750367Y-81474313D01*
X133842941Y-81335766D01*
X133960766Y-81217941D01*
X134099313Y-81125367D01*
X134253258Y-81061601D01*
X134416685Y-81029093D01*
X134583315Y-81029093D01*
X134746742Y-81061601D01*
G37*
G36*
X137246742Y-81061601D02*
G01*
X137400687Y-81125367D01*
X137539234Y-81217941D01*
X137657059Y-81335766D01*
X137749633Y-81474313D01*
X137813399Y-81628258D01*
X137845907Y-81791685D01*
X137850000Y-82125000D01*
X137845907Y-82208315D01*
X137813399Y-82371742D01*
X137749633Y-82525687D01*
X137657059Y-82664234D01*
X137539234Y-82782059D01*
X137400687Y-82874633D01*
X137246742Y-82938399D01*
X137083315Y-82970907D01*
X136916685Y-82970907D01*
X136753258Y-82938399D01*
X136599313Y-82874633D01*
X136460766Y-82782059D01*
X136342941Y-82664234D01*
X136250367Y-82525687D01*
X136186601Y-82371742D01*
X136154093Y-82208315D01*
X136150000Y-81875000D01*
X136154093Y-81791685D01*
X136186601Y-81628258D01*
X136250367Y-81474313D01*
X136342941Y-81335766D01*
X136460766Y-81217941D01*
X136599313Y-81125367D01*
X136753258Y-81061601D01*
X136916685Y-81029093D01*
X137083315Y-81029093D01*
X137246742Y-81061601D01*
G37*
G36*
X139746742Y-81061601D02*
G01*
X139900687Y-81125367D01*
X140039234Y-81217941D01*
X140157059Y-81335766D01*
X140249633Y-81474313D01*
X140313399Y-81628258D01*
X140345907Y-81791685D01*
X140350000Y-82125000D01*
X140345907Y-82208315D01*
X140313399Y-82371742D01*
X140249633Y-82525687D01*
X140157059Y-82664234D01*
X140039234Y-82782059D01*
X139900687Y-82874633D01*
X139746742Y-82938399D01*
X139583315Y-82970907D01*
X139416685Y-82970907D01*
X139253258Y-82938399D01*
X139099313Y-82874633D01*
X138960766Y-82782059D01*
X138842941Y-82664234D01*
X138750367Y-82525687D01*
X138686601Y-82371742D01*
X138654093Y-82208315D01*
X138650000Y-81875000D01*
X138654093Y-81791685D01*
X138686601Y-81628258D01*
X138750367Y-81474313D01*
X138842941Y-81335766D01*
X138960766Y-81217941D01*
X139099313Y-81125367D01*
X139253258Y-81061601D01*
X139416685Y-81029093D01*
X139583315Y-81029093D01*
X139746742Y-81061601D01*
G37*
G36*
X149746742Y-81061601D02*
G01*
X149900687Y-81125367D01*
X150039234Y-81217941D01*
X150157059Y-81335766D01*
X150249633Y-81474313D01*
X150313399Y-81628258D01*
X150345907Y-81791685D01*
X150350000Y-82125000D01*
X150345907Y-82208315D01*
X150313399Y-82371742D01*
X150249633Y-82525687D01*
X150157059Y-82664234D01*
X150039234Y-82782059D01*
X149900687Y-82874633D01*
X149746742Y-82938399D01*
X149583315Y-82970907D01*
X149416685Y-82970907D01*
X149253258Y-82938399D01*
X149099313Y-82874633D01*
X148960766Y-82782059D01*
X148842941Y-82664234D01*
X148750367Y-82525687D01*
X148686601Y-82371742D01*
X148654093Y-82208315D01*
X148650000Y-81875000D01*
X148654093Y-81791685D01*
X148686601Y-81628258D01*
X148750367Y-81474313D01*
X148842941Y-81335766D01*
X148960766Y-81217941D01*
X149099313Y-81125367D01*
X149253258Y-81061601D01*
X149416685Y-81029093D01*
X149583315Y-81029093D01*
X149746742Y-81061601D01*
G37*
G36*
X152246742Y-81061601D02*
G01*
X152400687Y-81125367D01*
X152539234Y-81217941D01*
X152657059Y-81335766D01*
X152749633Y-81474313D01*
X152813399Y-81628258D01*
X152845907Y-81791685D01*
X152850000Y-82125000D01*
X152845907Y-82208315D01*
X152813399Y-82371742D01*
X152749633Y-82525687D01*
X152657059Y-82664234D01*
X152539234Y-82782059D01*
X152400687Y-82874633D01*
X152246742Y-82938399D01*
X152083315Y-82970907D01*
X151916685Y-82970907D01*
X151753258Y-82938399D01*
X151599313Y-82874633D01*
X151460766Y-82782059D01*
X151342941Y-82664234D01*
X151250367Y-82525687D01*
X151186601Y-82371742D01*
X151154093Y-82208315D01*
X151150000Y-81875000D01*
X151154093Y-81791685D01*
X151186601Y-81628258D01*
X151250367Y-81474313D01*
X151342941Y-81335766D01*
X151460766Y-81217941D01*
X151599313Y-81125367D01*
X151753258Y-81061601D01*
X151916685Y-81029093D01*
X152083315Y-81029093D01*
X152246742Y-81061601D01*
G37*
G36*
X154746742Y-81061601D02*
G01*
X154900687Y-81125367D01*
X155039234Y-81217941D01*
X155157059Y-81335766D01*
X155249633Y-81474313D01*
X155313399Y-81628258D01*
X155345907Y-81791685D01*
X155350000Y-82125000D01*
X155345907Y-82208315D01*
X155313399Y-82371742D01*
X155249633Y-82525687D01*
X155157059Y-82664234D01*
X155039234Y-82782059D01*
X154900687Y-82874633D01*
X154746742Y-82938399D01*
X154583315Y-82970907D01*
X154416685Y-82970907D01*
X154253258Y-82938399D01*
X154099313Y-82874633D01*
X153960766Y-82782059D01*
X153842941Y-82664234D01*
X153750367Y-82525687D01*
X153686601Y-82371742D01*
X153654093Y-82208315D01*
X153650000Y-81875000D01*
X153654093Y-81791685D01*
X153686601Y-81628258D01*
X153750367Y-81474313D01*
X153842941Y-81335766D01*
X153960766Y-81217941D01*
X154099313Y-81125367D01*
X154253258Y-81061601D01*
X154416685Y-81029093D01*
X154583315Y-81029093D01*
X154746742Y-81061601D01*
G37*
G36*
X164746742Y-81061601D02*
G01*
X164900687Y-81125367D01*
X165039234Y-81217941D01*
X165157059Y-81335766D01*
X165249633Y-81474313D01*
X165313399Y-81628258D01*
X165345907Y-81791685D01*
X165350000Y-82125000D01*
X165345907Y-82208315D01*
X165313399Y-82371742D01*
X165249633Y-82525687D01*
X165157059Y-82664234D01*
X165039234Y-82782059D01*
X164900687Y-82874633D01*
X164746742Y-82938399D01*
X164583315Y-82970907D01*
X164416685Y-82970907D01*
X164253258Y-82938399D01*
X164099313Y-82874633D01*
X163960766Y-82782059D01*
X163842941Y-82664234D01*
X163750367Y-82525687D01*
X163686601Y-82371742D01*
X163654093Y-82208315D01*
X163650000Y-81875000D01*
X163654093Y-81791685D01*
X163686601Y-81628258D01*
X163750367Y-81474313D01*
X163842941Y-81335766D01*
X163960766Y-81217941D01*
X164099313Y-81125367D01*
X164253258Y-81061601D01*
X164416685Y-81029093D01*
X164583315Y-81029093D01*
X164746742Y-81061601D01*
G37*
G36*
X167246742Y-81061601D02*
G01*
X167400687Y-81125367D01*
X167539234Y-81217941D01*
X167657059Y-81335766D01*
X167749633Y-81474313D01*
X167813399Y-81628258D01*
X167845907Y-81791685D01*
X167850000Y-82125000D01*
X167845907Y-82208315D01*
X167813399Y-82371742D01*
X167749633Y-82525687D01*
X167657059Y-82664234D01*
X167539234Y-82782059D01*
X167400687Y-82874633D01*
X167246742Y-82938399D01*
X167083315Y-82970907D01*
X166916685Y-82970907D01*
X166753258Y-82938399D01*
X166599313Y-82874633D01*
X166460766Y-82782059D01*
X166342941Y-82664234D01*
X166250367Y-82525687D01*
X166186601Y-82371742D01*
X166154093Y-82208315D01*
X166150000Y-81875000D01*
X166154093Y-81791685D01*
X166186601Y-81628258D01*
X166250367Y-81474313D01*
X166342941Y-81335766D01*
X166460766Y-81217941D01*
X166599313Y-81125367D01*
X166753258Y-81061601D01*
X166916685Y-81029093D01*
X167083315Y-81029093D01*
X167246742Y-81061601D01*
G37*
G36*
X169746742Y-81061601D02*
G01*
X169900687Y-81125367D01*
X170039234Y-81217941D01*
X170157059Y-81335766D01*
X170249633Y-81474313D01*
X170313399Y-81628258D01*
X170345907Y-81791685D01*
X170350000Y-82125000D01*
X170345907Y-82208315D01*
X170313399Y-82371742D01*
X170249633Y-82525687D01*
X170157059Y-82664234D01*
X170039234Y-82782059D01*
X169900687Y-82874633D01*
X169746742Y-82938399D01*
X169583315Y-82970907D01*
X169416685Y-82970907D01*
X169253258Y-82938399D01*
X169099313Y-82874633D01*
X168960766Y-82782059D01*
X168842941Y-82664234D01*
X168750367Y-82525687D01*
X168686601Y-82371742D01*
X168654093Y-82208315D01*
X168650000Y-81875000D01*
X168654093Y-81791685D01*
X168686601Y-81628258D01*
X168750367Y-81474313D01*
X168842941Y-81335766D01*
X168960766Y-81217941D01*
X169099313Y-81125367D01*
X169253258Y-81061601D01*
X169416685Y-81029093D01*
X169583315Y-81029093D01*
X169746742Y-81061601D01*
G37*
M02*
