M48
; DRILL file {KiCad 8.0.2} date 2024-12-26T16:42:48-0500
; FORMAT={-:-/ absolute / metric / decimal}
; #@! TF.CreationDate,2024-12-26T16:42:48-05:00
; #@! TF.GenerationSoftware,Kicad,Pcbnew,8.0.2
; #@! TF.FileFunction,Plated,1,4,PTH
FMAT,2
METRIC
; #@! TA.AperFunction,Plated,PTH,ViaDrill
T1C0.300
; #@! TA.AperFunction,Plated,PTH,ComponentDrill
T2C0.800
; #@! TA.AperFunction,Plated,PTH,ComponentDrill
T3C0.950
; #@! TA.AperFunction,Plated,PTH,ComponentDrill
T4C1.300
%
G90
G05
T1
X81.0Y-83.0
X81.0Y-85.0
X81.0Y-87.0
X81.0Y-89.0
X81.0Y-93.0
X81.0Y-95.0
X81.0Y-97.0
X81.0Y-99.0
X81.0Y-101.0
X81.0Y-103.0
X81.0Y-105.0
X81.0Y-107.0
X81.0Y-109.0
X81.0Y-111.0
X81.0Y-113.0
X81.0Y-115.0
X81.0Y-117.0
X81.0Y-119.0
X81.0Y-121.0
X81.0Y-123.0
X81.0Y-125.0
X81.0Y-127.0
X81.0Y-129.0
X81.0Y-131.0
X81.0Y-133.0
X81.0Y-135.0
X81.0Y-137.0
X81.0Y-139.0
X81.0Y-141.0
X81.0Y-143.0
X81.0Y-145.0
X82.0Y-80.0
X82.0Y-148.0
X83.0Y-87.0
X83.0Y-108.0
X83.0Y-111.0
X83.0Y-116.0
X83.0Y-118.0
X83.0Y-120.0
X83.0Y-122.0
X83.0Y-124.0
X83.0Y-126.0
X83.0Y-128.0
X83.0Y-130.0
X83.0Y-141.0
X85.0Y-79.0
X85.0Y-129.0
X85.0Y-131.0
X85.0Y-149.0
X86.0Y-86.0
X86.0Y-122.0
X86.0Y-124.0
X86.0Y-130.0
X86.0Y-133.0
X86.0Y-135.0
X86.0Y-141.0
X87.0Y-105.0
X87.0Y-120.0
X87.0Y-134.0
X88.0Y-80.0
X88.0Y-83.0
X88.0Y-126.0
X88.0Y-127.0
X88.0Y-128.0
X88.0Y-130.0
X88.0Y-131.0
X88.0Y-132.0
X88.0Y-134.0
X88.0Y-135.0
X88.0Y-136.0
X88.0Y-145.0
X90.0Y-79.0
X90.0Y-106.0
X90.0Y-113.0
X90.0Y-120.0
X90.0Y-123.0
X90.0Y-124.0
X90.0Y-141.0
X90.0Y-149.0
X91.0Y-88.0
X91.0Y-92.0
X91.0Y-109.0
X92.0Y-145.0
X93.0Y-101.0
X93.0Y-103.0
X93.0Y-106.0
X93.0Y-109.0
X93.0Y-113.0
X93.0Y-115.0
X93.0Y-119.0
X93.0Y-120.0
X93.0Y-121.0
X94.0Y-112.0
X94.0Y-141.0
X95.0Y-79.0
X95.0Y-91.0
X95.0Y-137.0
X95.0Y-149.0
X96.0Y-100.0
X96.0Y-120.0
X96.0Y-137.0
X97.0Y-120.0
X97.0Y-137.0
X97.0Y-145.0
X98.0Y-92.0
X98.0Y-97.0
X98.0Y-137.0
X99.0Y-85.0
X99.0Y-90.0
X99.0Y-103.0
X99.0Y-106.0
X99.0Y-117.0
X99.0Y-124.0
X99.0Y-141.0
X100.0Y-79.0
X100.0Y-149.0
X101.0Y-88.0
X101.0Y-91.0
X101.0Y-97.0
X101.0Y-106.0
X101.0Y-129.0
X101.0Y-130.0
X101.0Y-131.0
X101.0Y-132.0
X101.0Y-133.0
X101.0Y-139.0
X102.0Y-81.0
X102.0Y-85.0
X102.0Y-129.0
X102.0Y-130.0
X102.0Y-131.0
X102.0Y-132.0
X102.0Y-133.0
X102.0Y-145.0
X103.0Y-84.0
X103.0Y-106.0
X103.0Y-141.0
X104.0Y-89.0
X104.0Y-97.0
X104.0Y-129.0
X104.0Y-136.0
X105.0Y-79.0
X105.0Y-106.0
X105.0Y-109.0
X105.0Y-111.0
X105.0Y-149.0
X106.0Y-95.0
X106.0Y-143.0
X107.0Y-99.0
X107.0Y-127.0
X107.0Y-145.0
X108.0Y-91.0
X108.0Y-97.0
X108.0Y-109.0
X108.0Y-111.0
X108.0Y-113.0
X108.0Y-115.0
X108.0Y-117.0
X108.0Y-119.0
X108.0Y-121.0
X108.0Y-129.0
X109.0Y-134.0
X110.0Y-79.0
X110.0Y-91.0
X110.0Y-108.0
X110.0Y-110.0
X110.0Y-112.0
X110.0Y-114.0
X110.0Y-116.0
X110.0Y-118.0
X110.0Y-124.0
X110.0Y-127.0
X110.0Y-149.0
X111.0Y-120.0
X111.0Y-129.0
X112.0Y-90.0
X112.0Y-109.0
X112.0Y-111.0
X112.0Y-113.0
X112.0Y-115.0
X112.0Y-117.0
X112.0Y-119.0
X112.0Y-125.0
X112.0Y-136.0
X113.0Y-100.0
X113.0Y-127.0
X113.0Y-129.0
X113.0Y-135.0
X113.0Y-136.0
X114.0Y-91.0
X114.0Y-102.0
X114.0Y-138.0
X114.0Y-140.0
X114.0Y-142.0
X115.0Y-79.0
X115.0Y-82.0
X115.0Y-85.0
X115.0Y-122.0
X115.0Y-130.0
X115.0Y-136.0
X115.0Y-139.0
X115.0Y-141.0
X115.0Y-145.0
X115.0Y-149.0
X116.0Y-93.0
X116.0Y-107.0
X116.0Y-114.0
X116.0Y-118.0
X116.0Y-124.0
X116.0Y-127.0
X116.0Y-138.0
X116.0Y-140.0
X116.0Y-142.0
X117.0Y-109.0
X118.0Y-88.0
X118.0Y-94.0
X118.0Y-99.0
X118.0Y-105.0
X118.0Y-112.0
X118.0Y-119.0
X118.0Y-125.0
X118.0Y-127.0
X118.0Y-131.0
X118.0Y-134.0
X119.0Y-86.0
X119.0Y-101.0
X119.0Y-107.0
X119.0Y-115.0
X120.0Y-79.0
X120.0Y-95.0
X120.0Y-103.0
X120.0Y-110.0
X120.0Y-120.0
X120.0Y-125.0
X120.0Y-149.0
X121.0Y-94.0
X121.0Y-99.0
X121.0Y-105.0
X121.0Y-116.0
X121.0Y-122.0
X121.0Y-134.0
X122.0Y-91.0
X122.0Y-101.0
X122.0Y-108.0
X122.0Y-112.0
X122.0Y-144.0
X122.0Y-145.0
X122.0Y-147.0
X123.0Y-103.0
X123.0Y-117.0
X123.0Y-126.0
X123.0Y-130.0
X123.0Y-134.0
X124.0Y-99.0
X124.0Y-106.0
X124.0Y-113.0
X124.0Y-119.0
X125.0Y-79.0
X125.0Y-101.0
X125.0Y-109.0
X125.0Y-120.0
X125.0Y-128.0
X125.0Y-147.0
X125.0Y-149.0
X126.0Y-93.0
X126.0Y-104.0
X126.0Y-114.0
X126.0Y-117.0
X126.0Y-124.0
X127.0Y-91.0
X127.0Y-94.0
X127.0Y-99.0
X127.0Y-110.0
X127.0Y-118.0
X127.0Y-126.0
X127.0Y-133.0
X128.0Y-84.0
X128.0Y-102.0
X128.0Y-106.0
X128.0Y-116.0
X128.0Y-136.0
X128.0Y-140.0
X128.0Y-145.0
X129.0Y-90.0
X129.0Y-92.0
X129.0Y-111.0
X129.0Y-121.0
X129.0Y-128.0
X129.0Y-134.0
X129.0Y-139.0
X129.0Y-142.0
X130.0Y-79.0
X130.0Y-89.0
X130.0Y-94.0
X130.0Y-100.0
X130.0Y-107.0
X130.0Y-113.0
X130.0Y-124.0
X130.0Y-131.0
X130.0Y-149.0
X131.0Y-103.0
X131.0Y-114.0
X131.0Y-119.0
X132.0Y-108.0
X132.0Y-111.0
X132.0Y-126.0
X132.0Y-132.0
X132.0Y-137.0
X132.0Y-143.0
X132.0Y-147.0
X133.0Y-90.0
X133.0Y-93.0
X133.0Y-98.0
X133.0Y-104.0
X133.0Y-112.0
X134.0Y-90.0
X134.0Y-100.0
X134.0Y-109.0
X134.0Y-120.0
X135.0Y-79.0
X135.0Y-110.0
X135.0Y-123.0
X135.0Y-130.0
X135.0Y-134.0
X135.0Y-149.0
X136.0Y-92.0
X136.0Y-104.0
X136.0Y-107.0
X136.0Y-114.0
X136.0Y-133.0
X137.0Y-100.0
X137.0Y-108.0
X138.0Y-92.0
X138.0Y-112.0
X138.0Y-116.0
X139.0Y-84.0
X139.0Y-105.0
X139.0Y-119.0
X139.0Y-136.0
X140.0Y-79.0
X140.0Y-93.0
X140.0Y-100.0
X140.0Y-103.0
X140.0Y-128.0
X140.0Y-134.0
X140.0Y-138.0
X140.0Y-140.0
X140.0Y-142.0
X140.0Y-149.0
X141.0Y-88.0
X141.0Y-92.0
X141.0Y-113.0
X141.0Y-133.0
X141.0Y-136.0
X141.0Y-139.0
X141.0Y-141.0
X141.0Y-145.0
X142.0Y-91.0
X142.0Y-101.0
X142.0Y-105.0
X142.0Y-111.0
X142.0Y-134.0
X142.0Y-138.0
X142.0Y-140.0
X142.0Y-142.0
X143.0Y-81.0
X143.0Y-88.0
X143.0Y-115.0
X143.0Y-122.0
X143.0Y-133.0
X144.0Y-93.0
X144.0Y-103.0
X144.0Y-123.0
X145.0Y-79.0
X145.0Y-88.0
X145.0Y-90.0
X145.0Y-135.0
X145.0Y-149.0
X146.0Y-101.0
X146.0Y-105.0
X146.0Y-108.0
X146.0Y-119.0
X146.0Y-123.0
X146.0Y-136.0
X147.0Y-92.0
X147.0Y-111.0
X147.0Y-128.0
X147.0Y-131.0
X147.0Y-135.0
X148.0Y-103.0
X148.0Y-119.0
X148.0Y-124.0
X148.0Y-143.5
X149.0Y-93.0
X149.0Y-101.0
X149.0Y-105.0
X149.0Y-116.0
X149.0Y-126.0
X149.0Y-129.0
X149.0Y-133.0
X150.0Y-79.0
X150.0Y-108.0
X150.0Y-146.0
X150.0Y-149.0
X151.0Y-93.0
X151.0Y-103.0
X151.0Y-117.0
X151.0Y-121.0
X151.0Y-124.0
X151.0Y-127.0
X151.0Y-131.0
X152.0Y-87.0
X152.0Y-138.0
X152.0Y-142.0
X153.0Y-92.0
X153.0Y-101.0
X153.0Y-105.0
X153.0Y-119.0
X153.0Y-122.0
X153.0Y-125.0
X153.0Y-125.0
X153.0Y-129.0
X153.0Y-134.0
X153.0Y-138.0
X153.0Y-143.0
X153.0Y-145.0
X154.0Y-130.0
X154.0Y-140.0
X155.0Y-79.0
X155.0Y-84.0
X155.0Y-116.0
X155.0Y-118.0
X155.0Y-120.0
X155.0Y-128.0
X155.0Y-149.0
X156.0Y-107.0
X156.0Y-132.0
X157.0Y-86.0
X157.0Y-102.0
X157.0Y-112.0
X157.0Y-118.0
X157.0Y-122.0
X157.0Y-124.0
X157.0Y-126.0
X157.0Y-128.0
X158.0Y-81.0
X158.0Y-83.0
X158.0Y-92.0
X158.0Y-116.0
X158.0Y-131.0
X159.0Y-86.0
X159.0Y-106.0
X159.0Y-114.0
X159.0Y-126.0
X159.0Y-128.0
X159.0Y-135.0
X159.0Y-138.0
X160.0Y-79.0
X160.0Y-134.0
X160.0Y-149.0
X161.0Y-102.0
X161.0Y-113.0
X162.0Y-109.0
X162.0Y-112.0
X162.0Y-120.0
X162.0Y-122.0
X163.0Y-93.0
X163.0Y-117.0
X163.0Y-125.0
X163.0Y-132.0
X163.0Y-135.0
X164.0Y-114.0
X164.0Y-138.0
X164.0Y-144.0
X164.0Y-147.0
X165.0Y-79.0
X165.0Y-92.0
X165.0Y-102.0
X165.0Y-121.0
X165.0Y-129.0
X165.0Y-141.0
X165.0Y-149.0
X166.0Y-108.0
X166.0Y-111.0
X166.0Y-113.0
X166.0Y-117.0
X166.0Y-119.0
X167.0Y-87.0
X167.0Y-93.0
X167.0Y-132.0
X169.0Y-102.0
X169.0Y-102.0
X169.0Y-112.0
X170.0Y-79.0
X170.0Y-107.0
X170.0Y-109.0
X170.0Y-110.0
X170.0Y-135.0
X170.0Y-149.0
X171.0Y-134.0
X172.0Y-111.0
X172.0Y-123.0
X173.0Y-129.0
X173.32Y-92.68
X174.0Y-102.0
X174.0Y-104.0
X174.0Y-112.0
X174.831Y-97.831
X174.88Y-93.12
X175.0Y-79.0
X175.0Y-113.0
X175.0Y-120.0
X175.0Y-142.0
X175.0Y-145.0
X175.0Y-147.0
X175.0Y-149.0
X176.0Y-88.0
X176.0Y-106.0
X176.0Y-115.0
X176.0Y-133.0
X176.0Y-137.0
X176.0Y-141.0
X177.0Y-100.0
X177.0Y-101.0
X177.0Y-102.0
X177.0Y-104.0
X177.0Y-106.0
X177.0Y-109.0
X177.0Y-111.0
X177.0Y-125.0
X177.0Y-129.0
X177.0Y-144.0
X178.0Y-94.0
X178.0Y-100.0
X178.0Y-101.0
X178.0Y-102.0
X178.0Y-106.0
X178.0Y-118.0
X178.0Y-129.0
X179.0Y-94.0
X179.0Y-97.0
X179.0Y-100.0
X179.0Y-101.0
X179.0Y-102.0
X179.0Y-122.0
X179.0Y-126.0
X180.0Y-79.0
X180.0Y-97.0
X180.0Y-104.0
X180.0Y-128.0
X180.0Y-129.0
X180.0Y-133.0
X180.0Y-137.0
X180.0Y-141.0
X180.0Y-149.0
X182.0Y-97.0
X182.0Y-99.0
X182.0Y-101.0
X182.0Y-105.0
X182.0Y-129.0
X183.0Y-80.0
X183.0Y-129.0
X183.0Y-138.0
X183.0Y-141.0
X183.0Y-148.0
X184.0Y-83.0
X184.0Y-85.0
X184.0Y-87.0
X184.0Y-88.0
X184.0Y-89.0
X184.0Y-91.0
X184.0Y-93.0
X184.0Y-95.0
X184.0Y-107.0
X184.0Y-109.0
X184.0Y-109.0
X184.0Y-111.0
X184.0Y-113.0
X184.0Y-115.0
X184.0Y-117.0
X184.0Y-119.0
X184.0Y-121.0
X184.0Y-123.0
X184.0Y-125.0
X184.0Y-127.0
X184.0Y-127.0
X184.0Y-143.0
X184.0Y-145.0
T2
X116.5Y-129.0
X120.0Y-129.0
X122.5Y-122.0
X126.0Y-122.0
X129.5Y-116.0
X133.0Y-116.0
X136.5Y-110.0
X140.0Y-110.0
X144.5Y-121.0
X145.0Y-129.0
X145.0Y-132.5
X148.0Y-121.0
X153.0Y-114.0
X155.0Y-122.0
X155.0Y-125.5
X156.5Y-114.0
T3
X93.0Y-82.0
X95.5Y-82.0
X98.0Y-82.0
X106.0Y-82.0
X108.5Y-82.0
X111.0Y-82.0
X119.0Y-82.0
X121.5Y-82.0
X124.0Y-82.0
X132.0Y-82.0
X134.5Y-82.0
X137.0Y-82.0
X139.5Y-82.0
X147.0Y-82.0
X149.5Y-82.0
X152.0Y-82.0
X154.5Y-82.0
X162.0Y-82.0
X164.5Y-82.0
X167.0Y-82.0
X169.5Y-82.0
X181.0Y-115.0
X181.0Y-117.5
X181.0Y-120.0
X181.0Y-122.5
X181.0Y-125.0
T4
X83.0Y-91.0
X83.0Y-96.2
X83.0Y-102.0
X83.0Y-134.0
X83.0Y-138.0
X87.0Y-91.0
X87.0Y-96.2
X87.0Y-102.0
X113.0Y-147.0
X117.0Y-147.0
X139.1Y-147.0
X143.1Y-147.0
X157.0Y-147.0
X161.0Y-147.0
X168.0Y-147.0
X172.0Y-147.0
M30
