%TF.GenerationSoftware,KiCad,Pcbnew,8.0.2*%
%TF.CreationDate,2024-12-26T16:42:42-05:00*%
%TF.ProjectId,Column Controller,436f6c75-6d6e-4204-936f-6e74726f6c6c,rev?*%
%TF.SameCoordinates,Original*%
%TF.FileFunction,Paste,Top*%
%TF.FilePolarity,Positive*%
%FSLAX46Y46*%
G04 Gerber Fmt 4.6, Leading zero omitted, Abs format (unit mm)*
G04 Created by KiCad (PCBNEW 8.0.2) date 2024-12-26 16:42:42*
%MOMM*%
%LPD*%
G01*
G04 APERTURE LIST*
G04 Aperture macros list*
%AMRoundRect*
0 Rectangle with rounded corners*
0 $1 Rounding radius*
0 $2 $3 $4 $5 $6 $7 $8 $9 X,Y pos of 4 corners*
0 Add a 4 corners polygon primitive as box body*
4,1,4,$2,$3,$4,$5,$6,$7,$8,$9,$2,$3,0*
0 Add four circle primitives for the rounded corners*
1,1,$1+$1,$2,$3*
1,1,$1+$1,$4,$5*
1,1,$1+$1,$6,$7*
1,1,$1+$1,$8,$9*
0 Add four rect primitives between the rounded corners*
20,1,$1+$1,$2,$3,$4,$5,0*
20,1,$1+$1,$4,$5,$6,$7,0*
20,1,$1+$1,$6,$7,$8,$9,0*
20,1,$1+$1,$8,$9,$2,$3,0*%
G04 Aperture macros list end*
%ADD10RoundRect,0.250000X0.250000X0.475000X-0.250000X0.475000X-0.250000X-0.475000X0.250000X-0.475000X0*%
%ADD11RoundRect,0.200000X-0.275000X0.200000X-0.275000X-0.200000X0.275000X-0.200000X0.275000X0.200000X0*%
%ADD12RoundRect,0.200000X0.275000X-0.200000X0.275000X0.200000X-0.275000X0.200000X-0.275000X-0.200000X0*%
%ADD13RoundRect,0.135000X0.185000X-0.135000X0.185000X0.135000X-0.185000X0.135000X-0.185000X-0.135000X0*%
%ADD14RoundRect,0.225000X0.225000X0.250000X-0.225000X0.250000X-0.225000X-0.250000X0.225000X-0.250000X0*%
%ADD15RoundRect,0.150000X-0.587500X-0.150000X0.587500X-0.150000X0.587500X0.150000X-0.587500X0.150000X0*%
%ADD16RoundRect,0.737500X1.012500X-0.737500X1.012500X0.737500X-1.012500X0.737500X-1.012500X-0.737500X0*%
%ADD17RoundRect,0.137500X0.137500X-0.262500X0.137500X0.262500X-0.137500X0.262500X-0.137500X-0.262500X0*%
%ADD18RoundRect,0.200000X-0.200000X-0.275000X0.200000X-0.275000X0.200000X0.275000X-0.200000X0.275000X0*%
%ADD19RoundRect,0.200000X0.200000X0.275000X-0.200000X0.275000X-0.200000X-0.275000X0.200000X-0.275000X0*%
%ADD20RoundRect,0.218750X-0.218750X-0.256250X0.218750X-0.256250X0.218750X0.256250X-0.218750X0.256250X0*%
%ADD21RoundRect,0.135000X-0.185000X0.135000X-0.185000X-0.135000X0.185000X-0.135000X0.185000X0.135000X0*%
%ADD22RoundRect,0.250000X0.325000X0.650000X-0.325000X0.650000X-0.325000X-0.650000X0.325000X-0.650000X0*%
%ADD23RoundRect,0.218750X0.218750X0.256250X-0.218750X0.256250X-0.218750X-0.256250X0.218750X-0.256250X0*%
%ADD24RoundRect,0.250000X-0.325000X-1.100000X0.325000X-1.100000X0.325000X1.100000X-0.325000X1.100000X0*%
%ADD25RoundRect,0.218750X0.256250X-0.218750X0.256250X0.218750X-0.256250X0.218750X-0.256250X-0.218750X0*%
%ADD26RoundRect,0.375000X0.375000X-0.625000X0.375000X0.625000X-0.375000X0.625000X-0.375000X-0.625000X0*%
%ADD27RoundRect,0.500000X1.400000X-0.500000X1.400000X0.500000X-1.400000X0.500000X-1.400000X-0.500000X0*%
%ADD28RoundRect,0.250000X0.650000X-0.325000X0.650000X0.325000X-0.650000X0.325000X-0.650000X-0.325000X0*%
%ADD29RoundRect,0.150000X0.150000X-0.587500X0.150000X0.587500X-0.150000X0.587500X-0.150000X-0.587500X0*%
%ADD30RoundRect,0.062500X-0.062500X-0.237500X0.062500X-0.237500X0.062500X0.237500X-0.062500X0.237500X0*%
%ADD31RoundRect,0.062500X0.237500X-0.062500X0.237500X0.062500X-0.237500X0.062500X-0.237500X-0.062500X0*%
%ADD32RoundRect,0.062500X0.062500X0.237500X-0.062500X0.237500X-0.062500X-0.237500X0.062500X-0.237500X0*%
%ADD33RoundRect,0.062500X-0.237500X0.062500X-0.237500X-0.062500X0.237500X-0.062500X0.237500X0.062500X0*%
%ADD34RoundRect,0.525000X-0.525000X-1.525000X0.525000X-1.525000X0.525000X1.525000X-0.525000X1.525000X0*%
%ADD35RoundRect,0.250000X0.325000X1.100000X-0.325000X1.100000X-0.325000X-1.100000X0.325000X-1.100000X0*%
%ADD36RoundRect,0.140000X-0.170000X0.140000X-0.170000X-0.140000X0.170000X-0.140000X0.170000X0.140000X0*%
%ADD37RoundRect,0.175000X-0.325000X-0.175000X0.325000X-0.175000X0.325000X0.175000X-0.325000X0.175000X0*%
%ADD38RoundRect,0.250000X0.262500X0.450000X-0.262500X0.450000X-0.262500X-0.450000X0.262500X-0.450000X0*%
%ADD39RoundRect,0.175000X0.325000X0.175000X-0.325000X0.175000X-0.325000X-0.175000X0.325000X-0.175000X0*%
%ADD40RoundRect,0.250000X-0.650000X0.325000X-0.650000X-0.325000X0.650000X-0.325000X0.650000X0.325000X0*%
%ADD41RoundRect,0.140000X-0.140000X-0.170000X0.140000X-0.170000X0.140000X0.170000X-0.140000X0.170000X0*%
%ADD42RoundRect,0.187500X0.187500X0.312500X-0.187500X0.312500X-0.187500X-0.312500X0.187500X-0.312500X0*%
%ADD43RoundRect,1.132500X1.642500X1.132500X-1.642500X1.132500X-1.642500X-1.132500X1.642500X-1.132500X0*%
%ADD44RoundRect,0.187500X-0.312500X0.187500X-0.312500X-0.187500X0.312500X-0.187500X0.312500X0.187500X0*%
%ADD45RoundRect,1.132500X-1.132500X1.642500X-1.132500X-1.642500X1.132500X-1.642500X1.132500X1.642500X0*%
%ADD46RoundRect,0.225000X-0.250000X0.225000X-0.250000X-0.225000X0.250000X-0.225000X0.250000X0.225000X0*%
%ADD47RoundRect,0.140000X0.140000X0.170000X-0.140000X0.170000X-0.140000X-0.170000X0.140000X-0.170000X0*%
%ADD48RoundRect,0.250000X-0.325000X-0.650000X0.325000X-0.650000X0.325000X0.650000X-0.325000X0.650000X0*%
%ADD49RoundRect,0.250000X-1.100000X0.325000X-1.100000X-0.325000X1.100000X-0.325000X1.100000X0.325000X0*%
%ADD50RoundRect,0.375000X-0.625000X-0.375000X0.625000X-0.375000X0.625000X0.375000X-0.625000X0.375000X0*%
%ADD51RoundRect,0.500000X-0.500000X-1.400000X0.500000X-1.400000X0.500000X1.400000X-0.500000X1.400000X0*%
%ADD52RoundRect,0.112500X-0.637500X-0.112500X0.637500X-0.112500X0.637500X0.112500X-0.637500X0.112500X0*%
%ADD53RoundRect,0.135000X-0.135000X-0.185000X0.135000X-0.185000X0.135000X0.185000X-0.135000X0.185000X0*%
%ADD54RoundRect,0.150000X-0.150000X0.587500X-0.150000X-0.587500X0.150000X-0.587500X0.150000X0.587500X0*%
%ADD55RoundRect,0.150000X-0.512500X-0.150000X0.512500X-0.150000X0.512500X0.150000X-0.512500X0.150000X0*%
%ADD56RoundRect,0.100000X0.100000X-0.300000X0.100000X0.300000X-0.100000X0.300000X-0.100000X-0.300000X0*%
%ADD57RoundRect,0.100000X0.300000X0.100000X-0.300000X0.100000X-0.300000X-0.100000X0.300000X-0.100000X0*%
%ADD58RoundRect,0.100000X-0.100000X0.300000X-0.100000X-0.300000X0.100000X-0.300000X0.100000X0.300000X0*%
%ADD59RoundRect,0.100000X-0.300000X-0.100000X0.300000X-0.100000X0.300000X0.100000X-0.300000X0.100000X0*%
%ADD60RoundRect,1.000000X-1.000000X-1.000000X1.000000X-1.000000X1.000000X1.000000X-1.000000X1.000000X0*%
%ADD61RoundRect,0.140000X0.170000X-0.140000X0.170000X0.140000X-0.170000X0.140000X-0.170000X-0.140000X0*%
G04 APERTURE END LIST*
D10*
%TO.C,C36*%
X95950000Y-109000000D03*
X94050000Y-109000000D03*
%TD*%
D11*
%TO.C,R1*%
X181000000Y-109350000D03*
X181000000Y-111000000D03*
%TD*%
D12*
%TO.C,R35*%
X160000000Y-138825000D03*
X160000000Y-137175000D03*
%TD*%
D13*
%TO.C,R7*%
X182000000Y-133510000D03*
X182000000Y-132490000D03*
%TD*%
D14*
%TO.C,C22*%
X88775000Y-122000000D03*
X87225000Y-122000000D03*
%TD*%
D12*
%TO.C,R54*%
X135000000Y-137825000D03*
X135000000Y-136175000D03*
%TD*%
D15*
%TO.C,Q3*%
X178062500Y-138050000D03*
X178062500Y-139950000D03*
X179937500Y-139000000D03*
%TD*%
D16*
%TO.C,L1*%
X101900000Y-114675000D03*
X101900000Y-109225000D03*
%TD*%
D17*
%TO.C,D1*%
X182837500Y-136550000D03*
X181937500Y-136550000D03*
X181937500Y-134950000D03*
X182837500Y-134950000D03*
%TD*%
D12*
%TO.C,R5*%
X172020000Y-120825000D03*
X172020000Y-119175000D03*
%TD*%
D15*
%TO.C,Q4*%
X178062500Y-134050000D03*
X178062500Y-135950000D03*
X179937500Y-135000000D03*
%TD*%
D18*
%TO.C,R62*%
X166175000Y-143000000D03*
X167825000Y-143000000D03*
%TD*%
D19*
%TO.C,R23*%
X96825000Y-89000000D03*
X95175000Y-89000000D03*
%TD*%
D20*
%TO.C,D2*%
X110212500Y-93000000D03*
X111787500Y-93000000D03*
%TD*%
D21*
%TO.C,R64*%
X168000000Y-140490000D03*
X168000000Y-141510000D03*
%TD*%
D22*
%TO.C,C18*%
X103475000Y-103000000D03*
X100525000Y-103000000D03*
%TD*%
D23*
%TO.C,D3*%
X91787500Y-139000000D03*
X90212500Y-139000000D03*
%TD*%
D11*
%TO.C,R53*%
X90000000Y-103175000D03*
X90000000Y-104825000D03*
%TD*%
D12*
%TO.C,R55*%
X109000000Y-137825000D03*
X109000000Y-136175000D03*
%TD*%
D24*
%TO.C,C43*%
X123425000Y-136000000D03*
X126375000Y-136000000D03*
%TD*%
D13*
%TO.C,R40*%
X93000000Y-96510000D03*
X93000000Y-95490000D03*
%TD*%
D18*
%TO.C,R31*%
X155175000Y-143000000D03*
X156825000Y-143000000D03*
%TD*%
D21*
%TO.C,R63*%
X166000000Y-140490000D03*
X166000000Y-141510000D03*
%TD*%
D25*
%TO.C,D5*%
X93000000Y-99767500D03*
X93000000Y-98192500D03*
%TD*%
D12*
%TO.C,R26*%
X131000000Y-140825000D03*
X131000000Y-139175000D03*
%TD*%
%TO.C,R67*%
X171000000Y-137825000D03*
X171000000Y-136175000D03*
%TD*%
D26*
%TO.C,U9*%
X99700000Y-100150000D03*
X102000000Y-100150000D03*
D27*
X102000000Y-93850000D03*
D26*
X104300000Y-100150000D03*
%TD*%
D28*
%TO.C,C4*%
X161000000Y-126475000D03*
X161000000Y-123525000D03*
%TD*%
D29*
%TO.C,Q2*%
X172050000Y-116937500D03*
X173950000Y-116937500D03*
X173000000Y-115062500D03*
%TD*%
D30*
%TO.C,U6*%
X92250000Y-117350000D03*
D31*
X91350000Y-117750000D03*
X91350000Y-118250000D03*
X91350000Y-118750000D03*
X91350000Y-119250000D03*
X91350000Y-119750000D03*
X91350000Y-120250000D03*
X91350000Y-120750000D03*
X91350000Y-121250000D03*
X91350000Y-121750000D03*
X91350000Y-122250000D03*
D32*
X92250000Y-122650000D03*
X93750000Y-122650000D03*
D33*
X94650000Y-122250000D03*
X94650000Y-121750000D03*
X94650000Y-121250000D03*
X94650000Y-120750000D03*
X94650000Y-120250000D03*
X94650000Y-119750000D03*
X94650000Y-119250000D03*
X94650000Y-118750000D03*
X94650000Y-118250000D03*
X94650000Y-117750000D03*
D30*
X93750000Y-117350000D03*
D34*
X93000000Y-120000000D03*
%TD*%
D12*
%TO.C,R36*%
X162000000Y-138825000D03*
X162000000Y-137175000D03*
%TD*%
D19*
%TO.C,R28*%
X143825000Y-136000000D03*
X142175000Y-136000000D03*
%TD*%
D18*
%TO.C,R22*%
X95175000Y-87000000D03*
X96825000Y-87000000D03*
%TD*%
D11*
%TO.C,R3*%
X174000000Y-121175000D03*
X174000000Y-122825000D03*
%TD*%
D35*
%TO.C,C27*%
X114475000Y-96000000D03*
X111525000Y-96000000D03*
%TD*%
D36*
%TO.C,C49*%
X127000000Y-88520000D03*
X127000000Y-89480000D03*
%TD*%
%TO.C,C30*%
X97000000Y-134520000D03*
X97000000Y-135480000D03*
%TD*%
D37*
%TO.C,SW2*%
X164000000Y-123150000D03*
X170000000Y-123150000D03*
X164000000Y-126850000D03*
X170000000Y-126850000D03*
%TD*%
D38*
%TO.C,R49*%
X97912500Y-112000000D03*
X96087500Y-112000000D03*
%TD*%
D18*
%TO.C,R50*%
X94175000Y-115000000D03*
X95825000Y-115000000D03*
%TD*%
D11*
%TO.C,R48*%
X86000000Y-116175000D03*
X86000000Y-117825000D03*
%TD*%
D18*
%TO.C,R51*%
X90175000Y-115000000D03*
X91825000Y-115000000D03*
%TD*%
D36*
%TO.C,C5*%
X146000000Y-140520000D03*
X146000000Y-141480000D03*
%TD*%
D11*
%TO.C,R60*%
X109000000Y-142175000D03*
X109000000Y-143825000D03*
%TD*%
%TO.C,R19*%
X176000000Y-130175000D03*
X176000000Y-131825000D03*
%TD*%
%TO.C,R17*%
X176000000Y-138175000D03*
X176000000Y-139825000D03*
%TD*%
D36*
%TO.C,C31*%
X96000000Y-134520000D03*
X96000000Y-135480000D03*
%TD*%
D28*
%TO.C,C26*%
X107000000Y-103475000D03*
X107000000Y-100525000D03*
%TD*%
D18*
%TO.C,R47*%
X85175000Y-110000000D03*
X86825000Y-110000000D03*
%TD*%
%TO.C,R20*%
X121175000Y-87000000D03*
X122825000Y-87000000D03*
%TD*%
D39*
%TO.C,SW1*%
X170000000Y-118850000D03*
X164000000Y-118850000D03*
X170000000Y-115150000D03*
X164000000Y-115150000D03*
%TD*%
D12*
%TO.C,R58*%
X105000000Y-140825000D03*
X105000000Y-139175000D03*
%TD*%
D40*
%TO.C,C3*%
X161000000Y-115525000D03*
X161000000Y-118475000D03*
%TD*%
D18*
%TO.C,R15*%
X174175000Y-82000000D03*
X175825000Y-82000000D03*
%TD*%
D41*
%TO.C,C14*%
X155520000Y-139000000D03*
X156480000Y-139000000D03*
%TD*%
D19*
%TO.C,R37*%
X126825000Y-87000000D03*
X125175000Y-87000000D03*
%TD*%
D36*
%TO.C,C37*%
X120000000Y-140520000D03*
X120000000Y-141480000D03*
%TD*%
D42*
%TO.C,Q7*%
X98905000Y-127270000D03*
X97635000Y-127270000D03*
X96365000Y-127270000D03*
X95095000Y-127270000D03*
D43*
X97000000Y-131000000D03*
%TD*%
D35*
%TO.C,C25*%
X92475000Y-131000000D03*
X89525000Y-131000000D03*
%TD*%
D12*
%TO.C,R46*%
X90000000Y-96825000D03*
X90000000Y-95175000D03*
%TD*%
D21*
%TO.C,R33*%
X157000000Y-140490000D03*
X157000000Y-141510000D03*
%TD*%
D24*
%TO.C,C44*%
X123425000Y-140000000D03*
X126375000Y-140000000D03*
%TD*%
D19*
%TO.C,R45*%
X87825000Y-139000000D03*
X86175000Y-139000000D03*
%TD*%
D11*
%TO.C,R18*%
X176000000Y-134175000D03*
X176000000Y-135825000D03*
%TD*%
D18*
%TO.C,R11*%
X168175000Y-87000000D03*
X169825000Y-87000000D03*
%TD*%
D44*
%TO.C,Q8*%
X99470000Y-119095000D03*
X99470000Y-120365000D03*
X99470000Y-121635000D03*
X99470000Y-122905000D03*
D45*
X103200000Y-121000000D03*
%TD*%
D11*
%TO.C,R27*%
X133000000Y-142175000D03*
X133000000Y-143825000D03*
%TD*%
D46*
%TO.C,C7*%
X112000000Y-87225000D03*
X112000000Y-88775000D03*
%TD*%
D47*
%TO.C,C45*%
X168480000Y-133000000D03*
X167520000Y-133000000D03*
%TD*%
D11*
%TO.C,R30*%
X135000000Y-142175000D03*
X135000000Y-143825000D03*
%TD*%
D48*
%TO.C,C2*%
X179525000Y-91000000D03*
X182475000Y-91000000D03*
%TD*%
D21*
%TO.C,R12*%
X182000000Y-138000000D03*
X182000000Y-139020000D03*
%TD*%
D47*
%TO.C,C47*%
X157480000Y-133000000D03*
X156520000Y-133000000D03*
%TD*%
D11*
%TO.C,R38*%
X176000000Y-117175000D03*
X176000000Y-118825000D03*
%TD*%
D46*
%TO.C,C6*%
X99000000Y-87225000D03*
X99000000Y-88775000D03*
%TD*%
D49*
%TO.C,C19*%
X96000000Y-95525000D03*
X96000000Y-98475000D03*
%TD*%
D18*
%TO.C,R42*%
X87175000Y-124000000D03*
X88825000Y-124000000D03*
%TD*%
D11*
%TO.C,R4*%
X179000000Y-109350000D03*
X179000000Y-111000000D03*
%TD*%
D46*
%TO.C,C8*%
X147000000Y-137225000D03*
X147000000Y-138775000D03*
%TD*%
D47*
%TO.C,C23*%
X88960000Y-120000000D03*
X88000000Y-120000000D03*
%TD*%
D36*
%TO.C,C32*%
X95000000Y-134520000D03*
X95000000Y-135480000D03*
%TD*%
%TO.C,C16*%
X148000000Y-141520000D03*
X148000000Y-142480000D03*
%TD*%
D50*
%TO.C,U8*%
X109850000Y-99700000D03*
X109850000Y-102000000D03*
D51*
X116150000Y-102000000D03*
D50*
X109850000Y-104300000D03*
%TD*%
D18*
%TO.C,R9*%
X153175000Y-87000000D03*
X154825000Y-87000000D03*
%TD*%
D15*
%TO.C,Q5*%
X178062500Y-130050000D03*
X178062500Y-131950000D03*
X179937500Y-131000000D03*
%TD*%
D18*
%TO.C,R10*%
X163175000Y-87000000D03*
X164825000Y-87000000D03*
%TD*%
D12*
%TO.C,R66*%
X173000000Y-137825000D03*
X173000000Y-136175000D03*
%TD*%
D10*
%TO.C,C35*%
X95950000Y-106000000D03*
X94050000Y-106000000D03*
%TD*%
D36*
%TO.C,C21*%
X97000000Y-121520000D03*
X97000000Y-122480000D03*
%TD*%
D10*
%TO.C,C34*%
X95950000Y-103000000D03*
X94050000Y-103000000D03*
%TD*%
D19*
%TO.C,R29*%
X117825000Y-136000000D03*
X116175000Y-136000000D03*
%TD*%
D52*
%TO.C,U4*%
X138100000Y-137725000D03*
X138100000Y-138375000D03*
X138100000Y-139025000D03*
X138100000Y-139675000D03*
X138100000Y-140325000D03*
X138100000Y-140975000D03*
X138100000Y-141625000D03*
X138100000Y-142275000D03*
X143900000Y-142275000D03*
X143900000Y-141625000D03*
X143900000Y-140975000D03*
X143900000Y-140325000D03*
X143900000Y-139675000D03*
X143900000Y-139025000D03*
X143900000Y-138375000D03*
X143900000Y-137725000D03*
%TD*%
D53*
%TO.C,R44*%
X113490000Y-93000000D03*
X114510000Y-93000000D03*
%TD*%
D18*
%TO.C,R24*%
X108175000Y-87000000D03*
X109825000Y-87000000D03*
%TD*%
D54*
%TO.C,Q9*%
X172950000Y-140062500D03*
X171050000Y-140062500D03*
X172000000Y-141937500D03*
%TD*%
D24*
%TO.C,C15*%
X149525000Y-140000000D03*
X152475000Y-140000000D03*
%TD*%
D21*
%TO.C,R32*%
X155000000Y-140490000D03*
X155000000Y-141510000D03*
%TD*%
D35*
%TO.C,C28*%
X92475000Y-127000000D03*
X89525000Y-127000000D03*
%TD*%
D55*
%TO.C,U5*%
X154862500Y-135050000D03*
X154862500Y-136000000D03*
X154862500Y-136950000D03*
X157137500Y-136950000D03*
X157137500Y-136000000D03*
X157137500Y-135050000D03*
%TD*%
D52*
%TO.C,U10*%
X112100000Y-137725000D03*
X112100000Y-138375000D03*
X112100000Y-139025000D03*
X112100000Y-139675000D03*
X112100000Y-140325000D03*
X112100000Y-140975000D03*
X112100000Y-141625000D03*
X112100000Y-142275000D03*
X117900000Y-142275000D03*
X117900000Y-141625000D03*
X117900000Y-140975000D03*
X117900000Y-140325000D03*
X117900000Y-139675000D03*
X117900000Y-139025000D03*
X117900000Y-138375000D03*
X117900000Y-137725000D03*
%TD*%
D24*
%TO.C,C13*%
X149525000Y-136000000D03*
X152475000Y-136000000D03*
%TD*%
D11*
%TO.C,R2*%
X176250000Y-89675000D03*
X176250000Y-91325000D03*
%TD*%
%TO.C,R69*%
X165000000Y-131175000D03*
X165000000Y-132825000D03*
%TD*%
D13*
%TO.C,R6*%
X183000000Y-132510000D03*
X183000000Y-131490000D03*
%TD*%
D54*
%TO.C,Q1*%
X173950000Y-125062500D03*
X172050000Y-125062500D03*
X173000000Y-126937500D03*
%TD*%
D55*
%TO.C,U11*%
X165862500Y-135050000D03*
X165862500Y-136000000D03*
X165862500Y-136950000D03*
X168137500Y-136950000D03*
X168137500Y-136000000D03*
X168137500Y-135050000D03*
%TD*%
D11*
%TO.C,R39*%
X176000000Y-122175000D03*
X176000000Y-123825000D03*
%TD*%
D41*
%TO.C,C33*%
X166520000Y-139000000D03*
X167480000Y-139000000D03*
%TD*%
D36*
%TO.C,C29*%
X98000000Y-134520000D03*
X98000000Y-135480000D03*
%TD*%
D18*
%TO.C,R8*%
X148175000Y-87000000D03*
X149825000Y-87000000D03*
%TD*%
D19*
%TO.C,R13*%
X175825000Y-84000000D03*
X174175000Y-84000000D03*
%TD*%
D11*
%TO.C,R68*%
X154000000Y-131175000D03*
X154000000Y-132825000D03*
%TD*%
%TO.C,R61*%
X107000000Y-142175000D03*
X107000000Y-143825000D03*
%TD*%
D18*
%TO.C,R52*%
X85175000Y-108000000D03*
X86825000Y-108000000D03*
%TD*%
D46*
%TO.C,C46*%
X121000000Y-137225000D03*
X121000000Y-138775000D03*
%TD*%
D18*
%TO.C,R41*%
X85175000Y-112000000D03*
X86825000Y-112000000D03*
%TD*%
D47*
%TO.C,C17*%
X92000000Y-124000000D03*
X91040000Y-124000000D03*
%TD*%
D36*
%TO.C,C38*%
X122000000Y-141520000D03*
X122000000Y-142480000D03*
%TD*%
D19*
%TO.C,R21*%
X122825000Y-89000000D03*
X121175000Y-89000000D03*
%TD*%
D56*
%TO.C,U2*%
X183200000Y-95100000D03*
X182337500Y-95100000D03*
X181475000Y-95100000D03*
X180612500Y-95100000D03*
X179750000Y-95100000D03*
X178887500Y-95100000D03*
X178025000Y-95100000D03*
X177162500Y-95100000D03*
X176300000Y-95100000D03*
X175437500Y-95100000D03*
X174575000Y-95100000D03*
X173712500Y-95100000D03*
X172850000Y-95100000D03*
D57*
X171950000Y-95800000D03*
X171950000Y-96600000D03*
X171950000Y-97400000D03*
X171950000Y-98200000D03*
X171950000Y-99000000D03*
X171950000Y-99800000D03*
X171950000Y-100600000D03*
X171950000Y-101400000D03*
X171950000Y-102200000D03*
X171950000Y-103000000D03*
X171950000Y-103800000D03*
X171950000Y-104600000D03*
X171950000Y-105400000D03*
X171950000Y-106200000D03*
D58*
X172850000Y-106900000D03*
X173712500Y-106900000D03*
X174575000Y-106900000D03*
X175437500Y-106900000D03*
X176300000Y-106900000D03*
X177162500Y-106900000D03*
X178025000Y-106900000D03*
X178887500Y-106900000D03*
X179750000Y-106900000D03*
X180612500Y-106900000D03*
X181475000Y-106900000D03*
X182337500Y-106900000D03*
X183200000Y-106900000D03*
D59*
X184050000Y-106200000D03*
X184050000Y-105400000D03*
X184050000Y-104600000D03*
X184050000Y-103800000D03*
X184050000Y-103000000D03*
X184050000Y-102200000D03*
X184050000Y-101400000D03*
X184050000Y-100600000D03*
X184050000Y-99800000D03*
X184050000Y-99000000D03*
X184050000Y-98200000D03*
X184050000Y-97400000D03*
X184050000Y-96600000D03*
X184050000Y-95800000D03*
D60*
X178000000Y-101000000D03*
%TD*%
D41*
%TO.C,C51*%
X166520000Y-131000000D03*
X167480000Y-131000000D03*
%TD*%
D35*
%TO.C,C24*%
X92475000Y-135000000D03*
X89525000Y-135000000D03*
%TD*%
D41*
%TO.C,C50*%
X155520000Y-131000000D03*
X156480000Y-131000000D03*
%TD*%
D48*
%TO.C,C1*%
X179525000Y-88000000D03*
X182475000Y-88000000D03*
%TD*%
D19*
%TO.C,R25*%
X109825000Y-89000000D03*
X108175000Y-89000000D03*
%TD*%
D11*
%TO.C,R43*%
X85000000Y-122175000D03*
X85000000Y-123825000D03*
%TD*%
D54*
%TO.C,Q6*%
X161950000Y-141062500D03*
X160050000Y-141062500D03*
X161000000Y-142937500D03*
%TD*%
D61*
%TO.C,C20*%
X86000000Y-114480000D03*
X86000000Y-113520000D03*
%TD*%
M02*
