%TF.GenerationSoftware,KiCad,Pcbnew,8.0.2*%
%TF.CreationDate,2024-12-26T16:34:37-05:00*%
%TF.ProjectId,Node Controller,4e6f6465-2043-46f6-9e74-726f6c6c6572,rev?*%
%TF.SameCoordinates,Original*%
%TF.FileFunction,Soldermask,Bot*%
%TF.FilePolarity,Negative*%
%FSLAX46Y46*%
G04 Gerber Fmt 4.6, Leading zero omitted, Abs format (unit mm)*
G04 Created by KiCad (PCBNEW 8.0.2) date 2024-12-26 16:34:37*
%MOMM*%
%LPD*%
G01*
G04 APERTURE LIST*
G04 APERTURE END LIST*
G36*
X151000000Y-90000000D02*
G01*
X149000000Y-90000000D01*
X149000000Y-88000000D01*
X151000000Y-88000000D01*
X151000000Y-90000000D01*
G37*
G36*
X154195090Y-88019215D02*
G01*
X154382683Y-88076120D01*
X154555570Y-88168530D01*
X154707107Y-88292893D01*
X154831470Y-88444430D01*
X154923880Y-88617317D01*
X154980785Y-88804910D01*
X155000000Y-89000000D01*
X154980785Y-89195090D01*
X154923880Y-89382683D01*
X154831470Y-89555570D01*
X154707107Y-89707107D01*
X154555570Y-89831470D01*
X154382683Y-89923880D01*
X154195090Y-89980785D01*
X154000000Y-90000000D01*
X153804910Y-89980785D01*
X153617317Y-89923880D01*
X153444430Y-89831470D01*
X153292893Y-89707107D01*
X153168530Y-89555570D01*
X153076120Y-89382683D01*
X153019215Y-89195090D01*
X153000000Y-89000000D01*
X153019215Y-88804910D01*
X153076120Y-88617317D01*
X153168530Y-88444430D01*
X153292893Y-88292893D01*
X153444430Y-88168530D01*
X153617317Y-88076120D01*
X153804910Y-88019215D01*
X154000000Y-88000000D01*
X154195090Y-88019215D01*
G37*
G36*
X167000000Y-90000000D02*
G01*
X165000000Y-90000000D01*
X165000000Y-88000000D01*
X167000000Y-88000000D01*
X167000000Y-90000000D01*
G37*
G36*
X170195090Y-88019215D02*
G01*
X170382683Y-88076120D01*
X170555570Y-88168530D01*
X170707107Y-88292893D01*
X170831470Y-88444430D01*
X170923880Y-88617317D01*
X170980785Y-88804910D01*
X171000000Y-89000000D01*
X170980785Y-89195090D01*
X170923880Y-89382683D01*
X170831470Y-89555570D01*
X170707107Y-89707107D01*
X170555570Y-89831470D01*
X170382683Y-89923880D01*
X170195090Y-89980785D01*
X170000000Y-90000000D01*
X169804910Y-89980785D01*
X169617317Y-89923880D01*
X169444430Y-89831470D01*
X169292893Y-89707107D01*
X169168530Y-89555570D01*
X169076120Y-89382683D01*
X169019215Y-89195090D01*
X169000000Y-89000000D01*
X169019215Y-88804910D01*
X169076120Y-88617317D01*
X169168530Y-88444430D01*
X169292893Y-88292893D01*
X169444430Y-88168530D01*
X169617317Y-88076120D01*
X169804910Y-88019215D01*
X170000000Y-88000000D01*
X170195090Y-88019215D01*
G37*
G36*
X108250295Y-86419699D02*
G01*
X108494427Y-86478310D01*
X108726385Y-86574390D01*
X108940456Y-86705573D01*
X109131371Y-86868629D01*
X109294427Y-87059544D01*
X109425610Y-87273615D01*
X109521690Y-87505573D01*
X109580301Y-87749705D01*
X109600000Y-88000000D01*
X109580301Y-88250295D01*
X109521690Y-88494427D01*
X109425610Y-88726385D01*
X109294427Y-88940456D01*
X109131371Y-89131371D01*
X108940456Y-89294427D01*
X108726385Y-89425610D01*
X108494427Y-89521690D01*
X108250295Y-89580301D01*
X108000000Y-89600000D01*
X107749705Y-89580301D01*
X107505573Y-89521690D01*
X107273615Y-89425610D01*
X107059544Y-89294427D01*
X106868629Y-89131371D01*
X106705573Y-88940456D01*
X106574390Y-88726385D01*
X106478310Y-88494427D01*
X106419699Y-88250295D01*
X106400000Y-88000000D01*
X106419699Y-87749705D01*
X106478310Y-87505573D01*
X106574390Y-87273615D01*
X106705573Y-87059544D01*
X106868629Y-86868629D01*
X107059544Y-86705573D01*
X107273615Y-86574390D01*
X107505573Y-86478310D01*
X107749705Y-86419699D01*
X108000000Y-86400000D01*
X108250295Y-86419699D01*
G37*
G36*
X186250295Y-86419699D02*
G01*
X186494427Y-86478310D01*
X186726385Y-86574390D01*
X186940456Y-86705573D01*
X187131371Y-86868629D01*
X187294427Y-87059544D01*
X187425610Y-87273615D01*
X187521690Y-87505573D01*
X187580301Y-87749705D01*
X187600000Y-88000000D01*
X187580301Y-88250295D01*
X187521690Y-88494427D01*
X187425610Y-88726385D01*
X187294427Y-88940456D01*
X187131371Y-89131371D01*
X186940456Y-89294427D01*
X186726385Y-89425610D01*
X186494427Y-89521690D01*
X186250295Y-89580301D01*
X186000000Y-89600000D01*
X185749705Y-89580301D01*
X185505573Y-89521690D01*
X185273615Y-89425610D01*
X185059544Y-89294427D01*
X184868629Y-89131371D01*
X184705573Y-88940456D01*
X184574390Y-88726385D01*
X184478310Y-88494427D01*
X184419699Y-88250295D01*
X184400000Y-88000000D01*
X184419699Y-87749705D01*
X184478310Y-87505573D01*
X184574390Y-87273615D01*
X184705573Y-87059544D01*
X184868629Y-86868629D01*
X185059544Y-86705573D01*
X185273615Y-86574390D01*
X185505573Y-86478310D01*
X185749705Y-86419699D01*
X186000000Y-86400000D01*
X186250295Y-86419699D01*
G37*
G36*
X124604047Y-87025805D02*
G01*
X124655408Y-87031764D01*
X124672954Y-87039511D01*
X124695671Y-87044030D01*
X124719991Y-87060280D01*
X124740793Y-87069465D01*
X124755000Y-87083672D01*
X124776777Y-87098223D01*
X124791327Y-87119999D01*
X124805534Y-87134206D01*
X124814718Y-87155006D01*
X124830970Y-87179329D01*
X124835489Y-87202048D01*
X124843235Y-87219591D01*
X124849192Y-87270940D01*
X124850000Y-87275000D01*
X124850000Y-88725000D01*
X124849192Y-88729059D01*
X124843235Y-88780408D01*
X124835489Y-88797950D01*
X124830970Y-88820671D01*
X124814716Y-88844995D01*
X124805534Y-88865793D01*
X124791329Y-88879997D01*
X124776777Y-88901777D01*
X124754997Y-88916329D01*
X124740793Y-88930534D01*
X124719995Y-88939716D01*
X124695671Y-88955970D01*
X124672950Y-88960489D01*
X124655408Y-88968235D01*
X124604061Y-88974192D01*
X124600000Y-88975000D01*
X123400000Y-88975000D01*
X123395941Y-88974192D01*
X123344591Y-88968235D01*
X123327048Y-88960489D01*
X123304329Y-88955970D01*
X123280006Y-88939718D01*
X123259206Y-88930534D01*
X123244999Y-88916327D01*
X123223223Y-88901777D01*
X123208672Y-88880000D01*
X123194465Y-88865793D01*
X123185280Y-88844991D01*
X123169030Y-88820671D01*
X123164511Y-88797954D01*
X123156764Y-88780408D01*
X123150805Y-88729049D01*
X123150000Y-88725000D01*
X123150000Y-87275000D01*
X123150804Y-87270953D01*
X123156764Y-87219591D01*
X123164511Y-87202043D01*
X123169030Y-87179329D01*
X123185278Y-87155010D01*
X123194465Y-87134206D01*
X123208674Y-87119996D01*
X123223223Y-87098223D01*
X123244996Y-87083674D01*
X123259206Y-87069465D01*
X123280010Y-87060278D01*
X123304329Y-87044030D01*
X123327043Y-87039511D01*
X123344591Y-87031764D01*
X123395952Y-87025805D01*
X123400000Y-87025000D01*
X124600000Y-87025000D01*
X124604047Y-87025805D01*
G37*
G36*
X139604047Y-87025805D02*
G01*
X139655408Y-87031764D01*
X139672954Y-87039511D01*
X139695671Y-87044030D01*
X139719991Y-87060280D01*
X139740793Y-87069465D01*
X139755000Y-87083672D01*
X139776777Y-87098223D01*
X139791327Y-87119999D01*
X139805534Y-87134206D01*
X139814718Y-87155006D01*
X139830970Y-87179329D01*
X139835489Y-87202048D01*
X139843235Y-87219591D01*
X139849192Y-87270940D01*
X139850000Y-87275000D01*
X139850000Y-88725000D01*
X139849192Y-88729059D01*
X139843235Y-88780408D01*
X139835489Y-88797950D01*
X139830970Y-88820671D01*
X139814716Y-88844995D01*
X139805534Y-88865793D01*
X139791329Y-88879997D01*
X139776777Y-88901777D01*
X139754997Y-88916329D01*
X139740793Y-88930534D01*
X139719995Y-88939716D01*
X139695671Y-88955970D01*
X139672950Y-88960489D01*
X139655408Y-88968235D01*
X139604061Y-88974192D01*
X139600000Y-88975000D01*
X138400000Y-88975000D01*
X138395941Y-88974192D01*
X138344591Y-88968235D01*
X138327048Y-88960489D01*
X138304329Y-88955970D01*
X138280006Y-88939718D01*
X138259206Y-88930534D01*
X138244999Y-88916327D01*
X138223223Y-88901777D01*
X138208672Y-88880000D01*
X138194465Y-88865793D01*
X138185280Y-88844991D01*
X138169030Y-88820671D01*
X138164511Y-88797954D01*
X138156764Y-88780408D01*
X138150805Y-88729049D01*
X138150000Y-88725000D01*
X138150000Y-87275000D01*
X138150804Y-87270953D01*
X138156764Y-87219591D01*
X138164511Y-87202043D01*
X138169030Y-87179329D01*
X138185278Y-87155010D01*
X138194465Y-87134206D01*
X138208674Y-87119996D01*
X138223223Y-87098223D01*
X138244996Y-87083674D01*
X138259206Y-87069465D01*
X138280010Y-87060278D01*
X138304329Y-87044030D01*
X138327043Y-87039511D01*
X138344591Y-87031764D01*
X138395952Y-87025805D01*
X138400000Y-87025000D01*
X139600000Y-87025000D01*
X139604047Y-87025805D01*
G37*
G36*
X116746742Y-87061601D02*
G01*
X116900687Y-87125367D01*
X117039234Y-87217941D01*
X117157059Y-87335766D01*
X117249633Y-87474313D01*
X117313399Y-87628258D01*
X117345907Y-87791685D01*
X117350000Y-88125000D01*
X117345907Y-88208315D01*
X117313399Y-88371742D01*
X117249633Y-88525687D01*
X117157059Y-88664234D01*
X117039234Y-88782059D01*
X116900687Y-88874633D01*
X116746742Y-88938399D01*
X116583315Y-88970907D01*
X116416685Y-88970907D01*
X116253258Y-88938399D01*
X116099313Y-88874633D01*
X115960766Y-88782059D01*
X115842941Y-88664234D01*
X115750367Y-88525687D01*
X115686601Y-88371742D01*
X115654093Y-88208315D01*
X115650000Y-87875000D01*
X115654093Y-87791685D01*
X115686601Y-87628258D01*
X115750367Y-87474313D01*
X115842941Y-87335766D01*
X115960766Y-87217941D01*
X116099313Y-87125367D01*
X116253258Y-87061601D01*
X116416685Y-87029093D01*
X116583315Y-87029093D01*
X116746742Y-87061601D01*
G37*
G36*
X119246742Y-87061601D02*
G01*
X119400687Y-87125367D01*
X119539234Y-87217941D01*
X119657059Y-87335766D01*
X119749633Y-87474313D01*
X119813399Y-87628258D01*
X119845907Y-87791685D01*
X119850000Y-88125000D01*
X119845907Y-88208315D01*
X119813399Y-88371742D01*
X119749633Y-88525687D01*
X119657059Y-88664234D01*
X119539234Y-88782059D01*
X119400687Y-88874633D01*
X119246742Y-88938399D01*
X119083315Y-88970907D01*
X118916685Y-88970907D01*
X118753258Y-88938399D01*
X118599313Y-88874633D01*
X118460766Y-88782059D01*
X118342941Y-88664234D01*
X118250367Y-88525687D01*
X118186601Y-88371742D01*
X118154093Y-88208315D01*
X118150000Y-87875000D01*
X118154093Y-87791685D01*
X118186601Y-87628258D01*
X118250367Y-87474313D01*
X118342941Y-87335766D01*
X118460766Y-87217941D01*
X118599313Y-87125367D01*
X118753258Y-87061601D01*
X118916685Y-87029093D01*
X119083315Y-87029093D01*
X119246742Y-87061601D01*
G37*
G36*
X121746742Y-87061601D02*
G01*
X121900687Y-87125367D01*
X122039234Y-87217941D01*
X122157059Y-87335766D01*
X122249633Y-87474313D01*
X122313399Y-87628258D01*
X122345907Y-87791685D01*
X122350000Y-88125000D01*
X122345907Y-88208315D01*
X122313399Y-88371742D01*
X122249633Y-88525687D01*
X122157059Y-88664234D01*
X122039234Y-88782059D01*
X121900687Y-88874633D01*
X121746742Y-88938399D01*
X121583315Y-88970907D01*
X121416685Y-88970907D01*
X121253258Y-88938399D01*
X121099313Y-88874633D01*
X120960766Y-88782059D01*
X120842941Y-88664234D01*
X120750367Y-88525687D01*
X120686601Y-88371742D01*
X120654093Y-88208315D01*
X120650000Y-87875000D01*
X120654093Y-87791685D01*
X120686601Y-87628258D01*
X120750367Y-87474313D01*
X120842941Y-87335766D01*
X120960766Y-87217941D01*
X121099313Y-87125367D01*
X121253258Y-87061601D01*
X121416685Y-87029093D01*
X121583315Y-87029093D01*
X121746742Y-87061601D01*
G37*
G36*
X131746742Y-87061601D02*
G01*
X131900687Y-87125367D01*
X132039234Y-87217941D01*
X132157059Y-87335766D01*
X132249633Y-87474313D01*
X132313399Y-87628258D01*
X132345907Y-87791685D01*
X132350000Y-88125000D01*
X132345907Y-88208315D01*
X132313399Y-88371742D01*
X132249633Y-88525687D01*
X132157059Y-88664234D01*
X132039234Y-88782059D01*
X131900687Y-88874633D01*
X131746742Y-88938399D01*
X131583315Y-88970907D01*
X131416685Y-88970907D01*
X131253258Y-88938399D01*
X131099313Y-88874633D01*
X130960766Y-88782059D01*
X130842941Y-88664234D01*
X130750367Y-88525687D01*
X130686601Y-88371742D01*
X130654093Y-88208315D01*
X130650000Y-87875000D01*
X130654093Y-87791685D01*
X130686601Y-87628258D01*
X130750367Y-87474313D01*
X130842941Y-87335766D01*
X130960766Y-87217941D01*
X131099313Y-87125367D01*
X131253258Y-87061601D01*
X131416685Y-87029093D01*
X131583315Y-87029093D01*
X131746742Y-87061601D01*
G37*
G36*
X134246742Y-87061601D02*
G01*
X134400687Y-87125367D01*
X134539234Y-87217941D01*
X134657059Y-87335766D01*
X134749633Y-87474313D01*
X134813399Y-87628258D01*
X134845907Y-87791685D01*
X134850000Y-88125000D01*
X134845907Y-88208315D01*
X134813399Y-88371742D01*
X134749633Y-88525687D01*
X134657059Y-88664234D01*
X134539234Y-88782059D01*
X134400687Y-88874633D01*
X134246742Y-88938399D01*
X134083315Y-88970907D01*
X133916685Y-88970907D01*
X133753258Y-88938399D01*
X133599313Y-88874633D01*
X133460766Y-88782059D01*
X133342941Y-88664234D01*
X133250367Y-88525687D01*
X133186601Y-88371742D01*
X133154093Y-88208315D01*
X133150000Y-87875000D01*
X133154093Y-87791685D01*
X133186601Y-87628258D01*
X133250367Y-87474313D01*
X133342941Y-87335766D01*
X133460766Y-87217941D01*
X133599313Y-87125367D01*
X133753258Y-87061601D01*
X133916685Y-87029093D01*
X134083315Y-87029093D01*
X134246742Y-87061601D01*
G37*
G36*
X136746742Y-87061601D02*
G01*
X136900687Y-87125367D01*
X137039234Y-87217941D01*
X137157059Y-87335766D01*
X137249633Y-87474313D01*
X137313399Y-87628258D01*
X137345907Y-87791685D01*
X137350000Y-88125000D01*
X137345907Y-88208315D01*
X137313399Y-88371742D01*
X137249633Y-88525687D01*
X137157059Y-88664234D01*
X137039234Y-88782059D01*
X136900687Y-88874633D01*
X136746742Y-88938399D01*
X136583315Y-88970907D01*
X136416685Y-88970907D01*
X136253258Y-88938399D01*
X136099313Y-88874633D01*
X135960766Y-88782059D01*
X135842941Y-88664234D01*
X135750367Y-88525687D01*
X135686601Y-88371742D01*
X135654093Y-88208315D01*
X135650000Y-87875000D01*
X135654093Y-87791685D01*
X135686601Y-87628258D01*
X135750367Y-87474313D01*
X135842941Y-87335766D01*
X135960766Y-87217941D01*
X136099313Y-87125367D01*
X136253258Y-87061601D01*
X136416685Y-87029093D01*
X136583315Y-87029093D01*
X136746742Y-87061601D01*
G37*
G36*
X125635995Y-85404739D02*
G01*
X125672278Y-85404739D01*
X125713880Y-85414993D01*
X125755291Y-85420445D01*
X125783638Y-85432186D01*
X125812632Y-85439333D01*
X125856591Y-85462404D01*
X125900000Y-85480385D01*
X125919804Y-85495581D01*
X125940629Y-85506511D01*
X125983202Y-85544228D01*
X126024264Y-85575736D01*
X126035935Y-85590946D01*
X126048832Y-85602372D01*
X126085821Y-85655959D01*
X126119615Y-85700000D01*
X126124707Y-85712293D01*
X126130948Y-85721335D01*
X126158020Y-85792719D01*
X126179555Y-85844709D01*
X126180521Y-85852050D01*
X126182209Y-85856500D01*
X126195278Y-85964140D01*
X126200000Y-86000000D01*
X126195278Y-86035862D01*
X126182209Y-86143499D01*
X126180521Y-86147947D01*
X126179555Y-86155291D01*
X126158015Y-86207291D01*
X126130948Y-86278664D01*
X126124708Y-86287703D01*
X126119615Y-86300000D01*
X126085814Y-86344049D01*
X126048832Y-86397627D01*
X126035937Y-86409050D01*
X126024264Y-86424264D01*
X125983194Y-86455777D01*
X125940629Y-86493488D01*
X125919808Y-86504415D01*
X125900000Y-86519615D01*
X125856582Y-86537598D01*
X125812632Y-86560666D01*
X125783642Y-86567811D01*
X125755291Y-86579555D01*
X125713877Y-86585007D01*
X125672278Y-86595261D01*
X125635995Y-86595261D01*
X125600000Y-86600000D01*
X125564005Y-86595261D01*
X125527722Y-86595261D01*
X125486121Y-86585007D01*
X125444709Y-86579555D01*
X125416358Y-86567811D01*
X125387367Y-86560666D01*
X125343412Y-86537596D01*
X125300000Y-86519615D01*
X125280193Y-86504417D01*
X125259370Y-86493488D01*
X125216798Y-86455772D01*
X125175736Y-86424264D01*
X125164064Y-86409053D01*
X125151167Y-86397627D01*
X125114175Y-86344036D01*
X125080385Y-86300000D01*
X125075293Y-86287707D01*
X125069051Y-86278664D01*
X125041972Y-86207262D01*
X125020445Y-86155291D01*
X125019478Y-86147951D01*
X125017790Y-86143499D01*
X125004708Y-86035764D01*
X125000000Y-86000000D01*
X125004708Y-85964238D01*
X125017790Y-85856500D01*
X125019478Y-85852046D01*
X125020445Y-85844709D01*
X125041967Y-85792748D01*
X125069051Y-85721335D01*
X125075294Y-85712290D01*
X125080385Y-85700000D01*
X125114168Y-85655972D01*
X125151167Y-85602372D01*
X125164066Y-85590943D01*
X125175736Y-85575736D01*
X125216789Y-85544234D01*
X125259370Y-85506511D01*
X125280197Y-85495579D01*
X125300000Y-85480385D01*
X125343403Y-85462406D01*
X125387367Y-85439333D01*
X125416363Y-85432186D01*
X125444709Y-85420445D01*
X125486118Y-85414993D01*
X125527722Y-85404739D01*
X125564005Y-85404739D01*
X125600000Y-85400000D01*
X125635995Y-85404739D01*
G37*
G36*
X140635995Y-85404739D02*
G01*
X140672278Y-85404739D01*
X140713880Y-85414993D01*
X140755291Y-85420445D01*
X140783638Y-85432186D01*
X140812632Y-85439333D01*
X140856591Y-85462404D01*
X140900000Y-85480385D01*
X140919804Y-85495581D01*
X140940629Y-85506511D01*
X140983202Y-85544228D01*
X141024264Y-85575736D01*
X141035935Y-85590946D01*
X141048832Y-85602372D01*
X141085821Y-85655959D01*
X141119615Y-85700000D01*
X141124707Y-85712293D01*
X141130948Y-85721335D01*
X141158020Y-85792719D01*
X141179555Y-85844709D01*
X141180521Y-85852050D01*
X141182209Y-85856500D01*
X141195278Y-85964140D01*
X141200000Y-86000000D01*
X141195278Y-86035862D01*
X141182209Y-86143499D01*
X141180521Y-86147947D01*
X141179555Y-86155291D01*
X141158015Y-86207291D01*
X141130948Y-86278664D01*
X141124708Y-86287703D01*
X141119615Y-86300000D01*
X141085814Y-86344049D01*
X141048832Y-86397627D01*
X141035937Y-86409050D01*
X141024264Y-86424264D01*
X140983194Y-86455777D01*
X140940629Y-86493488D01*
X140919808Y-86504415D01*
X140900000Y-86519615D01*
X140856582Y-86537598D01*
X140812632Y-86560666D01*
X140783642Y-86567811D01*
X140755291Y-86579555D01*
X140713877Y-86585007D01*
X140672278Y-86595261D01*
X140635995Y-86595261D01*
X140600000Y-86600000D01*
X140564005Y-86595261D01*
X140527722Y-86595261D01*
X140486121Y-86585007D01*
X140444709Y-86579555D01*
X140416358Y-86567811D01*
X140387367Y-86560666D01*
X140343412Y-86537596D01*
X140300000Y-86519615D01*
X140280193Y-86504417D01*
X140259370Y-86493488D01*
X140216798Y-86455772D01*
X140175736Y-86424264D01*
X140164064Y-86409053D01*
X140151167Y-86397627D01*
X140114175Y-86344036D01*
X140080385Y-86300000D01*
X140075293Y-86287707D01*
X140069051Y-86278664D01*
X140041972Y-86207262D01*
X140020445Y-86155291D01*
X140019478Y-86147951D01*
X140017790Y-86143499D01*
X140004708Y-86035764D01*
X140000000Y-86000000D01*
X140004708Y-85964238D01*
X140017790Y-85856500D01*
X140019478Y-85852046D01*
X140020445Y-85844709D01*
X140041967Y-85792748D01*
X140069051Y-85721335D01*
X140075294Y-85712290D01*
X140080385Y-85700000D01*
X140114168Y-85655972D01*
X140151167Y-85602372D01*
X140164066Y-85590943D01*
X140175736Y-85575736D01*
X140216789Y-85544234D01*
X140259370Y-85506511D01*
X140280197Y-85495579D01*
X140300000Y-85480385D01*
X140343403Y-85462406D01*
X140387367Y-85439333D01*
X140416363Y-85432186D01*
X140444709Y-85420445D01*
X140486118Y-85414993D01*
X140527722Y-85404739D01*
X140564005Y-85404739D01*
X140600000Y-85400000D01*
X140635995Y-85404739D01*
G37*
G36*
X187262664Y-71431602D02*
G01*
X187425000Y-71503878D01*
X187568761Y-71608327D01*
X187687664Y-71740383D01*
X187776514Y-71894274D01*
X187831425Y-72063275D01*
X187850000Y-72240000D01*
X187831425Y-72416725D01*
X187776514Y-72585726D01*
X187687664Y-72739617D01*
X187568761Y-72871673D01*
X187425000Y-72976122D01*
X187262664Y-73048398D01*
X187088849Y-73085344D01*
X186911151Y-73085344D01*
X186737336Y-73048398D01*
X186575000Y-72976122D01*
X186431239Y-72871673D01*
X186312336Y-72739617D01*
X186223486Y-72585726D01*
X186168575Y-72416725D01*
X186150000Y-72240000D01*
X186168575Y-72063275D01*
X186223486Y-71894274D01*
X186312336Y-71740383D01*
X186431239Y-71608327D01*
X186575000Y-71503878D01*
X186737336Y-71431602D01*
X186911151Y-71394656D01*
X187088849Y-71394656D01*
X187262664Y-71431602D01*
G37*
G36*
X106295090Y-70119215D02*
G01*
X106482683Y-70176120D01*
X106655570Y-70268530D01*
X106807107Y-70392893D01*
X106931470Y-70544430D01*
X107023880Y-70717317D01*
X107080785Y-70904910D01*
X107100000Y-71100000D01*
X107080785Y-71295090D01*
X107023880Y-71482683D01*
X106931470Y-71655570D01*
X106807107Y-71807107D01*
X106655570Y-71931470D01*
X106482683Y-72023880D01*
X106295090Y-72080785D01*
X106100000Y-72100000D01*
X105904910Y-72080785D01*
X105717317Y-72023880D01*
X105544430Y-71931470D01*
X105392893Y-71807107D01*
X105268530Y-71655570D01*
X105176120Y-71482683D01*
X105119215Y-71295090D01*
X105100000Y-71100000D01*
X105119215Y-70904910D01*
X105176120Y-70717317D01*
X105268530Y-70544430D01*
X105392893Y-70392893D01*
X105544430Y-70268530D01*
X105717317Y-70176120D01*
X105904910Y-70119215D01*
X106100000Y-70100000D01*
X106295090Y-70119215D01*
G37*
G36*
X187262664Y-68891602D02*
G01*
X187425000Y-68963878D01*
X187568761Y-69068327D01*
X187687664Y-69200383D01*
X187776514Y-69354274D01*
X187831425Y-69523275D01*
X187850000Y-69700000D01*
X187831425Y-69876725D01*
X187776514Y-70045726D01*
X187687664Y-70199617D01*
X187568761Y-70331673D01*
X187425000Y-70436122D01*
X187262664Y-70508398D01*
X187088849Y-70545344D01*
X186911151Y-70545344D01*
X186737336Y-70508398D01*
X186575000Y-70436122D01*
X186431239Y-70331673D01*
X186312336Y-70199617D01*
X186223486Y-70045726D01*
X186168575Y-69876725D01*
X186150000Y-69700000D01*
X186168575Y-69523275D01*
X186223486Y-69354274D01*
X186312336Y-69200383D01*
X186431239Y-69068327D01*
X186575000Y-68963878D01*
X186737336Y-68891602D01*
X186911151Y-68854656D01*
X187088849Y-68854656D01*
X187262664Y-68891602D01*
G37*
G36*
X107100000Y-68100000D02*
G01*
X105100000Y-68100000D01*
X105100000Y-66100000D01*
X107100000Y-66100000D01*
X107100000Y-68100000D01*
G37*
G36*
X187262664Y-66351602D02*
G01*
X187425000Y-66423878D01*
X187568761Y-66528327D01*
X187687664Y-66660383D01*
X187776514Y-66814274D01*
X187831425Y-66983275D01*
X187850000Y-67160000D01*
X187831425Y-67336725D01*
X187776514Y-67505726D01*
X187687664Y-67659617D01*
X187568761Y-67791673D01*
X187425000Y-67896122D01*
X187262664Y-67968398D01*
X187088849Y-68005344D01*
X186911151Y-68005344D01*
X186737336Y-67968398D01*
X186575000Y-67896122D01*
X186431239Y-67791673D01*
X186312336Y-67659617D01*
X186223486Y-67505726D01*
X186168575Y-67336725D01*
X186150000Y-67160000D01*
X186168575Y-66983275D01*
X186223486Y-66814274D01*
X186312336Y-66660383D01*
X186431239Y-66528327D01*
X186575000Y-66423878D01*
X186737336Y-66351602D01*
X186911151Y-66314656D01*
X187088849Y-66314656D01*
X187262664Y-66351602D01*
G37*
G36*
X187262664Y-63811602D02*
G01*
X187425000Y-63883878D01*
X187568761Y-63988327D01*
X187687664Y-64120383D01*
X187776514Y-64274274D01*
X187831425Y-64443275D01*
X187850000Y-64620000D01*
X187831425Y-64796725D01*
X187776514Y-64965726D01*
X187687664Y-65119617D01*
X187568761Y-65251673D01*
X187425000Y-65356122D01*
X187262664Y-65428398D01*
X187088849Y-65465344D01*
X186911151Y-65465344D01*
X186737336Y-65428398D01*
X186575000Y-65356122D01*
X186431239Y-65251673D01*
X186312336Y-65119617D01*
X186223486Y-64965726D01*
X186168575Y-64796725D01*
X186150000Y-64620000D01*
X186168575Y-64443275D01*
X186223486Y-64274274D01*
X186312336Y-64120383D01*
X186431239Y-63988327D01*
X186575000Y-63883878D01*
X186737336Y-63811602D01*
X186911151Y-63774656D01*
X187088849Y-63774656D01*
X187262664Y-63811602D01*
G37*
G36*
X187262664Y-61271602D02*
G01*
X187425000Y-61343878D01*
X187568761Y-61448327D01*
X187687664Y-61580383D01*
X187776514Y-61734274D01*
X187831425Y-61903275D01*
X187850000Y-62080000D01*
X187831425Y-62256725D01*
X187776514Y-62425726D01*
X187687664Y-62579617D01*
X187568761Y-62711673D01*
X187425000Y-62816122D01*
X187262664Y-62888398D01*
X187088849Y-62925344D01*
X186911151Y-62925344D01*
X186737336Y-62888398D01*
X186575000Y-62816122D01*
X186431239Y-62711673D01*
X186312336Y-62579617D01*
X186223486Y-62425726D01*
X186168575Y-62256725D01*
X186150000Y-62080000D01*
X186168575Y-61903275D01*
X186223486Y-61734274D01*
X186312336Y-61580383D01*
X186431239Y-61448327D01*
X186575000Y-61343878D01*
X186737336Y-61271602D01*
X186911151Y-61234656D01*
X187088849Y-61234656D01*
X187262664Y-61271602D01*
G37*
G36*
X187262664Y-58731602D02*
G01*
X187425000Y-58803878D01*
X187568761Y-58908327D01*
X187687664Y-59040383D01*
X187776514Y-59194274D01*
X187831425Y-59363275D01*
X187850000Y-59540000D01*
X187831425Y-59716725D01*
X187776514Y-59885726D01*
X187687664Y-60039617D01*
X187568761Y-60171673D01*
X187425000Y-60276122D01*
X187262664Y-60348398D01*
X187088849Y-60385344D01*
X186911151Y-60385344D01*
X186737336Y-60348398D01*
X186575000Y-60276122D01*
X186431239Y-60171673D01*
X186312336Y-60039617D01*
X186223486Y-59885726D01*
X186168575Y-59716725D01*
X186150000Y-59540000D01*
X186168575Y-59363275D01*
X186223486Y-59194274D01*
X186312336Y-59040383D01*
X186431239Y-58908327D01*
X186575000Y-58803878D01*
X186737336Y-58731602D01*
X186911151Y-58694656D01*
X187088849Y-58694656D01*
X187262664Y-58731602D01*
G37*
G36*
X187850000Y-57850000D02*
G01*
X186150000Y-57850000D01*
X186150000Y-56150000D01*
X187850000Y-56150000D01*
X187850000Y-57850000D01*
G37*
G36*
X166435995Y-49404739D02*
G01*
X166472278Y-49404739D01*
X166513880Y-49414993D01*
X166555291Y-49420445D01*
X166583638Y-49432186D01*
X166612632Y-49439333D01*
X166656591Y-49462404D01*
X166700000Y-49480385D01*
X166719804Y-49495581D01*
X166740629Y-49506511D01*
X166783202Y-49544228D01*
X166824264Y-49575736D01*
X166835935Y-49590946D01*
X166848832Y-49602372D01*
X166885821Y-49655959D01*
X166919615Y-49700000D01*
X166924707Y-49712293D01*
X166930948Y-49721335D01*
X166958020Y-49792719D01*
X166979555Y-49844709D01*
X166980521Y-49852050D01*
X166982209Y-49856500D01*
X166995278Y-49964140D01*
X167000000Y-50000000D01*
X166995278Y-50035862D01*
X166982209Y-50143499D01*
X166980521Y-50147947D01*
X166979555Y-50155291D01*
X166958015Y-50207291D01*
X166930948Y-50278664D01*
X166924708Y-50287703D01*
X166919615Y-50300000D01*
X166885814Y-50344049D01*
X166848832Y-50397627D01*
X166835937Y-50409050D01*
X166824264Y-50424264D01*
X166783194Y-50455777D01*
X166740629Y-50493488D01*
X166719808Y-50504415D01*
X166700000Y-50519615D01*
X166656582Y-50537598D01*
X166612632Y-50560666D01*
X166583642Y-50567811D01*
X166555291Y-50579555D01*
X166513877Y-50585007D01*
X166472278Y-50595261D01*
X166435995Y-50595261D01*
X166400000Y-50600000D01*
X166364005Y-50595261D01*
X166327722Y-50595261D01*
X166286121Y-50585007D01*
X166244709Y-50579555D01*
X166216358Y-50567811D01*
X166187367Y-50560666D01*
X166143412Y-50537596D01*
X166100000Y-50519615D01*
X166080193Y-50504417D01*
X166059370Y-50493488D01*
X166016798Y-50455772D01*
X165975736Y-50424264D01*
X165964064Y-50409053D01*
X165951167Y-50397627D01*
X165914175Y-50344036D01*
X165880385Y-50300000D01*
X165875293Y-50287707D01*
X165869051Y-50278664D01*
X165841972Y-50207262D01*
X165820445Y-50155291D01*
X165819478Y-50147951D01*
X165817790Y-50143499D01*
X165804708Y-50035764D01*
X165800000Y-50000000D01*
X165804708Y-49964238D01*
X165817790Y-49856500D01*
X165819478Y-49852046D01*
X165820445Y-49844709D01*
X165841967Y-49792748D01*
X165869051Y-49721335D01*
X165875294Y-49712290D01*
X165880385Y-49700000D01*
X165914168Y-49655972D01*
X165951167Y-49602372D01*
X165964066Y-49590943D01*
X165975736Y-49575736D01*
X166016789Y-49544234D01*
X166059370Y-49506511D01*
X166080197Y-49495579D01*
X166100000Y-49480385D01*
X166143403Y-49462406D01*
X166187367Y-49439333D01*
X166216363Y-49432186D01*
X166244709Y-49420445D01*
X166286118Y-49414993D01*
X166327722Y-49404739D01*
X166364005Y-49404739D01*
X166400000Y-49400000D01*
X166435995Y-49404739D01*
G37*
G36*
X108250295Y-46419699D02*
G01*
X108494427Y-46478310D01*
X108726385Y-46574390D01*
X108940456Y-46705573D01*
X109131371Y-46868629D01*
X109294427Y-47059544D01*
X109425610Y-47273615D01*
X109521690Y-47505573D01*
X109580301Y-47749705D01*
X109600000Y-48000000D01*
X109580301Y-48250295D01*
X109521690Y-48494427D01*
X109425610Y-48726385D01*
X109294427Y-48940456D01*
X109131371Y-49131371D01*
X108940456Y-49294427D01*
X108726385Y-49425610D01*
X108494427Y-49521690D01*
X108250295Y-49580301D01*
X108000000Y-49600000D01*
X107749705Y-49580301D01*
X107505573Y-49521690D01*
X107273615Y-49425610D01*
X107059544Y-49294427D01*
X106868629Y-49131371D01*
X106705573Y-48940456D01*
X106574390Y-48726385D01*
X106478310Y-48494427D01*
X106419699Y-48250295D01*
X106400000Y-48000000D01*
X106419699Y-47749705D01*
X106478310Y-47505573D01*
X106574390Y-47273615D01*
X106705573Y-47059544D01*
X106868629Y-46868629D01*
X107059544Y-46705573D01*
X107273615Y-46574390D01*
X107505573Y-46478310D01*
X107749705Y-46419699D01*
X108000000Y-46400000D01*
X108250295Y-46419699D01*
G37*
G36*
X186250295Y-46419699D02*
G01*
X186494427Y-46478310D01*
X186726385Y-46574390D01*
X186940456Y-46705573D01*
X187131371Y-46868629D01*
X187294427Y-47059544D01*
X187425610Y-47273615D01*
X187521690Y-47505573D01*
X187580301Y-47749705D01*
X187600000Y-48000000D01*
X187580301Y-48250295D01*
X187521690Y-48494427D01*
X187425610Y-48726385D01*
X187294427Y-48940456D01*
X187131371Y-49131371D01*
X186940456Y-49294427D01*
X186726385Y-49425610D01*
X186494427Y-49521690D01*
X186250295Y-49580301D01*
X186000000Y-49600000D01*
X185749705Y-49580301D01*
X185505573Y-49521690D01*
X185273615Y-49425610D01*
X185059544Y-49294427D01*
X184868629Y-49131371D01*
X184705573Y-48940456D01*
X184574390Y-48726385D01*
X184478310Y-48494427D01*
X184419699Y-48250295D01*
X184400000Y-48000000D01*
X184419699Y-47749705D01*
X184478310Y-47505573D01*
X184574390Y-47273615D01*
X184705573Y-47059544D01*
X184868629Y-46868629D01*
X185059544Y-46705573D01*
X185273615Y-46574390D01*
X185505573Y-46478310D01*
X185749705Y-46419699D01*
X186000000Y-46400000D01*
X186250295Y-46419699D01*
G37*
G36*
X168604047Y-47025805D02*
G01*
X168655408Y-47031764D01*
X168672954Y-47039511D01*
X168695671Y-47044030D01*
X168719991Y-47060280D01*
X168740793Y-47069465D01*
X168755000Y-47083672D01*
X168776777Y-47098223D01*
X168791327Y-47119999D01*
X168805534Y-47134206D01*
X168814718Y-47155006D01*
X168830970Y-47179329D01*
X168835489Y-47202048D01*
X168843235Y-47219591D01*
X168849192Y-47270940D01*
X168850000Y-47275000D01*
X168850000Y-48725000D01*
X168849192Y-48729059D01*
X168843235Y-48780408D01*
X168835489Y-48797950D01*
X168830970Y-48820671D01*
X168814716Y-48844995D01*
X168805534Y-48865793D01*
X168791329Y-48879997D01*
X168776777Y-48901777D01*
X168754997Y-48916329D01*
X168740793Y-48930534D01*
X168719995Y-48939716D01*
X168695671Y-48955970D01*
X168672950Y-48960489D01*
X168655408Y-48968235D01*
X168604061Y-48974192D01*
X168600000Y-48975000D01*
X167400000Y-48975000D01*
X167395941Y-48974192D01*
X167344591Y-48968235D01*
X167327048Y-48960489D01*
X167304329Y-48955970D01*
X167280006Y-48939718D01*
X167259206Y-48930534D01*
X167244999Y-48916327D01*
X167223223Y-48901777D01*
X167208672Y-48880000D01*
X167194465Y-48865793D01*
X167185280Y-48844991D01*
X167169030Y-48820671D01*
X167164511Y-48797954D01*
X167156764Y-48780408D01*
X167150805Y-48729049D01*
X167150000Y-48725000D01*
X167150000Y-47275000D01*
X167150804Y-47270953D01*
X167156764Y-47219591D01*
X167164511Y-47202043D01*
X167169030Y-47179329D01*
X167185278Y-47155010D01*
X167194465Y-47134206D01*
X167208674Y-47119996D01*
X167223223Y-47098223D01*
X167244996Y-47083674D01*
X167259206Y-47069465D01*
X167280010Y-47060278D01*
X167304329Y-47044030D01*
X167327043Y-47039511D01*
X167344591Y-47031764D01*
X167395952Y-47025805D01*
X167400000Y-47025000D01*
X168600000Y-47025000D01*
X168604047Y-47025805D01*
G37*
G36*
X170746742Y-47061601D02*
G01*
X170900687Y-47125367D01*
X171039234Y-47217941D01*
X171157059Y-47335766D01*
X171249633Y-47474313D01*
X171313399Y-47628258D01*
X171345907Y-47791685D01*
X171350000Y-48125000D01*
X171345907Y-48208315D01*
X171313399Y-48371742D01*
X171249633Y-48525687D01*
X171157059Y-48664234D01*
X171039234Y-48782059D01*
X170900687Y-48874633D01*
X170746742Y-48938399D01*
X170583315Y-48970907D01*
X170416685Y-48970907D01*
X170253258Y-48938399D01*
X170099313Y-48874633D01*
X169960766Y-48782059D01*
X169842941Y-48664234D01*
X169750367Y-48525687D01*
X169686601Y-48371742D01*
X169654093Y-48208315D01*
X169650000Y-47875000D01*
X169654093Y-47791685D01*
X169686601Y-47628258D01*
X169750367Y-47474313D01*
X169842941Y-47335766D01*
X169960766Y-47217941D01*
X170099313Y-47125367D01*
X170253258Y-47061601D01*
X170416685Y-47029093D01*
X170583315Y-47029093D01*
X170746742Y-47061601D01*
G37*
G36*
X173246742Y-47061601D02*
G01*
X173400687Y-47125367D01*
X173539234Y-47217941D01*
X173657059Y-47335766D01*
X173749633Y-47474313D01*
X173813399Y-47628258D01*
X173845907Y-47791685D01*
X173850000Y-48125000D01*
X173845907Y-48208315D01*
X173813399Y-48371742D01*
X173749633Y-48525687D01*
X173657059Y-48664234D01*
X173539234Y-48782059D01*
X173400687Y-48874633D01*
X173246742Y-48938399D01*
X173083315Y-48970907D01*
X172916685Y-48970907D01*
X172753258Y-48938399D01*
X172599313Y-48874633D01*
X172460766Y-48782059D01*
X172342941Y-48664234D01*
X172250367Y-48525687D01*
X172186601Y-48371742D01*
X172154093Y-48208315D01*
X172150000Y-47875000D01*
X172154093Y-47791685D01*
X172186601Y-47628258D01*
X172250367Y-47474313D01*
X172342941Y-47335766D01*
X172460766Y-47217941D01*
X172599313Y-47125367D01*
X172753258Y-47061601D01*
X172916685Y-47029093D01*
X173083315Y-47029093D01*
X173246742Y-47061601D01*
G37*
G36*
X175746742Y-47061601D02*
G01*
X175900687Y-47125367D01*
X176039234Y-47217941D01*
X176157059Y-47335766D01*
X176249633Y-47474313D01*
X176313399Y-47628258D01*
X176345907Y-47791685D01*
X176350000Y-48125000D01*
X176345907Y-48208315D01*
X176313399Y-48371742D01*
X176249633Y-48525687D01*
X176157059Y-48664234D01*
X176039234Y-48782059D01*
X175900687Y-48874633D01*
X175746742Y-48938399D01*
X175583315Y-48970907D01*
X175416685Y-48970907D01*
X175253258Y-48938399D01*
X175099313Y-48874633D01*
X174960766Y-48782059D01*
X174842941Y-48664234D01*
X174750367Y-48525687D01*
X174686601Y-48371742D01*
X174654093Y-48208315D01*
X174650000Y-47875000D01*
X174654093Y-47791685D01*
X174686601Y-47628258D01*
X174750367Y-47474313D01*
X174842941Y-47335766D01*
X174960766Y-47217941D01*
X175099313Y-47125367D01*
X175253258Y-47061601D01*
X175416685Y-47029093D01*
X175583315Y-47029093D01*
X175746742Y-47061601D01*
G37*
G36*
X178246742Y-47061601D02*
G01*
X178400687Y-47125367D01*
X178539234Y-47217941D01*
X178657059Y-47335766D01*
X178749633Y-47474313D01*
X178813399Y-47628258D01*
X178845907Y-47791685D01*
X178850000Y-48125000D01*
X178845907Y-48208315D01*
X178813399Y-48371742D01*
X178749633Y-48525687D01*
X178657059Y-48664234D01*
X178539234Y-48782059D01*
X178400687Y-48874633D01*
X178246742Y-48938399D01*
X178083315Y-48970907D01*
X177916685Y-48970907D01*
X177753258Y-48938399D01*
X177599313Y-48874633D01*
X177460766Y-48782059D01*
X177342941Y-48664234D01*
X177250367Y-48525687D01*
X177186601Y-48371742D01*
X177154093Y-48208315D01*
X177150000Y-47875000D01*
X177154093Y-47791685D01*
X177186601Y-47628258D01*
X177250367Y-47474313D01*
X177342941Y-47335766D01*
X177460766Y-47217941D01*
X177599313Y-47125367D01*
X177753258Y-47061601D01*
X177916685Y-47029093D01*
X178083315Y-47029093D01*
X178246742Y-47061601D01*
G37*
M02*
