%TF.GenerationSoftware,KiCad,Pcbnew,8.0.2*%
%TF.CreationDate,2024-12-26T16:34:37-05:00*%
%TF.ProjectId,Node Controller,4e6f6465-2043-46f6-9e74-726f6c6c6572,rev?*%
%TF.SameCoordinates,Original*%
%TF.FileFunction,Copper,L4,Bot*%
%TF.FilePolarity,Positive*%
%FSLAX46Y46*%
G04 Gerber Fmt 4.6, Leading zero omitted, Abs format (unit mm)*
G04 Created by KiCad (PCBNEW 8.0.2) date 2024-12-26 16:34:37*
%MOMM*%
%LPD*%
G01*
G04 APERTURE LIST*
G04 Aperture macros list*
%AMRoundRect*
0 Rectangle with rounded corners*
0 $1 Rounding radius*
0 $2 $3 $4 $5 $6 $7 $8 $9 X,Y pos of 4 corners*
0 Add a 4 corners polygon primitive as box body*
4,1,4,$2,$3,$4,$5,$6,$7,$8,$9,$2,$3,0*
0 Add four circle primitives for the rounded corners*
1,1,$1+$1,$2,$3*
1,1,$1+$1,$4,$5*
1,1,$1+$1,$6,$7*
1,1,$1+$1,$8,$9*
0 Add four rect primitives between the rounded corners*
20,1,$1+$1,$2,$3,$4,$5,0*
20,1,$1+$1,$4,$5,$6,$7,0*
20,1,$1+$1,$6,$7,$8,$9,0*
20,1,$1+$1,$8,$9,$2,$3,0*%
G04 Aperture macros list end*
%TA.AperFunction,ComponentPad*%
%ADD10RoundRect,0.250000X0.600000X0.725000X-0.600000X0.725000X-0.600000X-0.725000X0.600000X-0.725000X0*%
%TD*%
%TA.AperFunction,ComponentPad*%
%ADD11O,1.700000X1.950000*%
%TD*%
%TA.AperFunction,ComponentPad*%
%ADD12R,2.000000X2.000000*%
%TD*%
%TA.AperFunction,ComponentPad*%
%ADD13C,2.000000*%
%TD*%
%TA.AperFunction,ComponentPad*%
%ADD14R,1.700000X1.700000*%
%TD*%
%TA.AperFunction,ComponentPad*%
%ADD15O,1.700000X1.700000*%
%TD*%
%TA.AperFunction,ComponentPad*%
%ADD16RoundRect,0.250000X-0.600000X-0.725000X0.600000X-0.725000X0.600000X0.725000X-0.600000X0.725000X0*%
%TD*%
%TA.AperFunction,ViaPad*%
%ADD17C,0.600000*%
%TD*%
%TA.AperFunction,Conductor*%
%ADD18C,0.400000*%
%TD*%
%TA.AperFunction,Conductor*%
%ADD19C,0.600000*%
%TD*%
%TA.AperFunction,Conductor*%
%ADD20C,0.500000*%
%TD*%
%TA.AperFunction,Conductor*%
%ADD21C,0.635000*%
%TD*%
G04 APERTURE END LIST*
D10*
%TO.P,J12,1,Pin_1*%
%TO.N,3V3*%
X124000000Y-88000000D03*
D11*
%TO.P,J12,2,Pin_2*%
%TO.N,/Microcontroller/I2C1.SDA*%
X121500000Y-88000000D03*
%TO.P,J12,3,Pin_3*%
%TO.N,/Microcontroller/I2C1.SCL*%
X119000000Y-88000000D03*
%TO.P,J12,4,Pin_4*%
%TO.N,GND*%
X116500000Y-88000000D03*
%TD*%
D12*
%TO.P,J8,1,Pin_1*%
%TO.N,Net-(J8-Pin_1)*%
X166000000Y-89000000D03*
D13*
%TO.P,J8,2,Pin_2*%
%TO.N,/LED Driver_2/LED_-*%
X170000000Y-89000000D03*
%TD*%
D14*
%TO.P,J3,1,Pin_1*%
%TO.N,/Microcontroller/IO21*%
X187000000Y-57000000D03*
D15*
%TO.P,J3,2,Pin_2*%
%TO.N,/Microcontroller/IO22*%
X187000000Y-59540000D03*
%TO.P,J3,3,Pin_3*%
%TO.N,/Microcontroller/IO19*%
X187000000Y-62080000D03*
%TO.P,J3,4,Pin_4*%
%TO.N,/Microcontroller/IO23*%
X187000000Y-64620000D03*
%TO.P,J3,5,Pin_5*%
%TO.N,/Microcontroller/IO18*%
X187000000Y-67160000D03*
%TO.P,J3,6,Pin_6*%
%TO.N,GND*%
X187000000Y-69700000D03*
%TO.P,J3,7,Pin_7*%
X187000000Y-72240000D03*
%TD*%
D10*
%TO.P,J11,1,Pin_1*%
%TO.N,3V3*%
X139000000Y-88000000D03*
D11*
%TO.P,J11,2,Pin_2*%
%TO.N,/Microcontroller/I2C0.SDA*%
X136500000Y-88000000D03*
%TO.P,J11,3,Pin_3*%
%TO.N,/Microcontroller/I2C0.SCL*%
X134000000Y-88000000D03*
%TO.P,J11,4,Pin_4*%
%TO.N,GND*%
X131500000Y-88000000D03*
%TD*%
D16*
%TO.P,J1,1,Pin_1*%
%TO.N,/Microcontroller/CP2104.RXD*%
X168000000Y-48000000D03*
D11*
%TO.P,J1,2,Pin_2*%
%TO.N,/Microcontroller/CP2104.TXD*%
X170500000Y-48000000D03*
%TO.P,J1,3,Pin_3*%
%TO.N,/Microcontroller/CP2104.RTS*%
X173000000Y-48000000D03*
%TO.P,J1,4,Pin_4*%
%TO.N,/Microcontroller/CP2104.DTR*%
X175500000Y-48000000D03*
%TO.P,J1,5,Pin_5*%
%TO.N,GND*%
X178000000Y-48000000D03*
%TD*%
D12*
%TO.P,J9,1,Pin_1*%
%TO.N,VIN*%
X106100000Y-67100000D03*
D13*
%TO.P,J9,2,Pin_2*%
%TO.N,GND*%
X106100000Y-71100000D03*
%TD*%
D12*
%TO.P,J2,1,Pin_1*%
%TO.N,Net-(J2-Pin_1)*%
X150000000Y-89000000D03*
D13*
%TO.P,J2,2,Pin_2*%
%TO.N,/LED Driver_1/LED_-*%
X154000000Y-89000000D03*
%TD*%
D17*
%TO.N,*%
X167000000Y-80000000D03*
%TO.N,GND*%
X148000000Y-67000000D03*
X124000000Y-56000000D03*
X180000000Y-44000000D03*
X180000000Y-85000000D03*
X154000000Y-50000000D03*
X116000000Y-77000000D03*
X168000000Y-44000000D03*
X108000000Y-81000000D03*
X136000000Y-56000000D03*
X106420000Y-91700000D03*
X130000000Y-92000000D03*
X132000000Y-44000000D03*
X124000000Y-69000000D03*
X140000000Y-77000000D03*
X104000000Y-50000000D03*
X124000000Y-92000000D03*
X176000000Y-80000000D03*
X104000000Y-82000000D03*
X130000000Y-56000000D03*
X144000000Y-44000000D03*
X104000000Y-74000000D03*
X168000000Y-88000000D03*
X180000000Y-55000000D03*
X108000000Y-59000000D03*
X120000000Y-74000000D03*
X128000000Y-64000000D03*
X178000000Y-92000000D03*
X128000000Y-88000000D03*
X176000000Y-86000000D03*
X125000000Y-49000000D03*
X189690000Y-46480000D03*
X112000000Y-78000000D03*
X116000000Y-75000000D03*
X152000000Y-60000000D03*
X170000000Y-44000000D03*
X150000000Y-92000000D03*
X120000000Y-92000000D03*
X158000000Y-72000000D03*
X134000000Y-44000000D03*
X176000000Y-44000000D03*
X112000000Y-74000000D03*
X138000000Y-92000000D03*
X140000000Y-55000000D03*
X160000000Y-80000000D03*
X180000000Y-92000000D03*
X176000000Y-72000000D03*
X158000000Y-68000000D03*
X128000000Y-92000000D03*
X190000000Y-88000000D03*
X153000000Y-50000000D03*
X190000000Y-68000000D03*
X160000000Y-78000000D03*
X112000000Y-58000000D03*
X108000000Y-61000000D03*
X128000000Y-62000000D03*
X184000000Y-56000000D03*
X176000000Y-50000000D03*
X176000000Y-88000000D03*
X184000000Y-54000000D03*
X154000000Y-92000000D03*
X132000000Y-63000000D03*
X190000000Y-80000000D03*
X116000000Y-73250000D03*
X105171573Y-90828427D03*
X108000000Y-55000000D03*
X108000000Y-53000000D03*
X176000000Y-84000000D03*
X130000000Y-62000000D03*
X144000000Y-92000000D03*
X144000000Y-60000000D03*
X126000000Y-92000000D03*
X176000000Y-46000000D03*
X176000000Y-78000000D03*
X187520000Y-91690000D03*
X121000000Y-80000000D03*
X104000000Y-72000000D03*
X172000000Y-44000000D03*
X128000000Y-90000000D03*
X158500000Y-62000000D03*
X148000000Y-73000000D03*
X130000000Y-44000000D03*
X190000000Y-52000000D03*
X140000000Y-79000000D03*
X104000000Y-48000000D03*
X184000000Y-44000000D03*
X152000000Y-92000000D03*
X122000000Y-68000000D03*
X126000000Y-68000000D03*
X156000000Y-92000000D03*
X155000000Y-50000000D03*
X168000000Y-82000000D03*
X148000000Y-71000000D03*
X164000000Y-47000000D03*
X153000000Y-51000000D03*
X110000000Y-44000000D03*
X148000000Y-44000000D03*
X140000000Y-71000000D03*
X162000000Y-44000000D03*
X156000000Y-77000000D03*
X104000000Y-78000000D03*
X136000000Y-60000000D03*
X180000000Y-57000000D03*
X114000000Y-44000000D03*
X136000000Y-74000000D03*
X144000000Y-90000000D03*
X180000000Y-51000000D03*
X136000000Y-58000000D03*
X176000000Y-76000000D03*
X153000000Y-49000000D03*
X190000000Y-66000000D03*
X128000000Y-72000000D03*
X136000000Y-90000000D03*
X114000000Y-92000000D03*
X108000000Y-92000000D03*
X136000000Y-76000000D03*
X156000000Y-87000000D03*
X164000000Y-89000000D03*
X104000000Y-76000000D03*
X130000000Y-58000000D03*
X112000000Y-52000000D03*
X190000000Y-56000000D03*
X152000000Y-68000000D03*
X132000000Y-69000000D03*
X132000000Y-47000000D03*
X140000000Y-87000000D03*
X112000000Y-82000000D03*
X190000000Y-78000000D03*
X112000000Y-92000000D03*
X156000000Y-59500000D03*
X186000000Y-92000000D03*
X136000000Y-54000000D03*
X170000000Y-92000000D03*
X112000000Y-88000000D03*
X128000000Y-78000000D03*
X120000000Y-44000000D03*
X140000000Y-73000000D03*
X112000000Y-50000000D03*
X155000000Y-51000000D03*
X128000000Y-84000000D03*
X122000000Y-70000000D03*
X158000000Y-70000000D03*
X105171573Y-45171573D03*
X128000000Y-80000000D03*
X114000000Y-49000000D03*
X190000000Y-54000000D03*
X160500000Y-64000000D03*
X160000000Y-44000000D03*
X104000000Y-86000000D03*
X112000000Y-44000000D03*
X113000000Y-59000000D03*
X119000000Y-73250000D03*
X104000000Y-80000000D03*
X140000000Y-61000000D03*
X128000000Y-44000000D03*
X141000000Y-44000000D03*
X156000000Y-69000000D03*
X132000000Y-79000000D03*
X140000000Y-83000000D03*
X182000000Y-44000000D03*
X152000000Y-82000000D03*
X110000000Y-73000000D03*
X136000000Y-80000000D03*
X104000000Y-54000000D03*
X180000000Y-71000000D03*
X116000000Y-92000000D03*
X189700000Y-89580000D03*
X190000000Y-74000000D03*
X174000000Y-44000000D03*
X104000000Y-62000000D03*
X166000000Y-92000000D03*
X190000000Y-62000000D03*
X104000000Y-58000000D03*
X190000000Y-70000000D03*
X140000000Y-85000000D03*
X168000000Y-52000000D03*
X152000000Y-70000000D03*
X129000000Y-65000000D03*
X172000000Y-92000000D03*
X164000000Y-92000000D03*
X168000000Y-90000000D03*
X182000000Y-92000000D03*
X190000000Y-58000000D03*
X132000000Y-75000000D03*
X156000000Y-65000000D03*
X130000000Y-64000000D03*
X108000000Y-77000000D03*
X116000000Y-44000000D03*
X148000000Y-87000000D03*
X136000000Y-92000000D03*
X112000000Y-90000000D03*
X132000000Y-92000000D03*
X168000000Y-86000000D03*
X140000000Y-92000000D03*
X155000000Y-49000000D03*
X118000000Y-92000000D03*
X108000000Y-57000000D03*
X172000000Y-87000000D03*
X176000000Y-92000000D03*
X184000000Y-84000000D03*
X162000000Y-92000000D03*
X128000000Y-67000000D03*
X148000000Y-69000000D03*
X162000000Y-73000000D03*
X108000000Y-75000000D03*
X122000000Y-72000000D03*
X140000000Y-75000000D03*
X168000000Y-92000000D03*
X184000000Y-52000000D03*
X190000000Y-82000000D03*
X144000000Y-64000000D03*
X164000000Y-73000000D03*
X128000000Y-82000000D03*
X190000000Y-76000000D03*
X168000000Y-46000000D03*
X112000000Y-48000000D03*
X154000000Y-60000000D03*
X113000000Y-55000000D03*
X172000000Y-44000000D03*
X159000000Y-65000000D03*
X156000000Y-71000000D03*
X161000000Y-67000000D03*
X126000000Y-56000000D03*
X152000000Y-72000000D03*
X108000000Y-73000000D03*
X144000000Y-56000000D03*
X112000000Y-56000000D03*
X170000000Y-44000000D03*
X168000000Y-58000000D03*
X126000000Y-44000000D03*
X190000000Y-60000000D03*
X132000000Y-73000000D03*
X180000000Y-89000000D03*
X156000000Y-75000000D03*
X184000000Y-92000000D03*
X152000000Y-84000000D03*
X166000000Y-74000000D03*
X158000000Y-92000000D03*
X138000000Y-44000000D03*
X112000000Y-86000000D03*
X170000000Y-44000000D03*
X180000000Y-49000000D03*
X112000000Y-54000000D03*
X164000000Y-87000000D03*
X172000000Y-69000000D03*
X113000000Y-51000000D03*
X152000000Y-64000000D03*
X104000000Y-56000000D03*
X140000000Y-57000000D03*
X152000000Y-90000000D03*
X172000000Y-89000000D03*
X136000000Y-68000000D03*
X180000000Y-47000000D03*
X154000000Y-57500000D03*
X165000000Y-63000000D03*
X160000000Y-90000000D03*
X166000000Y-44000000D03*
X142000000Y-92000000D03*
X176000000Y-52000000D03*
X155000000Y-63000000D03*
X113000000Y-73250000D03*
X186000000Y-44000000D03*
X132000000Y-57000000D03*
X112000000Y-76000000D03*
X188828427Y-90828427D03*
X190000000Y-48000000D03*
X172000000Y-73000000D03*
X106480000Y-44310000D03*
X116000000Y-81000000D03*
X166000000Y-44000000D03*
X136000000Y-72000000D03*
X134000000Y-92000000D03*
X116000000Y-79000000D03*
X148000000Y-89000000D03*
X108000000Y-71000000D03*
X154000000Y-51000000D03*
X104300000Y-46420000D03*
X176000000Y-90000000D03*
X128000000Y-76000000D03*
X152000000Y-88000000D03*
X154000000Y-49000000D03*
X108000000Y-83000000D03*
X144000000Y-78000000D03*
X180000000Y-69000000D03*
X140000000Y-89000000D03*
X184000000Y-76000000D03*
X180000000Y-61000000D03*
X104000000Y-60000000D03*
X156500000Y-62500000D03*
X118000000Y-44000000D03*
X121000000Y-82000000D03*
X153000000Y-62000000D03*
X156000000Y-89000000D03*
X130000000Y-60000000D03*
X171000000Y-67000000D03*
X148000000Y-59000000D03*
X178000000Y-44000000D03*
X148000000Y-65000000D03*
X174000000Y-92000000D03*
X190000000Y-84000000D03*
X190000000Y-72000000D03*
X190000000Y-50000000D03*
X148000000Y-92000000D03*
X124000000Y-71000000D03*
X122000000Y-44000000D03*
X152000000Y-66000000D03*
X146000000Y-44000000D03*
X108000000Y-44000000D03*
X160000000Y-92000000D03*
X190000000Y-86000000D03*
X108000000Y-79000000D03*
X114000000Y-47000000D03*
X168000000Y-64000000D03*
X132000000Y-59000000D03*
X190000000Y-64000000D03*
X176000000Y-54000000D03*
X104000000Y-64000000D03*
X146000000Y-92000000D03*
X132000000Y-61000000D03*
X148000000Y-57000000D03*
X136000000Y-78000000D03*
X180000000Y-53000000D03*
X132000000Y-77000000D03*
X132000000Y-55000000D03*
X104000000Y-84000000D03*
X104000000Y-88000000D03*
X122000000Y-79000000D03*
X124000000Y-77000000D03*
X184000000Y-72000000D03*
X104000000Y-52000000D03*
X112000000Y-84000000D03*
X164000000Y-44000000D03*
X168000000Y-84000000D03*
X151000000Y-80000000D03*
X112000000Y-80000000D03*
X180000000Y-87000000D03*
X110000000Y-92000000D03*
X176000000Y-56000000D03*
X158000000Y-66000000D03*
X136000000Y-44000000D03*
X187580000Y-44300000D03*
X120000000Y-90000000D03*
X128000000Y-56000000D03*
X188828427Y-45171573D03*
X112000000Y-46000000D03*
X152000000Y-86000000D03*
X122000000Y-92000000D03*
X140000000Y-65000000D03*
X124000000Y-44000000D03*
X104310000Y-89520000D03*
%TO.N,3V3*%
X140000000Y-81000000D03*
X151000000Y-74000000D03*
X164000000Y-74000000D03*
X117000000Y-83000000D03*
X131000000Y-51000000D03*
X187000000Y-81000000D03*
X116000000Y-48000000D03*
%TO.N,VIN*%
X122000000Y-51000000D03*
%TO.N,5V*%
X141000000Y-77000000D03*
X144000000Y-88000000D03*
X160000000Y-88000000D03*
X120000000Y-57050000D03*
%TO.N,/Microcontroller/ESP_EN*%
X143000000Y-52000000D03*
X180000000Y-67000000D03*
%TO.N,/Microcontroller/IO19*%
X158000000Y-51000000D03*
%TO.N,/Microcontroller/IO22*%
X158000000Y-50000000D03*
%TO.N,/Microcontroller/IO21*%
X158000000Y-49000000D03*
%TO.N,/Microcontroller/RED*%
X159500000Y-60500000D03*
X176000000Y-81000000D03*
%TO.N,/Microcontroller/BLUE*%
X164000000Y-66000000D03*
X161500000Y-60500000D03*
%TO.N,/Microcontroller/GREEN*%
X162078060Y-58921940D03*
X176000000Y-73000000D03*
%TO.N,/Microcontroller/VER0*%
X145000000Y-52000000D03*
X120000000Y-46000000D03*
%TO.N,/Microcontroller/VER1*%
X146000000Y-53000000D03*
X120000000Y-48000000D03*
%TO.N,/Microcontroller/ESP.DTR*%
X172000000Y-53000000D03*
X174062500Y-57000000D03*
%TO.N,/Microcontroller/IO18*%
X158000000Y-53000000D03*
%TO.N,/Microcontroller/IO23*%
X158000000Y-52000000D03*
%TD*%
D18*
%TO.N,3V3*%
X185000000Y-83000000D02*
X187000000Y-81000000D01*
D19*
X136131371Y-91000000D02*
X139000000Y-88131371D01*
X127000000Y-91000000D02*
X136131371Y-91000000D01*
X118900000Y-83000000D02*
X117000000Y-83000000D01*
X124000000Y-88000000D02*
X127000000Y-91000000D01*
D18*
X164000000Y-74000000D02*
X173000000Y-83000000D01*
X147000000Y-74000000D02*
X151000000Y-74000000D01*
X131000000Y-51000000D02*
X124500000Y-51000000D01*
D19*
X139000000Y-88131371D02*
X139000000Y-88000000D01*
D18*
X117500000Y-49500000D02*
X116000000Y-48000000D01*
X173000000Y-83000000D02*
X185000000Y-83000000D01*
D19*
X123868629Y-88000000D02*
X119000000Y-83131371D01*
D18*
X124500000Y-51000000D02*
X123000000Y-49500000D01*
D19*
X119000000Y-83131371D02*
X119000000Y-83100000D01*
D18*
X151000000Y-74000000D02*
X164000000Y-74000000D01*
X123000000Y-49500000D02*
X117500000Y-49500000D01*
D19*
X124000000Y-88000000D02*
X123868629Y-88000000D01*
X119000000Y-83100000D02*
X118900000Y-83000000D01*
D18*
X140000000Y-81000000D02*
X147000000Y-74000000D01*
D20*
%TO.N,VIN*%
X113900000Y-67100000D02*
X106100000Y-67100000D01*
X122000000Y-51000000D02*
X118250000Y-54750000D01*
X118250000Y-62750000D02*
X113900000Y-67100000D01*
X118250000Y-54750000D02*
X118250000Y-62750000D01*
D18*
%TO.N,5V*%
X157000000Y-85000000D02*
X160000000Y-88000000D01*
X146000000Y-88000000D02*
X149000000Y-85000000D01*
D20*
X141000000Y-68000000D02*
X141000000Y-77000000D01*
D18*
X149000000Y-85000000D02*
X157000000Y-85000000D01*
D20*
X120050000Y-57000000D02*
X130000000Y-57000000D01*
X130000000Y-57000000D02*
X141000000Y-68000000D01*
D18*
X144000000Y-88000000D02*
X146000000Y-88000000D01*
D20*
X120000000Y-57050000D02*
X120050000Y-57000000D01*
D18*
%TO.N,/Microcontroller/ESP_EN*%
X162000000Y-57000000D02*
X162000000Y-57010050D01*
X162000000Y-57010050D02*
X170489950Y-65500000D01*
X156500000Y-57000000D02*
X162000000Y-57000000D01*
X144200000Y-50800000D02*
X150300000Y-50800000D01*
X143000000Y-52000000D02*
X144200000Y-50800000D01*
X150300000Y-50800000D02*
X156500000Y-57000000D01*
X178500000Y-65500000D02*
X180000000Y-67000000D01*
X170489950Y-65500000D02*
X178500000Y-65500000D01*
%TO.N,/Microcontroller/IO19*%
X158000000Y-51000000D02*
X160300000Y-53300000D01*
X185209950Y-60289950D02*
X187000000Y-62080000D01*
X171389950Y-60289950D02*
X185209950Y-60289950D01*
X164400000Y-53300000D02*
X171389950Y-60289950D01*
X160300000Y-53300000D02*
X164400000Y-53300000D01*
%TO.N,/Microcontroller/IO22*%
X165900000Y-52500000D02*
X160500000Y-52500000D01*
X172900000Y-59500000D02*
X165900000Y-52500000D01*
X187000000Y-59540000D02*
X186960000Y-59500000D01*
X160500000Y-52500000D02*
X158000000Y-50000000D01*
X186960000Y-59500000D02*
X172900000Y-59500000D01*
%TO.N,/Microcontroller/IO21*%
X184700000Y-57000000D02*
X187000000Y-57000000D01*
X160300000Y-51300000D02*
X166148528Y-51300000D01*
X172648528Y-57800000D02*
X183900000Y-57800000D01*
X166148528Y-51300000D02*
X172648528Y-57800000D01*
X183900000Y-57800000D02*
X184700000Y-57000000D01*
X158000000Y-49000000D02*
X160300000Y-51300000D01*
D21*
%TO.N,/Microcontroller/RED*%
X162000000Y-63000000D02*
X162000000Y-68000000D01*
X159500000Y-60500000D02*
X162000000Y-63000000D01*
X175000000Y-81000000D02*
X176000000Y-81000000D01*
X162000000Y-68000000D02*
X175000000Y-81000000D01*
D20*
%TO.N,/Microcontroller/BLUE*%
X161500000Y-60500000D02*
X164000000Y-63000000D01*
X164000000Y-63000000D02*
X164000000Y-66000000D01*
D21*
%TO.N,/Microcontroller/GREEN*%
X173375000Y-73000000D02*
X175875000Y-73000000D01*
X162078060Y-58921940D02*
X166150000Y-62993880D01*
X166150000Y-65775000D02*
X173375000Y-73000000D01*
X166150000Y-62993880D02*
X166150000Y-65775000D01*
D18*
%TO.N,/Microcontroller/VER0*%
X142989950Y-53000000D02*
X140000000Y-53000000D01*
X145000000Y-52000000D02*
X144000000Y-53000000D01*
X140000000Y-53000000D02*
X133000000Y-46000000D01*
X133000000Y-46000000D02*
X120000000Y-46000000D01*
X144000000Y-53000000D02*
X142989950Y-53000000D01*
%TO.N,/Microcontroller/VER1*%
X146000000Y-53000000D02*
X145000000Y-54000000D01*
X137000000Y-54000000D02*
X131000000Y-48000000D01*
X145000000Y-54000000D02*
X137000000Y-54000000D01*
X131000000Y-48000000D02*
X120000000Y-48000000D01*
%TO.N,/Microcontroller/ESP.DTR*%
X172000000Y-54937500D02*
X172000000Y-53000000D01*
X172000000Y-54937500D02*
X174062500Y-57000000D01*
%TO.N,/Microcontroller/IO18*%
X169600000Y-63100000D02*
X182940000Y-63100000D01*
X160089950Y-55100000D02*
X161600000Y-55100000D01*
X161600000Y-55100000D02*
X169600000Y-63100000D01*
X158000000Y-53000000D02*
X158000000Y-53010050D01*
X182940000Y-63100000D02*
X187000000Y-67160000D01*
X158000000Y-53010050D02*
X160089950Y-55100000D01*
%TO.N,/Microcontroller/IO23*%
X160200000Y-54200000D02*
X158000000Y-52000000D01*
X170910050Y-61900000D02*
X163210050Y-54200000D01*
X163210050Y-54200000D02*
X160200000Y-54200000D01*
X184280000Y-61900000D02*
X170910050Y-61900000D01*
X187000000Y-64620000D02*
X184280000Y-61900000D01*
%TD*%
%TA.AperFunction,Conductor*%
%TO.N,GND*%
G36*
X188002065Y-43200615D02*
G01*
X188309309Y-43217870D01*
X188317543Y-43218799D01*
X188618855Y-43269993D01*
X188626923Y-43271834D01*
X188920633Y-43356451D01*
X188928447Y-43359185D01*
X189210817Y-43476147D01*
X189218293Y-43479747D01*
X189485784Y-43627584D01*
X189492808Y-43631997D01*
X189742086Y-43808869D01*
X189748554Y-43814028D01*
X189901670Y-43950862D01*
X189976446Y-44017686D01*
X189982313Y-44023553D01*
X190065033Y-44116116D01*
X190185969Y-44251443D01*
X190191132Y-44257915D01*
X190346337Y-44476657D01*
X190368000Y-44507188D01*
X190372415Y-44514215D01*
X190520252Y-44781706D01*
X190523852Y-44789182D01*
X190640810Y-45071543D01*
X190643551Y-45079376D01*
X190728162Y-45373065D01*
X190730008Y-45381156D01*
X190781199Y-45682450D01*
X190782129Y-45690696D01*
X190799384Y-45997934D01*
X190799500Y-46002083D01*
X190799500Y-89997916D01*
X190799384Y-90002065D01*
X190782129Y-90309303D01*
X190781199Y-90317549D01*
X190730008Y-90618843D01*
X190728162Y-90626934D01*
X190643551Y-90920623D01*
X190640810Y-90928456D01*
X190523852Y-91210817D01*
X190520252Y-91218293D01*
X190372415Y-91485784D01*
X190368000Y-91492811D01*
X190191138Y-91742076D01*
X190185963Y-91748564D01*
X189982313Y-91976446D01*
X189976446Y-91982313D01*
X189748564Y-92185963D01*
X189742076Y-92191138D01*
X189492811Y-92368000D01*
X189485784Y-92372415D01*
X189218293Y-92520252D01*
X189210817Y-92523852D01*
X188928456Y-92640810D01*
X188920623Y-92643551D01*
X188626934Y-92728162D01*
X188618843Y-92730008D01*
X188317549Y-92781199D01*
X188309303Y-92782129D01*
X188002066Y-92799384D01*
X187997917Y-92799500D01*
X106002083Y-92799500D01*
X105997934Y-92799384D01*
X105690696Y-92782129D01*
X105682450Y-92781199D01*
X105381156Y-92730008D01*
X105373065Y-92728162D01*
X105079376Y-92643551D01*
X105071543Y-92640810D01*
X104789182Y-92523852D01*
X104781706Y-92520252D01*
X104514215Y-92372415D01*
X104507188Y-92368000D01*
X104363715Y-92266201D01*
X104257915Y-92191132D01*
X104251443Y-92185969D01*
X104062260Y-92016904D01*
X104023553Y-91982313D01*
X104017686Y-91976446D01*
X103950862Y-91901670D01*
X103814028Y-91748554D01*
X103808869Y-91742086D01*
X103631997Y-91492808D01*
X103627584Y-91485784D01*
X103610565Y-91454991D01*
X103479747Y-91218293D01*
X103476147Y-91210817D01*
X103450347Y-91148531D01*
X103359185Y-90928447D01*
X103356451Y-90920633D01*
X103271834Y-90626923D01*
X103269993Y-90618855D01*
X103218799Y-90317543D01*
X103217870Y-90309303D01*
X103213751Y-90235965D01*
X103200616Y-90002065D01*
X103200500Y-89997916D01*
X103200500Y-87872157D01*
X106049500Y-87872157D01*
X106049500Y-88127843D01*
X106056807Y-88183343D01*
X106082873Y-88381338D01*
X106149049Y-88628309D01*
X106149051Y-88628316D01*
X106246892Y-88864526D01*
X106246895Y-88864534D01*
X106374736Y-89085961D01*
X106374740Y-89085967D01*
X106530390Y-89288813D01*
X106711186Y-89469609D01*
X106914032Y-89625259D01*
X106914038Y-89625263D01*
X107135465Y-89753104D01*
X107371687Y-89850950D01*
X107618660Y-89917126D01*
X107872157Y-89950500D01*
X107872159Y-89950500D01*
X108127841Y-89950500D01*
X108127843Y-89950500D01*
X108381340Y-89917126D01*
X108628313Y-89850950D01*
X108864535Y-89753104D01*
X109085965Y-89625261D01*
X109288813Y-89469610D01*
X109469610Y-89288813D01*
X109625261Y-89085965D01*
X109753104Y-88864535D01*
X109850950Y-88628313D01*
X109917126Y-88381340D01*
X109950500Y-88127843D01*
X109950500Y-87872157D01*
X109937259Y-87771584D01*
X115450000Y-87771584D01*
X115450000Y-87825000D01*
X116055135Y-87825000D01*
X116025000Y-87937465D01*
X116025000Y-88062535D01*
X116055135Y-88175000D01*
X115450000Y-88175000D01*
X115450000Y-88228415D01*
X115490348Y-88431267D01*
X115490350Y-88431274D01*
X115569500Y-88622358D01*
X115684410Y-88794335D01*
X115830664Y-88940589D01*
X116002641Y-89055499D01*
X116193725Y-89134649D01*
X116193732Y-89134651D01*
X116324999Y-89160761D01*
X116325000Y-89160761D01*
X116325000Y-88444865D01*
X116437465Y-88475000D01*
X116562535Y-88475000D01*
X116675000Y-88444865D01*
X116675000Y-89160761D01*
X116806267Y-89134651D01*
X116806274Y-89134649D01*
X116997358Y-89055499D01*
X117169335Y-88940589D01*
X117169337Y-88940588D01*
X117315588Y-88794337D01*
X117315589Y-88794335D01*
X117430499Y-88622358D01*
X117509649Y-88431274D01*
X117509651Y-88431267D01*
X117550000Y-88228415D01*
X117550000Y-88175000D01*
X116944865Y-88175000D01*
X116975000Y-88062535D01*
X116975000Y-87937465D01*
X116944865Y-87825000D01*
X117550000Y-87825000D01*
X117550000Y-87788388D01*
X117899500Y-87788388D01*
X117899500Y-88211611D01*
X117926597Y-88382698D01*
X117926600Y-88382711D01*
X117980125Y-88547442D01*
X117980127Y-88547446D01*
X118058767Y-88701787D01*
X118153726Y-88832487D01*
X118160586Y-88841928D01*
X118283072Y-88964414D01*
X118283075Y-88964416D01*
X118283076Y-88964417D01*
X118423212Y-89066232D01*
X118577553Y-89144872D01*
X118577557Y-89144874D01*
X118742288Y-89198399D01*
X118742294Y-89198400D01*
X118742299Y-89198402D01*
X118856359Y-89216467D01*
X118913388Y-89225500D01*
X118913389Y-89225500D01*
X119086612Y-89225500D01*
X119134128Y-89217974D01*
X119257701Y-89198402D01*
X119257708Y-89198399D01*
X119257711Y-89198399D01*
X119422442Y-89144874D01*
X119422442Y-89144873D01*
X119422445Y-89144873D01*
X119576788Y-89066232D01*
X119716928Y-88964414D01*
X119839414Y-88841928D01*
X119941232Y-88701788D01*
X120019873Y-88547445D01*
X120061348Y-88419799D01*
X120073399Y-88382711D01*
X120073399Y-88382708D01*
X120073402Y-88382701D01*
X120100500Y-88211611D01*
X120100500Y-87788389D01*
X120100394Y-87787722D01*
X120075089Y-87627952D01*
X120073402Y-87617299D01*
X120073400Y-87617294D01*
X120073399Y-87617288D01*
X120019874Y-87452557D01*
X120019872Y-87452553D01*
X119941232Y-87298212D01*
X119839417Y-87158076D01*
X119839416Y-87158075D01*
X119839414Y-87158072D01*
X119716928Y-87035586D01*
X119716925Y-87035583D01*
X119716923Y-87035582D01*
X119576787Y-86933767D01*
X119422446Y-86855127D01*
X119422442Y-86855125D01*
X119257711Y-86801600D01*
X119257698Y-86801597D01*
X119086612Y-86774500D01*
X119086611Y-86774500D01*
X118913389Y-86774500D01*
X118913388Y-86774500D01*
X118742301Y-86801597D01*
X118742288Y-86801600D01*
X118577557Y-86855125D01*
X118577553Y-86855127D01*
X118423212Y-86933767D01*
X118283076Y-87035582D01*
X118160582Y-87158076D01*
X118058767Y-87298212D01*
X117980127Y-87452553D01*
X117980125Y-87452557D01*
X117926600Y-87617288D01*
X117926597Y-87617301D01*
X117899500Y-87788388D01*
X117550000Y-87788388D01*
X117550000Y-87771584D01*
X117509651Y-87568732D01*
X117509649Y-87568725D01*
X117430499Y-87377641D01*
X117315589Y-87205664D01*
X117169335Y-87059410D01*
X116997358Y-86944500D01*
X116806274Y-86865350D01*
X116806268Y-86865348D01*
X116675000Y-86839238D01*
X116675000Y-87555134D01*
X116562535Y-87525000D01*
X116437465Y-87525000D01*
X116325000Y-87555134D01*
X116325000Y-86839238D01*
X116324999Y-86839238D01*
X116193731Y-86865348D01*
X116193725Y-86865350D01*
X116002641Y-86944500D01*
X115830664Y-87059410D01*
X115830663Y-87059412D01*
X115684412Y-87205663D01*
X115684410Y-87205664D01*
X115569500Y-87377641D01*
X115490350Y-87568725D01*
X115490348Y-87568732D01*
X115450000Y-87771584D01*
X109937259Y-87771584D01*
X109917126Y-87618660D01*
X109850950Y-87371687D01*
X109753104Y-87135465D01*
X109636654Y-86933768D01*
X109625263Y-86914038D01*
X109625259Y-86914032D01*
X109469609Y-86711186D01*
X109288813Y-86530390D01*
X109085967Y-86374740D01*
X109085961Y-86374736D01*
X108864534Y-86246895D01*
X108864526Y-86246892D01*
X108628316Y-86149051D01*
X108628314Y-86149050D01*
X108628313Y-86149050D01*
X108595222Y-86140183D01*
X108381338Y-86082873D01*
X108194589Y-86058287D01*
X108127843Y-86049500D01*
X107872157Y-86049500D01*
X107813176Y-86057265D01*
X107618661Y-86082873D01*
X107371690Y-86149049D01*
X107371683Y-86149051D01*
X107135473Y-86246892D01*
X107135465Y-86246895D01*
X106914038Y-86374736D01*
X106914032Y-86374740D01*
X106711186Y-86530390D01*
X106530390Y-86711186D01*
X106374740Y-86914032D01*
X106374736Y-86914038D01*
X106246895Y-87135465D01*
X106246892Y-87135473D01*
X106149051Y-87371683D01*
X106149049Y-87371690D01*
X106082873Y-87618661D01*
X106060528Y-87788389D01*
X106049500Y-87872157D01*
X103200500Y-87872157D01*
X103200500Y-82999999D01*
X116444750Y-82999999D01*
X116448867Y-83031270D01*
X116449500Y-83040929D01*
X116449500Y-83072476D01*
X116457665Y-83102951D01*
X116459553Y-83112442D01*
X116463669Y-83143708D01*
X116475740Y-83172849D01*
X116478847Y-83182001D01*
X116487016Y-83212485D01*
X116487017Y-83212486D01*
X116502786Y-83239801D01*
X116507065Y-83248479D01*
X116519137Y-83277621D01*
X116519137Y-83277622D01*
X116519138Y-83277624D01*
X116519139Y-83277625D01*
X116538349Y-83302661D01*
X116543722Y-83310703D01*
X116559491Y-83338015D01*
X116581793Y-83360317D01*
X116588174Y-83367593D01*
X116607379Y-83392621D01*
X116607381Y-83392622D01*
X116607382Y-83392624D01*
X116632400Y-83411820D01*
X116639678Y-83418202D01*
X116661985Y-83440509D01*
X116679290Y-83450500D01*
X116689305Y-83456283D01*
X116697351Y-83461660D01*
X116722375Y-83480861D01*
X116751524Y-83492934D01*
X116760197Y-83497212D01*
X116787515Y-83512984D01*
X116817994Y-83521150D01*
X116827139Y-83524254D01*
X116856291Y-83536330D01*
X116887564Y-83540446D01*
X116897038Y-83542330D01*
X116927525Y-83550500D01*
X116959070Y-83550500D01*
X116968729Y-83551133D01*
X117000000Y-83555250D01*
X117031271Y-83551133D01*
X117040930Y-83550500D01*
X118609952Y-83550500D01*
X118662278Y-83572174D01*
X121755877Y-86665773D01*
X121777551Y-86718099D01*
X121755877Y-86770425D01*
X121703551Y-86792099D01*
X121691975Y-86791188D01*
X121586612Y-86774500D01*
X121586611Y-86774500D01*
X121413389Y-86774500D01*
X121413388Y-86774500D01*
X121242301Y-86801597D01*
X121242288Y-86801600D01*
X121077557Y-86855125D01*
X121077553Y-86855127D01*
X120923212Y-86933767D01*
X120783076Y-87035582D01*
X120660582Y-87158076D01*
X120558767Y-87298212D01*
X120480127Y-87452553D01*
X120480125Y-87452557D01*
X120426600Y-87617288D01*
X120426597Y-87617301D01*
X120399500Y-87788388D01*
X120399500Y-88211611D01*
X120426597Y-88382698D01*
X120426600Y-88382711D01*
X120480125Y-88547442D01*
X120480127Y-88547446D01*
X120558767Y-88701787D01*
X120653726Y-88832487D01*
X120660586Y-88841928D01*
X120783072Y-88964414D01*
X120783075Y-88964416D01*
X120783076Y-88964417D01*
X120923212Y-89066232D01*
X121077553Y-89144872D01*
X121077557Y-89144874D01*
X121242288Y-89198399D01*
X121242294Y-89198400D01*
X121242299Y-89198402D01*
X121356359Y-89216467D01*
X121413388Y-89225500D01*
X121413389Y-89225500D01*
X121586612Y-89225500D01*
X121634128Y-89217974D01*
X121757701Y-89198402D01*
X121757708Y-89198399D01*
X121757711Y-89198399D01*
X121922442Y-89144874D01*
X121922442Y-89144873D01*
X121922445Y-89144873D01*
X122076788Y-89066232D01*
X122216928Y-88964414D01*
X122339414Y-88841928D01*
X122441232Y-88701788D01*
X122519873Y-88547445D01*
X122561348Y-88419799D01*
X122573399Y-88382711D01*
X122573399Y-88382708D01*
X122573402Y-88382701D01*
X122600500Y-88211611D01*
X122600500Y-87788389D01*
X122583811Y-87683022D01*
X122597032Y-87627952D01*
X122645323Y-87598359D01*
X122700396Y-87611580D01*
X122709226Y-87619122D01*
X122877826Y-87787722D01*
X122899500Y-87840048D01*
X122899500Y-88772873D01*
X122905909Y-88832485D01*
X122956202Y-88967329D01*
X122956203Y-88967330D01*
X122956204Y-88967331D01*
X123042454Y-89082546D01*
X123146936Y-89160761D01*
X123157669Y-89168796D01*
X123157670Y-89168797D01*
X123268605Y-89210172D01*
X123292517Y-89219091D01*
X123352127Y-89225500D01*
X124416322Y-89225499D01*
X124468648Y-89247173D01*
X126661986Y-91440510D01*
X126687068Y-91454991D01*
X126787515Y-91512984D01*
X126787516Y-91512984D01*
X126787518Y-91512985D01*
X126857520Y-91531742D01*
X126927522Y-91550499D01*
X126927523Y-91550500D01*
X126927525Y-91550500D01*
X136203848Y-91550500D01*
X136203848Y-91550499D01*
X136302260Y-91524129D01*
X136343853Y-91512985D01*
X136343853Y-91512984D01*
X136343856Y-91512984D01*
X136469386Y-91440510D01*
X138662722Y-89247172D01*
X138715048Y-89225499D01*
X139647872Y-89225499D01*
X139707483Y-89219091D01*
X139829411Y-89173615D01*
X139842329Y-89168797D01*
X139842329Y-89168796D01*
X139842331Y-89168796D01*
X139957546Y-89082546D01*
X140043796Y-88967331D01*
X140053771Y-88940588D01*
X140082136Y-88864535D01*
X140094091Y-88832483D01*
X140100500Y-88772873D01*
X140100499Y-88000000D01*
X143444750Y-88000000D01*
X143463669Y-88143708D01*
X143498756Y-88228415D01*
X143519139Y-88277625D01*
X143607379Y-88392621D01*
X143722375Y-88480861D01*
X143856291Y-88536330D01*
X144000000Y-88555250D01*
X144143709Y-88536330D01*
X144277625Y-88480861D01*
X144286041Y-88474402D01*
X144297264Y-88465792D01*
X144342312Y-88450500D01*
X146059309Y-88450500D01*
X146149673Y-88426286D01*
X146149674Y-88426286D01*
X146160350Y-88423425D01*
X146173887Y-88419799D01*
X146276614Y-88360489D01*
X146661776Y-87975327D01*
X148749500Y-87975327D01*
X148749500Y-90024672D01*
X148764034Y-90097740D01*
X148818714Y-90179577D01*
X148819399Y-90180601D01*
X148902260Y-90235966D01*
X148975326Y-90250500D01*
X148975328Y-90250500D01*
X151024672Y-90250500D01*
X151024674Y-90250500D01*
X151097740Y-90235966D01*
X151180601Y-90180601D01*
X151235966Y-90097740D01*
X151250500Y-90024674D01*
X151250500Y-88999994D01*
X152744723Y-88999994D01*
X152744723Y-89000005D01*
X152763792Y-89217974D01*
X152763793Y-89217980D01*
X152820422Y-89429322D01*
X152820424Y-89429326D01*
X152820425Y-89429330D01*
X152912898Y-89627639D01*
X153038402Y-89806877D01*
X153193123Y-89961598D01*
X153372361Y-90087102D01*
X153570670Y-90179575D01*
X153570676Y-90179576D01*
X153570677Y-90179577D01*
X153782019Y-90236206D01*
X153782023Y-90236207D01*
X153844302Y-90241655D01*
X153999995Y-90255277D01*
X154000000Y-90255277D01*
X154000005Y-90255277D01*
X154136235Y-90243358D01*
X154217977Y-90236207D01*
X154429330Y-90179575D01*
X154627639Y-90087102D01*
X154806877Y-89961598D01*
X154961598Y-89806877D01*
X155087102Y-89627639D01*
X155179575Y-89429330D01*
X155236207Y-89217977D01*
X155247757Y-89085961D01*
X155255277Y-89000005D01*
X155255277Y-88999994D01*
X155236207Y-88782025D01*
X155236206Y-88782019D01*
X155179577Y-88570677D01*
X155179576Y-88570676D01*
X155179575Y-88570670D01*
X155087102Y-88372362D01*
X154961598Y-88193123D01*
X154806877Y-88038402D01*
X154806874Y-88038400D01*
X154806875Y-88038400D01*
X154739690Y-87991357D01*
X154627639Y-87912898D01*
X154429330Y-87820425D01*
X154429326Y-87820424D01*
X154429322Y-87820422D01*
X154217980Y-87763793D01*
X154217974Y-87763792D01*
X154000005Y-87744723D01*
X153999995Y-87744723D01*
X153782025Y-87763792D01*
X153782019Y-87763793D01*
X153570677Y-87820422D01*
X153570670Y-87820424D01*
X153570670Y-87820425D01*
X153372362Y-87912898D01*
X153372361Y-87912899D01*
X153193122Y-88038402D01*
X153038402Y-88193122D01*
X152969408Y-88291657D01*
X152912898Y-88372362D01*
X152820427Y-88570666D01*
X152820422Y-88570677D01*
X152763793Y-88782019D01*
X152763792Y-88782025D01*
X152744723Y-88999994D01*
X151250500Y-88999994D01*
X151250500Y-87975326D01*
X151235966Y-87902260D01*
X151180601Y-87819399D01*
X151176497Y-87816657D01*
X151097740Y-87764034D01*
X151096523Y-87763792D01*
X151024674Y-87749500D01*
X148975326Y-87749500D01*
X148926615Y-87759189D01*
X148902259Y-87764034D01*
X148819399Y-87819398D01*
X148819398Y-87819399D01*
X148764034Y-87902259D01*
X148749500Y-87975327D01*
X146661776Y-87975327D01*
X149164930Y-85472174D01*
X149217256Y-85450500D01*
X156782745Y-85450500D01*
X156835071Y-85472174D01*
X159439397Y-88076501D01*
X159460438Y-88119166D01*
X159463669Y-88143708D01*
X159498756Y-88228415D01*
X159519139Y-88277625D01*
X159607379Y-88392621D01*
X159722375Y-88480861D01*
X159856291Y-88536330D01*
X160000000Y-88555250D01*
X160143709Y-88536330D01*
X160277625Y-88480861D01*
X160392621Y-88392621D01*
X160480861Y-88277625D01*
X160536330Y-88143709D01*
X160555250Y-88000000D01*
X160552002Y-87975327D01*
X164749500Y-87975327D01*
X164749500Y-90024672D01*
X164764034Y-90097740D01*
X164818714Y-90179577D01*
X164819399Y-90180601D01*
X164902260Y-90235966D01*
X164975326Y-90250500D01*
X164975328Y-90250500D01*
X167024672Y-90250500D01*
X167024674Y-90250500D01*
X167097740Y-90235966D01*
X167180601Y-90180601D01*
X167235966Y-90097740D01*
X167250500Y-90024674D01*
X167250500Y-88999994D01*
X168744723Y-88999994D01*
X168744723Y-89000005D01*
X168763792Y-89217974D01*
X168763793Y-89217980D01*
X168820422Y-89429322D01*
X168820424Y-89429326D01*
X168820425Y-89429330D01*
X168912898Y-89627639D01*
X169038402Y-89806877D01*
X169193123Y-89961598D01*
X169372361Y-90087102D01*
X169570670Y-90179575D01*
X169570676Y-90179576D01*
X169570677Y-90179577D01*
X169782019Y-90236206D01*
X169782023Y-90236207D01*
X169844302Y-90241655D01*
X169999995Y-90255277D01*
X170000000Y-90255277D01*
X170000005Y-90255277D01*
X170136235Y-90243358D01*
X170217977Y-90236207D01*
X170429330Y-90179575D01*
X170627639Y-90087102D01*
X170806877Y-89961598D01*
X170961598Y-89806877D01*
X171087102Y-89627639D01*
X171179575Y-89429330D01*
X171236207Y-89217977D01*
X171247757Y-89085961D01*
X171255277Y-89000005D01*
X171255277Y-88999994D01*
X171236207Y-88782025D01*
X171236206Y-88782019D01*
X171179577Y-88570677D01*
X171179576Y-88570676D01*
X171179575Y-88570670D01*
X171087102Y-88372362D01*
X170961598Y-88193123D01*
X170806877Y-88038402D01*
X170806874Y-88038400D01*
X170806875Y-88038400D01*
X170739690Y-87991357D01*
X170627639Y-87912898D01*
X170540270Y-87872157D01*
X184049500Y-87872157D01*
X184049500Y-88127843D01*
X184056807Y-88183343D01*
X184082873Y-88381338D01*
X184149049Y-88628309D01*
X184149051Y-88628316D01*
X184246892Y-88864526D01*
X184246895Y-88864534D01*
X184374736Y-89085961D01*
X184374740Y-89085967D01*
X184530390Y-89288813D01*
X184711186Y-89469609D01*
X184914032Y-89625259D01*
X184914038Y-89625263D01*
X185135465Y-89753104D01*
X185371687Y-89850950D01*
X185618660Y-89917126D01*
X185872157Y-89950500D01*
X185872159Y-89950500D01*
X186127841Y-89950500D01*
X186127843Y-89950500D01*
X186381340Y-89917126D01*
X186628313Y-89850950D01*
X186864535Y-89753104D01*
X187085965Y-89625261D01*
X187288813Y-89469610D01*
X187469610Y-89288813D01*
X187625261Y-89085965D01*
X187753104Y-88864535D01*
X187850950Y-88628313D01*
X187917126Y-88381340D01*
X187950500Y-88127843D01*
X187950500Y-87872157D01*
X187917126Y-87618660D01*
X187850950Y-87371687D01*
X187753104Y-87135465D01*
X187636654Y-86933768D01*
X187625263Y-86914038D01*
X187625259Y-86914032D01*
X187469609Y-86711186D01*
X187288813Y-86530390D01*
X187085967Y-86374740D01*
X187085961Y-86374736D01*
X186864534Y-86246895D01*
X186864526Y-86246892D01*
X186628316Y-86149051D01*
X186628314Y-86149050D01*
X186628313Y-86149050D01*
X186595222Y-86140183D01*
X186381338Y-86082873D01*
X186194589Y-86058287D01*
X186127843Y-86049500D01*
X185872157Y-86049500D01*
X185813176Y-86057265D01*
X185618661Y-86082873D01*
X185371690Y-86149049D01*
X185371683Y-86149051D01*
X185135473Y-86246892D01*
X185135465Y-86246895D01*
X184914038Y-86374736D01*
X184914032Y-86374740D01*
X184711186Y-86530390D01*
X184530390Y-86711186D01*
X184374740Y-86914032D01*
X184374736Y-86914038D01*
X184246895Y-87135465D01*
X184246892Y-87135473D01*
X184149051Y-87371683D01*
X184149049Y-87371690D01*
X184082873Y-87618661D01*
X184060528Y-87788389D01*
X184049500Y-87872157D01*
X170540270Y-87872157D01*
X170429330Y-87820425D01*
X170429326Y-87820424D01*
X170429322Y-87820422D01*
X170217980Y-87763793D01*
X170217974Y-87763792D01*
X170000005Y-87744723D01*
X169999995Y-87744723D01*
X169782025Y-87763792D01*
X169782019Y-87763793D01*
X169570677Y-87820422D01*
X169570670Y-87820424D01*
X169570670Y-87820425D01*
X169372362Y-87912898D01*
X169372361Y-87912899D01*
X169193122Y-88038402D01*
X169038402Y-88193122D01*
X168969408Y-88291657D01*
X168912898Y-88372362D01*
X168820427Y-88570666D01*
X168820422Y-88570677D01*
X168763793Y-88782019D01*
X168763792Y-88782025D01*
X168744723Y-88999994D01*
X167250500Y-88999994D01*
X167250500Y-87975326D01*
X167235966Y-87902260D01*
X167180601Y-87819399D01*
X167176497Y-87816657D01*
X167097740Y-87764034D01*
X167096523Y-87763792D01*
X167024674Y-87749500D01*
X164975326Y-87749500D01*
X164926615Y-87759189D01*
X164902259Y-87764034D01*
X164819399Y-87819398D01*
X164819398Y-87819399D01*
X164764034Y-87902259D01*
X164749500Y-87975327D01*
X160552002Y-87975327D01*
X160536330Y-87856291D01*
X160480861Y-87722375D01*
X160392621Y-87607379D01*
X160277625Y-87519139D01*
X160277623Y-87519138D01*
X160143708Y-87463669D01*
X160119166Y-87460438D01*
X160076501Y-87439397D01*
X159389930Y-86752826D01*
X157276614Y-84639511D01*
X157276611Y-84639509D01*
X157276610Y-84639508D01*
X157173891Y-84580203D01*
X157173889Y-84580202D01*
X157173887Y-84580201D01*
X157172585Y-84579852D01*
X157149674Y-84573712D01*
X157149674Y-84573713D01*
X157059309Y-84549500D01*
X148940691Y-84549500D01*
X148940689Y-84549500D01*
X148850330Y-84573712D01*
X148850326Y-84573713D01*
X148836345Y-84577459D01*
X148826111Y-84580201D01*
X148723385Y-84639510D01*
X145835071Y-87527826D01*
X145782745Y-87549500D01*
X144342312Y-87549500D01*
X144297264Y-87534208D01*
X144277627Y-87519140D01*
X144277623Y-87519138D01*
X144143708Y-87463669D01*
X144000000Y-87444750D01*
X143856291Y-87463669D01*
X143722376Y-87519138D01*
X143607379Y-87607379D01*
X143519138Y-87722376D01*
X143463669Y-87856291D01*
X143444750Y-88000000D01*
X140100499Y-88000000D01*
X140100499Y-87227128D01*
X140094091Y-87167517D01*
X140090568Y-87158072D01*
X140043797Y-87032670D01*
X140043796Y-87032669D01*
X139982284Y-86950500D01*
X139957546Y-86917454D01*
X139842331Y-86831204D01*
X139842330Y-86831203D01*
X139842329Y-86831202D01*
X139707487Y-86780910D01*
X139707484Y-86780909D01*
X139707483Y-86780909D01*
X139647873Y-86774500D01*
X138352126Y-86774500D01*
X138292514Y-86780909D01*
X138157670Y-86831202D01*
X138157669Y-86831203D01*
X138042454Y-86917454D01*
X137956203Y-87032669D01*
X137956202Y-87032670D01*
X137905910Y-87167512D01*
X137905909Y-87167517D01*
X137899500Y-87227126D01*
X137899500Y-88422693D01*
X137877826Y-88475019D01*
X137548616Y-88804229D01*
X137496290Y-88825903D01*
X137443964Y-88804229D01*
X137422290Y-88751903D01*
X137436422Y-88708407D01*
X137441232Y-88701788D01*
X137519873Y-88547445D01*
X137561348Y-88419799D01*
X137573399Y-88382711D01*
X137573399Y-88382708D01*
X137573402Y-88382701D01*
X137600500Y-88211611D01*
X137600500Y-87788389D01*
X137600394Y-87787722D01*
X137575089Y-87627952D01*
X137573402Y-87617299D01*
X137573400Y-87617294D01*
X137573399Y-87617288D01*
X137519874Y-87452557D01*
X137519872Y-87452553D01*
X137441232Y-87298212D01*
X137339417Y-87158076D01*
X137339416Y-87158075D01*
X137339414Y-87158072D01*
X137216928Y-87035586D01*
X137216925Y-87035583D01*
X137216923Y-87035582D01*
X137076787Y-86933767D01*
X136922446Y-86855127D01*
X136922442Y-86855125D01*
X136757711Y-86801600D01*
X136757698Y-86801597D01*
X136586612Y-86774500D01*
X136586611Y-86774500D01*
X136413389Y-86774500D01*
X136413388Y-86774500D01*
X136242301Y-86801597D01*
X136242288Y-86801600D01*
X136077557Y-86855125D01*
X136077553Y-86855127D01*
X135923212Y-86933767D01*
X135783076Y-87035582D01*
X135660582Y-87158076D01*
X135558767Y-87298212D01*
X135480127Y-87452553D01*
X135480125Y-87452557D01*
X135426600Y-87617288D01*
X135426597Y-87617301D01*
X135399500Y-87788388D01*
X135399500Y-88211611D01*
X135426597Y-88382698D01*
X135426600Y-88382711D01*
X135480125Y-88547442D01*
X135480127Y-88547446D01*
X135558767Y-88701787D01*
X135653726Y-88832487D01*
X135660586Y-88841928D01*
X135783072Y-88964414D01*
X135783075Y-88964416D01*
X135783076Y-88964417D01*
X135923212Y-89066232D01*
X136077553Y-89144872D01*
X136077557Y-89144874D01*
X136242288Y-89198399D01*
X136242294Y-89198400D01*
X136242299Y-89198402D01*
X136356359Y-89216467D01*
X136413388Y-89225500D01*
X136413389Y-89225500D01*
X136586612Y-89225500D01*
X136634128Y-89217974D01*
X136757701Y-89198402D01*
X136757708Y-89198399D01*
X136757711Y-89198399D01*
X136922442Y-89144874D01*
X136922442Y-89144873D01*
X136922445Y-89144873D01*
X137076788Y-89066232D01*
X137083403Y-89061425D01*
X137138473Y-89048199D01*
X137186766Y-89077788D01*
X137199993Y-89132859D01*
X137179229Y-89173615D01*
X135925020Y-90427826D01*
X135872694Y-90449500D01*
X127258676Y-90449500D01*
X127206350Y-90427826D01*
X125122173Y-88343648D01*
X125100499Y-88291322D01*
X125100499Y-87771584D01*
X130450000Y-87771584D01*
X130450000Y-87825000D01*
X131055135Y-87825000D01*
X131025000Y-87937465D01*
X131025000Y-88062535D01*
X131055135Y-88175000D01*
X130450000Y-88175000D01*
X130450000Y-88228415D01*
X130490348Y-88431267D01*
X130490350Y-88431274D01*
X130569500Y-88622358D01*
X130684410Y-88794335D01*
X130830664Y-88940589D01*
X131002641Y-89055499D01*
X131193725Y-89134649D01*
X131193732Y-89134651D01*
X131324999Y-89160761D01*
X131325000Y-89160761D01*
X131325000Y-88444865D01*
X131437465Y-88475000D01*
X131562535Y-88475000D01*
X131675000Y-88444865D01*
X131675000Y-89160761D01*
X131806267Y-89134651D01*
X131806274Y-89134649D01*
X131997358Y-89055499D01*
X132169335Y-88940589D01*
X132169337Y-88940588D01*
X132315588Y-88794337D01*
X132315589Y-88794335D01*
X132430499Y-88622358D01*
X132509649Y-88431274D01*
X132509651Y-88431267D01*
X132550000Y-88228415D01*
X132550000Y-88175000D01*
X131944865Y-88175000D01*
X131975000Y-88062535D01*
X131975000Y-87937465D01*
X131944865Y-87825000D01*
X132550000Y-87825000D01*
X132550000Y-87788388D01*
X132899500Y-87788388D01*
X132899500Y-88211611D01*
X132926597Y-88382698D01*
X132926600Y-88382711D01*
X132980125Y-88547442D01*
X132980127Y-88547446D01*
X133058767Y-88701787D01*
X133153726Y-88832487D01*
X133160586Y-88841928D01*
X133283072Y-88964414D01*
X133283075Y-88964416D01*
X133283076Y-88964417D01*
X133423212Y-89066232D01*
X133577553Y-89144872D01*
X133577557Y-89144874D01*
X133742288Y-89198399D01*
X133742294Y-89198400D01*
X133742299Y-89198402D01*
X133856359Y-89216467D01*
X133913388Y-89225500D01*
X133913389Y-89225500D01*
X134086612Y-89225500D01*
X134134128Y-89217974D01*
X134257701Y-89198402D01*
X134257708Y-89198399D01*
X134257711Y-89198399D01*
X134422442Y-89144874D01*
X134422442Y-89144873D01*
X134422445Y-89144873D01*
X134576788Y-89066232D01*
X134716928Y-88964414D01*
X134839414Y-88841928D01*
X134941232Y-88701788D01*
X135019873Y-88547445D01*
X135061348Y-88419799D01*
X135073399Y-88382711D01*
X135073399Y-88382708D01*
X135073402Y-88382701D01*
X135100500Y-88211611D01*
X135100500Y-87788389D01*
X135100394Y-87787722D01*
X135075089Y-87627952D01*
X135073402Y-87617299D01*
X135073400Y-87617294D01*
X135073399Y-87617288D01*
X135019874Y-87452557D01*
X135019872Y-87452553D01*
X134941232Y-87298212D01*
X134839417Y-87158076D01*
X134839416Y-87158075D01*
X134839414Y-87158072D01*
X134716928Y-87035586D01*
X134716925Y-87035583D01*
X134716923Y-87035582D01*
X134576787Y-86933767D01*
X134422446Y-86855127D01*
X134422442Y-86855125D01*
X134257711Y-86801600D01*
X134257698Y-86801597D01*
X134086612Y-86774500D01*
X134086611Y-86774500D01*
X133913389Y-86774500D01*
X133913388Y-86774500D01*
X133742301Y-86801597D01*
X133742288Y-86801600D01*
X133577557Y-86855125D01*
X133577553Y-86855127D01*
X133423212Y-86933767D01*
X133283076Y-87035582D01*
X133160582Y-87158076D01*
X133058767Y-87298212D01*
X132980127Y-87452553D01*
X132980125Y-87452557D01*
X132926600Y-87617288D01*
X132926597Y-87617301D01*
X132899500Y-87788388D01*
X132550000Y-87788388D01*
X132550000Y-87771584D01*
X132509651Y-87568732D01*
X132509649Y-87568725D01*
X132430499Y-87377641D01*
X132315589Y-87205664D01*
X132169335Y-87059410D01*
X131997358Y-86944500D01*
X131806274Y-86865350D01*
X131806268Y-86865348D01*
X131675000Y-86839238D01*
X131675000Y-87555134D01*
X131562535Y-87525000D01*
X131437465Y-87525000D01*
X131325000Y-87555134D01*
X131325000Y-86839238D01*
X131324999Y-86839238D01*
X131193731Y-86865348D01*
X131193725Y-86865350D01*
X131002641Y-86944500D01*
X130830664Y-87059410D01*
X130830663Y-87059412D01*
X130684412Y-87205663D01*
X130684410Y-87205664D01*
X130569500Y-87377641D01*
X130490350Y-87568725D01*
X130490348Y-87568732D01*
X130450000Y-87771584D01*
X125100499Y-87771584D01*
X125100499Y-87227126D01*
X125098192Y-87205664D01*
X125094091Y-87167517D01*
X125090568Y-87158072D01*
X125043797Y-87032670D01*
X125043796Y-87032669D01*
X124982284Y-86950500D01*
X124957546Y-86917454D01*
X124842331Y-86831204D01*
X124842330Y-86831203D01*
X124842329Y-86831202D01*
X124707487Y-86780910D01*
X124707484Y-86780909D01*
X124707483Y-86780909D01*
X124677678Y-86777704D01*
X124647874Y-86774500D01*
X124647873Y-86774500D01*
X123452306Y-86774500D01*
X123399980Y-86752826D01*
X122553538Y-85906384D01*
X124649500Y-85906384D01*
X124649500Y-86093615D01*
X124686025Y-86277244D01*
X124686027Y-86277251D01*
X124757678Y-86450231D01*
X124861698Y-86605908D01*
X124994092Y-86738302D01*
X125149769Y-86842322D01*
X125322749Y-86913973D01*
X125506384Y-86950500D01*
X125506385Y-86950500D01*
X125693615Y-86950500D01*
X125693616Y-86950500D01*
X125877251Y-86913973D01*
X126050231Y-86842322D01*
X126205908Y-86738302D01*
X126338302Y-86605908D01*
X126442322Y-86450231D01*
X126513973Y-86277251D01*
X126550500Y-86093616D01*
X126550500Y-85906384D01*
X139649500Y-85906384D01*
X139649500Y-86093615D01*
X139686025Y-86277244D01*
X139686027Y-86277251D01*
X139757678Y-86450231D01*
X139861698Y-86605908D01*
X139994092Y-86738302D01*
X140149769Y-86842322D01*
X140322749Y-86913973D01*
X140506384Y-86950500D01*
X140506385Y-86950500D01*
X140693615Y-86950500D01*
X140693616Y-86950500D01*
X140877251Y-86913973D01*
X141050231Y-86842322D01*
X141205908Y-86738302D01*
X141338302Y-86605908D01*
X141442322Y-86450231D01*
X141513973Y-86277251D01*
X141550500Y-86093616D01*
X141550500Y-85906384D01*
X141513973Y-85722749D01*
X141442322Y-85549769D01*
X141338302Y-85394092D01*
X141205908Y-85261698D01*
X141050231Y-85157678D01*
X141050228Y-85157676D01*
X141050227Y-85157676D01*
X140877251Y-85086027D01*
X140877244Y-85086025D01*
X140738902Y-85058507D01*
X140693616Y-85049500D01*
X140506384Y-85049500D01*
X140470056Y-85056725D01*
X140322755Y-85086025D01*
X140322748Y-85086027D01*
X140149772Y-85157676D01*
X139994092Y-85261697D01*
X139994091Y-85261699D01*
X139861699Y-85394091D01*
X139861697Y-85394092D01*
X139757676Y-85549772D01*
X139686027Y-85722748D01*
X139686025Y-85722755D01*
X139649500Y-85906384D01*
X126550500Y-85906384D01*
X126513973Y-85722749D01*
X126442322Y-85549769D01*
X126338302Y-85394092D01*
X126205908Y-85261698D01*
X126050231Y-85157678D01*
X126050228Y-85157676D01*
X126050227Y-85157676D01*
X125877251Y-85086027D01*
X125877244Y-85086025D01*
X125738902Y-85058507D01*
X125693616Y-85049500D01*
X125506384Y-85049500D01*
X125470056Y-85056725D01*
X125322755Y-85086025D01*
X125322748Y-85086027D01*
X125149772Y-85157676D01*
X124994092Y-85261697D01*
X124994091Y-85261699D01*
X124861699Y-85394091D01*
X124861697Y-85394092D01*
X124757676Y-85549772D01*
X124686027Y-85722748D01*
X124686025Y-85722755D01*
X124649500Y-85906384D01*
X122553538Y-85906384D01*
X119490248Y-82843094D01*
X119478486Y-82827763D01*
X119477534Y-82826114D01*
X119440510Y-82761985D01*
X119238015Y-82559490D01*
X119183171Y-82527826D01*
X119112482Y-82487014D01*
X118972477Y-82449500D01*
X118972475Y-82449500D01*
X117040930Y-82449500D01*
X117031271Y-82448867D01*
X117000000Y-82444750D01*
X116968729Y-82448867D01*
X116959070Y-82449500D01*
X116927525Y-82449500D01*
X116897050Y-82457665D01*
X116887559Y-82459553D01*
X116856289Y-82463670D01*
X116827144Y-82475741D01*
X116817984Y-82478851D01*
X116787514Y-82487016D01*
X116760193Y-82502788D01*
X116751518Y-82507066D01*
X116722372Y-82519139D01*
X116697345Y-82538342D01*
X116689304Y-82543716D01*
X116661984Y-82559491D01*
X116639679Y-82581795D01*
X116632406Y-82588173D01*
X116607380Y-82607377D01*
X116607377Y-82607380D01*
X116588173Y-82632406D01*
X116581795Y-82639679D01*
X116559491Y-82661984D01*
X116543716Y-82689304D01*
X116538342Y-82697345D01*
X116519139Y-82722372D01*
X116507066Y-82751518D01*
X116502788Y-82760193D01*
X116487016Y-82787514D01*
X116478851Y-82817984D01*
X116475741Y-82827144D01*
X116463670Y-82856289D01*
X116459553Y-82887559D01*
X116457665Y-82897050D01*
X116449500Y-82927524D01*
X116449500Y-82959069D01*
X116448867Y-82968728D01*
X116444750Y-82999999D01*
X103200500Y-82999999D01*
X103200500Y-81000000D01*
X139444750Y-81000000D01*
X139463669Y-81143708D01*
X139494956Y-81219241D01*
X139519139Y-81277625D01*
X139607379Y-81392621D01*
X139722375Y-81480861D01*
X139856291Y-81536330D01*
X140000000Y-81555250D01*
X140143709Y-81536330D01*
X140277625Y-81480861D01*
X140392621Y-81392621D01*
X140480861Y-81277625D01*
X140536330Y-81143709D01*
X140539560Y-81119169D01*
X140560600Y-81076501D01*
X141637101Y-80000000D01*
X166444750Y-80000000D01*
X166463669Y-80143708D01*
X166519138Y-80277623D01*
X166519139Y-80277625D01*
X166607379Y-80392621D01*
X166722375Y-80480861D01*
X166856291Y-80536330D01*
X167000000Y-80555250D01*
X167143709Y-80536330D01*
X167277625Y-80480861D01*
X167392621Y-80392621D01*
X167480861Y-80277625D01*
X167536330Y-80143709D01*
X167555250Y-80000000D01*
X167536330Y-79856291D01*
X167480861Y-79722375D01*
X167392621Y-79607379D01*
X167277625Y-79519139D01*
X167277623Y-79519138D01*
X167143708Y-79463669D01*
X167000000Y-79444750D01*
X166856291Y-79463669D01*
X166722376Y-79519138D01*
X166607379Y-79607379D01*
X166519138Y-79722376D01*
X166463669Y-79856291D01*
X166444750Y-80000000D01*
X141637101Y-80000000D01*
X147164929Y-74472174D01*
X147217255Y-74450500D01*
X150657688Y-74450500D01*
X150702736Y-74465792D01*
X150722372Y-74480859D01*
X150722375Y-74480861D01*
X150856291Y-74536330D01*
X151000000Y-74555250D01*
X151143709Y-74536330D01*
X151277625Y-74480861D01*
X151288946Y-74472174D01*
X151297264Y-74465792D01*
X151342312Y-74450500D01*
X163657688Y-74450500D01*
X163702736Y-74465792D01*
X163722372Y-74480859D01*
X163722375Y-74480861D01*
X163856291Y-74536330D01*
X163880829Y-74539560D01*
X163923498Y-74560601D01*
X172723386Y-83360489D01*
X172826113Y-83419799D01*
X172826115Y-83419799D01*
X172826116Y-83419800D01*
X172834184Y-83421961D01*
X172850326Y-83426286D01*
X172922618Y-83445657D01*
X172940690Y-83450500D01*
X172940691Y-83450500D01*
X185059309Y-83450500D01*
X185149673Y-83426286D01*
X185149674Y-83426286D01*
X185160350Y-83423425D01*
X185173887Y-83419799D01*
X185276614Y-83360489D01*
X187076501Y-81560600D01*
X187119169Y-81539560D01*
X187143709Y-81536330D01*
X187277625Y-81480861D01*
X187392621Y-81392621D01*
X187480861Y-81277625D01*
X187536330Y-81143709D01*
X187555250Y-81000000D01*
X187536330Y-80856291D01*
X187480861Y-80722375D01*
X187392621Y-80607379D01*
X187277625Y-80519139D01*
X187277623Y-80519138D01*
X187143708Y-80463669D01*
X187000000Y-80444750D01*
X186856291Y-80463669D01*
X186722376Y-80519138D01*
X186607379Y-80607379D01*
X186519138Y-80722376D01*
X186463670Y-80856290D01*
X186460438Y-80880834D01*
X186439397Y-80923498D01*
X184835071Y-82527826D01*
X184782745Y-82549500D01*
X173217255Y-82549500D01*
X173164929Y-82527826D01*
X164560601Y-73923498D01*
X164539560Y-73880829D01*
X164536330Y-73856294D01*
X164536330Y-73856291D01*
X164480861Y-73722375D01*
X164392621Y-73607379D01*
X164277625Y-73519139D01*
X164277623Y-73519138D01*
X164143708Y-73463669D01*
X164000000Y-73444750D01*
X163856291Y-73463669D01*
X163722376Y-73519138D01*
X163722372Y-73519140D01*
X163702736Y-73534208D01*
X163657688Y-73549500D01*
X151342312Y-73549500D01*
X151297264Y-73534208D01*
X151277627Y-73519140D01*
X151277623Y-73519138D01*
X151143708Y-73463669D01*
X151000000Y-73444750D01*
X150856291Y-73463669D01*
X150722376Y-73519138D01*
X150722372Y-73519140D01*
X150702736Y-73534208D01*
X150657688Y-73549500D01*
X146940689Y-73549500D01*
X146871651Y-73567999D01*
X146850326Y-73573713D01*
X146836345Y-73577459D01*
X146826111Y-73580201D01*
X146723389Y-73639508D01*
X139923498Y-80439397D01*
X139880834Y-80460438D01*
X139856290Y-80463670D01*
X139722376Y-80519138D01*
X139607379Y-80607379D01*
X139519138Y-80722376D01*
X139463669Y-80856291D01*
X139444750Y-81000000D01*
X103200500Y-81000000D01*
X103200500Y-71099996D01*
X104894859Y-71099996D01*
X104894859Y-71100003D01*
X104915377Y-71321432D01*
X104915379Y-71321445D01*
X104976237Y-71535342D01*
X104976239Y-71535346D01*
X105075368Y-71734426D01*
X105075370Y-71734429D01*
X105136772Y-71815738D01*
X105532246Y-71420264D01*
X105595112Y-71514351D01*
X105685649Y-71604888D01*
X105779733Y-71667752D01*
X105381166Y-72066319D01*
X105562817Y-72178794D01*
X105562827Y-72178799D01*
X105770194Y-72259134D01*
X105988800Y-72299999D01*
X105988806Y-72300000D01*
X106211194Y-72300000D01*
X106211199Y-72299999D01*
X106429805Y-72259134D01*
X106637177Y-72178797D01*
X106818832Y-72066319D01*
X106420265Y-71667752D01*
X106514351Y-71604888D01*
X106604888Y-71514351D01*
X106667752Y-71420265D01*
X107063226Y-71815739D01*
X107124629Y-71734428D01*
X107124631Y-71734426D01*
X107223760Y-71535346D01*
X107223762Y-71535342D01*
X107284620Y-71321445D01*
X107284622Y-71321432D01*
X107305141Y-71100003D01*
X107305141Y-71099996D01*
X107284622Y-70878567D01*
X107284620Y-70878554D01*
X107223762Y-70664657D01*
X107223760Y-70664653D01*
X107124631Y-70465573D01*
X107124629Y-70465570D01*
X107063225Y-70384259D01*
X106667752Y-70779733D01*
X106604888Y-70685649D01*
X106514351Y-70595112D01*
X106420264Y-70532246D01*
X106818832Y-70133679D01*
X106637182Y-70021205D01*
X106637172Y-70021200D01*
X106429805Y-69940865D01*
X106211199Y-69900000D01*
X105988800Y-69900000D01*
X105770194Y-69940865D01*
X105562827Y-70021200D01*
X105562817Y-70021205D01*
X105381165Y-70133678D01*
X105779734Y-70532247D01*
X105685649Y-70595112D01*
X105595112Y-70685649D01*
X105532247Y-70779734D01*
X105136772Y-70384259D01*
X105075368Y-70465574D01*
X105075367Y-70465577D01*
X104976239Y-70664653D01*
X104976237Y-70664657D01*
X104915379Y-70878554D01*
X104915377Y-70878567D01*
X104894859Y-71099996D01*
X103200500Y-71099996D01*
X103200500Y-66075326D01*
X104849500Y-66075326D01*
X104849500Y-68124674D01*
X104861627Y-68185639D01*
X104864034Y-68197740D01*
X104905967Y-68260499D01*
X104919399Y-68280601D01*
X105002260Y-68335966D01*
X105075326Y-68350500D01*
X105075328Y-68350500D01*
X107124672Y-68350500D01*
X107124674Y-68350500D01*
X107197740Y-68335966D01*
X107280601Y-68280601D01*
X107335966Y-68197740D01*
X107350500Y-68124674D01*
X107350500Y-67674500D01*
X107372174Y-67622174D01*
X107424500Y-67600500D01*
X113965894Y-67600500D01*
X113965894Y-67600499D01*
X114093186Y-67566392D01*
X114207314Y-67500500D01*
X118650500Y-63057314D01*
X118716392Y-62943186D01*
X118750499Y-62815894D01*
X118750500Y-62815894D01*
X118750500Y-57050000D01*
X119444750Y-57050000D01*
X119463669Y-57193708D01*
X119509278Y-57303819D01*
X119519139Y-57327625D01*
X119607379Y-57442621D01*
X119722375Y-57530861D01*
X119856291Y-57586330D01*
X120000000Y-57605250D01*
X120143709Y-57586330D01*
X120277625Y-57530861D01*
X120288946Y-57522174D01*
X120297264Y-57515792D01*
X120342312Y-57500500D01*
X129762034Y-57500500D01*
X129814360Y-57522174D01*
X140477826Y-68185639D01*
X140499500Y-68237965D01*
X140499500Y-76755069D01*
X140493867Y-76783387D01*
X140463669Y-76856291D01*
X140444750Y-77000000D01*
X140463669Y-77143708D01*
X140519138Y-77277623D01*
X140519139Y-77277625D01*
X140607379Y-77392621D01*
X140722375Y-77480861D01*
X140856291Y-77536330D01*
X141000000Y-77555250D01*
X141143709Y-77536330D01*
X141277625Y-77480861D01*
X141392621Y-77392621D01*
X141480861Y-77277625D01*
X141536330Y-77143709D01*
X141555250Y-77000000D01*
X141536330Y-76856291D01*
X141506133Y-76783387D01*
X141500500Y-76755069D01*
X141500500Y-67934106D01*
X141500499Y-67934105D01*
X141492587Y-67904578D01*
X141466392Y-67806814D01*
X141400500Y-67692686D01*
X141307314Y-67599500D01*
X141304735Y-67596921D01*
X141304724Y-67596911D01*
X134133032Y-60425218D01*
X158932000Y-60425218D01*
X158932000Y-60574781D01*
X158970706Y-60719236D01*
X158970708Y-60719241D01*
X159045484Y-60848756D01*
X159045485Y-60848757D01*
X159045487Y-60848760D01*
X161410326Y-63213599D01*
X161432000Y-63265924D01*
X161432000Y-68074781D01*
X161470706Y-68219236D01*
X161470708Y-68219241D01*
X161545484Y-68348756D01*
X161545485Y-68348757D01*
X161545487Y-68348760D01*
X174651240Y-81454513D01*
X174651242Y-81454514D01*
X174651243Y-81454515D01*
X174780758Y-81529291D01*
X174780760Y-81529292D01*
X174780761Y-81529292D01*
X174780763Y-81529293D01*
X174807026Y-81536330D01*
X174925218Y-81567999D01*
X174925219Y-81568000D01*
X174925221Y-81568000D01*
X176074781Y-81568000D01*
X176074781Y-81567999D01*
X176219240Y-81529292D01*
X176348760Y-81454513D01*
X176454513Y-81348760D01*
X176529292Y-81219240D01*
X176567999Y-81074781D01*
X176568000Y-81074781D01*
X176568000Y-80925219D01*
X176567999Y-80925218D01*
X176529293Y-80780763D01*
X176529291Y-80780758D01*
X176454515Y-80651243D01*
X176454514Y-80651242D01*
X176454513Y-80651240D01*
X176348760Y-80545487D01*
X176348757Y-80545485D01*
X176348756Y-80545484D01*
X176219241Y-80470708D01*
X176219236Y-80470706D01*
X176074781Y-80432000D01*
X176074779Y-80432000D01*
X175265925Y-80432000D01*
X175213599Y-80410326D01*
X162589674Y-67786401D01*
X162568000Y-67734075D01*
X162568000Y-62925219D01*
X162567999Y-62925218D01*
X162566359Y-62919099D01*
X162529292Y-62780760D01*
X162525759Y-62774640D01*
X162454515Y-62651243D01*
X162454514Y-62651242D01*
X162454513Y-62651240D01*
X162348760Y-62545487D01*
X160303273Y-60500000D01*
X160944750Y-60500000D01*
X160963669Y-60643708D01*
X160994956Y-60719241D01*
X161019139Y-60777625D01*
X161107379Y-60892621D01*
X161222375Y-60980861D01*
X161295276Y-61011057D01*
X161319283Y-61027097D01*
X163477826Y-63185640D01*
X163499500Y-63237966D01*
X163499500Y-65755069D01*
X163493867Y-65783387D01*
X163463669Y-65856291D01*
X163444750Y-66000000D01*
X163463669Y-66143708D01*
X163474831Y-66170655D01*
X163519139Y-66277625D01*
X163607379Y-66392621D01*
X163722375Y-66480861D01*
X163856291Y-66536330D01*
X164000000Y-66555250D01*
X164143709Y-66536330D01*
X164277625Y-66480861D01*
X164392621Y-66392621D01*
X164480861Y-66277625D01*
X164536330Y-66143709D01*
X164555250Y-66000000D01*
X164536330Y-65856291D01*
X164506133Y-65783387D01*
X164500500Y-65755069D01*
X164500500Y-62934106D01*
X164500499Y-62934105D01*
X164466393Y-62806818D01*
X164466392Y-62806814D01*
X164400500Y-62692686D01*
X164307314Y-62599500D01*
X162027097Y-60319283D01*
X162011056Y-60295275D01*
X162006625Y-60284578D01*
X161980861Y-60222375D01*
X161892621Y-60107379D01*
X161777625Y-60019139D01*
X161777623Y-60019138D01*
X161643708Y-59963669D01*
X161500000Y-59944750D01*
X161356291Y-59963669D01*
X161222376Y-60019138D01*
X161107379Y-60107379D01*
X161019138Y-60222376D01*
X160963669Y-60356291D01*
X160944750Y-60500000D01*
X160303273Y-60500000D01*
X159848760Y-60045487D01*
X159848757Y-60045485D01*
X159848756Y-60045484D01*
X159719241Y-59970708D01*
X159719236Y-59970706D01*
X159574781Y-59932000D01*
X159574779Y-59932000D01*
X159425221Y-59932000D01*
X159425219Y-59932000D01*
X159280763Y-59970706D01*
X159280758Y-59970708D01*
X159151243Y-60045484D01*
X159045484Y-60151243D01*
X158970708Y-60280758D01*
X158970706Y-60280763D01*
X158932000Y-60425218D01*
X134133032Y-60425218D01*
X132554972Y-58847158D01*
X161510060Y-58847158D01*
X161510060Y-58996721D01*
X161548766Y-59141176D01*
X161548768Y-59141181D01*
X161623544Y-59270696D01*
X161623545Y-59270697D01*
X161623547Y-59270700D01*
X165560326Y-63207479D01*
X165582000Y-63259804D01*
X165582000Y-65849781D01*
X165620706Y-65994236D01*
X165620708Y-65994241D01*
X165695484Y-66123756D01*
X165695485Y-66123757D01*
X165695487Y-66123760D01*
X173026240Y-73454513D01*
X173026242Y-73454514D01*
X173026243Y-73454515D01*
X173138176Y-73519140D01*
X173155760Y-73529292D01*
X173155761Y-73529292D01*
X173155763Y-73529293D01*
X173182026Y-73536330D01*
X173300218Y-73567999D01*
X173300219Y-73568000D01*
X173300221Y-73568000D01*
X175949779Y-73568000D01*
X175990143Y-73557184D01*
X175999620Y-73555299D01*
X175999996Y-73555249D01*
X176000000Y-73555250D01*
X176143709Y-73536330D01*
X176277625Y-73480861D01*
X176392621Y-73392621D01*
X176480861Y-73277625D01*
X176536330Y-73143709D01*
X176555250Y-73000000D01*
X176536330Y-72856291D01*
X176480861Y-72722375D01*
X176392621Y-72607379D01*
X176277625Y-72519139D01*
X176277623Y-72519138D01*
X176143708Y-72463669D01*
X175999628Y-72444701D01*
X175990137Y-72442813D01*
X175949779Y-72432000D01*
X175949778Y-72432000D01*
X173640925Y-72432000D01*
X173588599Y-72410326D01*
X173243273Y-72065000D01*
X185962155Y-72065000D01*
X186529254Y-72065000D01*
X186500000Y-72174174D01*
X186500000Y-72305826D01*
X186529254Y-72415000D01*
X185962155Y-72415000D01*
X185965192Y-72445837D01*
X186025233Y-72643764D01*
X186122731Y-72826169D01*
X186122737Y-72826178D01*
X186253945Y-72986054D01*
X186413821Y-73117262D01*
X186413830Y-73117268D01*
X186596235Y-73214766D01*
X186794162Y-73274807D01*
X186825000Y-73277844D01*
X186825000Y-72710746D01*
X186934174Y-72740000D01*
X187065826Y-72740000D01*
X187175000Y-72710746D01*
X187175000Y-73277844D01*
X187205837Y-73274807D01*
X187403764Y-73214766D01*
X187586169Y-73117268D01*
X187586178Y-73117262D01*
X187746054Y-72986054D01*
X187877262Y-72826178D01*
X187877268Y-72826169D01*
X187974766Y-72643764D01*
X188034807Y-72445837D01*
X188037845Y-72415000D01*
X187470746Y-72415000D01*
X187500000Y-72305826D01*
X187500000Y-72174174D01*
X187470746Y-72065000D01*
X188037844Y-72065000D01*
X188034807Y-72034162D01*
X187974766Y-71836235D01*
X187877268Y-71653830D01*
X187877262Y-71653821D01*
X187746054Y-71493945D01*
X187586178Y-71362737D01*
X187586169Y-71362731D01*
X187403764Y-71265233D01*
X187205837Y-71205192D01*
X187205830Y-71205191D01*
X187175000Y-71202153D01*
X187175000Y-71769253D01*
X187065826Y-71740000D01*
X186934174Y-71740000D01*
X186825000Y-71769253D01*
X186825000Y-71202153D01*
X186794169Y-71205191D01*
X186794162Y-71205192D01*
X186596235Y-71265233D01*
X186413830Y-71362731D01*
X186413821Y-71362737D01*
X186253945Y-71493945D01*
X186122737Y-71653821D01*
X186122731Y-71653830D01*
X186025233Y-71836235D01*
X185965192Y-72034162D01*
X185962155Y-72065000D01*
X173243273Y-72065000D01*
X170703273Y-69525000D01*
X185962155Y-69525000D01*
X186529254Y-69525000D01*
X186500000Y-69634174D01*
X186500000Y-69765826D01*
X186529254Y-69875000D01*
X185962155Y-69875000D01*
X185965192Y-69905837D01*
X186025233Y-70103764D01*
X186122731Y-70286169D01*
X186122737Y-70286178D01*
X186253945Y-70446054D01*
X186413821Y-70577262D01*
X186413830Y-70577268D01*
X186596235Y-70674766D01*
X186794162Y-70734807D01*
X186825000Y-70737844D01*
X186825000Y-70170746D01*
X186934174Y-70200000D01*
X187065826Y-70200000D01*
X187175000Y-70170746D01*
X187175000Y-70737844D01*
X187205837Y-70734807D01*
X187403764Y-70674766D01*
X187586169Y-70577268D01*
X187586178Y-70577262D01*
X187746054Y-70446054D01*
X187877262Y-70286178D01*
X187877268Y-70286169D01*
X187974766Y-70103764D01*
X188034807Y-69905837D01*
X188037845Y-69875000D01*
X187470746Y-69875000D01*
X187500000Y-69765826D01*
X187500000Y-69634174D01*
X187470746Y-69525000D01*
X188037844Y-69525000D01*
X188034807Y-69494162D01*
X187974766Y-69296235D01*
X187877268Y-69113830D01*
X187877262Y-69113821D01*
X187746054Y-68953945D01*
X187586178Y-68822737D01*
X187586169Y-68822731D01*
X187403764Y-68725233D01*
X187205837Y-68665192D01*
X187205830Y-68665191D01*
X187175000Y-68662153D01*
X187175000Y-69229253D01*
X187065826Y-69200000D01*
X186934174Y-69200000D01*
X186825000Y-69229253D01*
X186825000Y-68662153D01*
X186794169Y-68665191D01*
X186794162Y-68665192D01*
X186596235Y-68725233D01*
X186413830Y-68822731D01*
X186413821Y-68822737D01*
X186253945Y-68953945D01*
X186122737Y-69113821D01*
X186122731Y-69113830D01*
X186025233Y-69296235D01*
X185965192Y-69494162D01*
X185962155Y-69525000D01*
X170703273Y-69525000D01*
X166739674Y-65561401D01*
X166718000Y-65509075D01*
X166718000Y-62919099D01*
X166717999Y-62919098D01*
X166679293Y-62774643D01*
X166679291Y-62774638D01*
X166659010Y-62739511D01*
X166621021Y-62673712D01*
X166604514Y-62645120D01*
X162426820Y-58467427D01*
X162426817Y-58467425D01*
X162426816Y-58467424D01*
X162297301Y-58392648D01*
X162297296Y-58392646D01*
X162152841Y-58353940D01*
X162152839Y-58353940D01*
X162003281Y-58353940D01*
X162003279Y-58353940D01*
X161858823Y-58392646D01*
X161858818Y-58392648D01*
X161729303Y-58467424D01*
X161623544Y-58573183D01*
X161548768Y-58702698D01*
X161548766Y-58702703D01*
X161510060Y-58847158D01*
X132554972Y-58847158D01*
X130307314Y-56599500D01*
X130193190Y-56533610D01*
X130193181Y-56533606D01*
X130065894Y-56499500D01*
X130065892Y-56499500D01*
X120115893Y-56499500D01*
X120040930Y-56499500D01*
X120031271Y-56498867D01*
X120000000Y-56494750D01*
X119856291Y-56513669D01*
X119722376Y-56569138D01*
X119607379Y-56657379D01*
X119519138Y-56772376D01*
X119463669Y-56906291D01*
X119444750Y-57050000D01*
X118750500Y-57050000D01*
X118750500Y-54987965D01*
X118772173Y-54935640D01*
X122180718Y-51527094D01*
X122204718Y-51511058D01*
X122277625Y-51480861D01*
X122392621Y-51392621D01*
X122480861Y-51277625D01*
X122536330Y-51143709D01*
X122555250Y-51000000D01*
X122536330Y-50856291D01*
X122480861Y-50722375D01*
X122392621Y-50607379D01*
X122277625Y-50519139D01*
X122231419Y-50500000D01*
X122143708Y-50463669D01*
X122000000Y-50444750D01*
X121856291Y-50463669D01*
X121722376Y-50519138D01*
X121607379Y-50607379D01*
X121519139Y-50722374D01*
X121488941Y-50795277D01*
X121472900Y-50819284D01*
X117942686Y-54349500D01*
X117849500Y-54442685D01*
X117783610Y-54556809D01*
X117783606Y-54556818D01*
X117749500Y-54684105D01*
X117749500Y-62512034D01*
X117727826Y-62564360D01*
X113714360Y-66577826D01*
X113662034Y-66599500D01*
X107424500Y-66599500D01*
X107372174Y-66577826D01*
X107350500Y-66525500D01*
X107350500Y-66075327D01*
X107347352Y-66059500D01*
X107335966Y-66002260D01*
X107280601Y-65919399D01*
X107197740Y-65864034D01*
X107124674Y-65849500D01*
X105075326Y-65849500D01*
X105026615Y-65859189D01*
X105002259Y-65864034D01*
X104919399Y-65919398D01*
X104919398Y-65919399D01*
X104864034Y-66002259D01*
X104864034Y-66002260D01*
X104849500Y-66075326D01*
X103200500Y-66075326D01*
X103200500Y-47872157D01*
X106049500Y-47872157D01*
X106049500Y-48127843D01*
X106056807Y-48183343D01*
X106082873Y-48381338D01*
X106149049Y-48628309D01*
X106149051Y-48628316D01*
X106246892Y-48864526D01*
X106246895Y-48864534D01*
X106374736Y-49085961D01*
X106374740Y-49085967D01*
X106476890Y-49219091D01*
X106530390Y-49288813D01*
X106711187Y-49469610D01*
X106750792Y-49500000D01*
X106890730Y-49607379D01*
X106914035Y-49625261D01*
X107135465Y-49753104D01*
X107371687Y-49850950D01*
X107618660Y-49917126D01*
X107872157Y-49950500D01*
X107872159Y-49950500D01*
X108127841Y-49950500D01*
X108127843Y-49950500D01*
X108381340Y-49917126D01*
X108628313Y-49850950D01*
X108864535Y-49753104D01*
X109085965Y-49625261D01*
X109288813Y-49469610D01*
X109469610Y-49288813D01*
X109625261Y-49085965D01*
X109753104Y-48864535D01*
X109850950Y-48628313D01*
X109917126Y-48381340D01*
X109950500Y-48127843D01*
X109950500Y-48000000D01*
X115444750Y-48000000D01*
X115463669Y-48143708D01*
X115498756Y-48228415D01*
X115519139Y-48277625D01*
X115607379Y-48392621D01*
X115722375Y-48480861D01*
X115856291Y-48536330D01*
X115880829Y-48539560D01*
X115923498Y-48560601D01*
X117223386Y-49860489D01*
X117282696Y-49894731D01*
X117326110Y-49919797D01*
X117326112Y-49919797D01*
X117326114Y-49919799D01*
X117326115Y-49919799D01*
X117326117Y-49919800D01*
X117383402Y-49935149D01*
X117440688Y-49950499D01*
X117440689Y-49950500D01*
X117440691Y-49950500D01*
X122782745Y-49950500D01*
X122835071Y-49972174D01*
X124223386Y-51360489D01*
X124260892Y-51382143D01*
X124326114Y-51419799D01*
X124326115Y-51419799D01*
X124326117Y-51419800D01*
X124383402Y-51435149D01*
X124440688Y-51450499D01*
X124440689Y-51450500D01*
X124440691Y-51450500D01*
X130657688Y-51450500D01*
X130702736Y-51465792D01*
X130722372Y-51480859D01*
X130722375Y-51480861D01*
X130856291Y-51536330D01*
X131000000Y-51555250D01*
X131143709Y-51536330D01*
X131277625Y-51480861D01*
X131392621Y-51392621D01*
X131480861Y-51277625D01*
X131536330Y-51143709D01*
X131555250Y-51000000D01*
X131536330Y-50856291D01*
X131480861Y-50722375D01*
X131392621Y-50607379D01*
X131277625Y-50519139D01*
X131231419Y-50500000D01*
X131143708Y-50463669D01*
X131000000Y-50444750D01*
X130856291Y-50463669D01*
X130722376Y-50519138D01*
X130722372Y-50519140D01*
X130702736Y-50534208D01*
X130657688Y-50549500D01*
X124717255Y-50549500D01*
X124664929Y-50527826D01*
X123988051Y-49850948D01*
X123276614Y-49139511D01*
X123276611Y-49139509D01*
X123276610Y-49139508D01*
X123173891Y-49080203D01*
X123173889Y-49080202D01*
X123173887Y-49080201D01*
X123172585Y-49079852D01*
X123149674Y-49073712D01*
X123149674Y-49073713D01*
X123059309Y-49049500D01*
X117717255Y-49049500D01*
X117664929Y-49027826D01*
X116560601Y-47923498D01*
X116539560Y-47880829D01*
X116536330Y-47856291D01*
X116480861Y-47722375D01*
X116392621Y-47607379D01*
X116277625Y-47519139D01*
X116277623Y-47519138D01*
X116143708Y-47463669D01*
X116000000Y-47444750D01*
X115856291Y-47463669D01*
X115722376Y-47519138D01*
X115607379Y-47607379D01*
X115519138Y-47722376D01*
X115463669Y-47856291D01*
X115444750Y-48000000D01*
X109950500Y-48000000D01*
X109950500Y-47872157D01*
X109917126Y-47618660D01*
X109850950Y-47371687D01*
X109753104Y-47135465D01*
X109636654Y-46933768D01*
X109625263Y-46914038D01*
X109625259Y-46914032D01*
X109469609Y-46711186D01*
X109288813Y-46530390D01*
X109085967Y-46374740D01*
X109085961Y-46374736D01*
X108864534Y-46246895D01*
X108864526Y-46246892D01*
X108628316Y-46149051D01*
X108628314Y-46149050D01*
X108628313Y-46149050D01*
X108595222Y-46140183D01*
X108381338Y-46082873D01*
X108194589Y-46058287D01*
X108127843Y-46049500D01*
X107872157Y-46049500D01*
X107813176Y-46057265D01*
X107618661Y-46082873D01*
X107371690Y-46149049D01*
X107371683Y-46149051D01*
X107135473Y-46246892D01*
X107135465Y-46246895D01*
X106914038Y-46374736D01*
X106914032Y-46374740D01*
X106711186Y-46530390D01*
X106530390Y-46711186D01*
X106374740Y-46914032D01*
X106374736Y-46914038D01*
X106246895Y-47135465D01*
X106246892Y-47135473D01*
X106149051Y-47371683D01*
X106149049Y-47371690D01*
X106082873Y-47618661D01*
X106060528Y-47788389D01*
X106049500Y-47872157D01*
X103200500Y-47872157D01*
X103200500Y-46002083D01*
X103200558Y-46000000D01*
X119444750Y-46000000D01*
X119463669Y-46143708D01*
X119506409Y-46246892D01*
X119519139Y-46277625D01*
X119607379Y-46392621D01*
X119722375Y-46480861D01*
X119856291Y-46536330D01*
X120000000Y-46555250D01*
X120143709Y-46536330D01*
X120277625Y-46480861D01*
X120288946Y-46472174D01*
X120297264Y-46465792D01*
X120342312Y-46450500D01*
X132782745Y-46450500D01*
X132835071Y-46472174D01*
X139723386Y-53360489D01*
X139723388Y-53360490D01*
X139723389Y-53360491D01*
X139811590Y-53411414D01*
X139846069Y-53456347D01*
X139838676Y-53512500D01*
X139793743Y-53546979D01*
X139774590Y-53549500D01*
X137217255Y-53549500D01*
X137164929Y-53527826D01*
X134243010Y-50605907D01*
X131276614Y-47639511D01*
X131276611Y-47639509D01*
X131276610Y-47639508D01*
X131173891Y-47580203D01*
X131173889Y-47580202D01*
X131173887Y-47580201D01*
X131172585Y-47579852D01*
X131149674Y-47573712D01*
X131149674Y-47573713D01*
X131059309Y-47549500D01*
X120342312Y-47549500D01*
X120297264Y-47534208D01*
X120277627Y-47519140D01*
X120277623Y-47519138D01*
X120143708Y-47463669D01*
X120000000Y-47444750D01*
X119856291Y-47463669D01*
X119722376Y-47519138D01*
X119607379Y-47607379D01*
X119519138Y-47722376D01*
X119463669Y-47856291D01*
X119444750Y-48000000D01*
X119463669Y-48143708D01*
X119498756Y-48228415D01*
X119519139Y-48277625D01*
X119607379Y-48392621D01*
X119722375Y-48480861D01*
X119856291Y-48536330D01*
X120000000Y-48555250D01*
X120143709Y-48536330D01*
X120277625Y-48480861D01*
X120288946Y-48472174D01*
X120297264Y-48465792D01*
X120342312Y-48450500D01*
X130782745Y-48450500D01*
X130835071Y-48472174D01*
X136723386Y-54360489D01*
X136782696Y-54394731D01*
X136826110Y-54419797D01*
X136826112Y-54419797D01*
X136826114Y-54419799D01*
X136826115Y-54419799D01*
X136826117Y-54419800D01*
X136883402Y-54435149D01*
X136940688Y-54450499D01*
X136940689Y-54450500D01*
X136940691Y-54450500D01*
X145059309Y-54450500D01*
X145149673Y-54426286D01*
X145149674Y-54426286D01*
X145160350Y-54423425D01*
X145173887Y-54419799D01*
X145276614Y-54360489D01*
X146076502Y-53560600D01*
X146119169Y-53539560D01*
X146143709Y-53536330D01*
X146277625Y-53480861D01*
X146392621Y-53392621D01*
X146480861Y-53277625D01*
X146536330Y-53143709D01*
X146555250Y-53000000D01*
X146536330Y-52856291D01*
X146480861Y-52722375D01*
X146392621Y-52607379D01*
X146277625Y-52519139D01*
X146231419Y-52500000D01*
X146143708Y-52463669D01*
X146000000Y-52444750D01*
X145856291Y-52463669D01*
X145722376Y-52519138D01*
X145607379Y-52607379D01*
X145519138Y-52722376D01*
X145463670Y-52856290D01*
X145460438Y-52880834D01*
X145439397Y-52923498D01*
X144835071Y-53527826D01*
X144782745Y-53549500D01*
X144225410Y-53549500D01*
X144173084Y-53527826D01*
X144151410Y-53475500D01*
X144173084Y-53423174D01*
X144188410Y-53411414D01*
X144220962Y-53392620D01*
X144276614Y-53360489D01*
X145076502Y-52560600D01*
X145119169Y-52539560D01*
X145143709Y-52536330D01*
X145277625Y-52480861D01*
X145392621Y-52392621D01*
X145480861Y-52277625D01*
X145536330Y-52143709D01*
X145555250Y-52000000D01*
X145536330Y-51856291D01*
X145480861Y-51722375D01*
X145392621Y-51607379D01*
X145277625Y-51519139D01*
X145271713Y-51516690D01*
X145143708Y-51463669D01*
X145000000Y-51444750D01*
X144856291Y-51463669D01*
X144722376Y-51519138D01*
X144607379Y-51607379D01*
X144519138Y-51722376D01*
X144463670Y-51856290D01*
X144460438Y-51880834D01*
X144439397Y-51923498D01*
X143835071Y-52527826D01*
X143782745Y-52549500D01*
X143406169Y-52549500D01*
X143353843Y-52527826D01*
X143332169Y-52475500D01*
X143353843Y-52423174D01*
X143361113Y-52416797D01*
X143392621Y-52392621D01*
X143480861Y-52277625D01*
X143536330Y-52143709D01*
X143539560Y-52119169D01*
X143560600Y-52076502D01*
X144364929Y-51272174D01*
X144417255Y-51250500D01*
X150082745Y-51250500D01*
X150135071Y-51272174D01*
X156223386Y-57360489D01*
X156326113Y-57419799D01*
X156326115Y-57419799D01*
X156326116Y-57419800D01*
X156334184Y-57421961D01*
X156350326Y-57426286D01*
X156422618Y-57445657D01*
X156440690Y-57450500D01*
X156440691Y-57450500D01*
X161772695Y-57450500D01*
X161825021Y-57472174D01*
X170213336Y-65860489D01*
X170272646Y-65894731D01*
X170316060Y-65919797D01*
X170316062Y-65919797D01*
X170316064Y-65919799D01*
X170316065Y-65919799D01*
X170316067Y-65919800D01*
X170373352Y-65935149D01*
X170430638Y-65950499D01*
X170430639Y-65950500D01*
X170430641Y-65950500D01*
X178282745Y-65950500D01*
X178335071Y-65972174D01*
X179439397Y-67076500D01*
X179460438Y-67119165D01*
X179463669Y-67143708D01*
X179470419Y-67160003D01*
X179519139Y-67277625D01*
X179607379Y-67392621D01*
X179722375Y-67480861D01*
X179856291Y-67536330D01*
X180000000Y-67555250D01*
X180143709Y-67536330D01*
X180277625Y-67480861D01*
X180392621Y-67392621D01*
X180480861Y-67277625D01*
X180536330Y-67143709D01*
X180555250Y-67000000D01*
X180536330Y-66856291D01*
X180480861Y-66722375D01*
X180392621Y-66607379D01*
X180277625Y-66519139D01*
X180277623Y-66519138D01*
X180143708Y-66463669D01*
X180119165Y-66460438D01*
X180076500Y-66439397D01*
X179486603Y-65849500D01*
X178776614Y-65139511D01*
X178776611Y-65139509D01*
X178776610Y-65139508D01*
X178673891Y-65080203D01*
X178673889Y-65080202D01*
X178673887Y-65080201D01*
X178672585Y-65079852D01*
X178649674Y-65073712D01*
X178649674Y-65073713D01*
X178559309Y-65049500D01*
X170707205Y-65049500D01*
X170654879Y-65027826D01*
X162381104Y-56754051D01*
X162369344Y-56738724D01*
X162366817Y-56734347D01*
X162360489Y-56723387D01*
X162276613Y-56639511D01*
X162276610Y-56639509D01*
X162276609Y-56639508D01*
X162173887Y-56580201D01*
X162173882Y-56580199D01*
X162059311Y-56549500D01*
X162059309Y-56549500D01*
X156717255Y-56549500D01*
X156664929Y-56527826D01*
X153649603Y-53512500D01*
X150576614Y-50439511D01*
X150576611Y-50439509D01*
X150576610Y-50439508D01*
X150473891Y-50380203D01*
X150473889Y-50380202D01*
X150473887Y-50380201D01*
X150472585Y-50379852D01*
X150449674Y-50373712D01*
X150449674Y-50373713D01*
X150359309Y-50349500D01*
X144140691Y-50349500D01*
X144140689Y-50349500D01*
X144026117Y-50380199D01*
X144026112Y-50380201D01*
X144004602Y-50392621D01*
X143923385Y-50439511D01*
X142923498Y-51439397D01*
X142880834Y-51460438D01*
X142856290Y-51463670D01*
X142722376Y-51519138D01*
X142607379Y-51607379D01*
X142519138Y-51722376D01*
X142463669Y-51856291D01*
X142444750Y-52000000D01*
X142463669Y-52143708D01*
X142463670Y-52143710D01*
X142519139Y-52277625D01*
X142607379Y-52392621D01*
X142638880Y-52416793D01*
X142667198Y-52465842D01*
X142652539Y-52520549D01*
X142603489Y-52548867D01*
X142593831Y-52549500D01*
X140217255Y-52549500D01*
X140164929Y-52527826D01*
X136723064Y-49085961D01*
X136637103Y-49000000D01*
X157444750Y-49000000D01*
X157463669Y-49143708D01*
X157512542Y-49261698D01*
X157519139Y-49277625D01*
X157607379Y-49392621D01*
X157670808Y-49441292D01*
X157699126Y-49490342D01*
X157684467Y-49545049D01*
X157670808Y-49558708D01*
X157607379Y-49607379D01*
X157519138Y-49722376D01*
X157463669Y-49856291D01*
X157444750Y-50000000D01*
X157463669Y-50143708D01*
X157518981Y-50277244D01*
X157519139Y-50277625D01*
X157607379Y-50392621D01*
X157668483Y-50439508D01*
X157670808Y-50441292D01*
X157699126Y-50490342D01*
X157684467Y-50545049D01*
X157670808Y-50558708D01*
X157607379Y-50607379D01*
X157519138Y-50722376D01*
X157463669Y-50856291D01*
X157444750Y-51000000D01*
X157463669Y-51143708D01*
X157516881Y-51272174D01*
X157519139Y-51277625D01*
X157607379Y-51392621D01*
X157668338Y-51439397D01*
X157670808Y-51441292D01*
X157699126Y-51490342D01*
X157684467Y-51545049D01*
X157670808Y-51558708D01*
X157607379Y-51607379D01*
X157519138Y-51722376D01*
X157463669Y-51856291D01*
X157444750Y-52000000D01*
X157463669Y-52143708D01*
X157463670Y-52143710D01*
X157519139Y-52277625D01*
X157607379Y-52392621D01*
X157670808Y-52441292D01*
X157699126Y-52490342D01*
X157684467Y-52545049D01*
X157670808Y-52558708D01*
X157607379Y-52607379D01*
X157519138Y-52722376D01*
X157463669Y-52856291D01*
X157444750Y-53000000D01*
X157463669Y-53143708D01*
X157519138Y-53277623D01*
X157519139Y-53277625D01*
X157607379Y-53392621D01*
X157722375Y-53480861D01*
X157856291Y-53536330D01*
X157856290Y-53536330D01*
X157869256Y-53538037D01*
X157911924Y-53559078D01*
X159813336Y-55460490D01*
X159916064Y-55519799D01*
X159916063Y-55519799D01*
X159982213Y-55537523D01*
X160030638Y-55550499D01*
X160030639Y-55550500D01*
X160030641Y-55550500D01*
X161382745Y-55550500D01*
X161435071Y-55572174D01*
X169323386Y-63460489D01*
X169382696Y-63494731D01*
X169426110Y-63519797D01*
X169426112Y-63519797D01*
X169426114Y-63519799D01*
X169426115Y-63519799D01*
X169426117Y-63519800D01*
X169483402Y-63535149D01*
X169540688Y-63550499D01*
X169540689Y-63550500D01*
X169540691Y-63550500D01*
X182722745Y-63550500D01*
X182775071Y-63572174D01*
X185937389Y-66734492D01*
X185959063Y-66786818D01*
X185956238Y-66807069D01*
X185913603Y-66956915D01*
X185913601Y-66956928D01*
X185894785Y-67159996D01*
X185894785Y-67160003D01*
X185913601Y-67363076D01*
X185913602Y-67363082D01*
X185968280Y-67555250D01*
X185969418Y-67559250D01*
X186060327Y-67741821D01*
X186060328Y-67741822D01*
X186060329Y-67741825D01*
X186183234Y-67904578D01*
X186183235Y-67904579D01*
X186320637Y-68029836D01*
X186333959Y-68041981D01*
X186507363Y-68149348D01*
X186697544Y-68223024D01*
X186898024Y-68260500D01*
X186898026Y-68260500D01*
X187101974Y-68260500D01*
X187101976Y-68260500D01*
X187302456Y-68223024D01*
X187492637Y-68149348D01*
X187666041Y-68041981D01*
X187816764Y-67904579D01*
X187890597Y-67806809D01*
X187939670Y-67741825D01*
X187939670Y-67741824D01*
X187939673Y-67741821D01*
X188030582Y-67559250D01*
X188086397Y-67363083D01*
X188105215Y-67160000D01*
X188105215Y-67159996D01*
X188086398Y-66956923D01*
X188086397Y-66956917D01*
X188030583Y-66760755D01*
X188030582Y-66760750D01*
X187939673Y-66578179D01*
X187939670Y-66578175D01*
X187939670Y-66578174D01*
X187816765Y-66415421D01*
X187816764Y-66415420D01*
X187666041Y-66278019D01*
X187665401Y-66277623D01*
X187492637Y-66170652D01*
X187343104Y-66112723D01*
X187302459Y-66096977D01*
X187302458Y-66096976D01*
X187302456Y-66096976D01*
X187214407Y-66080516D01*
X187101979Y-66059500D01*
X187101976Y-66059500D01*
X186898024Y-66059500D01*
X186898020Y-66059500D01*
X186748116Y-66087522D01*
X186697544Y-66096976D01*
X186697542Y-66096976D01*
X186697540Y-66096977D01*
X186653515Y-66114032D01*
X186596893Y-66112723D01*
X186574458Y-66097355D01*
X185097099Y-64619996D01*
X183216614Y-62739511D01*
X183216611Y-62739509D01*
X183216610Y-62739508D01*
X183113891Y-62680203D01*
X183113889Y-62680202D01*
X183113887Y-62680201D01*
X183112585Y-62679852D01*
X183089674Y-62673712D01*
X183089674Y-62673713D01*
X182999309Y-62649500D01*
X169817255Y-62649500D01*
X169764929Y-62627826D01*
X165839801Y-58702698D01*
X161913927Y-54776824D01*
X161892254Y-54724500D01*
X161913928Y-54672174D01*
X161966254Y-54650500D01*
X162992795Y-54650500D01*
X163045121Y-54672174D01*
X170633436Y-62260489D01*
X170673480Y-62283608D01*
X170736164Y-62319799D01*
X170736165Y-62319799D01*
X170736167Y-62319800D01*
X170793452Y-62335149D01*
X170850738Y-62350499D01*
X170850739Y-62350500D01*
X170850741Y-62350500D01*
X184062745Y-62350500D01*
X184115071Y-62372174D01*
X185937389Y-64194492D01*
X185959063Y-64246818D01*
X185956238Y-64267069D01*
X185913603Y-64416915D01*
X185913601Y-64416928D01*
X185894785Y-64619996D01*
X185894785Y-64620003D01*
X185913601Y-64823076D01*
X185913602Y-64823082D01*
X185969416Y-65019244D01*
X185969418Y-65019250D01*
X186060327Y-65201821D01*
X186060328Y-65201822D01*
X186060329Y-65201825D01*
X186183234Y-65364578D01*
X186183235Y-65364579D01*
X186320637Y-65489836D01*
X186333959Y-65501981D01*
X186507363Y-65609348D01*
X186697544Y-65683024D01*
X186898024Y-65720500D01*
X186898026Y-65720500D01*
X187101974Y-65720500D01*
X187101976Y-65720500D01*
X187302456Y-65683024D01*
X187492637Y-65609348D01*
X187666041Y-65501981D01*
X187816764Y-65364579D01*
X187939673Y-65201821D01*
X188030582Y-65019250D01*
X188086397Y-64823083D01*
X188105215Y-64620000D01*
X188086397Y-64416917D01*
X188030582Y-64220750D01*
X187939673Y-64038179D01*
X187939670Y-64038175D01*
X187939670Y-64038174D01*
X187816765Y-63875421D01*
X187816764Y-63875420D01*
X187666041Y-63738019D01*
X187492637Y-63630652D01*
X187341687Y-63572174D01*
X187302459Y-63556977D01*
X187302458Y-63556976D01*
X187302456Y-63556976D01*
X187214407Y-63540516D01*
X187101979Y-63519500D01*
X187101976Y-63519500D01*
X186898024Y-63519500D01*
X186898020Y-63519500D01*
X186748116Y-63547522D01*
X186697544Y-63556976D01*
X186697542Y-63556976D01*
X186697540Y-63556977D01*
X186653515Y-63574032D01*
X186596893Y-63572723D01*
X186574458Y-63557355D01*
X185581463Y-62564360D01*
X184556614Y-61539511D01*
X184556611Y-61539509D01*
X184556610Y-61539508D01*
X184453891Y-61480203D01*
X184453889Y-61480202D01*
X184453887Y-61480201D01*
X184452585Y-61479852D01*
X184429674Y-61473712D01*
X184429674Y-61473713D01*
X184339309Y-61449500D01*
X171127305Y-61449500D01*
X171074979Y-61427826D01*
X167521825Y-57874672D01*
X163523977Y-53876824D01*
X163502304Y-53824500D01*
X163523978Y-53772174D01*
X163576304Y-53750500D01*
X164182745Y-53750500D01*
X164235071Y-53772174D01*
X171113336Y-60650439D01*
X171216063Y-60709749D01*
X171216065Y-60709749D01*
X171216066Y-60709750D01*
X171224134Y-60711911D01*
X171240276Y-60716236D01*
X171312568Y-60735607D01*
X171330640Y-60740450D01*
X171330641Y-60740450D01*
X184992695Y-60740450D01*
X185045021Y-60762124D01*
X185937389Y-61654492D01*
X185959063Y-61706818D01*
X185956238Y-61727069D01*
X185913603Y-61876915D01*
X185913601Y-61876928D01*
X185894785Y-62079996D01*
X185894785Y-62080003D01*
X185913601Y-62283076D01*
X185913602Y-62283082D01*
X185969416Y-62479244D01*
X185969418Y-62479250D01*
X186060327Y-62661821D01*
X186060328Y-62661822D01*
X186060329Y-62661825D01*
X186183234Y-62824578D01*
X186183235Y-62824579D01*
X186303384Y-62934108D01*
X186333959Y-62961981D01*
X186507363Y-63069348D01*
X186697544Y-63143024D01*
X186898024Y-63180500D01*
X186898026Y-63180500D01*
X187101974Y-63180500D01*
X187101976Y-63180500D01*
X187302456Y-63143024D01*
X187492637Y-63069348D01*
X187666041Y-62961981D01*
X187816764Y-62824579D01*
X187830177Y-62806818D01*
X187939670Y-62661825D01*
X187939670Y-62661824D01*
X187939673Y-62661821D01*
X188030582Y-62479250D01*
X188086397Y-62283083D01*
X188105215Y-62080000D01*
X188086397Y-61876917D01*
X188030582Y-61680750D01*
X187939673Y-61498179D01*
X187939670Y-61498175D01*
X187939670Y-61498174D01*
X187816765Y-61335421D01*
X187816764Y-61335420D01*
X187666041Y-61198019D01*
X187492637Y-61090652D01*
X187343104Y-61032723D01*
X187302459Y-61016977D01*
X187302458Y-61016976D01*
X187302456Y-61016976D01*
X187214407Y-61000516D01*
X187101979Y-60979500D01*
X187101976Y-60979500D01*
X186898024Y-60979500D01*
X186898020Y-60979500D01*
X186748116Y-61007522D01*
X186697544Y-61016976D01*
X186697542Y-61016976D01*
X186697540Y-61016977D01*
X186653515Y-61034032D01*
X186596893Y-61032723D01*
X186574458Y-61017355D01*
X185633929Y-60076826D01*
X185612255Y-60024500D01*
X185633929Y-59972174D01*
X185686255Y-59950500D01*
X185929201Y-59950500D01*
X185981527Y-59972174D01*
X185995443Y-59991516D01*
X186060325Y-60121818D01*
X186060329Y-60121825D01*
X186183234Y-60284578D01*
X186183235Y-60284579D01*
X186261900Y-60356291D01*
X186333959Y-60421981D01*
X186507363Y-60529348D01*
X186697544Y-60603024D01*
X186898024Y-60640500D01*
X186898026Y-60640500D01*
X187101974Y-60640500D01*
X187101976Y-60640500D01*
X187302456Y-60603024D01*
X187492637Y-60529348D01*
X187666041Y-60421981D01*
X187816764Y-60284579D01*
X187819650Y-60280758D01*
X187939670Y-60121825D01*
X187939670Y-60121824D01*
X187939673Y-60121821D01*
X188030582Y-59939250D01*
X188086397Y-59743083D01*
X188105215Y-59540000D01*
X188086397Y-59336917D01*
X188030582Y-59140750D01*
X187939673Y-58958179D01*
X187939670Y-58958175D01*
X187939670Y-58958174D01*
X187816765Y-58795421D01*
X187816764Y-58795420D01*
X187666041Y-58658019D01*
X187492637Y-58550652D01*
X187302456Y-58476976D01*
X187214407Y-58460516D01*
X187101979Y-58439500D01*
X187101976Y-58439500D01*
X186898024Y-58439500D01*
X186898020Y-58439500D01*
X186748643Y-58467424D01*
X186697544Y-58476976D01*
X186697542Y-58476976D01*
X186697540Y-58476977D01*
X186507368Y-58550650D01*
X186507363Y-58550652D01*
X186507358Y-58550654D01*
X186507358Y-58550655D01*
X186333958Y-58658019D01*
X186333957Y-58658019D01*
X186183235Y-58795420D01*
X186183234Y-58795421D01*
X186060329Y-58958174D01*
X186060328Y-58958177D01*
X186035278Y-59008485D01*
X185992553Y-59045664D01*
X185969036Y-59049500D01*
X173117255Y-59049500D01*
X173064929Y-59027826D01*
X172356919Y-58319816D01*
X172335245Y-58267490D01*
X172356919Y-58215164D01*
X172409245Y-58193490D01*
X172446243Y-58203403D01*
X172474641Y-58219799D01*
X172474643Y-58219799D01*
X172474644Y-58219800D01*
X172482712Y-58221961D01*
X172498854Y-58226286D01*
X172571146Y-58245657D01*
X172589218Y-58250500D01*
X172589219Y-58250500D01*
X183959309Y-58250500D01*
X184049673Y-58226286D01*
X184049674Y-58226286D01*
X184060350Y-58223425D01*
X184073887Y-58219799D01*
X184176614Y-58160489D01*
X184864930Y-57472174D01*
X184917256Y-57450500D01*
X185825500Y-57450500D01*
X185877826Y-57472174D01*
X185899500Y-57524500D01*
X185899500Y-57874674D01*
X185914034Y-57947740D01*
X185969399Y-58030601D01*
X186052260Y-58085966D01*
X186125326Y-58100500D01*
X186125328Y-58100500D01*
X187874672Y-58100500D01*
X187874674Y-58100500D01*
X187947740Y-58085966D01*
X188030601Y-58030601D01*
X188085966Y-57947740D01*
X188100500Y-57874674D01*
X188100500Y-56125326D01*
X188085966Y-56052260D01*
X188030601Y-55969399D01*
X187947740Y-55914034D01*
X187874674Y-55899500D01*
X186125326Y-55899500D01*
X186076615Y-55909189D01*
X186052259Y-55914034D01*
X185969399Y-55969398D01*
X185969398Y-55969399D01*
X185914034Y-56052259D01*
X185899500Y-56125327D01*
X185899500Y-56475500D01*
X185877826Y-56527826D01*
X185825500Y-56549500D01*
X184640689Y-56549500D01*
X184567399Y-56569138D01*
X184526117Y-56580199D01*
X184526111Y-56580202D01*
X184423385Y-56639510D01*
X183735071Y-57327826D01*
X183682745Y-57349500D01*
X174624338Y-57349500D01*
X174572012Y-57327826D01*
X174550338Y-57275500D01*
X174555971Y-57247182D01*
X174598830Y-57143708D01*
X174602061Y-57119165D01*
X174617750Y-57000000D01*
X174598830Y-56856291D01*
X174543361Y-56722375D01*
X174455121Y-56607379D01*
X174340125Y-56519139D01*
X174340123Y-56519138D01*
X174206208Y-56463669D01*
X174181665Y-56460438D01*
X174139000Y-56439397D01*
X172472174Y-54772571D01*
X172450500Y-54720245D01*
X172450500Y-53342311D01*
X172465793Y-53297262D01*
X172480859Y-53277628D01*
X172480859Y-53277627D01*
X172480861Y-53277625D01*
X172536330Y-53143709D01*
X172555250Y-53000000D01*
X172536330Y-52856291D01*
X172480861Y-52722375D01*
X172392621Y-52607379D01*
X172277625Y-52519139D01*
X172231419Y-52500000D01*
X172143708Y-52463669D01*
X172000000Y-52444750D01*
X171856291Y-52463669D01*
X171722376Y-52519138D01*
X171607379Y-52607379D01*
X171519138Y-52722376D01*
X171463669Y-52856291D01*
X171444750Y-53000000D01*
X171463669Y-53143708D01*
X171519138Y-53277623D01*
X171519140Y-53277628D01*
X171534207Y-53297262D01*
X171549500Y-53342311D01*
X171549500Y-54996808D01*
X171573712Y-55087172D01*
X171580200Y-55111383D01*
X171580203Y-55111391D01*
X171639508Y-55214110D01*
X171639509Y-55214111D01*
X171639511Y-55214114D01*
X172864794Y-56439397D01*
X173501897Y-57076500D01*
X173522938Y-57119165D01*
X173526169Y-57143708D01*
X173569029Y-57247182D01*
X173569029Y-57303819D01*
X173528980Y-57343867D01*
X173500662Y-57349500D01*
X172865783Y-57349500D01*
X172813457Y-57327826D01*
X166543563Y-51057932D01*
X166521889Y-51005606D01*
X166543563Y-50953280D01*
X166581452Y-50933028D01*
X166677251Y-50913973D01*
X166850231Y-50842322D01*
X167005908Y-50738302D01*
X167138302Y-50605908D01*
X167242322Y-50450231D01*
X167313973Y-50277251D01*
X167350500Y-50093616D01*
X167350500Y-49906384D01*
X167313973Y-49722749D01*
X167242322Y-49549769D01*
X167138302Y-49394092D01*
X167005908Y-49261698D01*
X166850231Y-49157678D01*
X166850228Y-49157676D01*
X166850227Y-49157676D01*
X166677251Y-49086027D01*
X166677244Y-49086025D01*
X166523775Y-49055499D01*
X166493616Y-49049500D01*
X166306384Y-49049500D01*
X166276225Y-49055499D01*
X166122755Y-49086025D01*
X166122748Y-49086027D01*
X165949772Y-49157676D01*
X165794092Y-49261697D01*
X165794091Y-49261699D01*
X165661699Y-49394091D01*
X165661697Y-49394092D01*
X165557676Y-49549772D01*
X165486027Y-49722748D01*
X165486025Y-49722755D01*
X165449500Y-49906384D01*
X165449500Y-50093615D01*
X165486025Y-50277244D01*
X165486027Y-50277251D01*
X165555407Y-50444750D01*
X165557678Y-50450231D01*
X165590933Y-50500000D01*
X165661697Y-50605907D01*
X165778964Y-50723174D01*
X165800638Y-50775500D01*
X165778964Y-50827826D01*
X165726638Y-50849500D01*
X160517255Y-50849500D01*
X160464929Y-50827826D01*
X158560601Y-48923498D01*
X158539560Y-48880829D01*
X158536330Y-48856294D01*
X158536330Y-48856291D01*
X158480861Y-48722375D01*
X158392621Y-48607379D01*
X158277625Y-48519139D01*
X158277623Y-48519138D01*
X158143708Y-48463669D01*
X158000000Y-48444750D01*
X157856291Y-48463669D01*
X157722376Y-48519138D01*
X157607379Y-48607379D01*
X157519138Y-48722376D01*
X157463669Y-48856291D01*
X157444750Y-49000000D01*
X136637103Y-49000000D01*
X134864229Y-47227126D01*
X166899500Y-47227126D01*
X166899500Y-48772873D01*
X166905909Y-48832485D01*
X166956202Y-48967329D01*
X166956203Y-48967330D01*
X166956204Y-48967331D01*
X167042454Y-49082546D01*
X167142815Y-49157676D01*
X167157669Y-49168796D01*
X167157670Y-49168797D01*
X167268605Y-49210172D01*
X167292517Y-49219091D01*
X167352127Y-49225500D01*
X168647872Y-49225499D01*
X168707483Y-49219091D01*
X168774907Y-49193943D01*
X168842329Y-49168797D01*
X168842329Y-49168796D01*
X168842331Y-49168796D01*
X168957546Y-49082546D01*
X169043796Y-48967331D01*
X169053771Y-48940588D01*
X169082136Y-48864535D01*
X169094091Y-48832483D01*
X169100500Y-48772873D01*
X169100499Y-47788388D01*
X169399500Y-47788388D01*
X169399500Y-48211611D01*
X169426597Y-48382698D01*
X169426600Y-48382711D01*
X169480125Y-48547442D01*
X169480127Y-48547446D01*
X169558767Y-48701787D01*
X169653726Y-48832487D01*
X169660586Y-48841928D01*
X169783072Y-48964414D01*
X169783075Y-48964416D01*
X169783076Y-48964417D01*
X169923212Y-49066232D01*
X170077553Y-49144872D01*
X170077557Y-49144874D01*
X170242288Y-49198399D01*
X170242294Y-49198400D01*
X170242299Y-49198402D01*
X170356359Y-49216467D01*
X170413388Y-49225500D01*
X170413389Y-49225500D01*
X170586612Y-49225500D01*
X170629383Y-49218725D01*
X170757701Y-49198402D01*
X170757708Y-49198399D01*
X170757711Y-49198399D01*
X170922442Y-49144874D01*
X170922442Y-49144873D01*
X170922445Y-49144873D01*
X171076788Y-49066232D01*
X171216928Y-48964414D01*
X171339414Y-48841928D01*
X171441232Y-48701788D01*
X171519873Y-48547445D01*
X171546404Y-48465792D01*
X171573399Y-48382711D01*
X171573399Y-48382708D01*
X171573402Y-48382701D01*
X171600500Y-48211611D01*
X171600500Y-47788389D01*
X171600500Y-47788388D01*
X171899500Y-47788388D01*
X171899500Y-48211611D01*
X171926597Y-48382698D01*
X171926600Y-48382711D01*
X171980125Y-48547442D01*
X171980127Y-48547446D01*
X172058767Y-48701787D01*
X172153726Y-48832487D01*
X172160586Y-48841928D01*
X172283072Y-48964414D01*
X172283075Y-48964416D01*
X172283076Y-48964417D01*
X172423212Y-49066232D01*
X172577553Y-49144872D01*
X172577557Y-49144874D01*
X172742288Y-49198399D01*
X172742294Y-49198400D01*
X172742299Y-49198402D01*
X172856359Y-49216467D01*
X172913388Y-49225500D01*
X172913389Y-49225500D01*
X173086612Y-49225500D01*
X173129383Y-49218725D01*
X173257701Y-49198402D01*
X173257708Y-49198399D01*
X173257711Y-49198399D01*
X173422442Y-49144874D01*
X173422442Y-49144873D01*
X173422445Y-49144873D01*
X173576788Y-49066232D01*
X173716928Y-48964414D01*
X173839414Y-48841928D01*
X173941232Y-48701788D01*
X174019873Y-48547445D01*
X174046404Y-48465792D01*
X174073399Y-48382711D01*
X174073399Y-48382708D01*
X174073402Y-48382701D01*
X174100500Y-48211611D01*
X174100500Y-47788389D01*
X174100500Y-47788388D01*
X174399500Y-47788388D01*
X174399500Y-48211611D01*
X174426597Y-48382698D01*
X174426600Y-48382711D01*
X174480125Y-48547442D01*
X174480127Y-48547446D01*
X174558767Y-48701787D01*
X174653726Y-48832487D01*
X174660586Y-48841928D01*
X174783072Y-48964414D01*
X174783075Y-48964416D01*
X174783076Y-48964417D01*
X174923212Y-49066232D01*
X175077553Y-49144872D01*
X175077557Y-49144874D01*
X175242288Y-49198399D01*
X175242294Y-49198400D01*
X175242299Y-49198402D01*
X175356359Y-49216467D01*
X175413388Y-49225500D01*
X175413389Y-49225500D01*
X175586612Y-49225500D01*
X175629383Y-49218725D01*
X175757701Y-49198402D01*
X175757708Y-49198399D01*
X175757711Y-49198399D01*
X175922442Y-49144874D01*
X175922442Y-49144873D01*
X175922445Y-49144873D01*
X176076788Y-49066232D01*
X176216928Y-48964414D01*
X176339414Y-48841928D01*
X176441232Y-48701788D01*
X176519873Y-48547445D01*
X176546404Y-48465792D01*
X176573399Y-48382711D01*
X176573399Y-48382708D01*
X176573402Y-48382701D01*
X176600500Y-48211611D01*
X176600500Y-47788389D01*
X176597838Y-47771584D01*
X176950000Y-47771584D01*
X176950000Y-47825000D01*
X177555135Y-47825000D01*
X177525000Y-47937465D01*
X177525000Y-48062535D01*
X177555135Y-48175000D01*
X176950000Y-48175000D01*
X176950000Y-48228415D01*
X176990348Y-48431267D01*
X176990350Y-48431274D01*
X177069500Y-48622358D01*
X177184410Y-48794335D01*
X177330664Y-48940589D01*
X177502641Y-49055499D01*
X177693725Y-49134649D01*
X177693732Y-49134651D01*
X177824999Y-49160761D01*
X177825000Y-49160761D01*
X177825000Y-48444865D01*
X177937465Y-48475000D01*
X178062535Y-48475000D01*
X178175000Y-48444865D01*
X178175000Y-49160761D01*
X178306267Y-49134651D01*
X178306274Y-49134649D01*
X178497358Y-49055499D01*
X178669335Y-48940589D01*
X178669337Y-48940588D01*
X178815588Y-48794337D01*
X178815589Y-48794335D01*
X178930499Y-48622358D01*
X179009649Y-48431274D01*
X179009651Y-48431267D01*
X179050000Y-48228415D01*
X179050000Y-48175000D01*
X178444865Y-48175000D01*
X178475000Y-48062535D01*
X178475000Y-47937465D01*
X178457501Y-47872157D01*
X184049500Y-47872157D01*
X184049500Y-48127843D01*
X184056807Y-48183343D01*
X184082873Y-48381338D01*
X184149049Y-48628309D01*
X184149051Y-48628316D01*
X184246892Y-48864526D01*
X184246895Y-48864534D01*
X184374736Y-49085961D01*
X184374740Y-49085967D01*
X184476890Y-49219091D01*
X184530390Y-49288813D01*
X184711187Y-49469610D01*
X184750792Y-49500000D01*
X184890730Y-49607379D01*
X184914035Y-49625261D01*
X185135465Y-49753104D01*
X185371687Y-49850950D01*
X185618660Y-49917126D01*
X185872157Y-49950500D01*
X185872159Y-49950500D01*
X186127841Y-49950500D01*
X186127843Y-49950500D01*
X186381340Y-49917126D01*
X186628313Y-49850950D01*
X186864535Y-49753104D01*
X187085965Y-49625261D01*
X187288813Y-49469610D01*
X187469610Y-49288813D01*
X187625261Y-49085965D01*
X187753104Y-48864535D01*
X187850950Y-48628313D01*
X187917126Y-48381340D01*
X187950500Y-48127843D01*
X187950500Y-47872157D01*
X187917126Y-47618660D01*
X187850950Y-47371687D01*
X187753104Y-47135465D01*
X187636654Y-46933768D01*
X187625263Y-46914038D01*
X187625259Y-46914032D01*
X187469609Y-46711186D01*
X187288813Y-46530390D01*
X187085967Y-46374740D01*
X187085961Y-46374736D01*
X186864534Y-46246895D01*
X186864526Y-46246892D01*
X186628316Y-46149051D01*
X186628314Y-46149050D01*
X186628313Y-46149050D01*
X186595222Y-46140183D01*
X186381338Y-46082873D01*
X186194589Y-46058287D01*
X186127843Y-46049500D01*
X185872157Y-46049500D01*
X185813176Y-46057265D01*
X185618661Y-46082873D01*
X185371690Y-46149049D01*
X185371683Y-46149051D01*
X185135473Y-46246892D01*
X185135465Y-46246895D01*
X184914038Y-46374736D01*
X184914032Y-46374740D01*
X184711186Y-46530390D01*
X184530390Y-46711186D01*
X184374740Y-46914032D01*
X184374736Y-46914038D01*
X184246895Y-47135465D01*
X184246892Y-47135473D01*
X184149051Y-47371683D01*
X184149049Y-47371690D01*
X184082873Y-47618661D01*
X184060528Y-47788389D01*
X184049500Y-47872157D01*
X178457501Y-47872157D01*
X178444865Y-47825000D01*
X179050000Y-47825000D01*
X179050000Y-47771584D01*
X179009651Y-47568732D01*
X179009649Y-47568725D01*
X178930499Y-47377641D01*
X178815589Y-47205664D01*
X178669335Y-47059410D01*
X178497358Y-46944500D01*
X178306274Y-46865350D01*
X178306268Y-46865348D01*
X178175000Y-46839238D01*
X178175000Y-47555134D01*
X178062535Y-47525000D01*
X177937465Y-47525000D01*
X177825000Y-47555134D01*
X177825000Y-46839238D01*
X177824999Y-46839238D01*
X177693731Y-46865348D01*
X177693725Y-46865350D01*
X177502641Y-46944500D01*
X177330664Y-47059410D01*
X177330663Y-47059412D01*
X177184412Y-47205663D01*
X177184410Y-47205664D01*
X177069500Y-47377641D01*
X176990350Y-47568725D01*
X176990348Y-47568732D01*
X176950000Y-47771584D01*
X176597838Y-47771584D01*
X176573402Y-47617299D01*
X176573400Y-47617294D01*
X176573399Y-47617288D01*
X176519874Y-47452557D01*
X176519872Y-47452553D01*
X176441232Y-47298212D01*
X176339417Y-47158076D01*
X176339416Y-47158075D01*
X176339414Y-47158072D01*
X176216928Y-47035586D01*
X176216925Y-47035583D01*
X176216923Y-47035582D01*
X176076787Y-46933767D01*
X175922446Y-46855127D01*
X175922442Y-46855125D01*
X175757711Y-46801600D01*
X175757698Y-46801597D01*
X175586612Y-46774500D01*
X175586611Y-46774500D01*
X175413389Y-46774500D01*
X175413388Y-46774500D01*
X175242301Y-46801597D01*
X175242288Y-46801600D01*
X175077557Y-46855125D01*
X175077553Y-46855127D01*
X174923212Y-46933767D01*
X174783076Y-47035582D01*
X174660582Y-47158076D01*
X174558767Y-47298212D01*
X174480127Y-47452553D01*
X174480125Y-47452557D01*
X174426600Y-47617288D01*
X174426597Y-47617301D01*
X174399500Y-47788388D01*
X174100500Y-47788388D01*
X174073402Y-47617299D01*
X174073400Y-47617294D01*
X174073399Y-47617288D01*
X174019874Y-47452557D01*
X174019872Y-47452553D01*
X173941232Y-47298212D01*
X173839417Y-47158076D01*
X173839416Y-47158075D01*
X173839414Y-47158072D01*
X173716928Y-47035586D01*
X173716925Y-47035583D01*
X173716923Y-47035582D01*
X173576787Y-46933767D01*
X173422446Y-46855127D01*
X173422442Y-46855125D01*
X173257711Y-46801600D01*
X173257698Y-46801597D01*
X173086612Y-46774500D01*
X173086611Y-46774500D01*
X172913389Y-46774500D01*
X172913388Y-46774500D01*
X172742301Y-46801597D01*
X172742288Y-46801600D01*
X172577557Y-46855125D01*
X172577553Y-46855127D01*
X172423212Y-46933767D01*
X172283076Y-47035582D01*
X172160582Y-47158076D01*
X172058767Y-47298212D01*
X171980127Y-47452553D01*
X171980125Y-47452557D01*
X171926600Y-47617288D01*
X171926597Y-47617301D01*
X171899500Y-47788388D01*
X171600500Y-47788388D01*
X171573402Y-47617299D01*
X171573400Y-47617294D01*
X171573399Y-47617288D01*
X171519874Y-47452557D01*
X171519872Y-47452553D01*
X171441232Y-47298212D01*
X171339417Y-47158076D01*
X171339416Y-47158075D01*
X171339414Y-47158072D01*
X171216928Y-47035586D01*
X171216925Y-47035583D01*
X171216923Y-47035582D01*
X171076787Y-46933767D01*
X170922446Y-46855127D01*
X170922442Y-46855125D01*
X170757711Y-46801600D01*
X170757698Y-46801597D01*
X170586612Y-46774500D01*
X170586611Y-46774500D01*
X170413389Y-46774500D01*
X170413388Y-46774500D01*
X170242301Y-46801597D01*
X170242288Y-46801600D01*
X170077557Y-46855125D01*
X170077553Y-46855127D01*
X169923212Y-46933767D01*
X169783076Y-47035582D01*
X169660582Y-47158076D01*
X169558767Y-47298212D01*
X169480127Y-47452553D01*
X169480125Y-47452557D01*
X169426600Y-47617288D01*
X169426597Y-47617301D01*
X169399500Y-47788388D01*
X169100499Y-47788388D01*
X169100499Y-47227128D01*
X169094091Y-47167517D01*
X169090568Y-47158072D01*
X169043797Y-47032670D01*
X169043796Y-47032669D01*
X168957546Y-46917454D01*
X168842331Y-46831204D01*
X168842330Y-46831203D01*
X168842329Y-46831202D01*
X168707487Y-46780910D01*
X168707484Y-46780909D01*
X168707483Y-46780909D01*
X168647873Y-46774500D01*
X167352126Y-46774500D01*
X167292514Y-46780909D01*
X167157670Y-46831202D01*
X167157669Y-46831203D01*
X167042454Y-46917454D01*
X166956203Y-47032669D01*
X166956202Y-47032670D01*
X166905910Y-47167512D01*
X166905909Y-47167517D01*
X166899500Y-47227126D01*
X134864229Y-47227126D01*
X133276614Y-45639511D01*
X133276611Y-45639509D01*
X133276610Y-45639508D01*
X133173891Y-45580203D01*
X133173889Y-45580202D01*
X133173887Y-45580201D01*
X133172585Y-45579852D01*
X133149674Y-45573712D01*
X133149674Y-45573713D01*
X133059309Y-45549500D01*
X120342312Y-45549500D01*
X120297264Y-45534208D01*
X120277627Y-45519140D01*
X120277623Y-45519138D01*
X120143708Y-45463669D01*
X120000000Y-45444750D01*
X119856291Y-45463669D01*
X119722376Y-45519138D01*
X119607379Y-45607379D01*
X119519138Y-45722376D01*
X119463669Y-45856291D01*
X119444750Y-46000000D01*
X103200558Y-46000000D01*
X103200616Y-45997934D01*
X103202740Y-45960118D01*
X103217870Y-45690688D01*
X103218800Y-45682450D01*
X103269994Y-45381140D01*
X103271833Y-45373080D01*
X103356453Y-45079361D01*
X103359183Y-45071558D01*
X103476150Y-44789175D01*
X103479743Y-44781713D01*
X103627590Y-44514204D01*
X103631991Y-44507199D01*
X103808875Y-44257904D01*
X103814020Y-44251453D01*
X104017690Y-44023548D01*
X104023553Y-44017686D01*
X104251453Y-43814020D01*
X104257904Y-43808875D01*
X104507199Y-43631991D01*
X104514204Y-43627590D01*
X104781713Y-43479743D01*
X104789175Y-43476150D01*
X105071558Y-43359183D01*
X105079361Y-43356453D01*
X105373080Y-43271833D01*
X105381140Y-43269994D01*
X105682458Y-43218799D01*
X105690688Y-43217870D01*
X105997934Y-43200615D01*
X106002083Y-43200500D01*
X106039882Y-43200500D01*
X187960118Y-43200500D01*
X187997917Y-43200500D01*
X188002065Y-43200615D01*
G37*
%TD.AperFunction*%
%TD*%
M02*
