M48
; DRILL file {KiCad 8.0.2} date 2024-12-26T16:34:47-0500
; FORMAT={-:-/ absolute / metric / decimal}
; #@! TF.CreationDate,2024-12-26T16:34:47-05:00
; #@! TF.GenerationSoftware,Kicad,Pcbnew,8.0.2
; #@! TF.FileFunction,Plated,1,4,PTH
FMAT,2
METRIC
; #@! TA.AperFunction,Plated,PTH,ViaDrill
T1C0.250
; #@! TA.AperFunction,Plated,PTH,ViaDrill
T2C0.300
; #@! TA.AperFunction,Plated,PTH,ComponentDrill
T3C0.950
; #@! TA.AperFunction,Plated,PTH,ComponentDrill
T4C1.000
; #@! TA.AperFunction,Plated,PTH,ComponentDrill
T5C1.300
%
G90
G05
T1
X110.0Y-73.0
X116.0Y-48.0
X121.0Y-80.0
X121.0Y-82.0
X122.0Y-68.0
X122.0Y-70.0
X122.0Y-72.0
X122.0Y-79.0
X124.0Y-56.0
X124.0Y-77.0
X126.0Y-56.0
X128.0Y-56.0
X128.0Y-64.0
X128.0Y-67.0
X128.0Y-72.0
X128.0Y-76.0
X128.0Y-78.0
X128.0Y-80.0
X128.0Y-82.0
X128.0Y-84.0
X128.0Y-88.0
X129.0Y-65.0
X130.0Y-56.0
X130.0Y-58.0
X130.0Y-62.0
X130.0Y-64.0
X131.0Y-51.0
X132.0Y-47.0
X132.0Y-55.0
X132.0Y-57.0
X132.0Y-59.0
X132.0Y-61.0
X132.0Y-63.0
X132.0Y-69.0
X132.0Y-73.0
X132.0Y-75.0
X132.0Y-77.0
X132.0Y-79.0
X136.0Y-54.0
X136.0Y-56.0
X136.0Y-60.0
X136.0Y-68.0
X136.0Y-72.0
X136.0Y-74.0
X136.0Y-76.0
X136.0Y-78.0
X136.0Y-80.0
X140.0Y-57.0
X140.0Y-61.0
X140.0Y-65.0
X140.0Y-71.0
X140.0Y-73.0
X140.0Y-75.0
X140.0Y-77.0
X140.0Y-79.0
X140.0Y-83.0
X140.0Y-85.0
X140.0Y-87.0
X140.0Y-89.0
X143.0Y-52.0
X144.0Y-56.0
X144.0Y-60.0
X144.0Y-64.0
X144.0Y-78.0
X148.0Y-57.0
X148.0Y-59.0
X148.0Y-65.0
X148.0Y-67.0
X148.0Y-69.0
X148.0Y-71.0
X148.0Y-73.0
X148.0Y-87.0
X148.0Y-89.0
X152.0Y-84.0
X152.0Y-86.0
X152.0Y-88.0
X153.0Y-62.0
X154.0Y-57.5
X154.0Y-60.0
X155.0Y-63.0
X156.0Y-59.5
X156.5Y-62.5
X158.0Y-49.0
X158.0Y-50.0
X158.0Y-51.0
X158.0Y-52.0
X158.0Y-53.0
X158.0Y-66.0
X158.0Y-68.0
X158.0Y-70.0
X158.0Y-72.0
X158.5Y-62.0
X159.0Y-65.0
X160.5Y-64.0
X161.0Y-67.0
X162.0Y-73.0
X165.0Y-63.0
X166.0Y-74.0
T2
X104.0Y-48.0
X104.0Y-50.0
X104.0Y-52.0
X104.0Y-54.0
X104.0Y-56.0
X104.0Y-58.0
X104.0Y-60.0
X104.0Y-62.0
X104.0Y-64.0
X104.0Y-72.0
X104.0Y-74.0
X104.0Y-76.0
X104.0Y-78.0
X104.0Y-80.0
X104.0Y-82.0
X104.0Y-84.0
X104.0Y-86.0
X104.0Y-88.0
X104.3Y-46.42
X104.31Y-89.52
X105.172Y-45.172
X105.172Y-90.828
X106.42Y-91.7
X106.48Y-44.31
X108.0Y-44.0
X108.0Y-53.0
X108.0Y-55.0
X108.0Y-57.0
X108.0Y-59.0
X108.0Y-61.0
X108.0Y-71.0
X108.0Y-73.0
X108.0Y-75.0
X108.0Y-77.0
X108.0Y-79.0
X108.0Y-81.0
X108.0Y-83.0
X108.0Y-92.0
X110.0Y-44.0
X110.0Y-92.0
X112.0Y-44.0
X112.0Y-46.0
X112.0Y-48.0
X112.0Y-50.0
X112.0Y-52.0
X112.0Y-54.0
X112.0Y-56.0
X112.0Y-58.0
X112.0Y-74.0
X112.0Y-76.0
X112.0Y-78.0
X112.0Y-80.0
X112.0Y-82.0
X112.0Y-84.0
X112.0Y-86.0
X112.0Y-88.0
X112.0Y-90.0
X112.0Y-92.0
X113.0Y-51.0
X113.0Y-55.0
X113.0Y-59.0
X113.0Y-73.25
X114.0Y-44.0
X114.0Y-47.0
X114.0Y-49.0
X114.0Y-92.0
X116.0Y-44.0
X116.0Y-73.25
X116.0Y-75.0
X116.0Y-77.0
X116.0Y-79.0
X116.0Y-81.0
X116.0Y-92.0
X117.0Y-83.0
X118.0Y-44.0
X118.0Y-92.0
X119.0Y-73.25
X120.0Y-44.0
X120.0Y-46.0
X120.0Y-48.0
X120.0Y-57.05
X120.0Y-74.0
X120.0Y-90.0
X120.0Y-92.0
X122.0Y-44.0
X122.0Y-51.0
X122.0Y-92.0
X124.0Y-44.0
X124.0Y-69.0
X124.0Y-71.0
X124.0Y-92.0
X125.0Y-49.0
X126.0Y-44.0
X126.0Y-68.0
X126.0Y-92.0
X128.0Y-44.0
X128.0Y-62.0
X128.0Y-90.0
X128.0Y-92.0
X130.0Y-44.0
X130.0Y-60.0
X130.0Y-92.0
X132.0Y-44.0
X132.0Y-92.0
X134.0Y-44.0
X134.0Y-92.0
X136.0Y-44.0
X136.0Y-58.0
X136.0Y-90.0
X136.0Y-92.0
X138.0Y-44.0
X138.0Y-92.0
X140.0Y-55.0
X140.0Y-81.0
X140.0Y-92.0
X141.0Y-44.0
X141.0Y-77.0
X142.0Y-92.0
X144.0Y-44.0
X144.0Y-88.0
X144.0Y-90.0
X144.0Y-92.0
X145.0Y-52.0
X146.0Y-44.0
X146.0Y-53.0
X146.0Y-92.0
X148.0Y-44.0
X148.0Y-92.0
X150.0Y-92.0
X151.0Y-74.0
X151.0Y-80.0
X152.0Y-60.0
X152.0Y-64.0
X152.0Y-66.0
X152.0Y-68.0
X152.0Y-70.0
X152.0Y-72.0
X152.0Y-82.0
X152.0Y-90.0
X152.0Y-92.0
X153.0Y-49.0
X153.0Y-50.0
X153.0Y-51.0
X154.0Y-49.0
X154.0Y-50.0
X154.0Y-51.0
X154.0Y-92.0
X155.0Y-49.0
X155.0Y-50.0
X155.0Y-51.0
X156.0Y-65.0
X156.0Y-69.0
X156.0Y-71.0
X156.0Y-75.0
X156.0Y-77.0
X156.0Y-87.0
X156.0Y-89.0
X156.0Y-92.0
X158.0Y-92.0
X159.5Y-60.5
X160.0Y-44.0
X160.0Y-78.0
X160.0Y-80.0
X160.0Y-88.0
X160.0Y-90.0
X160.0Y-92.0
X161.5Y-60.5
X162.0Y-44.0
X162.0Y-92.0
X162.078Y-58.922
X164.0Y-44.0
X164.0Y-47.0
X164.0Y-66.0
X164.0Y-73.0
X164.0Y-74.0
X164.0Y-87.0
X164.0Y-89.0
X164.0Y-92.0
X166.0Y-44.0
X166.0Y-44.0
X166.0Y-92.0
X167.0Y-80.0
X168.0Y-44.0
X168.0Y-46.0
X168.0Y-52.0
X168.0Y-58.0
X168.0Y-64.0
X168.0Y-82.0
X168.0Y-84.0
X168.0Y-86.0
X168.0Y-88.0
X168.0Y-90.0
X168.0Y-92.0
X170.0Y-44.0
X170.0Y-44.0
X170.0Y-44.0
X170.0Y-92.0
X171.0Y-67.0
X172.0Y-44.0
X172.0Y-44.0
X172.0Y-53.0
X172.0Y-69.0
X172.0Y-73.0
X172.0Y-87.0
X172.0Y-89.0
X172.0Y-92.0
X174.0Y-44.0
X174.0Y-92.0
X174.062Y-57.0
X176.0Y-44.0
X176.0Y-46.0
X176.0Y-50.0
X176.0Y-52.0
X176.0Y-54.0
X176.0Y-56.0
X176.0Y-72.0
X176.0Y-73.0
X176.0Y-76.0
X176.0Y-78.0
X176.0Y-80.0
X176.0Y-81.0
X176.0Y-84.0
X176.0Y-86.0
X176.0Y-88.0
X176.0Y-90.0
X176.0Y-92.0
X178.0Y-44.0
X178.0Y-92.0
X180.0Y-44.0
X180.0Y-47.0
X180.0Y-49.0
X180.0Y-51.0
X180.0Y-53.0
X180.0Y-55.0
X180.0Y-57.0
X180.0Y-61.0
X180.0Y-67.0
X180.0Y-69.0
X180.0Y-71.0
X180.0Y-85.0
X180.0Y-87.0
X180.0Y-89.0
X180.0Y-92.0
X182.0Y-44.0
X182.0Y-92.0
X184.0Y-44.0
X184.0Y-52.0
X184.0Y-54.0
X184.0Y-56.0
X184.0Y-72.0
X184.0Y-76.0
X184.0Y-84.0
X184.0Y-92.0
X186.0Y-44.0
X186.0Y-92.0
X187.0Y-81.0
X187.52Y-91.69
X187.58Y-44.3
X188.828Y-45.172
X188.828Y-90.828
X189.69Y-46.48
X189.7Y-89.58
X190.0Y-48.0
X190.0Y-50.0
X190.0Y-52.0
X190.0Y-54.0
X190.0Y-56.0
X190.0Y-58.0
X190.0Y-60.0
X190.0Y-62.0
X190.0Y-64.0
X190.0Y-66.0
X190.0Y-68.0
X190.0Y-70.0
X190.0Y-72.0
X190.0Y-74.0
X190.0Y-76.0
X190.0Y-78.0
X190.0Y-80.0
X190.0Y-82.0
X190.0Y-84.0
X190.0Y-86.0
X190.0Y-88.0
T3
X116.5Y-88.0
X119.0Y-88.0
X121.5Y-88.0
X124.0Y-88.0
X131.5Y-88.0
X134.0Y-88.0
X136.5Y-88.0
X139.0Y-88.0
X168.0Y-48.0
X170.5Y-48.0
X173.0Y-48.0
X175.5Y-48.0
X178.0Y-48.0
T4
X187.0Y-57.0
X187.0Y-59.54
X187.0Y-62.08
X187.0Y-64.62
X187.0Y-67.16
X187.0Y-69.7
X187.0Y-72.24
T5
X106.1Y-67.1
X106.1Y-71.1
X150.0Y-89.0
X154.0Y-89.0
X166.0Y-89.0
X170.0Y-89.0
M30
