%TF.GenerationSoftware,KiCad,Pcbnew,8.0.2*%
%TF.CreationDate,2024-12-26T16:21:06-05:00*%
%TF.ProjectId,Temp and Humidity Sensor,54656d70-2061-46e6-9420-48756d696469,rev?*%
%TF.SameCoordinates,Original*%
%TF.FileFunction,Copper,L4,Bot*%
%TF.FilePolarity,Positive*%
%FSLAX46Y46*%
G04 Gerber Fmt 4.6, Leading zero omitted, Abs format (unit mm)*
G04 Created by KiCad (PCBNEW 8.0.2) date 2024-12-26 16:21:06*
%MOMM*%
%LPD*%
G01*
G04 APERTURE LIST*
G04 Aperture macros list*
%AMRoundRect*
0 Rectangle with rounded corners*
0 $1 Rounding radius*
0 $2 $3 $4 $5 $6 $7 $8 $9 X,Y pos of 4 corners*
0 Add a 4 corners polygon primitive as box body*
4,1,4,$2,$3,$4,$5,$6,$7,$8,$9,$2,$3,0*
0 Add four circle primitives for the rounded corners*
1,1,$1+$1,$2,$3*
1,1,$1+$1,$4,$5*
1,1,$1+$1,$6,$7*
1,1,$1+$1,$8,$9*
0 Add four rect primitives between the rounded corners*
20,1,$1+$1,$2,$3,$4,$5,0*
20,1,$1+$1,$4,$5,$6,$7,0*
20,1,$1+$1,$6,$7,$8,$9,0*
20,1,$1+$1,$8,$9,$2,$3,0*%
G04 Aperture macros list end*
%TA.AperFunction,ComponentPad*%
%ADD10C,4.400000*%
%TD*%
%TA.AperFunction,ComponentPad*%
%ADD11RoundRect,0.250000X-0.725000X0.600000X-0.725000X-0.600000X0.725000X-0.600000X0.725000X0.600000X0*%
%TD*%
%TA.AperFunction,ComponentPad*%
%ADD12O,1.950000X1.700000*%
%TD*%
%TA.AperFunction,ViaPad*%
%ADD13C,0.600000*%
%TD*%
%TA.AperFunction,Conductor*%
%ADD14C,0.500000*%
%TD*%
G04 APERTURE END LIST*
D10*
%TO.P,H1,1*%
%TO.N,N/C*%
X145000000Y-60000000D03*
%TD*%
%TO.P,H3,1*%
%TO.N,N/C*%
X109000000Y-40000000D03*
%TD*%
%TO.P,H4,1*%
%TO.N,N/C*%
X109000000Y-60000000D03*
%TD*%
D11*
%TO.P,J2,1,Pin_1*%
%TO.N,VIN*%
X142000000Y-46175000D03*
D12*
%TO.P,J2,2,Pin_2*%
%TO.N,/I2C_IN.SDA*%
X142000000Y-48675000D03*
%TO.P,J2,3,Pin_3*%
%TO.N,/I2C_IN.SCL*%
X142000000Y-51175000D03*
%TO.P,J2,4,Pin_4*%
%TO.N,GND*%
X142000000Y-53675000D03*
%TD*%
D10*
%TO.P,H2,1*%
%TO.N,N/C*%
X145000000Y-40000000D03*
%TD*%
D11*
%TO.P,J1,1,Pin_1*%
%TO.N,VIN*%
X111000000Y-46000000D03*
D12*
%TO.P,J1,2,Pin_2*%
%TO.N,/I2C_OUT.SDA*%
X111000000Y-48500000D03*
%TO.P,J1,3,Pin_3*%
%TO.N,/I2C_OUT.SCL*%
X111000000Y-51000000D03*
%TO.P,J1,4,Pin_4*%
%TO.N,GND*%
X111000000Y-53500000D03*
%TD*%
D13*
%TO.N,3V3*%
X134000000Y-53000000D03*
X123000000Y-47000000D03*
X123000000Y-44800000D03*
%TO.N,GND*%
X132000000Y-39000000D03*
X130000000Y-44000000D03*
X115000000Y-41000000D03*
X136000000Y-57000000D03*
X123000000Y-61000000D03*
X125000000Y-47000000D03*
X114000000Y-39000000D03*
X129000000Y-55000000D03*
X127000000Y-57000000D03*
X148000000Y-60000000D03*
X109000000Y-63000000D03*
X117000000Y-61000000D03*
X119000000Y-43000000D03*
X108000000Y-45000000D03*
X113000000Y-59000000D03*
X131000000Y-59000000D03*
X133000000Y-63000000D03*
X106900000Y-62100000D03*
X106000000Y-55000000D03*
X124000000Y-37000000D03*
X120000000Y-61000000D03*
X135000000Y-61000000D03*
X108000000Y-53000000D03*
X139000000Y-63000000D03*
X123000000Y-53000000D03*
X142000000Y-63000000D03*
X117000000Y-39000000D03*
X116000000Y-59000000D03*
X121000000Y-37000000D03*
X146000000Y-51000000D03*
X108000000Y-57000000D03*
X135000000Y-55000000D03*
X126000000Y-44000000D03*
X142000000Y-37000000D03*
X106900000Y-37900000D03*
X129000000Y-61000000D03*
X130000000Y-37000000D03*
X123000000Y-39000000D03*
X139000000Y-37000000D03*
X119000000Y-59000000D03*
X135000000Y-39000000D03*
X130000000Y-57000000D03*
X128000000Y-59000000D03*
X127000000Y-37000000D03*
X112000000Y-57000000D03*
X130000000Y-48000000D03*
X106000000Y-60000000D03*
X137000000Y-59000000D03*
X112000000Y-63000000D03*
X120000000Y-39000000D03*
X121000000Y-51000000D03*
X108000000Y-48000000D03*
X123000000Y-55000000D03*
X115000000Y-63000000D03*
X126000000Y-39000000D03*
X112000000Y-41000000D03*
X141000000Y-61000000D03*
X138000000Y-39000000D03*
X120000000Y-55000000D03*
X114000000Y-55000000D03*
X145000000Y-63000000D03*
X140000000Y-59000000D03*
X106000000Y-40000000D03*
X134000000Y-59000000D03*
X118000000Y-57000000D03*
X146000000Y-44000000D03*
X146000000Y-46000000D03*
X121000000Y-63000000D03*
X147100000Y-62100000D03*
X121000000Y-49000000D03*
X133000000Y-37000000D03*
X115000000Y-37000000D03*
X133000000Y-45000000D03*
X106000000Y-50000000D03*
X106000000Y-45000000D03*
X148000000Y-55000000D03*
X128000000Y-44000000D03*
X126000000Y-55000000D03*
X127000000Y-63000000D03*
X122000000Y-59000000D03*
X148000000Y-50000000D03*
X139000000Y-57000000D03*
X124000000Y-57000000D03*
X146000000Y-54000000D03*
X138000000Y-61000000D03*
X132000000Y-55000000D03*
X109000000Y-37000000D03*
X112000000Y-37000000D03*
X117000000Y-55000000D03*
X114000000Y-61000000D03*
X146000000Y-49000000D03*
X110000000Y-43000000D03*
X136000000Y-63000000D03*
X148000000Y-45000000D03*
X121000000Y-57000000D03*
X118000000Y-63000000D03*
X130000000Y-63000000D03*
X145000000Y-37000000D03*
X126000000Y-61000000D03*
X129000000Y-39000000D03*
X148000000Y-40000000D03*
X115000000Y-57000000D03*
X125000000Y-59000000D03*
X132000000Y-61000000D03*
X113000000Y-43000000D03*
X146000000Y-57000000D03*
X147100000Y-37900000D03*
X118000000Y-37000000D03*
X124000000Y-63000000D03*
X141000000Y-39000000D03*
X136000000Y-37000000D03*
X133000000Y-57000000D03*
%TD*%
D14*
%TO.N,3V3*%
X134000000Y-53000000D02*
X125263604Y-53000000D01*
X125263604Y-53000000D02*
X123000000Y-50736396D01*
X123000000Y-50736396D02*
X123000000Y-47000000D01*
X123000000Y-44800000D02*
X123000000Y-47000000D01*
%TD*%
%TA.AperFunction,Conductor*%
%TO.N,GND*%
G36*
X146002065Y-36200615D02*
G01*
X146309309Y-36217870D01*
X146317543Y-36218799D01*
X146618855Y-36269993D01*
X146626923Y-36271834D01*
X146920633Y-36356451D01*
X146928447Y-36359185D01*
X147210817Y-36476147D01*
X147218293Y-36479747D01*
X147485784Y-36627584D01*
X147492808Y-36631997D01*
X147742086Y-36808869D01*
X147748554Y-36814028D01*
X147901670Y-36950862D01*
X147976446Y-37017686D01*
X147982313Y-37023553D01*
X148065033Y-37116116D01*
X148185969Y-37251443D01*
X148191132Y-37257915D01*
X148346337Y-37476657D01*
X148368000Y-37507188D01*
X148372415Y-37514215D01*
X148520252Y-37781706D01*
X148523852Y-37789182D01*
X148640810Y-38071543D01*
X148643551Y-38079376D01*
X148728162Y-38373065D01*
X148730008Y-38381156D01*
X148781199Y-38682450D01*
X148782129Y-38690696D01*
X148799384Y-38997934D01*
X148799500Y-39002083D01*
X148799500Y-60997916D01*
X148799384Y-61002065D01*
X148782129Y-61309303D01*
X148781199Y-61317549D01*
X148730008Y-61618843D01*
X148728162Y-61626934D01*
X148643551Y-61920623D01*
X148640810Y-61928456D01*
X148523852Y-62210817D01*
X148520252Y-62218293D01*
X148372415Y-62485784D01*
X148368000Y-62492811D01*
X148191138Y-62742076D01*
X148185963Y-62748564D01*
X147982313Y-62976446D01*
X147976446Y-62982313D01*
X147748564Y-63185963D01*
X147742076Y-63191138D01*
X147492811Y-63368000D01*
X147485784Y-63372415D01*
X147218293Y-63520252D01*
X147210817Y-63523852D01*
X146928456Y-63640810D01*
X146920623Y-63643551D01*
X146626934Y-63728162D01*
X146618843Y-63730008D01*
X146317549Y-63781199D01*
X146309303Y-63782129D01*
X146002066Y-63799384D01*
X145997917Y-63799500D01*
X108002083Y-63799500D01*
X107997934Y-63799384D01*
X107690696Y-63782129D01*
X107682450Y-63781199D01*
X107381156Y-63730008D01*
X107373065Y-63728162D01*
X107079376Y-63643551D01*
X107071543Y-63640810D01*
X106789182Y-63523852D01*
X106781706Y-63520252D01*
X106514215Y-63372415D01*
X106507188Y-63368000D01*
X106363715Y-63266201D01*
X106257915Y-63191132D01*
X106251443Y-63185969D01*
X106062260Y-63016904D01*
X106023553Y-62982313D01*
X106017686Y-62976446D01*
X105950862Y-62901670D01*
X105814028Y-62748554D01*
X105808869Y-62742086D01*
X105631997Y-62492808D01*
X105627584Y-62485784D01*
X105610565Y-62454991D01*
X105479747Y-62218293D01*
X105476147Y-62210817D01*
X105450347Y-62148531D01*
X105359185Y-61928447D01*
X105356451Y-61920633D01*
X105271834Y-61626923D01*
X105269993Y-61618855D01*
X105218799Y-61317543D01*
X105217870Y-61309303D01*
X105200616Y-61002065D01*
X105200500Y-60997916D01*
X105200500Y-59999999D01*
X106544655Y-59999999D01*
X106544655Y-60000000D01*
X106564015Y-60307726D01*
X106564018Y-60307749D01*
X106621793Y-60610616D01*
X106621797Y-60610632D01*
X106717074Y-60903864D01*
X106717076Y-60903870D01*
X106848365Y-61182872D01*
X107013580Y-61443211D01*
X107013583Y-61443215D01*
X107013584Y-61443216D01*
X107210131Y-61680799D01*
X107434904Y-61891876D01*
X107684360Y-62073116D01*
X107954565Y-62221663D01*
X108152858Y-62300172D01*
X108241249Y-62335169D01*
X108241253Y-62335171D01*
X108241257Y-62335172D01*
X108539914Y-62411854D01*
X108845828Y-62450500D01*
X108845829Y-62450500D01*
X109154171Y-62450500D01*
X109154172Y-62450500D01*
X109460086Y-62411854D01*
X109758743Y-62335172D01*
X110045435Y-62221663D01*
X110315640Y-62073116D01*
X110565096Y-61891876D01*
X110789869Y-61680799D01*
X110986416Y-61443216D01*
X111151635Y-61182871D01*
X111282922Y-60903873D01*
X111378206Y-60610619D01*
X111435984Y-60307736D01*
X111455345Y-60000000D01*
X111455345Y-59999999D01*
X142544655Y-59999999D01*
X142544655Y-60000000D01*
X142564015Y-60307726D01*
X142564018Y-60307749D01*
X142621793Y-60610616D01*
X142621797Y-60610632D01*
X142717074Y-60903864D01*
X142717076Y-60903870D01*
X142848365Y-61182872D01*
X143013580Y-61443211D01*
X143013583Y-61443215D01*
X143013584Y-61443216D01*
X143210131Y-61680799D01*
X143434904Y-61891876D01*
X143684360Y-62073116D01*
X143954565Y-62221663D01*
X144152858Y-62300172D01*
X144241249Y-62335169D01*
X144241253Y-62335171D01*
X144241257Y-62335172D01*
X144539914Y-62411854D01*
X144845828Y-62450500D01*
X144845829Y-62450500D01*
X145154171Y-62450500D01*
X145154172Y-62450500D01*
X145460086Y-62411854D01*
X145758743Y-62335172D01*
X146045435Y-62221663D01*
X146315640Y-62073116D01*
X146565096Y-61891876D01*
X146789869Y-61680799D01*
X146986416Y-61443216D01*
X147151635Y-61182871D01*
X147282922Y-60903873D01*
X147378206Y-60610619D01*
X147435984Y-60307736D01*
X147455345Y-60000000D01*
X147435984Y-59692264D01*
X147378206Y-59389381D01*
X147378203Y-59389374D01*
X147378202Y-59389367D01*
X147282925Y-59096135D01*
X147282923Y-59096129D01*
X147151634Y-58817127D01*
X146986419Y-58556788D01*
X146789868Y-58319200D01*
X146771757Y-58302193D01*
X146565096Y-58108124D01*
X146565092Y-58108121D01*
X146565091Y-58108120D01*
X146315645Y-57926887D01*
X146045435Y-57778337D01*
X146045428Y-57778334D01*
X145758750Y-57664830D01*
X145758746Y-57664828D01*
X145460086Y-57588146D01*
X145460075Y-57588144D01*
X145154179Y-57549500D01*
X145154172Y-57549500D01*
X144845828Y-57549500D01*
X144845820Y-57549500D01*
X144539924Y-57588144D01*
X144539913Y-57588146D01*
X144241253Y-57664828D01*
X144241249Y-57664830D01*
X143954571Y-57778334D01*
X143954564Y-57778337D01*
X143684354Y-57926887D01*
X143434908Y-58108120D01*
X143210131Y-58319200D01*
X143013580Y-58556788D01*
X142848365Y-58817127D01*
X142717076Y-59096129D01*
X142717074Y-59096135D01*
X142621797Y-59389367D01*
X142621793Y-59389383D01*
X142564018Y-59692250D01*
X142564015Y-59692273D01*
X142544655Y-59999999D01*
X111455345Y-59999999D01*
X111435984Y-59692264D01*
X111378206Y-59389381D01*
X111378203Y-59389374D01*
X111378202Y-59389367D01*
X111282925Y-59096135D01*
X111282923Y-59096129D01*
X111151634Y-58817127D01*
X110986419Y-58556788D01*
X110789868Y-58319200D01*
X110771757Y-58302193D01*
X110565096Y-58108124D01*
X110565092Y-58108121D01*
X110565091Y-58108120D01*
X110315645Y-57926887D01*
X110045435Y-57778337D01*
X110045428Y-57778334D01*
X109758750Y-57664830D01*
X109758746Y-57664828D01*
X109460086Y-57588146D01*
X109460075Y-57588144D01*
X109154179Y-57549500D01*
X109154172Y-57549500D01*
X108845828Y-57549500D01*
X108845820Y-57549500D01*
X108539924Y-57588144D01*
X108539913Y-57588146D01*
X108241253Y-57664828D01*
X108241249Y-57664830D01*
X107954571Y-57778334D01*
X107954564Y-57778337D01*
X107684354Y-57926887D01*
X107434908Y-58108120D01*
X107210131Y-58319200D01*
X107013580Y-58556788D01*
X106848365Y-58817127D01*
X106717076Y-59096129D01*
X106717074Y-59096135D01*
X106621797Y-59389367D01*
X106621793Y-59389383D01*
X106564018Y-59692250D01*
X106564015Y-59692273D01*
X106544655Y-59999999D01*
X105200500Y-59999999D01*
X105200500Y-53250000D01*
X109547769Y-53250000D01*
X110595854Y-53250000D01*
X110557370Y-53316657D01*
X110525000Y-53437465D01*
X110525000Y-53562535D01*
X110557370Y-53683343D01*
X110595854Y-53750000D01*
X109547769Y-53750000D01*
X109558241Y-53816122D01*
X109558244Y-53816136D01*
X109623904Y-54018217D01*
X109623906Y-54018221D01*
X109720375Y-54207550D01*
X109720378Y-54207556D01*
X109845274Y-54379461D01*
X109845283Y-54379471D01*
X109995529Y-54529717D01*
X109995538Y-54529725D01*
X110167443Y-54654621D01*
X110167449Y-54654624D01*
X110356778Y-54751093D01*
X110356782Y-54751095D01*
X110558863Y-54816755D01*
X110558876Y-54816758D01*
X110749998Y-54847029D01*
X110750000Y-54847028D01*
X110750000Y-53904145D01*
X110816657Y-53942630D01*
X110937465Y-53975000D01*
X111062535Y-53975000D01*
X111183343Y-53942630D01*
X111250000Y-53904145D01*
X111250000Y-54847028D01*
X111250001Y-54847029D01*
X111441123Y-54816758D01*
X111441136Y-54816755D01*
X111643217Y-54751095D01*
X111643221Y-54751093D01*
X111832550Y-54654624D01*
X111832556Y-54654621D01*
X112004461Y-54529725D01*
X112004471Y-54529717D01*
X112154717Y-54379471D01*
X112154725Y-54379461D01*
X112279621Y-54207556D01*
X112279624Y-54207550D01*
X112376093Y-54018221D01*
X112376095Y-54018217D01*
X112441755Y-53816136D01*
X112441758Y-53816122D01*
X112452231Y-53750000D01*
X111404146Y-53750000D01*
X111442630Y-53683343D01*
X111475000Y-53562535D01*
X111475000Y-53437465D01*
X111442630Y-53316657D01*
X111404146Y-53250000D01*
X112452230Y-53250000D01*
X112441758Y-53183877D01*
X112441755Y-53183863D01*
X112376095Y-52981782D01*
X112376093Y-52981778D01*
X112279624Y-52792449D01*
X112279621Y-52792443D01*
X112154725Y-52620538D01*
X112154717Y-52620529D01*
X112004471Y-52470283D01*
X112004461Y-52470274D01*
X111832556Y-52345378D01*
X111832550Y-52345375D01*
X111643221Y-52248906D01*
X111643217Y-52248904D01*
X111459489Y-52189208D01*
X111416422Y-52152425D01*
X111411978Y-52095963D01*
X111448761Y-52052896D01*
X111459489Y-52048452D01*
X111547442Y-52019874D01*
X111547442Y-52019873D01*
X111547445Y-52019873D01*
X111701788Y-51941232D01*
X111841928Y-51839414D01*
X111964414Y-51716928D01*
X112066232Y-51576788D01*
X112144873Y-51422445D01*
X112198402Y-51257701D01*
X112225500Y-51086611D01*
X112225500Y-50913389D01*
X112221229Y-50886426D01*
X112212296Y-50830022D01*
X112198402Y-50742299D01*
X112198400Y-50742294D01*
X112198399Y-50742288D01*
X112144874Y-50577557D01*
X112144872Y-50577553D01*
X112066232Y-50423212D01*
X111964417Y-50283076D01*
X111964416Y-50283075D01*
X111964414Y-50283072D01*
X111841928Y-50160586D01*
X111841925Y-50160583D01*
X111841923Y-50160582D01*
X111701787Y-50058767D01*
X111547446Y-49980127D01*
X111547442Y-49980125D01*
X111382711Y-49926600D01*
X111382698Y-49926597D01*
X111211612Y-49899500D01*
X111211611Y-49899500D01*
X110788389Y-49899500D01*
X110788388Y-49899500D01*
X110617301Y-49926597D01*
X110617288Y-49926600D01*
X110452557Y-49980125D01*
X110452553Y-49980127D01*
X110298212Y-50058767D01*
X110158076Y-50160582D01*
X110035582Y-50283076D01*
X109933767Y-50423212D01*
X109855127Y-50577553D01*
X109855125Y-50577557D01*
X109801600Y-50742288D01*
X109801597Y-50742301D01*
X109774500Y-50913388D01*
X109774500Y-51086611D01*
X109801597Y-51257698D01*
X109801600Y-51257711D01*
X109855125Y-51422442D01*
X109855127Y-51422446D01*
X109933767Y-51576787D01*
X109986545Y-51649430D01*
X110035586Y-51716928D01*
X110158072Y-51839414D01*
X110158075Y-51839416D01*
X110158076Y-51839417D01*
X110298212Y-51941232D01*
X110452553Y-52019872D01*
X110452557Y-52019874D01*
X110540510Y-52048452D01*
X110583578Y-52085235D01*
X110588021Y-52141697D01*
X110551238Y-52184765D01*
X110540510Y-52189208D01*
X110356783Y-52248904D01*
X110356778Y-52248906D01*
X110167449Y-52345375D01*
X110167443Y-52345378D01*
X109995538Y-52470274D01*
X109845274Y-52620538D01*
X109720378Y-52792443D01*
X109720375Y-52792449D01*
X109623906Y-52981778D01*
X109623904Y-52981782D01*
X109558244Y-53183863D01*
X109558241Y-53183877D01*
X109547769Y-53250000D01*
X105200500Y-53250000D01*
X105200500Y-48413388D01*
X109774500Y-48413388D01*
X109774500Y-48586611D01*
X109801597Y-48757698D01*
X109801600Y-48757711D01*
X109855125Y-48922442D01*
X109855127Y-48922446D01*
X109933767Y-49076787D01*
X109933768Y-49076788D01*
X110035586Y-49216928D01*
X110158072Y-49339414D01*
X110158075Y-49339416D01*
X110158076Y-49339417D01*
X110298212Y-49441232D01*
X110452553Y-49519872D01*
X110452557Y-49519874D01*
X110617288Y-49573399D01*
X110617294Y-49573400D01*
X110617299Y-49573402D01*
X110731359Y-49591467D01*
X110788388Y-49600500D01*
X110788389Y-49600500D01*
X111211612Y-49600500D01*
X111254383Y-49593725D01*
X111382701Y-49573402D01*
X111382708Y-49573399D01*
X111382711Y-49573399D01*
X111547442Y-49519874D01*
X111547442Y-49519873D01*
X111547445Y-49519873D01*
X111701788Y-49441232D01*
X111841928Y-49339414D01*
X111964414Y-49216928D01*
X112066232Y-49076788D01*
X112144873Y-48922445D01*
X112198402Y-48757701D01*
X112225500Y-48586611D01*
X112225500Y-48413389D01*
X112198402Y-48242299D01*
X112198400Y-48242294D01*
X112198399Y-48242288D01*
X112144874Y-48077557D01*
X112144872Y-48077553D01*
X112066232Y-47923212D01*
X111964417Y-47783076D01*
X111964416Y-47783075D01*
X111964414Y-47783072D01*
X111841928Y-47660586D01*
X111841925Y-47660583D01*
X111841923Y-47660582D01*
X111701787Y-47558767D01*
X111547446Y-47480127D01*
X111547442Y-47480125D01*
X111382711Y-47426600D01*
X111382698Y-47426597D01*
X111211612Y-47399500D01*
X111211611Y-47399500D01*
X110788389Y-47399500D01*
X110788388Y-47399500D01*
X110617301Y-47426597D01*
X110617288Y-47426600D01*
X110452557Y-47480125D01*
X110452553Y-47480127D01*
X110298212Y-47558767D01*
X110158076Y-47660582D01*
X110035582Y-47783076D01*
X109933767Y-47923212D01*
X109855127Y-48077553D01*
X109855125Y-48077557D01*
X109801600Y-48242288D01*
X109801597Y-48242301D01*
X109774500Y-48413388D01*
X105200500Y-48413388D01*
X105200500Y-45352126D01*
X109774500Y-45352126D01*
X109774500Y-46647873D01*
X109780909Y-46707485D01*
X109831202Y-46842329D01*
X109831203Y-46842330D01*
X109831204Y-46842331D01*
X109917454Y-46957546D01*
X110032669Y-47043796D01*
X110032670Y-47043797D01*
X110143605Y-47085172D01*
X110167517Y-47094091D01*
X110227127Y-47100500D01*
X111772872Y-47100499D01*
X111832483Y-47094091D01*
X111899907Y-47068943D01*
X111967329Y-47043797D01*
X111967329Y-47043796D01*
X111967331Y-47043796D01*
X112082546Y-46957546D01*
X112168796Y-46842331D01*
X112176054Y-46822873D01*
X112195853Y-46769788D01*
X112219091Y-46707483D01*
X112225500Y-46647873D01*
X112225499Y-45352128D01*
X112219091Y-45292517D01*
X112200370Y-45242323D01*
X112168797Y-45157670D01*
X112168796Y-45157669D01*
X112148984Y-45131204D01*
X112082546Y-45042454D01*
X111967331Y-44956204D01*
X111967330Y-44956203D01*
X111967329Y-44956202D01*
X111832487Y-44905910D01*
X111832484Y-44905909D01*
X111832483Y-44905909D01*
X111772873Y-44899500D01*
X110227126Y-44899500D01*
X110167514Y-44905909D01*
X110032670Y-44956202D01*
X110032669Y-44956203D01*
X109917454Y-45042454D01*
X109831203Y-45157669D01*
X109831202Y-45157670D01*
X109780910Y-45292512D01*
X109780909Y-45292517D01*
X109774500Y-45352126D01*
X105200500Y-45352126D01*
X105200500Y-44306384D01*
X112049500Y-44306384D01*
X112049500Y-44493616D01*
X112055221Y-44522376D01*
X112086025Y-44677244D01*
X112086027Y-44677251D01*
X112136871Y-44800000D01*
X112157678Y-44850231D01*
X112261698Y-45005908D01*
X112394092Y-45138302D01*
X112549769Y-45242322D01*
X112722749Y-45313973D01*
X112906384Y-45350500D01*
X112906385Y-45350500D01*
X113093615Y-45350500D01*
X113093616Y-45350500D01*
X113277251Y-45313973D01*
X113450231Y-45242322D01*
X113605908Y-45138302D01*
X113738302Y-45005908D01*
X113842322Y-44850231D01*
X113863128Y-44800000D01*
X122444750Y-44800000D01*
X122463669Y-44943706D01*
X122463669Y-44943708D01*
X122463670Y-44943709D01*
X122493867Y-45016613D01*
X122499500Y-45044929D01*
X122499500Y-46755069D01*
X122493867Y-46783387D01*
X122463669Y-46856291D01*
X122444750Y-47000000D01*
X122463669Y-47143706D01*
X122463669Y-47143708D01*
X122463670Y-47143709D01*
X122493867Y-47216613D01*
X122499500Y-47244929D01*
X122499500Y-50802290D01*
X122533606Y-50929577D01*
X122533607Y-50929580D01*
X122533608Y-50929582D01*
X122599500Y-51043710D01*
X124863104Y-53307314D01*
X124956290Y-53400500D01*
X125059265Y-53459953D01*
X125070418Y-53466392D01*
X125197708Y-53500499D01*
X125197709Y-53500500D01*
X125197711Y-53500500D01*
X125197712Y-53500500D01*
X133755070Y-53500500D01*
X133783387Y-53506132D01*
X133856291Y-53536330D01*
X134000000Y-53555250D01*
X134143709Y-53536330D01*
X134277625Y-53480861D01*
X134350424Y-53425000D01*
X140547769Y-53425000D01*
X141595854Y-53425000D01*
X141557370Y-53491657D01*
X141525000Y-53612465D01*
X141525000Y-53737535D01*
X141557370Y-53858343D01*
X141595854Y-53925000D01*
X140547769Y-53925000D01*
X140558241Y-53991122D01*
X140558244Y-53991136D01*
X140623904Y-54193217D01*
X140623906Y-54193221D01*
X140720375Y-54382550D01*
X140720378Y-54382556D01*
X140845274Y-54554461D01*
X140845283Y-54554471D01*
X140995529Y-54704717D01*
X140995538Y-54704725D01*
X141167443Y-54829621D01*
X141167449Y-54829624D01*
X141356778Y-54926093D01*
X141356782Y-54926095D01*
X141558863Y-54991755D01*
X141558876Y-54991758D01*
X141749998Y-55022029D01*
X141750000Y-55022028D01*
X141750000Y-54079145D01*
X141816657Y-54117630D01*
X141937465Y-54150000D01*
X142062535Y-54150000D01*
X142183343Y-54117630D01*
X142250000Y-54079145D01*
X142250000Y-55022028D01*
X142250001Y-55022029D01*
X142441123Y-54991758D01*
X142441136Y-54991755D01*
X142643217Y-54926095D01*
X142643221Y-54926093D01*
X142832550Y-54829624D01*
X142832556Y-54829621D01*
X143004461Y-54704725D01*
X143004471Y-54704717D01*
X143154717Y-54554471D01*
X143154725Y-54554461D01*
X143279621Y-54382556D01*
X143279624Y-54382550D01*
X143376093Y-54193221D01*
X143376095Y-54193217D01*
X143441755Y-53991136D01*
X143441758Y-53991122D01*
X143452231Y-53925000D01*
X142404146Y-53925000D01*
X142442630Y-53858343D01*
X142475000Y-53737535D01*
X142475000Y-53612465D01*
X142442630Y-53491657D01*
X142404146Y-53425000D01*
X143452230Y-53425000D01*
X143441758Y-53358877D01*
X143441755Y-53358863D01*
X143376095Y-53156782D01*
X143376093Y-53156778D01*
X143279624Y-52967449D01*
X143279621Y-52967443D01*
X143154725Y-52795538D01*
X143154717Y-52795529D01*
X143004471Y-52645283D01*
X143004461Y-52645274D01*
X142832556Y-52520378D01*
X142832550Y-52520375D01*
X142643221Y-52423906D01*
X142643217Y-52423904D01*
X142459489Y-52364208D01*
X142416422Y-52327425D01*
X142411978Y-52270963D01*
X142448761Y-52227896D01*
X142459489Y-52223452D01*
X142547442Y-52194874D01*
X142547442Y-52194873D01*
X142547445Y-52194873D01*
X142701788Y-52116232D01*
X142841928Y-52014414D01*
X142964414Y-51891928D01*
X143066232Y-51751788D01*
X143144873Y-51597445D01*
X143198402Y-51432701D01*
X143225500Y-51261611D01*
X143225500Y-51088389D01*
X143225218Y-51086611D01*
X143205184Y-50960118D01*
X143198402Y-50917299D01*
X143198400Y-50917294D01*
X143198399Y-50917288D01*
X143144874Y-50752557D01*
X143144872Y-50752553D01*
X143066232Y-50598212D01*
X142964417Y-50458076D01*
X142964416Y-50458075D01*
X142964414Y-50458072D01*
X142841928Y-50335586D01*
X142841925Y-50335583D01*
X142841923Y-50335582D01*
X142701787Y-50233767D01*
X142547446Y-50155127D01*
X142547442Y-50155125D01*
X142382711Y-50101600D01*
X142382698Y-50101597D01*
X142211612Y-50074500D01*
X142211611Y-50074500D01*
X141788389Y-50074500D01*
X141788388Y-50074500D01*
X141617301Y-50101597D01*
X141617288Y-50101600D01*
X141452557Y-50155125D01*
X141452553Y-50155127D01*
X141298212Y-50233767D01*
X141158076Y-50335582D01*
X141035582Y-50458076D01*
X140933767Y-50598212D01*
X140855127Y-50752553D01*
X140855125Y-50752557D01*
X140801600Y-50917288D01*
X140801597Y-50917301D01*
X140774500Y-51088388D01*
X140774500Y-51261611D01*
X140801597Y-51432698D01*
X140801600Y-51432711D01*
X140855125Y-51597442D01*
X140855127Y-51597446D01*
X140933767Y-51751787D01*
X140997428Y-51839409D01*
X141035586Y-51891928D01*
X141158072Y-52014414D01*
X141158075Y-52014416D01*
X141158076Y-52014417D01*
X141298212Y-52116232D01*
X141452553Y-52194872D01*
X141452557Y-52194874D01*
X141540510Y-52223452D01*
X141583578Y-52260235D01*
X141588021Y-52316697D01*
X141551238Y-52359765D01*
X141540510Y-52364208D01*
X141356783Y-52423904D01*
X141356778Y-52423906D01*
X141167449Y-52520375D01*
X141167443Y-52520378D01*
X140995538Y-52645274D01*
X140845274Y-52795538D01*
X140720378Y-52967443D01*
X140720375Y-52967449D01*
X140623906Y-53156778D01*
X140623904Y-53156782D01*
X140558244Y-53358863D01*
X140558241Y-53358877D01*
X140547769Y-53425000D01*
X134350424Y-53425000D01*
X134392621Y-53392621D01*
X134480861Y-53277625D01*
X134536330Y-53143709D01*
X134555250Y-53000000D01*
X134536330Y-52856291D01*
X134480861Y-52722375D01*
X134392621Y-52607379D01*
X134277625Y-52519139D01*
X134230212Y-52499500D01*
X134143708Y-52463669D01*
X134000000Y-52444750D01*
X133856291Y-52463669D01*
X133783388Y-52493867D01*
X133755070Y-52499500D01*
X125501570Y-52499500D01*
X125449244Y-52477826D01*
X125298244Y-52326826D01*
X125276570Y-52274500D01*
X125298244Y-52222174D01*
X125350570Y-52200500D01*
X129039881Y-52200500D01*
X129039882Y-52200500D01*
X129113574Y-52169976D01*
X129169976Y-52113574D01*
X129200500Y-52039882D01*
X129200500Y-50960118D01*
X129169976Y-50886426D01*
X129113574Y-50830024D01*
X129113573Y-50830023D01*
X129113571Y-50830022D01*
X129039882Y-50799500D01*
X128639882Y-50799500D01*
X128560118Y-50799500D01*
X128486428Y-50830022D01*
X128430022Y-50886428D01*
X128399500Y-50960116D01*
X128399500Y-51325500D01*
X128377826Y-51377826D01*
X128325500Y-51399500D01*
X125674500Y-51399500D01*
X125622174Y-51377826D01*
X125600500Y-51325500D01*
X125600500Y-50960118D01*
X125600499Y-50960116D01*
X125569977Y-50886428D01*
X125569975Y-50886425D01*
X125513575Y-50830025D01*
X125513571Y-50830022D01*
X125439882Y-50799500D01*
X125039882Y-50799500D01*
X124960118Y-50799500D01*
X124886428Y-50830022D01*
X124830022Y-50886428D01*
X124799500Y-50960116D01*
X124799500Y-51649430D01*
X124777826Y-51701756D01*
X124725500Y-51723430D01*
X124673174Y-51701756D01*
X123522174Y-50550756D01*
X123500500Y-50498430D01*
X123500500Y-47760116D01*
X124799500Y-47760116D01*
X124799500Y-48839883D01*
X124830022Y-48913571D01*
X124830023Y-48913573D01*
X124830024Y-48913574D01*
X124886426Y-48969976D01*
X124960118Y-49000500D01*
X124960119Y-49000500D01*
X125439881Y-49000500D01*
X125439882Y-49000500D01*
X125513574Y-48969976D01*
X125569976Y-48913574D01*
X125600500Y-48839882D01*
X125600500Y-48474500D01*
X125622174Y-48422174D01*
X125674500Y-48400500D01*
X128325500Y-48400500D01*
X128377826Y-48422174D01*
X128399500Y-48474500D01*
X128399500Y-48839883D01*
X128430022Y-48913571D01*
X128430023Y-48913573D01*
X128430024Y-48913574D01*
X128486426Y-48969976D01*
X128560118Y-49000500D01*
X128560119Y-49000500D01*
X129039881Y-49000500D01*
X129039882Y-49000500D01*
X129113574Y-48969976D01*
X129169976Y-48913574D01*
X129200500Y-48839882D01*
X129200500Y-48588388D01*
X140774500Y-48588388D01*
X140774500Y-48761611D01*
X140801597Y-48932698D01*
X140801600Y-48932711D01*
X140855125Y-49097442D01*
X140855127Y-49097446D01*
X140933767Y-49251787D01*
X140997428Y-49339409D01*
X141035586Y-49391928D01*
X141158072Y-49514414D01*
X141158075Y-49514416D01*
X141158076Y-49514417D01*
X141298212Y-49616232D01*
X141452553Y-49694872D01*
X141452557Y-49694874D01*
X141617288Y-49748399D01*
X141617294Y-49748400D01*
X141617299Y-49748402D01*
X141731359Y-49766467D01*
X141788388Y-49775500D01*
X141788389Y-49775500D01*
X142211612Y-49775500D01*
X142254383Y-49768725D01*
X142382701Y-49748402D01*
X142382708Y-49748399D01*
X142382711Y-49748399D01*
X142547442Y-49694874D01*
X142547442Y-49694873D01*
X142547445Y-49694873D01*
X142701788Y-49616232D01*
X142841928Y-49514414D01*
X142964414Y-49391928D01*
X143066232Y-49251788D01*
X143144873Y-49097445D01*
X143198402Y-48932701D01*
X143225500Y-48761611D01*
X143225500Y-48588389D01*
X143225218Y-48586611D01*
X143198402Y-48417301D01*
X143198399Y-48417288D01*
X143144874Y-48252557D01*
X143144872Y-48252553D01*
X143066232Y-48098212D01*
X142964417Y-47958076D01*
X142964416Y-47958075D01*
X142964414Y-47958072D01*
X142841928Y-47835586D01*
X142841925Y-47835583D01*
X142841923Y-47835582D01*
X142701787Y-47733767D01*
X142547446Y-47655127D01*
X142547442Y-47655125D01*
X142382711Y-47601600D01*
X142382698Y-47601597D01*
X142211612Y-47574500D01*
X142211611Y-47574500D01*
X141788389Y-47574500D01*
X141788388Y-47574500D01*
X141617301Y-47601597D01*
X141617288Y-47601600D01*
X141452557Y-47655125D01*
X141452553Y-47655127D01*
X141298212Y-47733767D01*
X141158076Y-47835582D01*
X141035582Y-47958076D01*
X140933767Y-48098212D01*
X140855127Y-48252553D01*
X140855125Y-48252557D01*
X140801600Y-48417288D01*
X140801597Y-48417301D01*
X140774500Y-48588388D01*
X129200500Y-48588388D01*
X129200500Y-47760118D01*
X129169976Y-47686426D01*
X129113574Y-47630024D01*
X129113573Y-47630023D01*
X129113571Y-47630022D01*
X129039882Y-47599500D01*
X125039882Y-47599500D01*
X124960118Y-47599500D01*
X124886428Y-47630022D01*
X124830022Y-47686428D01*
X124799500Y-47760116D01*
X123500500Y-47760116D01*
X123500500Y-47244929D01*
X123506132Y-47216613D01*
X123536330Y-47143709D01*
X123555250Y-47000000D01*
X123536330Y-46856291D01*
X123506133Y-46783387D01*
X123500500Y-46755069D01*
X123500500Y-45527126D01*
X140774500Y-45527126D01*
X140774500Y-46822873D01*
X140780909Y-46882485D01*
X140831202Y-47017329D01*
X140831203Y-47017330D01*
X140831204Y-47017331D01*
X140917454Y-47132546D01*
X141029749Y-47216610D01*
X141032669Y-47218796D01*
X141032670Y-47218797D01*
X141102735Y-47244929D01*
X141167517Y-47269091D01*
X141227127Y-47275500D01*
X142772872Y-47275499D01*
X142832483Y-47269091D01*
X142936726Y-47230211D01*
X142967329Y-47218797D01*
X142967329Y-47218796D01*
X142967331Y-47218796D01*
X143082546Y-47132546D01*
X143168796Y-47017331D01*
X143219091Y-46882483D01*
X143225500Y-46822873D01*
X143225499Y-45527128D01*
X143219091Y-45467517D01*
X143200370Y-45417323D01*
X143168797Y-45332670D01*
X143168796Y-45332669D01*
X143138734Y-45292512D01*
X143082546Y-45217454D01*
X142976813Y-45138302D01*
X142967330Y-45131203D01*
X142967329Y-45131202D01*
X142832487Y-45080910D01*
X142832484Y-45080909D01*
X142832483Y-45080909D01*
X142772873Y-45074500D01*
X141227126Y-45074500D01*
X141167514Y-45080909D01*
X141032670Y-45131202D01*
X141032669Y-45131203D01*
X140917454Y-45217454D01*
X140831203Y-45332669D01*
X140831202Y-45332670D01*
X140780910Y-45467512D01*
X140780909Y-45467517D01*
X140774500Y-45527126D01*
X123500500Y-45527126D01*
X123500500Y-45044929D01*
X123506132Y-45016613D01*
X123536330Y-44943709D01*
X123555250Y-44800000D01*
X123536330Y-44656291D01*
X123480861Y-44522375D01*
X123449407Y-44481384D01*
X139049500Y-44481384D01*
X139049500Y-44668615D01*
X139086025Y-44852244D01*
X139086027Y-44852251D01*
X139149674Y-45005909D01*
X139157678Y-45025231D01*
X139261698Y-45180908D01*
X139394092Y-45313302D01*
X139549769Y-45417322D01*
X139722749Y-45488973D01*
X139906384Y-45525500D01*
X139906385Y-45525500D01*
X140093615Y-45525500D01*
X140093616Y-45525500D01*
X140277251Y-45488973D01*
X140450231Y-45417322D01*
X140605908Y-45313302D01*
X140738302Y-45180908D01*
X140842322Y-45025231D01*
X140913973Y-44852251D01*
X140950500Y-44668616D01*
X140950500Y-44481384D01*
X140913973Y-44297749D01*
X140842322Y-44124769D01*
X140738302Y-43969092D01*
X140605908Y-43836698D01*
X140450231Y-43732678D01*
X140450228Y-43732676D01*
X140450227Y-43732676D01*
X140277251Y-43661027D01*
X140277244Y-43661025D01*
X140138902Y-43633507D01*
X140093616Y-43624500D01*
X139906384Y-43624500D01*
X139870056Y-43631725D01*
X139722755Y-43661025D01*
X139722748Y-43661027D01*
X139549772Y-43732676D01*
X139394092Y-43836697D01*
X139394091Y-43836699D01*
X139261699Y-43969091D01*
X139261697Y-43969092D01*
X139157676Y-44124772D01*
X139086027Y-44297748D01*
X139086025Y-44297755D01*
X139049500Y-44481384D01*
X123449407Y-44481384D01*
X123392621Y-44407379D01*
X123277625Y-44319139D01*
X123277623Y-44319138D01*
X123143708Y-44263669D01*
X123000000Y-44244750D01*
X122856291Y-44263669D01*
X122722376Y-44319138D01*
X122607379Y-44407379D01*
X122519138Y-44522376D01*
X122463669Y-44656291D01*
X122444750Y-44800000D01*
X113863128Y-44800000D01*
X113913973Y-44677251D01*
X113950500Y-44493616D01*
X113950500Y-44306384D01*
X113913973Y-44122749D01*
X113842322Y-43949769D01*
X113738302Y-43794092D01*
X113605908Y-43661698D01*
X113450231Y-43557678D01*
X113450228Y-43557676D01*
X113450227Y-43557676D01*
X113277251Y-43486027D01*
X113277244Y-43486025D01*
X113138902Y-43458507D01*
X113093616Y-43449500D01*
X112906384Y-43449500D01*
X112870056Y-43456725D01*
X112722755Y-43486025D01*
X112722748Y-43486027D01*
X112549772Y-43557676D01*
X112394092Y-43661697D01*
X112394091Y-43661699D01*
X112261699Y-43794091D01*
X112261697Y-43794092D01*
X112157676Y-43949772D01*
X112086027Y-44122748D01*
X112086025Y-44122755D01*
X112057996Y-44263669D01*
X112049500Y-44306384D01*
X105200500Y-44306384D01*
X105200500Y-39999999D01*
X106544655Y-39999999D01*
X106544655Y-40000000D01*
X106564015Y-40307726D01*
X106564018Y-40307749D01*
X106621793Y-40610616D01*
X106621797Y-40610632D01*
X106717074Y-40903864D01*
X106717076Y-40903870D01*
X106848365Y-41182872D01*
X107013580Y-41443211D01*
X107013583Y-41443215D01*
X107013584Y-41443216D01*
X107210131Y-41680799D01*
X107434904Y-41891876D01*
X107684360Y-42073116D01*
X107954565Y-42221663D01*
X108152858Y-42300172D01*
X108241249Y-42335169D01*
X108241253Y-42335171D01*
X108241257Y-42335172D01*
X108539914Y-42411854D01*
X108845828Y-42450500D01*
X108845829Y-42450500D01*
X109154171Y-42450500D01*
X109154172Y-42450500D01*
X109460086Y-42411854D01*
X109758743Y-42335172D01*
X110045435Y-42221663D01*
X110315640Y-42073116D01*
X110565096Y-41891876D01*
X110789869Y-41680799D01*
X110986416Y-41443216D01*
X111151635Y-41182871D01*
X111282922Y-40903873D01*
X111378206Y-40610619D01*
X111435984Y-40307736D01*
X111455345Y-40000000D01*
X111455345Y-39999999D01*
X142544655Y-39999999D01*
X142544655Y-40000000D01*
X142564015Y-40307726D01*
X142564018Y-40307749D01*
X142621793Y-40610616D01*
X142621797Y-40610632D01*
X142717074Y-40903864D01*
X142717076Y-40903870D01*
X142848365Y-41182872D01*
X143013580Y-41443211D01*
X143013583Y-41443215D01*
X143013584Y-41443216D01*
X143210131Y-41680799D01*
X143434904Y-41891876D01*
X143684360Y-42073116D01*
X143954565Y-42221663D01*
X144152858Y-42300172D01*
X144241249Y-42335169D01*
X144241253Y-42335171D01*
X144241257Y-42335172D01*
X144539914Y-42411854D01*
X144845828Y-42450500D01*
X144845829Y-42450500D01*
X145154171Y-42450500D01*
X145154172Y-42450500D01*
X145460086Y-42411854D01*
X145758743Y-42335172D01*
X146045435Y-42221663D01*
X146315640Y-42073116D01*
X146565096Y-41891876D01*
X146789869Y-41680799D01*
X146986416Y-41443216D01*
X147151635Y-41182871D01*
X147282922Y-40903873D01*
X147378206Y-40610619D01*
X147435984Y-40307736D01*
X147455345Y-40000000D01*
X147435984Y-39692264D01*
X147378206Y-39389381D01*
X147378203Y-39389374D01*
X147378202Y-39389367D01*
X147282925Y-39096135D01*
X147282923Y-39096129D01*
X147151634Y-38817127D01*
X146986419Y-38556788D01*
X146837728Y-38377053D01*
X146789869Y-38319201D01*
X146565096Y-38108124D01*
X146565092Y-38108121D01*
X146565091Y-38108120D01*
X146315645Y-37926887D01*
X146045435Y-37778337D01*
X146045428Y-37778334D01*
X145758750Y-37664830D01*
X145758746Y-37664828D01*
X145460086Y-37588146D01*
X145460075Y-37588144D01*
X145154179Y-37549500D01*
X145154172Y-37549500D01*
X144845828Y-37549500D01*
X144845820Y-37549500D01*
X144539924Y-37588144D01*
X144539913Y-37588146D01*
X144241253Y-37664828D01*
X144241249Y-37664830D01*
X143954571Y-37778334D01*
X143954564Y-37778337D01*
X143684354Y-37926887D01*
X143434908Y-38108120D01*
X143210131Y-38319200D01*
X143013580Y-38556788D01*
X142848365Y-38817127D01*
X142717076Y-39096129D01*
X142717074Y-39096135D01*
X142621797Y-39389367D01*
X142621793Y-39389383D01*
X142564018Y-39692250D01*
X142564015Y-39692273D01*
X142544655Y-39999999D01*
X111455345Y-39999999D01*
X111435984Y-39692264D01*
X111378206Y-39389381D01*
X111378203Y-39389374D01*
X111378202Y-39389367D01*
X111282925Y-39096135D01*
X111282923Y-39096129D01*
X111151634Y-38817127D01*
X110986419Y-38556788D01*
X110837728Y-38377053D01*
X110789869Y-38319201D01*
X110565096Y-38108124D01*
X110565092Y-38108121D01*
X110565091Y-38108120D01*
X110315645Y-37926887D01*
X110045435Y-37778337D01*
X110045428Y-37778334D01*
X109758750Y-37664830D01*
X109758746Y-37664828D01*
X109460086Y-37588146D01*
X109460075Y-37588144D01*
X109154179Y-37549500D01*
X109154172Y-37549500D01*
X108845828Y-37549500D01*
X108845820Y-37549500D01*
X108539924Y-37588144D01*
X108539913Y-37588146D01*
X108241253Y-37664828D01*
X108241249Y-37664830D01*
X107954571Y-37778334D01*
X107954564Y-37778337D01*
X107684354Y-37926887D01*
X107434908Y-38108120D01*
X107210131Y-38319200D01*
X107013580Y-38556788D01*
X106848365Y-38817127D01*
X106717076Y-39096129D01*
X106717074Y-39096135D01*
X106621797Y-39389367D01*
X106621793Y-39389383D01*
X106564018Y-39692250D01*
X106564015Y-39692273D01*
X106544655Y-39999999D01*
X105200500Y-39999999D01*
X105200500Y-39002083D01*
X105200616Y-38997934D01*
X105202740Y-38960118D01*
X105217870Y-38690688D01*
X105218800Y-38682450D01*
X105269994Y-38381140D01*
X105271833Y-38373080D01*
X105356453Y-38079361D01*
X105359183Y-38071558D01*
X105476150Y-37789175D01*
X105479743Y-37781713D01*
X105627590Y-37514204D01*
X105631991Y-37507199D01*
X105808875Y-37257904D01*
X105814020Y-37251453D01*
X106017690Y-37023548D01*
X106023553Y-37017686D01*
X106251453Y-36814020D01*
X106257904Y-36808875D01*
X106507199Y-36631991D01*
X106514204Y-36627590D01*
X106781713Y-36479743D01*
X106789175Y-36476150D01*
X107071558Y-36359183D01*
X107079361Y-36356453D01*
X107373080Y-36271833D01*
X107381140Y-36269994D01*
X107682458Y-36218799D01*
X107690688Y-36217870D01*
X107997934Y-36200615D01*
X108002083Y-36200500D01*
X108039882Y-36200500D01*
X145960118Y-36200500D01*
X145997917Y-36200500D01*
X146002065Y-36200615D01*
G37*
%TD.AperFunction*%
%TD*%
M02*
