%TF.GenerationSoftware,KiCad,Pcbnew,8.0.2*%
%TF.CreationDate,2024-12-26T16:21:06-05:00*%
%TF.ProjectId,Temp and Humidity Sensor,54656d70-2061-46e6-9420-48756d696469,rev?*%
%TF.SameCoordinates,Original*%
%TF.FileFunction,Legend,Bot*%
%TF.FilePolarity,Positive*%
%FSLAX46Y46*%
G04 Gerber Fmt 4.6, Leading zero omitted, Abs format (unit mm)*
G04 Created by KiCad (PCBNEW 8.0.2) date 2024-12-26 16:21:06*
%MOMM*%
%LPD*%
G01*
G04 APERTURE LIST*
G04 Aperture macros list*
%AMRoundRect*
0 Rectangle with rounded corners*
0 $1 Rounding radius*
0 $2 $3 $4 $5 $6 $7 $8 $9 X,Y pos of 4 corners*
0 Add a 4 corners polygon primitive as box body*
4,1,4,$2,$3,$4,$5,$6,$7,$8,$9,$2,$3,0*
0 Add four circle primitives for the rounded corners*
1,1,$1+$1,$2,$3*
1,1,$1+$1,$4,$5*
1,1,$1+$1,$6,$7*
1,1,$1+$1,$8,$9*
0 Add four rect primitives between the rounded corners*
20,1,$1+$1,$2,$3,$4,$5,0*
20,1,$1+$1,$4,$5,$6,$7,0*
20,1,$1+$1,$6,$7,$8,$9,0*
20,1,$1+$1,$8,$9,$2,$3,0*%
G04 Aperture macros list end*
%ADD10C,0.120000*%
%ADD11C,4.400000*%
%ADD12C,1.200000*%
%ADD13RoundRect,0.250000X-0.725000X0.600000X-0.725000X-0.600000X0.725000X-0.600000X0.725000X0.600000X0*%
%ADD14O,1.950000X1.700000*%
G04 APERTURE END LIST*
D10*
%TO.C,J1*%
X108250000Y-43150000D02*
X108250000Y-44400000D01*
X108540000Y-43440000D02*
X108540000Y-56060000D01*
X108540000Y-56060000D02*
X114510000Y-56060000D01*
X108550000Y-43450000D02*
X108550000Y-45250000D01*
X108550000Y-45250000D02*
X109300000Y-45250000D01*
X108550000Y-46750000D02*
X108550000Y-52750000D01*
X108550000Y-52750000D02*
X109300000Y-52750000D01*
X108550000Y-54250000D02*
X108550000Y-56050000D01*
X108550000Y-56050000D02*
X109300000Y-56050000D01*
X109300000Y-43450000D02*
X108550000Y-43450000D01*
X109300000Y-45250000D02*
X109300000Y-43450000D01*
X109300000Y-46750000D02*
X108550000Y-46750000D01*
X109300000Y-52750000D02*
X109300000Y-46750000D01*
X109300000Y-54250000D02*
X108550000Y-54250000D01*
X109300000Y-56050000D02*
X109300000Y-54250000D01*
X109500000Y-43150000D02*
X108250000Y-43150000D01*
X110800000Y-44200000D02*
X110800000Y-43450000D01*
X110800000Y-55300000D02*
X110800000Y-56050000D01*
X112140000Y-44200000D02*
X110800000Y-44200000D01*
X113750000Y-45260000D02*
X113750000Y-49750000D01*
X113750000Y-49750000D02*
X113750000Y-55300000D01*
X113750000Y-55300000D02*
X110800000Y-55300000D01*
X114510000Y-43440000D02*
X108540000Y-43440000D01*
X114510000Y-56060000D02*
X114510000Y-43440000D01*
%TD*%
%LPC*%
D11*
%TO.C,H1*%
X145000000Y-60000000D03*
%TD*%
%TO.C,H3*%
X109000000Y-40000000D03*
%TD*%
%TO.C,H4*%
X109000000Y-60000000D03*
%TD*%
D12*
%TO.C,J2*%
X140000000Y-44575000D03*
D13*
X142000000Y-46175000D03*
D14*
X142000000Y-48675000D03*
X142000000Y-51175000D03*
X142000000Y-53675000D03*
%TD*%
D11*
%TO.C,H2*%
X145000000Y-40000000D03*
%TD*%
D12*
%TO.C,J1*%
X113000000Y-44400000D03*
D13*
X111000000Y-46000000D03*
D14*
X111000000Y-48500000D03*
X111000000Y-51000000D03*
X111000000Y-53500000D03*
%TD*%
%LPD*%
M02*
