M48
; DRILL file {KiCad 8.0.2} date 2024-12-26T16:21:02-0500
; FORMAT={-:-/ absolute / metric / decimal}
; #@! TF.CreationDate,2024-12-26T16:21:02-05:00
; #@! TF.GenerationSoftware,Kicad,Pcbnew,8.0.2
; #@! TF.FileFunction,Plated,1,4,PTH
FMAT,2
METRIC
; #@! TA.AperFunction,Plated,PTH,ViaDrill
T1C0.250
; #@! TA.AperFunction,Plated,PTH,ViaDrill
T2C0.300
; #@! TA.AperFunction,Plated,PTH,ComponentDrill
T3C0.950
; #@! TA.AperFunction,Plated,PTH,ComponentDrill
T4C2.200
%
G90
G05
T1
X109.0Y-37.0
X145.0Y-63.0
X148.0Y-40.0
T2
X106.0Y-40.0
X106.0Y-45.0
X106.0Y-50.0
X106.0Y-55.0
X106.0Y-60.0
X106.9Y-37.9
X106.9Y-62.1
X108.0Y-45.0
X108.0Y-48.0
X108.0Y-53.0
X108.0Y-57.0
X109.0Y-63.0
X110.0Y-43.0
X112.0Y-37.0
X112.0Y-41.0
X112.0Y-57.0
X112.0Y-63.0
X113.0Y-43.0
X113.0Y-59.0
X114.0Y-39.0
X114.0Y-55.0
X114.0Y-61.0
X115.0Y-37.0
X115.0Y-41.0
X115.0Y-57.0
X115.0Y-63.0
X116.0Y-59.0
X117.0Y-39.0
X117.0Y-55.0
X117.0Y-61.0
X118.0Y-37.0
X118.0Y-57.0
X118.0Y-63.0
X119.0Y-43.0
X119.0Y-59.0
X120.0Y-39.0
X120.0Y-55.0
X120.0Y-61.0
X121.0Y-37.0
X121.0Y-49.0
X121.0Y-51.0
X121.0Y-57.0
X121.0Y-63.0
X122.0Y-59.0
X123.0Y-39.0
X123.0Y-44.8
X123.0Y-47.0
X123.0Y-53.0
X123.0Y-55.0
X123.0Y-61.0
X124.0Y-37.0
X124.0Y-57.0
X124.0Y-63.0
X125.0Y-47.0
X125.0Y-59.0
X126.0Y-39.0
X126.0Y-44.0
X126.0Y-55.0
X126.0Y-61.0
X127.0Y-37.0
X127.0Y-57.0
X127.0Y-63.0
X128.0Y-44.0
X128.0Y-59.0
X129.0Y-39.0
X129.0Y-55.0
X129.0Y-61.0
X130.0Y-37.0
X130.0Y-44.0
X130.0Y-48.0
X130.0Y-57.0
X130.0Y-63.0
X131.0Y-59.0
X132.0Y-39.0
X132.0Y-55.0
X132.0Y-61.0
X133.0Y-37.0
X133.0Y-45.0
X133.0Y-57.0
X133.0Y-63.0
X134.0Y-53.0
X134.0Y-59.0
X135.0Y-39.0
X135.0Y-55.0
X135.0Y-61.0
X136.0Y-37.0
X136.0Y-57.0
X136.0Y-63.0
X137.0Y-59.0
X138.0Y-39.0
X138.0Y-61.0
X139.0Y-37.0
X139.0Y-57.0
X139.0Y-63.0
X140.0Y-59.0
X141.0Y-39.0
X141.0Y-61.0
X142.0Y-37.0
X142.0Y-63.0
X145.0Y-37.0
X146.0Y-44.0
X146.0Y-46.0
X146.0Y-49.0
X146.0Y-51.0
X146.0Y-54.0
X146.0Y-57.0
X147.1Y-37.9
X147.1Y-62.1
X148.0Y-45.0
X148.0Y-50.0
X148.0Y-55.0
X148.0Y-60.0
T3
X111.0Y-46.0
X111.0Y-48.5
X111.0Y-51.0
X111.0Y-53.5
X142.0Y-46.175
X142.0Y-48.675
X142.0Y-51.175
X142.0Y-53.675
T4
X109.0Y-40.0
X109.0Y-60.0
X145.0Y-40.0
X145.0Y-60.0
M30
